<svg xmlns="http://www.w3.org/2000/svg" xmlns:xlink="http://www.w3.org/1999/xlink" xmlns:lucid="lucid" width="2211.07" height="2508.79"><g transform="translate(-1443.8586615018692 -555.1139363320544)" lucid:page-tab-id="0_0"><path d="M0 0h5291.34v3741.73H0z" fill="#fff"/><path d="M1463.86 581.1a6 6 0 0 1 6-6h453.34a6 6 0 0 1 6 6v2456.8a6 6 0 0 1-6 6h-453.34a6 6 0 0 1-6-6z" fill="#fff" fill-opacity="0"/><path d="M1466.93 575.9l.2-.13.87-.36.92-.2h2m3.98 0h3.98m4 0l3.97-.02m4 0h3.97m4 0h3.97m3.98 0h3.98m4 0h3.97m4 0h3.97m4 0h3.97m4 0h3.97m4 0h3.97m4 0h3.98m3.98 0h4m3.97 0h4m3.97 0h4m3.97 0h4m3.97 0h4m3.97 0h4m3.98-.02h4m3.97 0h4m3.97 0h4m3.97 0h3.98m3.98 0h4m3.97 0h4m3.97 0h4m3.97 0h4m3.97 0h4m3.97 0h4m3.98 0h4m3.97 0h4m3.97 0h3.98m4 0h3.97m4 0h3.97m4 0l3.97-.02m4 0h3.98m4 0h3.97m4 0h3.97m4 0h3.97m3.98 0h3.98m4 0h3.97m4 0h3.97m4 0h3.97m4 0h3.97m4 0h3.97m4 0h3.98m4 0h3.97m4 0h3.97m4 0h3.97m3.98 0h3.98m4-.02h3.97m4 0h3.97m3.98 0h4m3.97 0h4m3.97 0h4m3.97 0h3.98m3.98 0h4m3.97 0h4m3.97 0h2l.93.07.92.2.22.1m3.15 2.7l.12.2.36.86.22.92v2m0 4v4m0 4v4m0 4v4m0 4.02v4m0 4v4m0 4v4m0 4v4.02m0 4v4m0 4v4m0 4v4m0 4.02v4m0 4v4m0 4v4m0 4v4.02m0 4v4m0 4v4m0 4v4m0 4.02v4m0 4v4m0 4v4m0 4v4m0 4.02v4m0 4v4m0 4v4m0 4v4.02m0 4v4m0 4v4m0 4v4m0 4.02v4m0 4v4m0 4v4m0 4v4.02m0 4v4m0 4v4m0 4v4m0 4.02v4m0 4v4m0 4v4m0 4v4.02m0 4v4m0 4v4m0 4v4m0 4.02v4m0 4v4m0 4v4m0 4v4.02m0 4v4m0 4v4m0 4v4m0 4.02v4m0 4v4m0 4v4m0 4v4m0 4.02v4m0 4l.02 4m0 4v4m0 4v4.02m0 4v4m0 4v4m0 4v4m0 4.02v4m0 4v4m0 4v4m0 4v4.02m0 4v4m0 4v4m0 4v4m0 4.02v4m0 4v4m0 4v4m0 4v4.02m0 4v4m0 4v4m0 4v4m0 4.02v4m0 4v4m0 4v4m0 4v4.02m0 4v4m0 4v4m0 4v4m0 4.02v4m0 4v4m0 4v4m0 4v4m0 4.02v4m0 4v4m0 4v4m0 4v4.02m0 4v4m0 4v4m0 4v4m0 4.02v4m0 4v4m0 4v4m0 4v4.02m0 4v4m0 4v4m0 4v4m0 4.02v4m0 4v4m0 4v4m0 4v4.02m0 4v4m0 4v4m0 4v4m0 4.02v4m0 4v4m0 4v4m0 4v4.02m0 4v4m0 4v4m0 4v4m0 4.02v4m0 4v4m0 4v4m0 4v4m0 4.02v4m0 4v4m0 4v4m0 4v4.02m0 4v4m0 4v4m0 4v4m0 4.02v4m0 4v4m0 4v4m0 4v4.02m0 4v4m0 4v4m0 4v4m0 4.02v4m0 4v4m0 4v4m0 4v4.02m0 4v4m0 4v4m0 4l.02 4m0 4.02v4m0 4v4m0 4v4m0 4v4.02m0 4v4m0 4v4m0 4v4m0 4.02v4m0 4v4m0 4v4m0 4v4m0 4.02v4m0 4v4m0 4v4m0 4v4.02m0 4v4m0 4v4m0 4v4m0 4.02v4m0 4v4m0 4v4m0 4v4.02m0 4v4m0 4v4m0 4v4m0 4.02v4m0 4v4m0 4v4m0 4v4.02m0 4v4m0 4v4m0 4v4m0 4.02v4m0 4v4m0 4v4m0 4v4.02m0 4v4m0 4v4m0 4v4m0 4.02v4m0 4v4m0 4v4m0 4v4m0 4.02v4m0 4v4m0 4v4m0 4v4.02m0 4v4m0 4v4m0 4v4m0 4.02v4m0 4v4m0 4v4m0 4v4.02m0 4v4m0 4v4m0 4v4m0 4.02v4m0 4v4m0 4v4m0 4v4.02m0 4v4m0 4v4m0 4v4m0 4.02v4m0 4v4m0 4v4m0 4v4.02m0 4v4m0 4v4m0 4v4m0 4.02v4m0 4v4m0 4v4m0 4v4m0 4.02v4m0 4v4m0 4v4m0 4v4.02m0 4v4m0 4v4m0 4v4m0 4.02l.02 4m0 4v4m0 4v4m0 4v4.02m0 4v4m0 4v4m0 4v4m0 4.02v4m0 4v4m0 4v4m0 4v4.02m0 4v4m0 4v4m0 4v4m0 4.02v4m0 4v4m0 4v4m0 4v4.02m0 4v4m0 4v4m0 4v4m0 4.02v4m0 4v4m0 4v4m0 4v4m0 4.02v4m0 4v4m0 4v4m0 4v4.02m0 4v4m0 4v4m0 4v4m0 4.02v4m0 4v4m0 4v4m0 4v4.02m0 4v4m0 4v4m0 4v4m0 4.02v4m0 4v4m0 4v4m0 4v4.02m0 4v4m0 4v4m0 4v4m0 4.02v4m0 4v4m0 4v4m0 4v4.02m0 4v4m0 4v4m0 4v4m0 4.02v4m0 4v4m0 4v4m0 4v4m0 4.02v4m0 4v4m0 4v4m0 4v4.02m0 4v4m0 4v4m0 4v4m0 4.02v4m0 4v4m0 4v4m0 4v4.02m0 4v4m0 4v4m0 4v4m0 4.02v4m0 4v4m0 4v4m0 4v4.02m0 4v4m0 4v4m0 4v4m0 4.02v4m0 4v4m0 4v4m0 4v4.02m0 4v4m0 4l.02 4m0 4v4m0 4.02v4m0 4v2l-.08.94-.22.92-.1.2m-2.68 3.17l-.2.12-.87.36-.92.23h-2m-3.97 0h-4m-3.97 0h-4m-3.98 0h-4m-3.97 0h-4m-3.97 0h-4m-3.97 0h-3.98m-3.98 0h-4m-3.97 0h-4m-3.97 0h-4m-3.97 0h-4m-3.97 0h-4m-3.97 0h-4m-3.98 0l-3.98.02m-4 0h-3.97m-4 0h-3.97m-4 0h-3.97m-4 0h-3.97m-4 0h-3.97m-4 0h-3.98m-4 0h-3.97m-4 0h-3.97m-4 0h-3.97m-3.98 0h-3.98m-4 0h-3.97m-4 0h-3.97m-4 0h-3.97m-4 0h-3.97m-4 0H1699m-4 .02h-3.98m-4 0h-3.97m-4 0h-3.97m-4 0h-3.97m-3.97 0h-4m-3.97 0h-4m-3.97 0h-4m-3.98 0h-4m-3.97 0h-4m-3.97 0h-4m-3.97 0h-3.98m-3.98 0h-4m-3.97 0h-4m-3.97 0h-4m-3.97 0h-4m-3.97.02h-4m-3.97 0h-4m-3.98 0h-4m-3.97 0h-4m-3.97 0h-4m-3.97 0h-3.98m-3.98 0h-4m-3.97 0h-4m-3.97 0h-4m-3.97 0h-3.98m-4 0h-3.97m-4 0h-3.97m-3.98 0h-3.98m-4 0h-1.98l-.94-.07-.92-.22-.2-.08m-3.16-2.7l-.13-.2-.35-.86-.22-.92v-2m0-4v-4m0-4v-4m0-4v-4.02m0-4v-4m0-4v-4m0-4v-4m0-4.02v-4m0-4v-4m0-4v-4m0-4v-4.02m0-4v-4m0-4v-4m0-4v-4m0-4.02v-4m0-4v-4m0-4v-4m0-4v-4.02m0-4v-4m0-4v-4m0-4v-4m0-4.02v-4m0-4v-4m0-4v-4m0-4v-4.02m0-4v-4m0-4v-4m0-4v-4m0-4.02v-4m0-4v-4m0-4v-4m0-4v-4m0-4.02v-4m0-4v-4m0-4v-4m0-4v-4.02m0-4v-4m0-4v-4m0-4v-4m0-4.02v-4m0-4v-4m0-4v-4m0-4v-4.02m0-4v-4m0-4v-4m0-4v-4m0-4.02v-4m0-4v-4m0-4v-4m0-4v-4.02m0-4v-4m0-4v-4m0-4v-4m0-4.02v-4m0-4v-4m0-4v-4m0-4v-4.02m0-4v-4m0-4v-4m0-4v-4m0-4.02v-4m0-4v-4m0-4v-4m0-4v-4m0-4.02v-4m0-4v-4m0-4v-4m0-4v-4.02m0-4v-4m0-4v-4m0-4v-4m0-4.02v-4m0-4v-4m0-4l-.02-4m0-4v-4.02m0-4v-4m0-4v-4m0-4v-4m0-4.02v-4m0-4v-4m0-4v-4m0-4v-4.02m0-4v-4m0-4v-4m0-4v-4m0-4.02v-4m0-4v-4m0-4v-4m0-4v-4.02m0-4v-4m0-4v-4m0-4v-4m0-4.02v-4m0-4v-4m0-4v-4m0-4v-4m0-4.02v-4m0-4v-4m0-4v-4m0-4v-4.02m0-4v-4m0-4v-4m0-4v-4m0-4.02v-4m0-4v-4m0-4v-4m0-4v-4.02m0-4v-4m0-4v-4m0-4v-4m0-4.02v-4m0-4v-4m0-4v-4m0-4v-4.02m0-4v-4m0-4v-4m0-4v-4m0-4.02v-4m0-4v-4m0-4v-4m0-4v-4.02m0-4v-4m0-4v-4m0-4v-4m0-4.02v-4m0-4v-4m0-4v-4m0-4v-4m0-4.02v-4m0-4v-4m0-4v-4m0-4v-4.02m0-4v-4m0-4v-4m0-4v-4m0-4.02v-4m0-4v-4m0-4v-4m0-4v-4.02m0-4v-4m0-4v-4m0-4v-4m0-4.02v-4m0-4v-4m0-4v-4m0-4V1876m0-4v-4m0-4v-4m0-4v-4m0-4.02v-4m0-4v-4m0-4v-4m0-4v-4.02m0-4v-4m0-4v-4m0-4v-4m0-4.02v-4m0-4v-4m0-4v-4m0-4v-4m0-4.02v-4m0-4v-4m0-4v-4m0-4v-4.02m0-4v-4m0-4v-4m0-4v-4m0-4.02v-4m0-4v-4m0-4v-4m0-4v-4.02m0-4v-4m0-4v-4m0-4v-4m0-4.02v-4m0-4v-4m0-4v-4m0-4v-4.02m0-4v-4m0-4v-4m0-4v-4m0-4.02v-4m0-4v-4m0-4v-4m0-4v-4.02m0-4v-4m0-4v-4m0-4v-4m0-4.02v-4m0-4v-4m0-4v-4m0-4v-4m0-4.02v-4m0-4v-4m0-4v-4m0-4v-4.02m0-4v-4m0-4v-4m-.02-4v-4m0-4.02v-4m0-4v-4m0-4v-4m0-4v-4.02m0-4v-4m0-4v-4m0-4v-4m0-4.02v-4m0-4v-4m0-4v-4m0-4v-4.02m0-4v-4m0-4v-4m0-4v-4m0-4.02v-4m0-4v-4m0-4v-4m0-4v-4.02m0-4v-4m0-4v-4m0-4v-4m0-4.02v-4m0-4v-4m0-4v-4m0-4v-4m0-4.02v-4m0-4v-4m0-4v-4m0-4v-4.02m0-4v-4m0-4v-4m0-4v-4m0-4.02v-4m0-4v-4m0-4v-4m0-4v-4.02m0-4v-4m0-4v-4m0-4v-4m0-4.02v-4m0-4v-4m0-4v-4m0-4v-4.02m0-4v-4m0-4v-4m0-4v-4m0-4.02v-4m0-4v-4m0-4v-4m0-4v-4.02m0-4v-4m0-4v-4m0-4v-4m0-4.02v-4m0-4v-4m0-4v-4m0-4v-4m0-4.02v-4m0-4v-4m0-4v-4m0-4v-4.02m0-4v-4m0-4v-4m0-4v-4m0-4.02v-4m0-4v-4m0-4v-4m0-4v-4.02m0-4v-4m0-4v-4m0-4v-4m0-4.02v-4m0-4v-4m0-4v-4m0-4v-4.02m0-4v-4m0-4v-4m0-4v-4m0-4.02v-4m0-4v-4m0-4v-4m0-4v-4.02m-.02-4v-4m0-4v-4m0-4v-4m0-4.02v-4m0-4v-4m0-4v-4m0-4v-4m0-4.02v-4m0-4v-4m0-4v-4m0-4v-4.02m0-4v-4m0-4v-4m0-4v-4m0-4.02v-4m0-4v-4m0-4v-4m0-4v-4.02m0-4v-4m0-4v-4m0-4v-4m0-4.02v-4m0-4v-4m0-4v-4m0-4v-4.02m0-4v-4m0-4v-2l.07-.94.22-.92.1-.22" stroke="#5a6c86" fill="none"/><use xlink:href="#a" transform="matrix(1,0,0,1,1463.8586615018692,595.1139363320544) translate(185.9 14.4)"/><path d="M1969.8 581.1a6 6 0 0 1 6-6h296.28a6 6 0 0 1 6 6v2456.8a6 6 0 0 1-6 6H1975.8a6 6 0 0 1-6-6z" fill="#fff" fill-opacity="0"/><path d="M1972.88 575.9l.2-.13.87-.36.9-.2h2.02m4.02 0h4m4.02-.02h4.02m4.02 0h4m4.03 0h4m4.02 0h4.02m4 0h4.03m4.02 0h4m4.02 0h4.02m4 0h4.03m4.02 0h4m4.02 0h4.02m4-.02h4.03m4 0h4.03m4.02 0h4m4.03 0h4.02m4 0h4.03m4.02 0h4m4.03 0h4.02m4 0h4.03m4 0h4.03m4.02 0h4m4.03-.02h4.02m4 0h4.03m4.02 0h4m4.03 0h4.02m4 0h4.03m4.02 0h4m4.03 0h4m4.03 0h4.03m4 0h4.03m4.02 0h4m4.03-.02h4.03m4 0h4.03m4.02 0h4m4.03 0h4.03m4 0h4.03m4 0h2.02l.94.07.92.2.2.1m3.17 2.7l.13.2.36.86.2.92v2m0 4v4m0 4v4m0 4v4m0 4.02v4m0 4v4m0 4v4m0 4v4.02m0 4v4m0 4v4m0 4v4m0 4.02v4m0 4v4m0 4v4m0 4v4.02m0 4v4m0 4v4m0 4v4m0 4.02v4m0 4v4m0 4v4m0 4v4m0 4.02v4m0 4v4m0 4v4m0 4v4.02m0 4l.02 4m0 4v4m0 4v4m0 4.02v4m0 4v4m0 4v4m0 4v4.02m0 4v4m0 4v4m0 4v4m0 4.02v4m0 4v4m0 4v4m0 4v4.02m0 4v4m0 4v4m0 4v4m0 4.02v4m0 4v4m0 4v4m0 4v4.02m0 4v4m0 4v4m0 4v4m0 4.02v4m0 4v4m0 4v4m0 4v4m0 4.02v4m0 4v4m0 4v4m0 4v4.02m0 4v4m0 4v4m0 4v4m0 4.02v4m0 4v4m0 4v4m0 4v4.02m0 4v4m0 4v4m0 4v4m0 4.02v4m0 4v4m0 4v4m0 4v4.02m0 4v4m0 4v4m0 4v4m0 4.02v4m0 4v4m0 4v4m0 4v4.02m0 4v4m0 4v4m0 4v4m0 4.02v4m0 4v4m0 4v4m0 4v4m0 4.02v4m0 4v4m0 4v4m0 4v4.02m0 4v4m0 4v4m0 4v4m0 4.02v4m0 4v4m0 4v4m0 4v4.02m0 4v4m0 4v4m0 4v4m0 4.02v4m0 4v4m0 4v4m0 4v4.02m0 4v4m0 4v4m0 4v4m0 4.02v4m0 4v4m0 4l.02 4m0 4v4.02m0 4v4m0 4v4m0 4v4m0 4.02v4m0 4v4m0 4v4m0 4v4m0 4.02v4m0 4v4m0 4v4m0 4v4.02m0 4v4m0 4v4m0 4v4m0 4.02v4m0 4v4m0 4v4m0 4v4.02m0 4v4m0 4v4m0 4v4m0 4.02v4m0 4v4m0 4v4m0 4v4.02m0 4v4m0 4v4m0 4v4m0 4.02v4m0 4v4m0 4v4m0 4v4.02m0 4v4m0 4v4m0 4v4m0 4.02v4m0 4v4m0 4v4m0 4v4m0 4.02v4m0 4v4m0 4v4m0 4v4.02m0 4v4m0 4v4m0 4v4m0 4.02v4m0 4v4m0 4v4m0 4v4.02m0 4v4m0 4v4m0 4v4m0 4.02v4m0 4v4m0 4v4m0 4v4.02m0 4v4m0 4v4m0 4v4m0 4.02v4m0 4v4m0 4v4m0 4v4.02m0 4v4m0 4v4m0 4v4m0 4.02v4m0 4v4m0 4v4m0 4v4m0 4.02v4m0 4v4m0 4v4m0 4v4.02m0 4v4m0 4v4m0 4v4m0 4.02v4m0 4v4m0 4v4m0 4l.02 4.02m0 4v4m0 4v4m0 4v4m0 4.02v4m0 4v4m0 4v4m0 4v4.02m0 4v4m0 4v4m0 4v4m0 4.02v4m0 4v4m0 4v4m0 4v4.02m0 4v4m0 4v4m0 4v4m0 4.02v4m0 4v4m0 4v4m0 4v4m0 4.02v4m0 4v4m0 4v4m0 4v4.02m0 4v4m0 4v4m0 4v4m0 4.02v4m0 4v4m0 4v4m0 4v4.02m0 4v4m0 4v4m0 4v4m0 4.02v4m0 4v4m0 4v4m0 4v4.02m0 4v4m0 4v4m0 4v4m0 4.02v4m0 4v4m0 4v4m0 4v4.02m0 4v4m0 4v4m0 4v4m0 4.02v4m0 4v4m0 4v4m0 4v4m0 4.02v4m0 4v4m0 4v4m0 4v4.02m0 4v4m0 4v4m0 4v4m0 4.02v4m0 4v4m0 4v4m0 4v4.02m0 4v4m0 4v4m0 4v4m0 4.02v4m0 4v4m0 4v4m0 4v4.02m0 4v4m0 4v4m0 4v4m0 4.02v4m0 4v4m0 4v4m0 4v4.02m0 4v4m0 4v4m0 4v4m0 4.02v4m0 4l.02 4m0 4v4m0 4v4m0 4.02v4m0 4v4m0 4v4m0 4v4.02m0 4v4m0 4v4m0 4v4m0 4.02v4m0 4v4m0 4v4m0 4v4.02m0 4v4m0 4v4m0 4v4m0 4.02v4m0 4v4m0 4v4m0 4v4.02m0 4v4m0 4v4m0 4v4m0 4.02v4m0 4v4m0 4v4m0 4v4.02m0 4v4m0 4v4m0 4v4m0 4.02v4m0 4v2l-.07.94-.2.92-.1.2m-2.7 3.17l-.2.12-.86.36-.92.23h-2m-4.02 0h-4.02m-4.02 0h-4m-4.03 0h-4.02m-4 0h-4.02m-4.02 0h-4m-4.03 0h-4m-4.03 0h-4.02m-4 0h-4.03m-4.02.02h-4m-4.03 0h-4.02m-4 0h-4.03m-4.02 0h-4m-4.03 0h-4m-4.03 0h-4.02m-4 0h-4.03m-4.02 0h-4m-4.03 0h-4.02m-4 0h-4.03m-4.02.02h-4m-4.03 0h-4.02m-4 0h-4.03m-4 0h-4.03m-4.03 0h-4m-4.03 0h-4.02m-4 0h-4.03m-4.03 0h-4m-4.03 0h-4.02m-4 0h-4.03m-4.03.02h-4m-4.03 0h-4m-4.03 0h-4m-4.02 0h-4.02m-4.02 0h-4m-4.03 0h-4m-4.02 0h-4.02m-4.02 0h-4m-4.03 0h-2l-.94-.07-.9-.22-.23-.08m-3.15-2.7l-.12-.2-.36-.86-.22-.92v-2m0-4v-4m0-4v-4m0-4v-4.02m0-4v-4m0-4v-4m0-4v-4m0-4.02v-4m0-4v-4m0-4v-4m0-4v-4.02m0-4v-4m0-4v-4m0-4v-4m0-4.02v-4m0-4v-4m0-4v-4m0-4v-4.02m0-4v-4m0-4v-4m0-4v-4m0-4.02v-4m0-4v-4m0-4v-4m0-4v-4.02m0-4v-4m0-4v-4m0-4v-4m0-4.02v-4m0-4v-4m0-4v-4m0-4v-4m0-4.02v-4m0-4v-4m0-4v-4m0-4v-4.02m0-4v-4m0-4v-4m0-4v-4m0-4.02v-4m0-4v-4m0-4v-4m0-4v-4.02m0-4v-4m0-4v-4m0-4v-4m0-4.02v-4m0-4v-4m0-4v-4m0-4v-4.02m0-4v-4m0-4v-4m-.02-4v-4m0-4.02v-4m0-4v-4m0-4v-4m0-4v-4.02m0-4v-4m0-4v-4m0-4v-4m0-4.02v-4m0-4v-4m0-4v-4m0-4v-4m0-4.02v-4m0-4v-4m0-4v-4m0-4v-4.02m0-4v-4m0-4v-4m0-4v-4m0-4.02v-4m0-4v-4m0-4v-4m0-4v-4.02m0-4v-4m0-4v-4m0-4v-4m0-4.02v-4m0-4v-4m0-4v-4m0-4v-4.02m0-4v-4m0-4v-4m0-4v-4m0-4.02v-4m0-4v-4m0-4v-4m0-4v-4.02m0-4v-4m0-4v-4m0-4v-4m0-4.02v-4m0-4v-4m0-4v-4m0-4v-4m0-4.02v-4m0-4v-4m0-4v-4m0-4v-4.02m0-4v-4m0-4v-4m0-4v-4m0-4.02v-4m0-4v-4m0-4v-4m0-4v-4.02m0-4v-4m0-4v-4m0-4v-4m0-4.02v-4m0-4v-4m0-4v-4m0-4v-4.02m0-4v-4m0-4v-4m0-4v-4m0-4.02v-4m0-4v-4m0-4v-4m0-4v-4.02m0-4v-4m0-4v-4m0-4v-4m0-4.02v-4m0-4v-4m0-4v-4m0-4v-4m0-4.02v-4m0-4v-4m0-4v-4m0-4v-4.02m0-4v-4m0-4v-4m0-4v-4m-.02-4.02v-4m0-4v-4m0-4v-4m0-4v-4.02m0-4v-4m0-4v-4m0-4v-4m0-4.02v-4m0-4v-4m0-4v-4m0-4V1876m0-4v-4m0-4v-4m0-4v-4m0-4.02v-4m0-4v-4m0-4v-4m0-4v-4.02m0-4v-4m0-4v-4m0-4v-4m0-4.02v-4m0-4v-4m0-4v-4m0-4v-4m0-4.02v-4m0-4v-4m0-4v-4m0-4v-4.02m0-4v-4m0-4v-4m0-4v-4m0-4.02v-4m0-4v-4m0-4v-4m0-4v-4.02m0-4v-4m0-4v-4m0-4v-4m0-4.02v-4m0-4v-4m0-4v-4m0-4v-4.02m0-4v-4m0-4v-4m0-4v-4m0-4.02v-4m0-4v-4m0-4v-4m0-4v-4.02m0-4v-4m0-4v-4m0-4v-4m0-4.02v-4m0-4v-4m0-4v-4m0-4v-4m0-4.02v-4m0-4v-4m0-4v-4m0-4v-4.02m0-4v-4m0-4v-4m0-4v-4m0-4.02v-4m0-4v-4m0-4v-4m0-4v-4.02m0-4v-4m0-4v-4m0-4v-4m0-4.02v-4m0-4v-4m0-4v-4m0-4v-4.02m0-4v-4m0-4v-4m0-4v-4m0-4.02v-4m0-4v-4m0-4v-4m0-4v-4.02m0-4v-4m-.02-4v-4m0-4v-4m0-4.02v-4m0-4v-4m0-4v-4m0-4v-4m0-4.02v-4m0-4v-4m0-4v-4m0-4v-4.02m0-4v-4m0-4v-4m0-4v-4m0-4.02v-4m0-4v-4m0-4v-4m0-4v-4.02m0-4v-4m0-4v-4m0-4v-4m0-4.02v-4m0-4v-4m0-4v-4m0-4v-4.02m0-4v-4m0-4v-4m0-4v-4m0-4.02v-4m0-4v-4m0-4v-4m0-4v-4.02m0-4v-4m0-4v-4m0-4v-4m0-4.02v-4m0-4v-4m0-4v-4m0-4v-4m0-4.02v-4m0-4v-4m0-4v-4m0-4v-4.02m0-4v-4m0-4v-4m0-4v-4m0-4.02v-4m0-4v-4m0-4v-4m0-4v-4.02m0-4v-4m0-4v-4m0-4v-4m0-4.02v-4m0-4v-4m0-4v-4m0-4v-4.02m0-4v-4m0-4v-4m0-4v-4m0-4.02v-4m0-4v-4m0-4v-4m0-4v-4.02m0-4v-4m0-4v-4m0-4v-4m0-4.02v-4m0-4v-4m0-4v-4m0-4v-4m0-4.02v-4m0-4v-4m0-4v-4m0-4v-4.02m0-4v-4m0-4v-4m0-4v-4m0-4.02v-4m0-4v-4m0-4v-4m0-4v-4.02m0-4v-4m0-4v-4m-.02-4v-4m0-4.02v-4m0-4v-4m0-4v-4m0-4v-4.02m0-4v-4m0-4v-2l.08-.94.22-.92.1-.22" stroke="#5a6c86" fill="none"/><use xlink:href="#b" transform="matrix(1,0,0,1,1969.8034228154343,595.1139363320544) translate(108.1 14.4)"/><path d="M3358.7 581.1a6 6 0 0 1 6-6h264.23a6 6 0 0 1 6 6v2456.8a6 6 0 0 1-6 6H3364.7a6 6 0 0 1-6-6z" fill="#fff" fill-opacity="0"/><path d="M3361.77 575.9l.2-.13.87-.36.9-.2h2.02m4.02 0h4.02m4-.02h4.03m4.02 0h4.02m4.02 0h4m4.02 0h4.02m4.02 0h4.02m4 0h4.03m4.03 0h4.02m4.02 0h4m4.03 0l4.02-.02m4.02 0h4m4.03 0h4.02m4 0h4.03m4 0h4.03m4.02 0h4.02m4.02 0h4m4.03 0h4.02m4.02 0h4m4.02 0l4.02-.02m4.02 0h4.02m4 0h4.03m4.03 0h4.02m4.02 0h4m4.03 0h4.02m4.02 0h4.02m4 0h4.03m4 0h4.03m4.02 0l4-.02m4.03 0h4.02m4.02 0h4m4.03 0h4.02m4.02 0h4m4.02 0h2l.95.07.92.2.2.1m3.16 2.7l.12.2.36.86.22.92v2m0 4v4m0 4v4m0 4v4m0 4.02v4m0 4v4m0 4v4m0 4v4.02m0 4v4m0 4v4m0 4v4m0 4.02v4m0 4v4m0 4v4m0 4v4.02m0 4v4m0 4v4m0 4v4m0 4.02v4m0 4v4m0 4v4m0 4v4m0 4.02v4m0 4v4m0 4v4m0 4v4.02m0 4v4m0 4v4m0 4v4m0 4.02v4m0 4v4m0 4v4m0 4v4.02m0 4v4m0 4v4m0 4v4m0 4.02v4m0 4v4m0 4v4m0 4v4.02m0 4v4m0 4v4m0 4v4m0 4.02v4m0 4v4m0 4v4m0 4v4.02m0 4v4m0 4v4m0 4v4m0 4.02v4m0 4v4m0 4v4m0 4v4m0 4.02v4m0 4v4m0 4v4m0 4v4.02m0 4v4m0 4v4m0 4v4m0 4.02v4m0 4v4m0 4v4m0 4v4.02m0 4v4m0 4l.02 4m0 4v4m0 4.02v4m0 4v4m0 4v4m0 4v4.02m0 4v4m0 4v4m0 4v4m0 4.02v4m0 4v4m0 4v4m0 4v4.02m0 4v4m0 4v4m0 4v4m0 4.02v4m0 4v4m0 4v4m0 4v4m0 4.02v4m0 4v4m0 4v4m0 4v4.02m0 4v4m0 4v4m0 4v4m0 4.02v4m0 4v4m0 4v4m0 4v4.02m0 4v4m0 4v4m0 4v4m0 4.02v4m0 4v4m0 4v4m0 4v4.02m0 4v4m0 4v4m0 4v4m0 4.02v4m0 4v4m0 4v4m0 4v4.02m0 4v4m0 4v4m0 4v4m0 4.02v4m0 4v4m0 4v4m0 4v4m0 4.02v4m0 4v4m0 4v4m0 4v4.02m0 4v4m0 4v4m0 4v4m0 4.02v4m0 4v4m0 4v4m0 4v4.02m0 4v4m0 4v4m0 4v4m0 4.02v4m0 4v4m0 4v4m0 4v4.02m0 4v4m0 4v4m0 4v4m0 4.02v4m0 4v4m0 4v4m0 4v4.02m0 4v4m0 4v4m0 4v4m0 4.02v4m0 4v4m0 4v4m0 4l.02 4m0 4.02v4m0 4v4m0 4v4m0 4v4.02m0 4v4m0 4v4m0 4v4m0 4.02v4m0 4v4m0 4v4m0 4v4.02m0 4v4m0 4v4m0 4v4m0 4.02v4m0 4v4m0 4v4m0 4v4.02m0 4v4m0 4v4m0 4v4m0 4.02v4m0 4v4m0 4v4m0 4v4.02m0 4v4m0 4v4m0 4v4m0 4.02v4m0 4v4m0 4v4m0 4v4m0 4.02v4m0 4v4m0 4v4m0 4v4.02m0 4v4m0 4v4m0 4v4m0 4.02v4m0 4v4m0 4v4m0 4v4.02m0 4v4m0 4v4m0 4v4m0 4.02v4m0 4v4m0 4v4m0 4v4.02m0 4v4m0 4v4m0 4v4m0 4.02v4m0 4v4m0 4v4m0 4v4.02m0 4v4m0 4v4m0 4v4m0 4.02v4m0 4v4m0 4v4m0 4v4m0 4.02v4m0 4v4m0 4v4m0 4v4.02m0 4v4m0 4v4m0 4v4m0 4.02v4m0 4v4m0 4v4m0 4v4.02m0 4v4m0 4v4m0 4v4m0 4.02v4m0 4v4m0 4v4m0 4v4.02m0 4l.02 4m0 4v4m0 4v4m0 4.02v4m0 4v4m0 4v4m0 4v4.02m0 4v4m0 4v4m0 4v4m0 4.02v4m0 4v4m0 4v4m0 4v4m0 4.02v4m0 4v4m0 4v4m0 4v4.02m0 4v4m0 4v4m0 4v4m0 4.02v4m0 4v4m0 4v4m0 4v4.02m0 4v4m0 4v4m0 4v4m0 4.02v4m0 4v4m0 4v4m0 4v4.02m0 4v4m0 4v4m0 4v4m0 4.02v4m0 4v4m0 4v4m0 4v4.02m0 4v4m0 4v4m0 4v4m0 4.02v4m0 4v4m0 4v4m0 4v4m0 4.02v4m0 4v4m0 4v4m0 4v4.02m0 4v4m0 4v4m0 4v4m0 4.02v4m0 4v4m0 4v4m0 4v4.02m0 4v4m0 4v4m0 4v4m0 4.02v4m0 4v4m0 4v4m0 4v4.02m0 4v4m0 4v4m0 4v4m0 4.02v4m0 4v4m0 4v4m0 4v4.02m0 4v4m0 4v4m0 4v4m0 4.02v4m0 4v2l-.06.94-.22.92-.1.2m-2.68 3.17l-.2.12-.87.36-.93.23h-2m-4.03 0h-4m-4.03 0h-4m-4.03 0h-4m-4.03 0h-4.02m-4.02 0h-4.02m-4 0h-4.03m-4.02 0h-4.02m-4 .02h-4.02m-4.02 0h-4.02m-4.02 0h-4.02m-4 0h-4.03m-4.02 0h-4.02m-4 0h-4.03m-4.02 0h-4.02m-4.02 0h-4m-4.03 0h-4m-4.03.02h-4.02m-4 0h-4.03m-4.02 0h-4.02m-4.02 0h-4m-4.03 0h-4.02m-4 0h-4.02m-4.02 0h-4.02m-4.02 0H3435m-4 0h-4.03m-4.02.02h-4.02m-4.02 0h-4m-4.02 0h-4.02m-4.02 0h-4.02m-4 0h-4.03m-4.03 0h-4.02m-4 0h-4.03m-4.02 0h-2l-.95-.07-.9-.22-.23-.08m-3.15-2.7l-.13-.2-.36-.86-.22-.92v-2m0-4v-4m0-4v-4m0-4v-4.02m0-4v-4m0-4v-4m0-4v-4m0-4.02v-4m0-4v-4m0-4v-4m0-4v-4.02m0-4v-4m0-4v-4m0-4v-4m0-4.02v-4m0-4v-4m0-4v-4m0-4v-4.02m0-4v-4m0-4v-4m0-4v-4m0-4.02v-4m0-4v-4m0-4v-4m0-4v-4.02m0-4v-4m0-4v-4m0-4v-4m0-4.02v-4m0-4v-4m0-4v-4m0-4v-4m0-4.02v-4m0-4v-4m0-4v-4m0-4v-4.02m0-4v-4m0-4v-4m0-4v-4m0-4.02v-4m0-4v-4m0-4v-4m0-4v-4.02m0-4v-4m0-4v-4m0-4v-4m0-4.02v-4m0-4v-4m0-4v-4m0-4v-4.02m0-4v-4m0-4v-4m0-4v-4m0-4.02v-4m0-4v-4m0-4v-4m0-4v-4.02m0-4v-4m0-4v-4m0-4v-4m0-4.02v-4m0-4v-4m0-4v-4m0-4v-4m0-4.02v-4m0-4v-4m0-4v-4m0-4v-4.02m0-4v-4m0-4v-4m0-4v-4m0-4.02v-4m0-4v-4m0-4v-4m0-4v-4.02m0-4v-4m0-4v-4m0-4v-4m0-4.02v-4m0-4v-4m0-4v-4m-.02-4v-4.02m0-4v-4m0-4v-4m0-4v-4m0-4.02v-4m0-4v-4m0-4v-4m0-4v-4.02m0-4v-4m0-4v-4m0-4v-4m0-4.02v-4m0-4v-4m0-4v-4m0-4v-4m0-4.02v-4m0-4v-4m0-4v-4m0-4v-4.02m0-4v-4m0-4v-4m0-4v-4m0-4.02v-4m0-4v-4m0-4v-4m0-4v-4.02m0-4v-4m0-4v-4m0-4v-4m0-4.02v-4m0-4v-4m0-4v-4m0-4v-4.02m0-4v-4m0-4v-4m0-4v-4m0-4.02v-4m0-4v-4m0-4v-4m0-4v-4.02m0-4v-4m0-4v-4m0-4v-4m0-4.02v-4m0-4v-4m0-4v-4m0-4v-4m0-4.02v-4m0-4v-4m0-4v-4m0-4v-4.02m0-4v-4m0-4v-4m0-4v-4m0-4.02v-4m0-4v-4m0-4v-4m0-4v-4.02m0-4v-4m0-4v-4m0-4v-4m0-4.02v-4m0-4v-4m0-4v-4m0-4V1876m0-4v-4m0-4v-4m0-4v-4m0-4.02v-4m0-4v-4m0-4v-4m0-4v-4.02m0-4v-4m0-4v-4m0-4v-4m0-4.02v-4m0-4v-4m0-4v-4m0-4v-4m0-4.02v-4m0-4v-4m0-4v-4m0-4v-4.02m-.02-4v-4m0-4v-4m0-4v-4m0-4.02v-4m0-4v-4m0-4v-4m0-4v-4.02m0-4v-4m0-4v-4m0-4v-4m0-4.02v-4m0-4v-4m0-4v-4m0-4v-4.02m0-4v-4m0-4v-4m0-4v-4m0-4.02v-4m0-4v-4m0-4v-4m0-4v-4.02m0-4v-4m0-4v-4m0-4v-4m0-4.02v-4m0-4v-4m0-4v-4m0-4v-4m0-4.02v-4m0-4v-4m0-4v-4m0-4v-4.02m0-4v-4m0-4v-4m0-4v-4m0-4.02v-4m0-4v-4m0-4v-4m0-4v-4.02m0-4v-4m0-4v-4m0-4v-4m0-4.02v-4m0-4v-4m0-4v-4m0-4v-4.02m0-4v-4m0-4v-4m0-4v-4m0-4.02v-4m0-4v-4m0-4v-4m0-4v-4.02m0-4v-4m0-4v-4m0-4v-4m0-4.02v-4m0-4v-4m0-4v-4m0-4v-4m0-4.02v-4m0-4v-4m0-4v-4m0-4v-4.02m0-4v-4m0-4v-4m0-4v-4m0-4.02v-4m0-4v-4m0-4v-4m0-4v-4.02m0-4v-4m0-4v-4m0-4v-4m0-4.02v-4m0-4v-4m0-4v-4m0-4v-4.02m0-4v-4m0-4v-4m0-4v-4m0-4.02v-4m0-4v-4m-.02-4v-4m0-4v-4.02m0-4v-4m0-4v-4m0-4v-4m0-4.02v-4m0-4v-4m0-4v-4m0-4v-4m0-4.02v-4m0-4v-4m0-4v-4m0-4v-4.02m0-4v-4m0-4v-4m0-4v-4m0-4.02v-4m0-4v-4m0-4v-4m0-4v-4.02m0-4v-4m0-4v-4m0-4v-4m0-4.02v-4m0-4v-4m0-4v-4m0-4v-4.02m0-4v-4m0-4v-4m0-4v-4m0-4.02v-4m0-4v-4m0-4v-4m0-4v-4.02m0-4v-4m0-4v-4m0-4v-4m0-4.02v-4m0-4v-4m0-4v-4m0-4v-4m0-4.02v-4m0-4v-4m0-4v-4m0-4v-4.02m0-4v-4m0-4v-4m0-4v-4m0-4.02v-4m0-4v-4m0-4v-4m0-4v-4.02m0-4v-4m0-4v-4m0-4v-4m0-4.02v-4m0-4v-4m0-4v-4m0-4v-4.02m0-4v-4m0-4v-2l.06-.94.22-.92.1-.22" stroke="#5a6c86" fill="none"/><use xlink:href="#c" transform="matrix(1,0,0,1,3358.6904281073184,595.1139363320544) translate(97.57499999999999 14.4)"/><path d="M1487.1 688.67a6 6 0 0 1 6-6h148a6 6 0 0 1 6 6v108a6 6 0 0 1-6 6h-148a6 6 0 0 1-6-6z" stroke="#fcce14" stroke-width="5" fill="#fff"/><use xlink:href="#d" transform="matrix(1,0,0,1,1499.112342653415,694.6666666666667) translate(42.72222222222222 38.77777777777778)"/><use xlink:href="#e" transform="matrix(1,0,0,1,1499.112342653415,694.6666666666667) translate(64.91358024691358 65.44444444444446)"/><path d="M3389.35 933.48a6 6 0 0 1 6-6h216a6 6 0 0 1 6 6v108a6 6 0 0 1-6 6h-216a6 6 0 0 1-6-6z" stroke="#1071e5" stroke-width="4" fill="#fff"/><use xlink:href="#f" transform="matrix(1,0,0,1,3401.350614488764,939.4847052383614) translate(24.345679012345684 38.77777777777778)"/><use xlink:href="#g" transform="matrix(1,0,0,1,3401.350614488764,939.4847052383614) translate(94.5925925925926 38.77777777777778)"/><use xlink:href="#h" transform="matrix(1,0,0,1,3401.350614488764,939.4847052383614) translate(49.0679012345679 65.44444444444446)"/><path d="M1487.1 933.48a6 6 0 0 1 6-6h148a6 6 0 0 1 6 6v108a6 6 0 0 1-6 6h-148a6 6 0 0 1-6-6z" stroke="#fcce14" stroke-width="5" fill="#fff"/><use xlink:href="#d" transform="matrix(1,0,0,1,1499.112342653415,939.4847052383614) translate(42.72222222222222 38.77777777777778)"/><use xlink:href="#i" transform="matrix(1,0,0,1,1499.112342653415,939.4847052383614) translate(38.46296296296296 65.44444444444446)"/><path d="M1650.08 987.48H3371" stroke="#3a414a" fill="none"/><path d="M1650.1 987.98h-.52v-1h.5z" stroke="#3a414a" stroke-width=".05" fill="#3a414a"/><path d="M3385.77 987.48l-14.27 4.64v-9.27z" stroke="#3a414a" fill="#3a414a"/><path d="M1650.08 742.67h1710.7" stroke="#3a414a" fill="none"/><path d="M1650.1 743.17h-.52v-1h.5z" stroke="#3a414a" stroke-width=".05" fill="#3a414a"/><path d="M3375.53 742.67l-14.26 4.63v-9.27z" stroke="#3a414a" fill="#3a414a"/><path d="M3379.1 688.67a6 6 0 0 1 6-6h216a6 6 0 0 1 6 6v108a6 6 0 0 1-6 6h-216a6 6 0 0 1-6-6z" stroke="#1071e5" stroke-width="4" fill="#fff"/><use xlink:href="#f" transform="matrix(1,0,0,1,3391.112342653414,694.6666667333342) translate(24.345679012345684 38.77777777777778)"/><use xlink:href="#g" transform="matrix(1,0,0,1,3391.112342653414,694.6666667333342) translate(94.5925925925926 38.77777777777778)"/><use xlink:href="#j" transform="matrix(1,0,0,1,3391.112342653414,694.6666667333342) translate(45.95061728395062 65.44444444444446)"/><path d="M1487.1 1178.3a6 6 0 0 1 6-6h148a6 6 0 0 1 6 6v108a6 6 0 0 1-6 6h-148a6 6 0 0 1-6-6z" stroke="#fcce14" stroke-width="5" fill="#fff"/><use xlink:href="#k" transform="matrix(1,0,0,1,1499.112342653415,1184.302743810056) translate(42.72222222222222 38.77777777777778)"/><use xlink:href="#l" transform="matrix(1,0,0,1,1499.112342653415,1184.302743810056) translate(41.54938271604938 65.44444444444446)"/><path d="M1487.1 1423.12a6 6 0 0 1 6-6h148a6 6 0 0 1 6 6v108a6 6 0 0 1-6 6h-148a6 6 0 0 1-6-6z" stroke="#fcce14" stroke-width="5" fill="#fff"/><use xlink:href="#k" transform="matrix(1,0,0,1,1499.112342653415,1429.1207823817506) translate(42.72222222222222 38.77777777777778)"/><use xlink:href="#m" transform="matrix(1,0,0,1,1499.112342653415,1429.1207823817506) translate(31.117283950617285 65.44444444444446)"/><path d="M1487.1 1667.94a6 6 0 0 1 6-6h148a6 6 0 0 1 6 6v108a6 6 0 0 1-6 6h-148a6 6 0 0 1-6-6z" stroke="#fcce14" stroke-width="5" fill="#fff"/><use xlink:href="#k" transform="matrix(1,0,0,1,1499.112342653415,1673.9388209534452) translate(42.72222222222222 38.77777777777778)"/><use xlink:href="#n" transform="matrix(1,0,0,1,1499.112342653415,1673.9388209534452) translate(41.54938271604939 65.44444444444446)"/><path d="M1487.1 1912.76a6 6 0 0 1 6-6h148a6 6 0 0 1 6 6v108a6 6 0 0 1-6 6h-148a6 6 0 0 1-6-6z" stroke="#fcce14" stroke-width="5" fill="#fff"/><use xlink:href="#k" transform="matrix(1,0,0,1,1499.112342653415,1918.7568595251398) translate(42.72222222222222 38.77777777777778)"/><use xlink:href="#o" transform="matrix(1,0,0,1,1499.112342653415,1918.7568595251398) translate(40.22222222222223 65.44444444444446)"/><path d="M1487.1 2157.57a6 6 0 0 1 6-6h148a6 6 0 0 1 6 6v108a6 6 0 0 1-6 6h-148a6 6 0 0 1-6-6z" stroke="#fcce14" stroke-width="5" fill="#fff"/><use xlink:href="#k" transform="matrix(1,0,0,1,1499.112342653415,2163.5748980968347) translate(42.72222222222222 38.77777777777778)"/><use xlink:href="#p" transform="matrix(1,0,0,1,1499.112342653415,2163.5748980968347) translate(32.876543209876544 65.44444444444446)"/><path d="M1487.1 2402.4a6 6 0 0 1 6-6h148a6 6 0 0 1 6 6v108a6 6 0 0 1-6 6h-148a6 6 0 0 1-6-6z" stroke="#fcce14" stroke-width="5" fill="#fff"/><use xlink:href="#k" transform="matrix(1,0,0,1,1499.112342653415,2408.3929366685297) translate(42.72222222222222 38.77777777777778)"/><use xlink:href="#q" transform="matrix(1,0,0,1,1499.112342653415,2408.3929366685297) translate(48.8641975308642 65.44444444444446)"/><path d="M1487.1 2647.2a6 6 0 0 1 6-6h148a6 6 0 0 1 6 6v108a6 6 0 0 1-6 6h-148a6 6 0 0 1-6-6z" stroke="#fcce14" stroke-width="5" fill="#fff"/><use xlink:href="#k" transform="matrix(1,0,0,1,1499.112342653415,2653.210975240225) translate(42.72222222222222 38.77777777777778)"/><use xlink:href="#r" transform="matrix(1,0,0,1,1499.112342653415,2653.210975240225) translate(46.39506172839506 65.44444444444446)"/><path d="M1487.1 2892.03a6 6 0 0 1 6-6h148a6 6 0 0 1 6 6v108a6 6 0 0 1-6 6h-148a6 6 0 0 1-6-6z" stroke="#fcce14" stroke-width="5" fill="#fff"/><use xlink:href="#k" transform="matrix(1,0,0,1,1499.112342653415,2898.02901381192) translate(42.72222222222222 38.77777777777778)"/><use xlink:href="#s" transform="matrix(1,0,0,1,1499.112342653415,2898.02901381192) translate(29.75925925925926 65.44444444444446)"/><path d="M2118.2 1381.47a7.73 7.73 0 0 1 9.5 0l118.5 91.97a4.66 4.66 0 0 1 0 7.36l-118.5 91.98a7.73 7.73 0 0 1-9.5 0l-118.5-91.98a4.66 4.66 0 0 1 0-7.36z" stroke="#3a414a" fill="#fff"/><use xlink:href="#t" transform="matrix(1,0,0,1,1999.9510821262134,1382.7874490484173) translate(101.43092592592592 65.02777777777777)"/><use xlink:href="#u" transform="matrix(1,0,0,1,1999.9510821262134,1382.7874490484173) translate(28.221049382716085 91.69444444444446)"/><path d="M2119.2 1626.28a7.73 7.73 0 0 1 9.48 0l118.52 91.98a4.66 4.66 0 0 1 0 7.36l-118.52 91.97a7.73 7.73 0 0 1-9.48 0l-118.52-91.98a4.66 4.66 0 0 1 0-7.36z" stroke="#3a414a" fill="#fff"/><use xlink:href="#t" transform="matrix(1,0,0,1,2000.9430587847746,1627.605487620112) translate(101.43092592592592 65.02777777777777)"/><use xlink:href="#u" transform="matrix(1,0,0,1,2000.9430587847746,1627.605487620112) translate(28.221049382716085 91.69444444444446)"/><path d="M2118.2 1871.1a7.73 7.73 0 0 1 9.5 0l118.5 91.98a4.66 4.66 0 0 1 0 7.36l-118.5 91.97a7.73 7.73 0 0 1-9.5 0l-118.5-91.96a4.66 4.66 0 0 1 0-7.36z" stroke="#3a414a" fill="#fff"/><use xlink:href="#t" transform="matrix(1,0,0,1,1999.9510821262134,1872.4235261918066) translate(101.43092592592592 65.02777777777777)"/><use xlink:href="#u" transform="matrix(1,0,0,1,1999.9510821262134,1872.4235261918066) translate(28.221049382716085 91.69444444444446)"/><path d="M2118.2 2115.92a7.73 7.73 0 0 1 9.5 0l118.5 91.98a4.66 4.66 0 0 1 0 7.35l-118.5 91.98a7.73 7.73 0 0 1-9.5 0l-118.5-91.98a4.66 4.66 0 0 1 0-7.35z" stroke="#3a414a" fill="#fff"/><use xlink:href="#t" transform="matrix(1,0,0,1,1999.9510821262134,2117.241564763501) translate(101.43092592592592 65.02777777777777)"/><use xlink:href="#u" transform="matrix(1,0,0,1,1999.9510821262134,2117.241564763501) translate(28.221049382716085 91.69444444444446)"/><path d="M2112.88 2360.74a7.73 7.73 0 0 1 9.48 0l118.52 91.97a4.66 4.66 0 0 1 0 7.37l-118.52 91.98a7.73 7.73 0 0 1-9.48 0l-118.52-91.98a4.66 4.66 0 0 1 0-7.36z" stroke="#3a414a" fill="#fff"/><use xlink:href="#t" transform="matrix(1,0,0,1,1994.6158912781739,2362.059603335196) translate(101.43092592592592 65.02777777777777)"/><use xlink:href="#u" transform="matrix(1,0,0,1,1994.6158912781739,2362.059603335196) translate(28.221049382716085 91.69444444444446)"/><path d="M2112.88 2605.56a7.73 7.73 0 0 1 9.48 0l118.52 91.97a4.66 4.66 0 0 1 0 7.36l-118.52 91.97a7.73 7.73 0 0 1-9.48 0l-118.52-91.98a4.66 4.66 0 0 1 0-7.37z" stroke="#3a414a" fill="#fff"/><use xlink:href="#t" transform="matrix(1,0,0,1,1994.6158912781739,2606.8776419068904) translate(101.43092592592592 65.02777777777777)"/><use xlink:href="#u" transform="matrix(1,0,0,1,1994.6158912781739,2606.8776419068904) translate(28.221049382716085 91.69444444444446)"/><path d="M3382.8 1667.94a6 6 0 0 1 6-6h216a6 6 0 0 1 6 6v108a6 6 0 0 1-6 6h-216a6 6 0 0 1-6-6z" stroke="#1071e5" stroke-width="4" fill="#fff"/><use xlink:href="#v" transform="matrix(1,0,0,1,3394.811735726189,1673.9388209534452) translate(24.345679012345684 38.77777777777778)"/><use xlink:href="#w" transform="matrix(1,0,0,1,3394.811735726189,1673.9388209534452) translate(94.5925925925926 38.77777777777778)"/><use xlink:href="#x" transform="matrix(1,0,0,1,3394.811735726189,1673.9388209534452) translate(13.913580246913583 65.44444444444446)"/><path d="M3379.1 2402.4a6 6 0 0 1 6-6h216a6 6 0 0 1 6 6v108a6 6 0 0 1-6 6h-216a6 6 0 0 1-6-6z" stroke="#1071e5" stroke-width="4" fill="#fff"/><use xlink:href="#v" transform="matrix(1,0,0,1,3391.112342653414,2408.3929366685297) translate(24.345679012345684 38.77777777777778)"/><use xlink:href="#w" transform="matrix(1,0,0,1,3391.112342653414,2408.3929366685297) translate(94.5925925925926 38.77777777777778)"/><use xlink:href="#y" transform="matrix(1,0,0,1,3391.112342653414,2408.3929366685297) translate(10.82716049382718 65.44444444444446)"/><path d="M3379.1 2647.2a6 6 0 0 1 6-6h216a6 6 0 0 1 6 6v108a6 6 0 0 1-6 6h-216a6 6 0 0 1-6-6z" stroke="#1071e5" stroke-width="4" fill="#fff"/><g><use xlink:href="#v" transform="matrix(1,0,0,1,3391.112342653414,2653.210975240225) translate(24.345679012345684 38.77777777777778)"/><use xlink:href="#w" transform="matrix(1,0,0,1,3391.112342653414,2653.210975240225) translate(94.5925925925926 38.77777777777778)"/><use xlink:href="#y" transform="matrix(1,0,0,1,3391.112342653414,2653.210975240225) translate(10.82716049382718 65.44444444444446)"/></g><path d="M3379.1 2892.03a6 6 0 0 1 6-6h216a6 6 0 0 1 6 6v108a6 6 0 0 1-6 6h-216a6 6 0 0 1-6-6z" stroke="#1071e5" stroke-width="4" fill="#fff"/><g><use xlink:href="#v" transform="matrix(1,0,0,1,3391.112342653414,2898.02901381192) translate(24.345679012345684 38.77777777777778)"/><use xlink:href="#w" transform="matrix(1,0,0,1,3391.112342653414,2898.02901381192) translate(94.5925925925926 38.77777777777778)"/><use xlink:href="#z" transform="matrix(1,0,0,1,3391.112342653414,2898.02901381192) translate(43.45061728395062 65.44444444444446)"/></g><path d="M1650.08 1477.12H1981" stroke="#3a414a" fill="none"/><path d="M1650.1 1477.62h-.52v-1h.5z" stroke="#3a414a" stroke-width=".05" fill="#3a414a"/><path d="M1995.77 1477.12l-14.27 4.64v-9.27z" stroke="#3a414a" fill="#3a414a"/><path d="M1650.08 1721.94H1982" stroke="#3a414a" fill="none"/><path d="M1650.1 1722.44h-.52v-1h.5z" stroke="#3a414a" stroke-width=".05" fill="#3a414a"/><path d="M1996.76 1721.94l-14.26 4.63v-9.27z" stroke="#3a414a" fill="#3a414a"/><path d="M1650.08 1966.76H1981" stroke="#3a414a" fill="none"/><path d="M1650.1 1967.26h-.52v-1h.5z" stroke="#3a414a" stroke-width=".05" fill="#3a414a"/><path d="M1995.77 1966.76l-14.27 4.63v-9.28z" stroke="#3a414a" fill="#3a414a"/><path d="M1650.08 2211.57H1981" stroke="#3a414a" fill="none"/><path d="M1650.1 2212.07h-.52v-1h.5z" stroke="#3a414a" stroke-width=".05" fill="#3a414a"/><path d="M1995.77 2211.57l-14.27 4.64v-9.26z" stroke="#3a414a" fill="#3a414a"/><path d="M1650.08 2456.4h325.6" stroke="#3a414a" fill="none"/><path d="M1650.1 2456.9h-.52v-1h.5z" stroke="#3a414a" stroke-width=".05" fill="#3a414a"/><path d="M1990.43 2456.4l-14.26 4.63v-9.27z" stroke="#3a414a" fill="#3a414a"/><path d="M1650.08 2701.2h325.6" stroke="#3a414a" fill="none"/><path d="M1650.1 2701.7h-.52v-1h.5z" stroke="#3a414a" stroke-width=".05" fill="#3a414a"/><path d="M1990.43 2701.2l-14.26 4.65v-9.27z" stroke="#3a414a" fill="#3a414a"/><defs><path fill="#5a6c86" d="M198-261c85 0 136 45 136 128 0 61-22 111-78 115-29 2-39-18-37-44-12 23-32 44-66 44-41 0-58-28-58-68 0-60 30-105 88-108 29-1 43 15 54 32l7-28h28c-9 45-23 84-27 134-1 11 6 17 14 16 39-4 51-48 51-92 0-69-42-107-112-107-93 0-145 59-145 153C53-15 94 26 168 27c43 0 78-13 106-28l9 19c-30 18-67 32-115 32C79 50 28-1 28-86c0-107 62-175 170-175zM158-41c46 0 70-43 70-90 0-26-17-40-43-40-44 0-59 41-61 85-1 26 9 45 34 45" id="A"/><path fill="#5a6c86" d="M141-36C126-15 110 5 73 4 37 3 15-17 15-53c-1-64 63-63 125-63 3-35-9-54-41-54-24 1-41 7-42 31l-33-3c5-37 33-52 76-52 45 0 72 20 72 64v82c-1 20 7 32 28 27v20c-31 9-61-2-59-35zM48-53c0 20 12 33 32 33 41-3 63-29 60-74-43 2-92-5-92 41" id="B"/><path fill="#5a6c86" d="M115-194c55 1 70 41 70 98S169 2 115 4C84 4 66-9 55-30l1 105H24l-1-265h31l2 30c10-21 28-34 59-34zm-8 174c40 0 45-34 45-75s-6-73-45-74c-42 0-51 32-51 76 0 43 10 73 51 73" id="C"/><path fill="#5a6c86" d="M33 0v-38h34V0H33" id="D"/><path fill="#5a6c86" d="M114-163C36-179 61-72 57 0H25l-1-190h30c1 12-1 29 2 39 6-27 23-49 58-41v29" id="E"/><path fill="#5a6c86" d="M100-194c62-1 85 37 85 99 1 63-27 99-86 99S16-35 15-95c0-66 28-99 85-99zM99-20c44 1 53-31 53-75 0-43-8-75-51-75s-53 32-53 75 10 74 51 75" id="F"/><path fill="#5a6c86" d="M84 4C-5 8 30-112 23-190h32v120c0 31 7 50 39 49 72-2 45-101 50-169h31l1 190h-30c-1-10 1-25-2-33-11 22-28 36-60 37" id="G"/><path fill="#5a6c86" d="M59-47c-2 24 18 29 38 22v24C64 9 27 4 27-40v-127H5v-23h24l9-43h21v43h35v23H59v120" id="H"/><path fill="#5a6c86" d="M100-194c63 0 86 42 84 106H49c0 40 14 67 53 68 26 1 43-12 49-29l28 8c-11 28-37 45-77 45C44 4 14-33 15-96c1-61 26-98 85-98zm52 81c6-60-76-77-97-28-3 7-6 17-6 28h103" id="I"/><g id="a"><use transform="matrix(0.05,0,0,0.05,0,0)" xlink:href="#A"/><use transform="matrix(0.05,0,0,0.05,18.25,0)" xlink:href="#B"/><use transform="matrix(0.05,0,0,0.05,28.25,0)" xlink:href="#C"/><use transform="matrix(0.05,0,0,0.05,38.25,0)" xlink:href="#C"/><use transform="matrix(0.05,0,0,0.05,48.25,0)" xlink:href="#D"/><use transform="matrix(0.05,0,0,0.05,53.25,0)" xlink:href="#E"/><use transform="matrix(0.05,0,0,0.05,59.2,0)" xlink:href="#F"/><use transform="matrix(0.05,0,0,0.05,69.2,0)" xlink:href="#G"/><use transform="matrix(0.05,0,0,0.05,79.2,0)" xlink:href="#H"/><use transform="matrix(0.05,0,0,0.05,84.2,0)" xlink:href="#I"/></g><path fill="#5a6c86" d="M63-220v92h138v28H63V0H30v-248h175v28H63" id="J"/><path fill="#5a6c86" d="M24 0v-261h32V0H24" id="K"/><path fill="#5a6c86" d="M135-143c-3-34-86-38-87 0 15 53 115 12 119 90S17 21 10-45l28-5c4 36 97 45 98 0-10-56-113-15-118-90-4-57 82-63 122-42 12 7 21 19 24 35" id="L"/><path fill="#5a6c86" d="M143 0L79-87 56-68V0H24v-261h32v163l83-92h37l-77 82L181 0h-38" id="M"/><path fill="#5a6c86" d="M16-82v-28h88v28H16" id="N"/><path fill="#5a6c86" d="M30 0v-248h33v221h125V0H30" id="O"/><path fill="#5a6c86" d="M177-190C167-65 218 103 67 71c-23-6-38-20-44-43l32-5c15 47 100 32 89-28v-30C133-14 115 1 83 1 29 1 15-40 15-95c0-56 16-97 71-98 29-1 48 16 59 35 1-10 0-23 2-32h30zM94-22c36 0 50-32 50-73 0-42-14-75-50-75-39 0-46 34-46 75s6 73 46 73" id="P"/><path fill="#5a6c86" d="M24-231v-30h32v30H24zM24 0v-190h32V0H24" id="Q"/><path fill="#5a6c86" d="M117-194c89-4 53 116 60 194h-32v-121c0-31-8-49-39-48C34-167 62-67 57 0H25l-1-190h30c1 10-1 24 2 32 11-22 29-35 61-36" id="R"/><g id="b"><use transform="matrix(0.05,0,0,0.05,0,0)" xlink:href="#J"/><use transform="matrix(0.05,0,0,0.05,10.950000000000001,0)" xlink:href="#K"/><use transform="matrix(0.05,0,0,0.05,14.9,0)" xlink:href="#B"/><use transform="matrix(0.05,0,0,0.05,24.900000000000002,0)" xlink:href="#L"/><use transform="matrix(0.05,0,0,0.05,33.900000000000006,0)" xlink:href="#M"/><use transform="matrix(0.05,0,0,0.05,42.900000000000006,0)" xlink:href="#N"/><use transform="matrix(0.05,0,0,0.05,48.85000000000001,0)" xlink:href="#O"/><use transform="matrix(0.05,0,0,0.05,58.85,0)" xlink:href="#F"/><use transform="matrix(0.05,0,0,0.05,68.85000000000001,0)" xlink:href="#P"/><use transform="matrix(0.05,0,0,0.05,78.85000000000001,0)" xlink:href="#Q"/><use transform="matrix(0.05,0,0,0.05,82.80000000000001,0)" xlink:href="#R"/></g><path fill="#5a6c86" d="M127-220V0H93v-220H8v-28h204v28h-85" id="S"/><path fill="#5a6c86" d="M210-169c-67 3-38 105-44 169h-31v-121c0-29-5-50-35-48C34-165 62-65 56 0H25l-1-190h30c1 10-1 24 2 32 10-44 99-50 107 0 11-21 27-35 58-36 85-2 47 119 55 194h-31v-121c0-29-5-49-35-48" id="T"/><g id="c"><use transform="matrix(0.05,0,0,0.05,0,0)" xlink:href="#S"/><use transform="matrix(0.05,0,0,0.05,8.950000000000001,0)" xlink:href="#I"/><use transform="matrix(0.05,0,0,0.05,18.950000000000003,0)" xlink:href="#T"/><use transform="matrix(0.05,0,0,0.05,33.900000000000006,0)" xlink:href="#C"/><use transform="matrix(0.05,0,0,0.05,43.900000000000006,0)" xlink:href="#K"/><use transform="matrix(0.05,0,0,0.05,47.85000000000001,0)" xlink:href="#B"/><use transform="matrix(0.05,0,0,0.05,57.85,0)" xlink:href="#H"/><use transform="matrix(0.05,0,0,0.05,62.85,0)" xlink:href="#I"/><use transform="matrix(0.05,0,0,0.05,72.85000000000001,0)" xlink:href="#L"/></g><path fill="#3a414a" d="M114-163C36-179 61-72 57 0H25l-1-190h30c1 12-1 29 2 39 6-27 23-49 58-41v29" id="U"/><path fill="#3a414a" d="M100-194c62-1 85 37 85 99 1 63-27 99-86 99S16-35 15-95c0-66 28-99 85-99zM99-20c44 1 53-31 53-75 0-43-8-75-51-75s-53 32-53 75 10 74 51 75" id="V"/><path fill="#3a414a" d="M84 4C-5 8 30-112 23-190h32v120c0 31 7 50 39 49 72-2 45-101 50-169h31l1 190h-30c-1-10 1-25-2-33-11 22-28 36-60 37" id="W"/><path fill="#3a414a" d="M59-47c-2 24 18 29 38 22v24C64 9 27 4 27-40v-127H5v-23h24l9-43h21v43h35v23H59v120" id="X"/><path fill="#3a414a" d="M100-194c63 0 86 42 84 106H49c0 40 14 67 53 68 26 1 43-12 49-29l28 8c-11 28-37 45-77 45C44 4 14-33 15-96c1-61 26-98 85-98zm52 81c6-60-76-77-97-28-3 7-6 17-6 28h103" id="Y"/><g id="d"><use transform="matrix(0.06172839506172839,0,0,0.06172839506172839,0,0)" xlink:href="#U"/><use transform="matrix(0.06172839506172839,0,0,0.06172839506172839,7.345679012345679,0)" xlink:href="#V"/><use transform="matrix(0.06172839506172839,0,0,0.06172839506172839,19.691358024691358,0)" xlink:href="#W"/><use transform="matrix(0.06172839506172839,0,0,0.06172839506172839,32.03703703703704,0)" xlink:href="#X"/><use transform="matrix(0.06172839506172839,0,0,0.06172839506172839,38.20987654320988,0)" xlink:href="#Y"/></g><path fill="#3a414a" d="M4 7l51-268h42L46 7H4" id="Z"/><use transform="matrix(0.06172839506172839,0,0,0.06172839506172839,0,0)" xlink:href="#Z" id="e"/><path fill="#3a414a" d="M117-194c89-4 53 116 60 194h-32v-121c0-31-8-49-39-48C34-167 62-67 57 0H25l-1-190h30c1 10-1 24 2 32 11-22 29-35 61-36" id="aa"/><path fill="#3a414a" d="M85-194c31 0 48 13 60 33l-1-100h32l1 261h-30c-2-10 0-23-3-31C134-8 116 4 85 4 32 4 16-35 15-94c0-66 23-100 70-100zm9 24c-40 0-46 34-46 75 0 40 6 74 45 74 42 0 51-32 51-76 0-42-9-74-50-73" id="ab"/><g id="f"><use transform="matrix(0.06172839506172839,0,0,0.06172839506172839,0,0)" xlink:href="#U"/><use transform="matrix(0.06172839506172839,0,0,0.06172839506172839,7.345679012345679,0)" xlink:href="#Y"/><use transform="matrix(0.06172839506172839,0,0,0.06172839506172839,19.691358024691358,0)" xlink:href="#aa"/><use transform="matrix(0.06172839506172839,0,0,0.06172839506172839,32.03703703703704,0)" xlink:href="#ab"/><use transform="matrix(0.06172839506172839,0,0,0.06172839506172839,44.382716049382715,0)" xlink:href="#Y"/><use transform="matrix(0.06172839506172839,0,0,0.06172839506172839,56.72839506172839,0)" xlink:href="#U"/></g><path fill="#3a414a" d="M210-169c-67 3-38 105-44 169h-31v-121c0-29-5-50-35-48C34-165 62-65 56 0H25l-1-190h30c1 10-1 24 2 32 10-44 99-50 107 0 11-21 27-35 58-36 85-2 47 119 55 194h-31v-121c0-29-5-49-35-48" id="ac"/><path fill="#3a414a" d="M115-194c55 1 70 41 70 98S169 2 115 4C84 4 66-9 55-30l1 105H24l-1-265h31l2 30c10-21 28-34 59-34zm-8 174c40 0 45-34 45-75s-6-73-45-74c-42 0-51 32-51 76 0 43 10 73 51 73" id="ad"/><path fill="#3a414a" d="M24 0v-261h32V0H24" id="ae"/><path fill="#3a414a" d="M141-36C126-15 110 5 73 4 37 3 15-17 15-53c-1-64 63-63 125-63 3-35-9-54-41-54-24 1-41 7-42 31l-33-3c5-37 33-52 76-52 45 0 72 20 72 64v82c-1 20 7 32 28 27v20c-31 9-61-2-59-35zM48-53c0 20 12 33 32 33 41-3 63-29 60-74-43 2-92-5-92 41" id="af"/><g id="g"><use transform="matrix(0.06172839506172839,0,0,0.06172839506172839,0,0)" xlink:href="#X"/><use transform="matrix(0.06172839506172839,0,0,0.06172839506172839,6.172839506172839,0)" xlink:href="#Y"/><use transform="matrix(0.06172839506172839,0,0,0.06172839506172839,18.51851851851852,0)" xlink:href="#ac"/><use transform="matrix(0.06172839506172839,0,0,0.06172839506172839,36.9753086419753,0)" xlink:href="#ad"/><use transform="matrix(0.06172839506172839,0,0,0.06172839506172839,49.32098765432098,0)" xlink:href="#ae"/><use transform="matrix(0.06172839506172839,0,0,0.06172839506172839,54.197530864197525,0)" xlink:href="#af"/><use transform="matrix(0.06172839506172839,0,0,0.06172839506172839,66.5432098765432,0)" xlink:href="#X"/><use transform="matrix(0.06172839506172839,0,0,0.06172839506172839,72.71604938271604,0)" xlink:href="#Y"/></g><path fill="#3a414a" d="M25 0v-261h50V0H25" id="ag"/><path fill="#3a414a" d="M110-194c64 0 96 36 96 99 0 64-35 99-97 99-61 0-95-36-95-99 0-62 34-99 96-99zm-1 164c35 0 45-28 45-65 0-40-10-65-43-65-34 0-45 26-45 65 0 36 10 65 43 65" id="ah"/><path fill="#3a414a" d="M195-6C206 82 75 100 31 46c-4-6-6-13-8-21l49-6c3 16 16 24 34 25 40 0 42-37 40-79-11 22-30 35-61 35-53 0-70-43-70-97 0-56 18-96 73-97 30 0 46 14 59 34l2-30h47zm-90-29c32 0 41-27 41-63 0-35-9-62-40-62-32 0-39 29-40 63 0 36 9 62 39 62" id="ai"/><path fill="#3a414a" d="M25-224v-37h50v37H25zM25 0v-190h50V0H25" id="aj"/><path fill="#3a414a" d="M135-194c87-1 58 113 63 194h-50c-7-57 23-157-34-157-59 0-34 97-39 157H25l-1-190h47c2 12-1 28 3 38 12-26 28-41 61-42" id="ak"/><path fill="#3a414a" d="M24 0v-54h51V0H24" id="al"/><path fill="#3a414a" d="M114-157C55-157 80-60 75 0H25v-261h50l-1 109c12-26 28-41 61-42 86-1 58 113 63 194h-50c-7-57 23-157-34-157" id="am"/><path fill="#3a414a" d="M115-3C79 11 28 4 28-45v-112H4v-33h27l15-45h31v45h36v33H77v99c-1 23 16 31 38 25v30" id="an"/><path fill="#3a414a" d="M220-157c-53 9-28 100-34 157h-49v-107c1-27-5-49-29-50C55-147 81-57 75 0H25l-1-190h47c2 12-1 28 3 38 10-53 101-56 108 0 13-22 24-43 59-42 82 1 51 116 57 194h-49v-107c-1-25-5-48-29-50" id="ao"/><g id="h"><use transform="matrix(0.06172839506172839,0,0,0.06172839506172839,0,0)" xlink:href="#ag"/><use transform="matrix(0.06172839506172839,0,0,0.06172839506172839,6.172839506172839,0)" xlink:href="#ah"/><use transform="matrix(0.06172839506172839,0,0,0.06172839506172839,19.691358024691358,0)" xlink:href="#ai"/><use transform="matrix(0.06172839506172839,0,0,0.06172839506172839,33.20987654320987,0)" xlink:href="#aj"/><use transform="matrix(0.06172839506172839,0,0,0.06172839506172839,39.382716049382715,0)" xlink:href="#ak"/><use transform="matrix(0.06172839506172839,0,0,0.06172839506172839,52.901234567901234,0)" xlink:href="#al"/><use transform="matrix(0.06172839506172839,0,0,0.06172839506172839,59.074074074074076,0)" xlink:href="#am"/><use transform="matrix(0.06172839506172839,0,0,0.06172839506172839,72.5925925925926,0)" xlink:href="#an"/><use transform="matrix(0.06172839506172839,0,0,0.06172839506172839,79.93827160493828,0)" xlink:href="#ao"/><use transform="matrix(0.06172839506172839,0,0,0.06172839506172839,99.69135802469137,0)" xlink:href="#ag"/></g><g id="i"><use transform="matrix(0.06172839506172839,0,0,0.06172839506172839,0,0)" xlink:href="#Z"/><use transform="matrix(0.06172839506172839,0,0,0.06172839506172839,6.172839506172839,0)" xlink:href="#ag"/><use transform="matrix(0.06172839506172839,0,0,0.06172839506172839,12.345679012345679,0)" xlink:href="#ah"/><use transform="matrix(0.06172839506172839,0,0,0.06172839506172839,25.864197530864196,0)" xlink:href="#ai"/><use transform="matrix(0.06172839506172839,0,0,0.06172839506172839,39.382716049382715,0)" xlink:href="#aj"/><use transform="matrix(0.06172839506172839,0,0,0.06172839506172839,45.55555555555556,0)" xlink:href="#ak"/></g><path fill="#3a414a" d="M185-48c-13 30-37 53-82 52C43 2 14-33 14-96s30-98 90-98c62 0 83 45 84 108H66c0 31 8 55 39 56 18 0 30-7 34-22zm-45-69c5-46-57-63-70-21-2 6-4 13-4 21h74" id="ap"/><g id="j"><use transform="matrix(0.06172839506172839,0,0,0.06172839506172839,0,0)" xlink:href="#am"/><use transform="matrix(0.06172839506172839,0,0,0.06172839506172839,13.518518518518517,0)" xlink:href="#ah"/><use transform="matrix(0.06172839506172839,0,0,0.06172839506172839,27.037037037037035,0)" xlink:href="#ao"/><use transform="matrix(0.06172839506172839,0,0,0.06172839506172839,46.79012345679012,0)" xlink:href="#ap"/><use transform="matrix(0.06172839506172839,0,0,0.06172839506172839,59.1358024691358,0)" xlink:href="#al"/><use transform="matrix(0.06172839506172839,0,0,0.06172839506172839,65.30864197530863,0)" xlink:href="#am"/><use transform="matrix(0.06172839506172839,0,0,0.06172839506172839,78.82716049382715,0)" xlink:href="#an"/><use transform="matrix(0.06172839506172839,0,0,0.06172839506172839,86.17283950617283,0)" xlink:href="#ao"/><use transform="matrix(0.06172839506172839,0,0,0.06172839506172839,105.92592592592592,0)" xlink:href="#ag"/></g><g id="k"><use transform="matrix(0.06172839506172839,0,0,0.06172839506172839,0,0)" xlink:href="#U"/><use transform="matrix(0.06172839506172839,0,0,0.06172839506172839,7.345679012345679,0)" xlink:href="#V"/><use transform="matrix(0.06172839506172839,0,0,0.06172839506172839,19.691358024691358,0)" xlink:href="#W"/><use transform="matrix(0.06172839506172839,0,0,0.06172839506172839,32.03703703703704,0)" xlink:href="#X"/><use transform="matrix(0.06172839506172839,0,0,0.06172839506172839,38.20987654320988,0)" xlink:href="#Y"/></g><path fill="#3a414a" d="M133-34C117-15 103 5 69 4 32 3 11-16 11-54c-1-60 55-63 116-61 1-26-3-47-28-47-18 1-26 9-28 27l-52-2c7-38 36-58 82-57s74 22 75 68l1 82c-1 14 12 18 25 15v27c-30 8-71 5-69-32zm-48 3c29 0 43-24 42-57-32 0-66-3-65 30 0 17 8 27 23 27" id="aq"/><path fill="#3a414a" d="M85 4C-2 5 27-109 22-190h50c7 57-23 150 33 157 60-5 35-97 40-157h50l1 190h-47c-2-12 1-28-3-38-12 25-28 42-61 42" id="ar"/><g id="l"><use transform="matrix(0.06172839506172839,0,0,0.06172839506172839,0,0)" xlink:href="#Z"/><use transform="matrix(0.06172839506172839,0,0,0.06172839506172839,6.172839506172839,0)" xlink:href="#aq"/><use transform="matrix(0.06172839506172839,0,0,0.06172839506172839,18.51851851851852,0)" xlink:href="#ar"/><use transform="matrix(0.06172839506172839,0,0,0.06172839506172839,32.03703703703704,0)" xlink:href="#an"/><use transform="matrix(0.06172839506172839,0,0,0.06172839506172839,39.382716049382715,0)" xlink:href="#am"/></g><g id="m"><use transform="matrix(0.06172839506172839,0,0,0.06172839506172839,0,0)" xlink:href="#Z"/><use transform="matrix(0.06172839506172839,0,0,0.06172839506172839,6.172839506172839,0)" xlink:href="#ag"/><use transform="matrix(0.06172839506172839,0,0,0.06172839506172839,12.345679012345679,0)" xlink:href="#ah"/><use transform="matrix(0.06172839506172839,0,0,0.06172839506172839,25.864197530864196,0)" xlink:href="#ai"/><use transform="matrix(0.06172839506172839,0,0,0.06172839506172839,39.382716049382715,0)" xlink:href="#ah"/><use transform="matrix(0.06172839506172839,0,0,0.06172839506172839,52.901234567901234,0)" xlink:href="#ar"/><use transform="matrix(0.06172839506172839,0,0,0.06172839506172839,66.41975308641975,0)" xlink:href="#an"/></g><path fill="#3a414a" d="M135-194c53 0 70 44 70 98 0 56-19 98-73 100-31 1-45-17-59-34 3 33 2 69 2 105H25l-1-265h48c2 10 0 23 3 31 11-24 29-35 60-35zM114-30c33 0 39-31 40-66 0-38-9-64-40-64-56 0-55 130 0 130" id="as"/><path fill="#3a414a" d="M137-138c1-29-70-34-71-4 15 46 118 7 119 86 1 83-164 76-172 9l43-7c4 19 20 25 44 25 33 8 57-30 24-41C81-84 22-81 20-136c-2-80 154-74 161-7" id="at"/><g id="n"><use transform="matrix(0.06172839506172839,0,0,0.06172839506172839,0,0)" xlink:href="#Z"/><use transform="matrix(0.06172839506172839,0,0,0.06172839506172839,6.172839506172839,0)" xlink:href="#as"/><use transform="matrix(0.06172839506172839,0,0,0.06172839506172839,19.691358024691358,0)" xlink:href="#ah"/><use transform="matrix(0.06172839506172839,0,0,0.06172839506172839,33.20987654320987,0)" xlink:href="#at"/><use transform="matrix(0.06172839506172839,0,0,0.06172839506172839,45.55555555555555,0)" xlink:href="#an"/></g><path fill="#3a414a" d="M128 0H69L1-190h53L99-40l48-150h52" id="au"/><g id="o"><use transform="matrix(0.06172839506172839,0,0,0.06172839506172839,0,0)" xlink:href="#Z"/><use transform="matrix(0.06172839506172839,0,0,0.06172839506172839,6.172839506172839,0)" xlink:href="#at"/><use transform="matrix(0.06172839506172839,0,0,0.06172839506172839,18.51851851851852,0)" xlink:href="#aq"/><use transform="matrix(0.06172839506172839,0,0,0.06172839506172839,30.864197530864196,0)" xlink:href="#au"/><use transform="matrix(0.06172839506172839,0,0,0.06172839506172839,43.20987654320987,0)" xlink:href="#ap"/></g><path fill="#3a414a" d="M88-194c31-1 46 15 58 34l-1-101h50l1 261h-48c-2-10 0-23-3-31C134-8 116 4 84 4 32 4 16-41 15-95c0-56 19-97 73-99zm17 164c33 0 40-30 41-66 1-37-9-64-41-64s-38 30-39 65c0 43 13 65 39 65" id="av"/><g id="p"><use transform="matrix(0.06172839506172839,0,0,0.06172839506172839,0,0)" xlink:href="#Z"/><use transform="matrix(0.06172839506172839,0,0,0.06172839506172839,6.172839506172839,0)" xlink:href="#av"/><use transform="matrix(0.06172839506172839,0,0,0.06172839506172839,19.691358024691358,0)" xlink:href="#ap"/><use transform="matrix(0.06172839506172839,0,0,0.06172839506172839,32.03703703703704,0)" xlink:href="#ag"/><use transform="matrix(0.06172839506172839,0,0,0.06172839506172839,38.20987654320988,0)" xlink:href="#ap"/><use transform="matrix(0.06172839506172839,0,0,0.06172839506172839,50.55555555555556,0)" xlink:href="#an"/><use transform="matrix(0.06172839506172839,0,0,0.06172839506172839,57.901234567901234,0)" xlink:href="#ap"/></g><path fill="#3a414a" d="M123 10C108 53 80 86 19 72V37c35 8 53-11 59-39L3-190h52l48 148c12-52 28-100 44-148h51" id="aw"/><g id="q"><use transform="matrix(0.06172839506172839,0,0,0.06172839506172839,0,0)" xlink:href="#Z"/><use transform="matrix(0.06172839506172839,0,0,0.06172839506172839,6.172839506172839,0)" xlink:href="#ao"/><use transform="matrix(0.06172839506172839,0,0,0.06172839506172839,25.925925925925924,0)" xlink:href="#aw"/></g><path fill="#3a414a" d="M190-63c-7 42-38 67-86 67-59 0-84-38-90-98-12-110 154-137 174-36l-49 2c-2-19-15-32-35-32-30 0-35 28-38 64-6 74 65 87 74 30" id="ax"/><g id="r"><use transform="matrix(0.06172839506172839,0,0,0.06172839506172839,0,0)" xlink:href="#Z"/><use transform="matrix(0.06172839506172839,0,0,0.06172839506172839,6.172839506172839,0)" xlink:href="#aq"/><use transform="matrix(0.06172839506172839,0,0,0.06172839506172839,18.51851851851852,0)" xlink:href="#ax"/><use transform="matrix(0.06172839506172839,0,0,0.06172839506172839,30.864197530864196,0)" xlink:href="#ax"/></g><g id="s"><use transform="matrix(0.06172839506172839,0,0,0.06172839506172839,0,0)" xlink:href="#Z"/><use transform="matrix(0.06172839506172839,0,0,0.06172839506172839,6.172839506172839,0)" xlink:href="#aj"/><use transform="matrix(0.06172839506172839,0,0,0.06172839506172839,12.345679012345679,0)" xlink:href="#ao"/><use transform="matrix(0.06172839506172839,0,0,0.06172839506172839,32.098765432098766,0)" xlink:href="#aq"/><use transform="matrix(0.06172839506172839,0,0,0.06172839506172839,44.44444444444444,0)" xlink:href="#ai"/><use transform="matrix(0.06172839506172839,0,0,0.06172839506172839,57.96296296296296,0)" xlink:href="#ap"/><use transform="matrix(0.06172839506172839,0,0,0.06172839506172839,70.30864197530865,0)" xlink:href="#Z"/></g><path fill="#3a414a" d="M135-143c-3-34-86-38-87 0 15 53 115 12 119 90S17 21 10-45l28-5c4 36 97 45 98 0-10-56-113-15-118-90-4-57 82-63 122-42 12 7 21 19 24 35" id="ay"/><g id="t"><use transform="matrix(0.06172839506172839,0,0,0.06172839506172839,0,0)" xlink:href="#W"/><use transform="matrix(0.06172839506172839,0,0,0.06172839506172839,12.345679012345679,0)" xlink:href="#ay"/><use transform="matrix(0.06172839506172839,0,0,0.06172839506172839,23.45679012345679,0)" xlink:href="#Y"/><use transform="matrix(0.06172839506172839,0,0,0.06172839506172839,35.80246913580247,0)" xlink:href="#U"/></g><path fill="#3a414a" d="M-4 44V30h207v14H-4" id="az"/><path fill="#3a414a" d="M67-93c0 74 22 123 53 168H70C40 30 18-18 18-93s22-123 52-168h50c-32 44-53 94-53 168" id="aA"/><path fill="#3a414a" d="M102-93c0 74-22 123-52 168H0C30 29 54-18 53-93c0-74-22-123-53-168h50c30 45 52 94 52 168" id="aB"/><g id="u"><use transform="matrix(0.06172839506172839,0,0,0.06172839506172839,0,0)" xlink:href="#aj"/><use transform="matrix(0.06172839506172839,0,0,0.06172839506172839,6.172839506172839,0)" xlink:href="#at"/><use transform="matrix(0.06172839506172839,0,0,0.06172839506172839,18.51851851851852,0)" xlink:href="#az"/><use transform="matrix(0.06172839506172839,0,0,0.06172839506172839,30.864197530864196,0)" xlink:href="#aq"/><use transform="matrix(0.06172839506172839,0,0,0.06172839506172839,43.20987654320987,0)" xlink:href="#ar"/><use transform="matrix(0.06172839506172839,0,0,0.06172839506172839,56.72839506172839,0)" xlink:href="#an"/><use transform="matrix(0.06172839506172839,0,0,0.06172839506172839,64.07407407407408,0)" xlink:href="#am"/><use transform="matrix(0.06172839506172839,0,0,0.06172839506172839,77.5925925925926,0)" xlink:href="#ap"/><use transform="matrix(0.06172839506172839,0,0,0.06172839506172839,89.93827160493828,0)" xlink:href="#ak"/><use transform="matrix(0.06172839506172839,0,0,0.06172839506172839,103.4567901234568,0)" xlink:href="#an"/><use transform="matrix(0.06172839506172839,0,0,0.06172839506172839,110.80246913580248,0)" xlink:href="#aj"/><use transform="matrix(0.06172839506172839,0,0,0.06172839506172839,116.97530864197532,0)" xlink:href="#ax"/><use transform="matrix(0.06172839506172839,0,0,0.06172839506172839,129.320987654321,0)" xlink:href="#aq"/><use transform="matrix(0.06172839506172839,0,0,0.06172839506172839,141.66666666666666,0)" xlink:href="#an"/><use transform="matrix(0.06172839506172839,0,0,0.06172839506172839,149.01234567901233,0)" xlink:href="#ap"/><use transform="matrix(0.06172839506172839,0,0,0.06172839506172839,161.358024691358,0)" xlink:href="#av"/><use transform="matrix(0.06172839506172839,0,0,0.06172839506172839,174.8765432098765,0)" xlink:href="#aA"/><use transform="matrix(0.06172839506172839,0,0,0.06172839506172839,182.22222222222217,0)" xlink:href="#aB"/></g><g id="v"><use transform="matrix(0.06172839506172839,0,0,0.06172839506172839,0,0)" xlink:href="#U"/><use transform="matrix(0.06172839506172839,0,0,0.06172839506172839,7.345679012345679,0)" xlink:href="#Y"/><use transform="matrix(0.06172839506172839,0,0,0.06172839506172839,19.691358024691358,0)" xlink:href="#aa"/><use transform="matrix(0.06172839506172839,0,0,0.06172839506172839,32.03703703703704,0)" xlink:href="#ab"/><use transform="matrix(0.06172839506172839,0,0,0.06172839506172839,44.382716049382715,0)" xlink:href="#Y"/><use transform="matrix(0.06172839506172839,0,0,0.06172839506172839,56.72839506172839,0)" xlink:href="#U"/></g><g id="w"><use transform="matrix(0.06172839506172839,0,0,0.06172839506172839,0,0)" xlink:href="#X"/><use transform="matrix(0.06172839506172839,0,0,0.06172839506172839,6.172839506172839,0)" xlink:href="#Y"/><use transform="matrix(0.06172839506172839,0,0,0.06172839506172839,18.51851851851852,0)" xlink:href="#ac"/><use transform="matrix(0.06172839506172839,0,0,0.06172839506172839,36.9753086419753,0)" xlink:href="#ad"/><use transform="matrix(0.06172839506172839,0,0,0.06172839506172839,49.32098765432098,0)" xlink:href="#ae"/><use transform="matrix(0.06172839506172839,0,0,0.06172839506172839,54.197530864197525,0)" xlink:href="#af"/><use transform="matrix(0.06172839506172839,0,0,0.06172839506172839,66.5432098765432,0)" xlink:href="#X"/><use transform="matrix(0.06172839506172839,0,0,0.06172839506172839,72.71604938271604,0)" xlink:href="#Y"/></g><g id="x"><use transform="matrix(0.06172839506172839,0,0,0.06172839506172839,0,0)" xlink:href="#as"/><use transform="matrix(0.06172839506172839,0,0,0.06172839506172839,13.518518518518517,0)" xlink:href="#ah"/><use transform="matrix(0.06172839506172839,0,0,0.06172839506172839,27.037037037037035,0)" xlink:href="#at"/><use transform="matrix(0.06172839506172839,0,0,0.06172839506172839,39.382716049382715,0)" xlink:href="#an"/><use transform="matrix(0.06172839506172839,0,0,0.06172839506172839,46.72839506172839,0)" xlink:href="#az"/><use transform="matrix(0.06172839506172839,0,0,0.06172839506172839,59.07407407407407,0)" xlink:href="#aj"/><use transform="matrix(0.06172839506172839,0,0,0.06172839506172839,65.24691358024691,0)" xlink:href="#ao"/><use transform="matrix(0.06172839506172839,0,0,0.06172839506172839,85,0)" xlink:href="#aq"/><use transform="matrix(0.06172839506172839,0,0,0.06172839506172839,97.34567901234568,0)" xlink:href="#ai"/><use transform="matrix(0.06172839506172839,0,0,0.06172839506172839,110.8641975308642,0)" xlink:href="#ap"/><use transform="matrix(0.06172839506172839,0,0,0.06172839506172839,123.20987654320989,0)" xlink:href="#al"/><use transform="matrix(0.06172839506172839,0,0,0.06172839506172839,129.38271604938274,0)" xlink:href="#am"/><use transform="matrix(0.06172839506172839,0,0,0.06172839506172839,142.90123456790124,0)" xlink:href="#an"/><use transform="matrix(0.06172839506172839,0,0,0.06172839506172839,150.2469135802469,0)" xlink:href="#ao"/><use transform="matrix(0.06172839506172839,0,0,0.06172839506172839,170,0)" xlink:href="#ag"/></g><g id="y"><use transform="matrix(0.06172839506172839,0,0,0.06172839506172839,0,0)" xlink:href="#ao"/><use transform="matrix(0.06172839506172839,0,0,0.06172839506172839,19.753086419753085,0)" xlink:href="#aw"/><use transform="matrix(0.06172839506172839,0,0,0.06172839506172839,32.098765432098766,0)" xlink:href="#az"/><use transform="matrix(0.06172839506172839,0,0,0.06172839506172839,44.44444444444444,0)" xlink:href="#aq"/><use transform="matrix(0.06172839506172839,0,0,0.06172839506172839,56.79012345679012,0)" xlink:href="#ax"/><use transform="matrix(0.06172839506172839,0,0,0.06172839506172839,69.1358024691358,0)" xlink:href="#ax"/><use transform="matrix(0.06172839506172839,0,0,0.06172839506172839,81.48148148148148,0)" xlink:href="#ah"/><use transform="matrix(0.06172839506172839,0,0,0.06172839506172839,95,0)" xlink:href="#ar"/><use transform="matrix(0.06172839506172839,0,0,0.06172839506172839,108.51851851851852,0)" xlink:href="#ak"/><use transform="matrix(0.06172839506172839,0,0,0.06172839506172839,122.03703703703704,0)" xlink:href="#an"/><use transform="matrix(0.06172839506172839,0,0,0.06172839506172839,129.3827160493827,0)" xlink:href="#al"/><use transform="matrix(0.06172839506172839,0,0,0.06172839506172839,135.55555555555554,0)" xlink:href="#am"/><use transform="matrix(0.06172839506172839,0,0,0.06172839506172839,149.07407407407405,0)" xlink:href="#an"/><use transform="matrix(0.06172839506172839,0,0,0.06172839506172839,156.41975308641972,0)" xlink:href="#ao"/><use transform="matrix(0.06172839506172839,0,0,0.06172839506172839,176.1728395061728,0)" xlink:href="#ag"/></g><g id="z"><use transform="matrix(0.06172839506172839,0,0,0.06172839506172839,0,0)" xlink:href="#aj"/><use transform="matrix(0.06172839506172839,0,0,0.06172839506172839,6.172839506172839,0)" xlink:href="#ao"/><use transform="matrix(0.06172839506172839,0,0,0.06172839506172839,25.925925925925924,0)" xlink:href="#aq"/><use transform="matrix(0.06172839506172839,0,0,0.06172839506172839,38.2716049382716,0)" xlink:href="#ai"/><use transform="matrix(0.06172839506172839,0,0,0.06172839506172839,51.79012345679012,0)" xlink:href="#ap"/><use transform="matrix(0.06172839506172839,0,0,0.06172839506172839,64.1358024691358,0)" xlink:href="#al"/><use transform="matrix(0.06172839506172839,0,0,0.06172839506172839,70.30864197530863,0)" xlink:href="#am"/><use transform="matrix(0.06172839506172839,0,0,0.06172839506172839,83.82716049382715,0)" xlink:href="#an"/><use transform="matrix(0.06172839506172839,0,0,0.06172839506172839,91.17283950617283,0)" xlink:href="#ao"/><use transform="matrix(0.06172839506172839,0,0,0.06172839506172839,110.92592592592592,0)" xlink:href="#ag"/></g></defs></g></svg>