<svg xmlns="http://www.w3.org/2000/svg" xmlns:xlink="http://www.w3.org/1999/xlink" xmlns:lucid="lucid" width="1244" height="348"><g transform="translate(-392.0000000000389 -447.9999999999612)" lucid:page-tab-id="0_0"><path d="M0 0h1870.87v1322.83H0z" fill="#fff"/><path d="M412 474a6 6 0 0 1 6-6h1192a6 6 0 0 1 6 6v296a6 6 0 0 1-6 6H418a6 6 0 0 1-6-6z" stroke="#232f3e" fill="#fff" fill-opacity="0"/><path d="M412 468h56v56h-56v-56z" stroke="#fff" stroke-opacity="0" fill="#232f3e"/><path d="M452.88 509.22h-25c-4.13.05-7.57-3.1-7.9-7.2v-.64c-.15-3.4 1.97-6.38 5.25-7.36v-.66c.12-4.22 2.44-7.75 6.24-9.57 4.12-1.86 8.73-.96 11.8 2.3 1.1 1.1 1.85 2.2 2.45 3.6 1.2-1 2.72-1.32 4.24-.9 2.24.8 3.68 2.74 3.76 5.1 3.68.65 6.32 3.8 6.28 7.56 0 7.07-7.04 7.73-7.12 7.76zm-26.7-13.88c-2.83.6-4.75 3.14-4.6 6.04v.53c.3 3.33 3.1 5.84 6.4 5.76h24.98c3.04-.3 5.4-2.64 5.68-5.7.28-3.43-2.24-6.5-5.68-6.78-.44-.05-.72-.44-.64-.87.08-1.83-1-3.44-2.72-4.13-1.32-.37-2.64.13-3.44 1.24-.2.25-.44.38-.76.33-.28-.05-.48-.24-.6-.5-.6-1.6-1.4-2.85-2.6-4.04-2.68-2.8-6.6-3.6-10.13-2-3.24 1.6-5.2 4.63-5.32 8.24-.04.4-.04.74 0 1.14.04.4-.2.76-.6.84z" stroke="#fff" stroke-opacity="0" fill="#fff"/><use xlink:href="#a" transform="matrix(1,0,0,1,483.0000000000389,487.9999999999612) translate(0 14.4)"/><use xlink:href="#b" transform="matrix(1,0,0,1,483.0000000000389,487.9999999999612) translate(45.3 14.4)"/><path d="M693.7 654c-10.84 0-28.1-2.46-28.32-9.1l-7.73-57.2c-.14-.97.43-1.86 1.37-2.06.94-.14 1.88.47 2.1 1.43.8 3.28 13.65 7.86 32.64 7.86 19 0 31.86-4.58 32.65-7.86.23-.96 1.17-1.57 2.1-1.43.95.2 1.52 1.1 1.38 2.05L722 644.9c0 2.26-2.1 4.18-6 5.75-1.8.68-3.38 1.16-5.26 1.57-5.92 1.3-10.98 1.78-17.05 1.78zm-31.93-61.66l6.93 52.3v.2c0 2.05 9.75 5.8 24.92 5.8 5.78.08 10.62-.47 16.25-1.63 1.73-.4 3.18-.88 4.84-1.56 3.12-1.23 3.84-2.33 3.84-2.67v-.2l7-52.23c-6.57 3.9-19.8 6-31.92 6-12.13 0-25.28-2.1-31.85-6z" stroke="#fff" stroke-opacity="0" fill="#3f8624"/><path d="M693.7 598.32c-16.14 0-34.24-3.65-35.97-10.4V586.98v-.23c0-7.52 19.03-12.77 36.12-12.77 17.1 0 35.98 5.25 35.98 12.77v.22l-.07.7v.2c-1.88 6.77-19.98 10.42-36.05 10.42zm-32.66-11.2c1.1 3.3 13.85 7.8 32.67 7.8s31.6-4.5 32.67-7.8v-.45c-.22-3.3-13.63-9.26-32.66-9.26-19.03 0-32.5 5.96-32.73 9.27zM729.88 621.86c-8.07 0-25.83-8-36.92-13.46l1.5-3.06c15.3 7.53 33.35 14.5 36.45 13.18-.23-.48-1.4-2.02-6.82-4.97l-.24-.17 1.7-2.96.24.17c5.47 2.98 8.07 5.3 8.53 7.5.17.93-.07 1.83-.7 2.57-1.03.95-2.3 1.36-3.72 1.2z" stroke="#fff" stroke-opacity="0" fill="#3f8624"/><path d="M693.7 610.6c-2.03 0-3.7-1.66-3.7-3.7s1.67-3.7 3.7-3.7c2.04 0 3.7 1.66 3.7 3.7s-1.66 3.7-3.7 3.7zm0-4c-.17 0-.3.14-.3.3 0 .33.6.33.6 0v-.04c0-.16-.13-.28-.3-.28z" stroke="#fff" stroke-opacity="0" fill="#3f8624"/><use xlink:href="#c" transform="matrix(1,0,0,1,627.6500000000233,662.9999999999611) translate(29.67283950617285 17.77777777777778)"/><path d="M475 647.43l-28.2-28.22-15.54 15.55-2.7-2.73 16.85-16.9c.8-.74 1.98-.74 2.76 0l29.54 29.62z" stroke="#fff" stroke-opacity="0" fill="#d86613"/><path d="M505.28 631.46l-21.83-21.84-21.35 21.4-2.72-2.7 22.75-22.77c.73-.74 1.95-.74 2.68 0l23.2 23.2zM460.9 611.96c-4.94.02-8.96-4-8.98-8.96-.02-4.97 4-9 8.96-9 4.95-.03 8.97 4 9 8.96v.04c-.03 4.94-4.03 8.95-8.97 8.96zm0-14.1c-2.84 0-5.14 2.3-5.14 5.14s2.3 5.14 5.13 5.14 5.13-2.3 5.13-5.14-2.28-5.15-5.12-5.15z" stroke="#fff" stroke-opacity="0" fill="#d86613"/><path d="M506 654H429.9c-1.04 0-1.92-.88-1.92-1.92v-76.16c0-1.04.88-1.92 1.92-1.92H506c1.03 0 1.9.88 1.9 1.92v76.16c0 1.04-.87 1.92-1.9 1.92zm-74.16-3.84h72.23v-72.32h-72.23z" stroke="#fff" stroke-opacity="0" fill="#d86613"/><use xlink:href="#d" transform="matrix(1,0,0,1,398.0000000000389,662.9999999999611) translate(29.382716049382715 17.77777777777778)"/><use xlink:href="#e" transform="matrix(1,0,0,1,398.0000000000389,662.9999999999611) translate(71.17283950617283 17.77777777777778)"/><use xlink:href="#f" transform="matrix(1,0,0,1,398.0000000000389,662.9999999999611) translate(16.388888888888893 44.44444444444444)"/><use xlink:href="#g" transform="matrix(1,0,0,1,398.0000000000389,662.9999999999611) translate(63.24074074074075 44.44444444444444)"/><path d="M508.4 614h136.42" stroke="#3a414a" fill="none"/><path d="M508.42 614.5h-.52v-1h.52z" stroke="#3a414a" stroke-width=".05" fill="#3a414a"/><path d="M659.6 614l-14.28 4.64v-9.28z" stroke="#3a414a" fill="#3a414a"/><path d="M901.95 554h120v120h-120V554z" stroke="#fff" stroke-opacity="0" stroke-width="2" fill="#d86613"/><path d="M998.75 654h-19.7c-.65 0-1.17-.32-1.42-.88l-27.9-58.32h-11.8c-.9 0-1.6-.72-1.6-1.6v-17.6c0-.88.7-1.6 1.6-1.6h24.65c.64 0 1.16.32 1.4.88l27.8 58.32h6.97c.9 0 1.6.72 1.6 1.6v17.6c0 .88-.7 1.6-1.6 1.6zm-18.7-3.2h17.1v-14.4h-6.4c-.64 0-1.15-.32-1.4-.88l-27.8-58.32h-22v14.4h11.2c.63 0 1.14.32 1.46.88z" stroke="#fff" stroke-opacity="0" stroke-width="2" fill="#fff"/><path d="M945.9 654h-20.77c-.57 0-1.07-.3-1.38-.73-.32-.54-.32-1.12-.08-1.6l21.78-45.46c.25-.58.8-.92 1.4-.92.65 0 1.18.34 1.47.88l10.4 21.43c.25.43.25.92 0 1.4L947.36 653c-.2.63-.78 1.02-1.45 1.02zm-18.22-3.22h17.24l10.58-22.36-8.6-17.88z" stroke="#fff" stroke-opacity="0" stroke-width="2" fill="#fff"/><use xlink:href="#h" transform="matrix(1,0,0,1,871.9527777777895,682.9999999999611) translate(1.9135802469135683 17.77777777777778)"/><use xlink:href="#i" transform="matrix(1,0,0,1,871.9527777777895,682.9999999999611) translate(74.62962962962962 17.77777777777778)"/><path d="M731.6 614h153.97" stroke="#3a414a" fill="none"/><path d="M731.6 614.37l-1.2-.87h1.2z" stroke="#3a414a" stroke-width=".05" fill="#3a414a"/><path d="M900.33 614l-14.26 4.64v-9.28z" stroke="#3a414a" fill="#3a414a"/><path d="M1236.55 647.43l-28.2-28.22-15.54 15.55-2.7-2.73 16.87-16.9c.78-.74 1.96-.74 2.75 0l29.53 29.62z" stroke="#fff" stroke-opacity="0" fill="#d86613"/><path d="M1266.83 631.46L1245 609.62l-21.34 21.4-2.73-2.7 22.76-22.77c.72-.74 1.93-.74 2.66 0l23.2 23.2zM1222.47 611.96c-4.96.02-8.98-4-9-8.96 0-4.97 4-9 8.96-9 4.96-.03 8.98 4 9 8.96v.04c-.02 4.94-4.03 8.95-8.96 8.96zm0-14.1h-.02c-2.84 0-5.14 2.3-5.14 5.14s2.3 5.14 5.15 5.14c2.84 0 5.13-2.3 5.13-5.14s-2.28-5.15-5.1-5.15z" stroke="#fff" stroke-opacity="0" fill="#d86613"/><path d="M1267.54 654h-76.07c-1.04 0-1.9-.88-1.9-1.92v-76.16c0-1.04.86-1.92 1.9-1.92h76.07c1.04 0 1.92.88 1.92 1.92v76.16c0 1.04-.88 1.92-1.92 1.92zm-74.15-3.84h72.22v-72.32h-72.23z" stroke="#fff" stroke-opacity="0" fill="#d86613"/><use xlink:href="#j" transform="matrix(1,0,0,1,1159.5555555555557,662.9999999999611) translate(21.23456790123457 17.77777777777778)"/><use xlink:href="#k" transform="matrix(1,0,0,1,1159.5555555555557,662.9999999999611) translate(64.44444444444446 17.77777777777778)"/><use xlink:href="#l" transform="matrix(1,0,0,1,1159.5555555555557,662.9999999999611) translate(81.7283950617284 17.77777777777778)"/><path d="M1022.45 614h150.72" stroke="#3a414a" fill="none"/><path d="M1022.47 614.5h-.52v-1h.52z" stroke="#3a414a" stroke-width=".05" fill="#3a414a"/><path d="M1187.94 614l-14.27 4.64v-9.28z" stroke="#3a414a" fill="#3a414a"/><path d="M1473.2 654c-10.83 0-28.1-2.46-28.3-9.1l-7.74-57.2c-.15-.97.43-1.86 1.37-2.06.94-.14 1.88.47 2.1 1.43.8 3.28 13.65 7.86 32.64 7.86 19 0 31.86-4.58 32.65-7.86.22-.96 1.16-1.57 2.1-1.43.93.2 1.5 1.1 1.37 2.05l-7.9 57.2c0 2.26-2.08 4.18-5.98 5.75-1.8.68-3.4 1.16-5.27 1.57-5.93 1.3-10.98 1.78-17.05 1.78zm-31.92-61.66l6.93 52.3v.2c0 2.05 9.76 5.8 24.93 5.8 5.78.08 10.62-.47 16.25-1.63 1.73-.4 3.18-.88 4.84-1.56 3.1-1.23 3.83-2.33 3.83-2.67v-.2l7-52.23c-6.57 3.9-19.8 6-31.92 6-12.14 0-25.28-2.1-31.85-6z" stroke="#fff" stroke-opacity="0" fill="#3f8624"/><path d="M1473.2 598.32c-16.14 0-34.23-3.65-35.96-10.4V586.98v-.23c0-7.52 19.03-12.77 36.12-12.77 17.1 0 35.98 5.25 35.98 12.77v.22l-.07.7v.2c-1.88 6.77-19.98 10.42-36.06 10.42zm-32.65-11.2c1.08 3.3 13.85 7.8 32.66 7.8 18.83 0 31.6-4.5 32.68-7.8v-.45c-.22-3.3-13.63-9.26-32.67-9.26-19.02 0-32.5 5.96-32.72 9.27zM1509.4 621.86c-8.08 0-25.84-8-36.94-13.46l1.5-3.06c15.3 7.53 33.36 14.5 36.46 13.18-.25-.48-1.4-2.02-6.83-4.97l-.26-.17 1.7-2.96.25.17c5.45 2.98 8.06 5.3 8.52 7.5.16.93-.1 1.83-.7 2.57-1.04.95-2.32 1.36-3.73 1.2z" stroke="#fff" stroke-opacity="0" fill="#3f8624"/><path d="M1473.2 610.6c-2.03 0-3.68-1.66-3.68-3.7s1.65-3.7 3.7-3.7c2.03 0 3.7 1.66 3.7 3.7-.02 2.04-1.67 3.7-3.7 3.7zm0-4c-.16 0-.3.14-.3.3 0 .33.6.33.6 0v-.04c0-.16-.12-.28-.3-.28z" stroke="#fff" stroke-opacity="0" fill="#3f8624"/><g><use xlink:href="#m" transform="matrix(1,0,0,1,1407.158333333322,662.9999999999611) translate(11.802469135802468 17.77777777777778)"/></g><path d="M1269.96 614h154.37" stroke="#3a414a" fill="none"/><path d="M1269.97 614.5h-.5v-1h.5z" stroke="#3a414a" stroke-width=".05" fill="#3a414a"/><path d="M1439.1 614l-14.27 4.64v-9.28z" stroke="#3a414a" fill="#3a414a"/><path d="M690.67 580a6 6 0 0 1 6-6h228a6 6 0 0 1 6 6v48a6 6 0 0 1-6 6h-228a6 6 0 0 1-6-6z" stroke="#000" stroke-opacity="0" fill="#fff" fill-opacity="0"/><g><use xlink:href="#n" transform="matrix(1,0,0,1,695.6666666666666,578.9999999999611) translate(87.8395061728395 30.27777777777778)"/></g><defs><path fill="#232f3e" d="M205 0l-28-72H64L36 0H1l101-248h38L239 0h-34zm-38-99l-47-123c-12 45-31 82-46 123h93" id="o"/><path fill="#232f3e" d="M266 0h-40l-56-210L115 0H75L2-248h35L96-30l15-64 43-154h32l59 218 59-218h35" id="p"/><path fill="#232f3e" d="M185-189c-5-48-123-54-124 2 14 75 158 14 163 119 3 78-121 87-175 55-17-10-28-26-33-46l33-7c5 56 141 63 141-1 0-78-155-14-162-118-5-82 145-84 179-34 5 7 8 16 11 25" id="q"/><g id="a"><use transform="matrix(0.05,0,0,0.05,0,0)" xlink:href="#o"/><use transform="matrix(0.05,0,0,0.05,11.35,0)" xlink:href="#p"/><use transform="matrix(0.05,0,0,0.05,28.299999999999997,0)" xlink:href="#q"/></g><path fill="#232f3e" d="M212-179c-10-28-35-45-73-45-59 0-87 40-87 99 0 60 29 101 89 101 43 0 62-24 78-52l27 14C228-24 195 4 139 4 59 4 22-46 18-125c-6-104 99-153 187-111 19 9 31 26 39 46" id="r"/><path fill="#232f3e" d="M24 0v-261h32V0H24" id="s"/><path fill="#232f3e" d="M100-194c62-1 85 37 85 99 1 63-27 99-86 99S16-35 15-95c0-66 28-99 85-99zM99-20c44 1 53-31 53-75 0-43-8-75-51-75s-53 32-53 75 10 74 51 75" id="t"/><path fill="#232f3e" d="M84 4C-5 8 30-112 23-190h32v120c0 31 7 50 39 49 72-2 45-101 50-169h31l1 190h-30c-1-10 1-25-2-33-11 22-28 36-60 37" id="u"/><path fill="#232f3e" d="M85-194c31 0 48 13 60 33l-1-100h32l1 261h-30c-2-10 0-23-3-31C134-8 116 4 85 4 32 4 16-35 15-94c0-66 23-100 70-100zm9 24c-40 0-46 34-46 75 0 40 6 74 45 74 42 0 51-32 51-76 0-42-9-74-50-73" id="v"/><g id="b"><use transform="matrix(0.05,0,0,0.05,0,0)" xlink:href="#r"/><use transform="matrix(0.05,0,0,0.05,12.950000000000001,0)" xlink:href="#s"/><use transform="matrix(0.05,0,0,0.05,16.900000000000002,0)" xlink:href="#t"/><use transform="matrix(0.05,0,0,0.05,26.900000000000002,0)" xlink:href="#u"/><use transform="matrix(0.05,0,0,0.05,36.900000000000006,0)" xlink:href="#v"/></g><path fill="#3a414a" d="M24-231v-30h32v30H24zM24 0v-190h32V0H24" id="w"/><path fill="#3a414a" d="M210-169c-67 3-38 105-44 169h-31v-121c0-29-5-50-35-48C34-165 62-65 56 0H25l-1-190h30c1 10-1 24 2 32 10-44 99-50 107 0 11-21 27-35 58-36 85-2 47 119 55 194h-31v-121c0-29-5-49-35-48" id="x"/><path fill="#3a414a" d="M141-36C126-15 110 5 73 4 37 3 15-17 15-53c-1-64 63-63 125-63 3-35-9-54-41-54-24 1-41 7-42 31l-33-3c5-37 33-52 76-52 45 0 72 20 72 64v82c-1 20 7 32 28 27v20c-31 9-61-2-59-35zM48-53c0 20 12 33 32 33 41-3 63-29 60-74-43 2-92-5-92 41" id="y"/><path fill="#3a414a" d="M177-190C167-65 218 103 67 71c-23-6-38-20-44-43l32-5c15 47 100 32 89-28v-30C133-14 115 1 83 1 29 1 15-40 15-95c0-56 16-97 71-98 29-1 48 16 59 35 1-10 0-23 2-32h30zM94-22c36 0 50-32 50-73 0-42-14-75-50-75-39 0-46 34-46 75s6 73 46 73" id="z"/><path fill="#3a414a" d="M100-194c63 0 86 42 84 106H49c0 40 14 67 53 68 26 1 43-12 49-29l28 8c-11 28-37 45-77 45C44 4 14-33 15-96c1-61 26-98 85-98zm52 81c6-60-76-77-97-28-3 7-6 17-6 28h103" id="A"/><path fill="#3a414a" d="M135-143c-3-34-86-38-87 0 15 53 115 12 119 90S17 21 10-45l28-5c4 36 97 45 98 0-10-56-113-15-118-90-4-57 82-63 122-42 12 7 21 19 24 35" id="B"/><path fill="#3a414a" d="M0 4l72-265h28L28 4H0" id="C"/><g id="c"><use transform="matrix(0.06172839506172839,0,0,0.06172839506172839,0,0)" xlink:href="#w"/><use transform="matrix(0.06172839506172839,0,0,0.06172839506172839,4.876543209876543,0)" xlink:href="#x"/><use transform="matrix(0.06172839506172839,0,0,0.06172839506172839,23.33333333333333,0)" xlink:href="#y"/><use transform="matrix(0.06172839506172839,0,0,0.06172839506172839,35.679012345679006,0)" xlink:href="#z"/><use transform="matrix(0.06172839506172839,0,0,0.06172839506172839,48.02469135802468,0)" xlink:href="#A"/><use transform="matrix(0.06172839506172839,0,0,0.06172839506172839,60.37037037037036,0)" xlink:href="#B"/><use transform="matrix(0.06172839506172839,0,0,0.06172839506172839,71.48148148148147,0)" xlink:href="#C"/></g><path fill="#3a414a" d="M63-220v92h138v28H63V0H30v-248h175v28H63" id="D"/><path fill="#3a414a" d="M84 4C-5 8 30-112 23-190h32v120c0 31 7 50 39 49 72-2 45-101 50-169h31l1 190h-30c-1-10 1-25-2-33-11 22-28 36-60 37" id="E"/><path fill="#3a414a" d="M24 0v-261h32V0H24" id="F"/><g id="d"><use transform="matrix(0.06172839506172839,0,0,0.06172839506172839,0,0)" xlink:href="#D"/><use transform="matrix(0.06172839506172839,0,0,0.06172839506172839,13.518518518518517,0)" xlink:href="#E"/><use transform="matrix(0.06172839506172839,0,0,0.06172839506172839,25.864197530864196,0)" xlink:href="#F"/><use transform="matrix(0.06172839506172839,0,0,0.06172839506172839,30.74074074074074,0)" xlink:href="#F"/></g><path fill="#3a414a" d="M9 0v-24l116-142H16v-24h144v24L44-24h123V0H9" id="G"/><g id="e"><use transform="matrix(0.06172839506172839,0,0,0.06172839506172839,0,0)" xlink:href="#B"/><use transform="matrix(0.06172839506172839,0,0,0.06172839506172839,11.11111111111111,0)" xlink:href="#w"/><use transform="matrix(0.06172839506172839,0,0,0.06172839506172839,15.987654320987653,0)" xlink:href="#G"/><use transform="matrix(0.06172839506172839,0,0,0.06172839506172839,27.098765432098766,0)" xlink:href="#A"/></g><path fill="#3a414a" d="M117-194c89-4 53 116 60 194h-32v-121c0-31-8-49-39-48C34-167 62-67 57 0H25l-1-190h30c1 10-1 24 2 32 11-22 29-35 61-36" id="H"/><path fill="#3a414a" d="M206 0h-36l-40-164L89 0H53L-1-190h32L70-26l43-164h34l41 164 42-164h31" id="I"/><g id="f"><use transform="matrix(0.06172839506172839,0,0,0.06172839506172839,0,0)" xlink:href="#H"/><use transform="matrix(0.06172839506172839,0,0,0.06172839506172839,12.345679012345679,0)" xlink:href="#A"/><use transform="matrix(0.06172839506172839,0,0,0.06172839506172839,24.691358024691358,0)" xlink:href="#I"/></g><g id="g"><use transform="matrix(0.06172839506172839,0,0,0.06172839506172839,0,0)" xlink:href="#w"/><use transform="matrix(0.06172839506172839,0,0,0.06172839506172839,4.876543209876543,0)" xlink:href="#x"/><use transform="matrix(0.06172839506172839,0,0,0.06172839506172839,23.33333333333333,0)" xlink:href="#y"/><use transform="matrix(0.06172839506172839,0,0,0.06172839506172839,35.679012345679006,0)" xlink:href="#z"/><use transform="matrix(0.06172839506172839,0,0,0.06172839506172839,48.02469135802468,0)" xlink:href="#A"/></g><path fill="#3a414a" d="M212-179c-10-28-35-45-73-45-59 0-87 40-87 99 0 60 29 101 89 101 43 0 62-24 78-52l27 14C228-24 195 4 139 4 59 4 22-46 18-125c-6-104 99-153 187-111 19 9 31 26 39 46" id="J"/><path fill="#3a414a" d="M114-163C36-179 61-72 57 0H25l-1-190h30c1 12-1 29 2 39 6-27 23-49 58-41v29" id="K"/><path fill="#3a414a" d="M59-47c-2 24 18 29 38 22v24C64 9 27 4 27-40v-127H5v-23h24l9-43h21v43h35v23H59v120" id="L"/><g id="h"><use transform="matrix(0.06172839506172839,0,0,0.06172839506172839,0,0)" xlink:href="#J"/><use transform="matrix(0.06172839506172839,0,0,0.06172839506172839,15.987654320987653,0)" xlink:href="#K"/><use transform="matrix(0.06172839506172839,0,0,0.06172839506172839,23.333333333333332,0)" xlink:href="#A"/><use transform="matrix(0.06172839506172839,0,0,0.06172839506172839,35.67901234567901,0)" xlink:href="#y"/><use transform="matrix(0.06172839506172839,0,0,0.06172839506172839,48.02469135802469,0)" xlink:href="#L"/><use transform="matrix(0.06172839506172839,0,0,0.06172839506172839,54.19753086419753,0)" xlink:href="#A"/></g><path fill="#3a414a" d="M127-220V0H93v-220H8v-28h204v28h-85" id="M"/><path fill="#3a414a" d="M106-169C34-169 62-67 57 0H25v-261h32l-1 103c12-21 28-36 61-36 89 0 53 116 60 194h-32v-121c2-32-8-49-39-48" id="N"/><path fill="#3a414a" d="M115-194c53 0 69 39 70 98 0 66-23 100-70 100C84 3 66-7 56-30L54 0H23l1-261h32v101c10-23 28-34 59-34zm-8 174c40 0 45-34 45-75 0-40-5-75-45-74-42 0-51 32-51 76 0 43 10 73 51 73" id="O"/><g id="i"><use transform="matrix(0.06172839506172839,0,0,0.06172839506172839,0,0)" xlink:href="#M"/><use transform="matrix(0.06172839506172839,0,0,0.06172839506172839,13.518518518518517,0)" xlink:href="#N"/><use transform="matrix(0.06172839506172839,0,0,0.06172839506172839,25.864197530864196,0)" xlink:href="#E"/><use transform="matrix(0.06172839506172839,0,0,0.06172839506172839,38.20987654320987,0)" xlink:href="#x"/><use transform="matrix(0.06172839506172839,0,0,0.06172839506172839,56.66666666666666,0)" xlink:href="#O"/><use transform="matrix(0.06172839506172839,0,0,0.06172839506172839,69.01234567901234,0)" xlink:href="#H"/><use transform="matrix(0.06172839506172839,0,0,0.06172839506172839,81.35802469135803,0)" xlink:href="#y"/><use transform="matrix(0.06172839506172839,0,0,0.06172839506172839,93.70370370370371,0)" xlink:href="#w"/><use transform="matrix(0.06172839506172839,0,0,0.06172839506172839,98.58024691358025,0)" xlink:href="#F"/></g><path fill="#3a414a" d="M27 0v-27h64v-190l-56 39v-29l58-41h29v221h61V0H27" id="P"/><path fill="#3a414a" d="M54-142c48-35 137-8 131 61C196 18 31 33 14-55l32-4c7 23 22 37 52 37 35-1 51-22 54-58 4-55-73-65-99-34H22l8-134h141v27H59" id="Q"/><path fill="#3a414a" d="M101-251c68 0 85 55 85 127S166 4 100 4C33 4 14-52 14-124c0-73 17-127 87-127zm-1 229c47 0 54-49 54-102s-4-102-53-102c-51 0-55 48-55 102 0 53 5 102 54 102" id="R"/><g id="j"><use transform="matrix(0.06172839506172839,0,0,0.06172839506172839,0,0)" xlink:href="#P"/><use transform="matrix(0.06172839506172839,0,0,0.06172839506172839,12.345679012345679,0)" xlink:href="#Q"/><use transform="matrix(0.06172839506172839,0,0,0.06172839506172839,24.691358024691358,0)" xlink:href="#R"/></g><path fill="#3a414a" d="M141 0L90-78 38 0H4l68-98-65-92h35l48 74 47-74h35l-64 92 68 98h-35" id="S"/><use transform="matrix(0.06172839506172839,0,0,0.06172839506172839,0,0)" xlink:href="#S" id="k"/><g id="l"><use transform="matrix(0.06172839506172839,0,0,0.06172839506172839,0,0)" xlink:href="#P"/><use transform="matrix(0.06172839506172839,0,0,0.06172839506172839,12.345679012345679,0)" xlink:href="#Q"/><use transform="matrix(0.06172839506172839,0,0,0.06172839506172839,24.691358024691358,0)" xlink:href="#R"/></g><g id="m"><use transform="matrix(0.06172839506172839,0,0,0.06172839506172839,0,0)" xlink:href="#L"/><use transform="matrix(0.06172839506172839,0,0,0.06172839506172839,6.172839506172839,0)" xlink:href="#N"/><use transform="matrix(0.06172839506172839,0,0,0.06172839506172839,18.51851851851852,0)" xlink:href="#E"/><use transform="matrix(0.06172839506172839,0,0,0.06172839506172839,30.864197530864196,0)" xlink:href="#x"/><use transform="matrix(0.06172839506172839,0,0,0.06172839506172839,49.32098765432099,0)" xlink:href="#O"/><use transform="matrix(0.06172839506172839,0,0,0.06172839506172839,61.666666666666664,0)" xlink:href="#H"/><use transform="matrix(0.06172839506172839,0,0,0.06172839506172839,74.01234567901234,0)" xlink:href="#y"/><use transform="matrix(0.06172839506172839,0,0,0.06172839506172839,86.35802469135803,0)" xlink:href="#w"/><use transform="matrix(0.06172839506172839,0,0,0.06172839506172839,91.23456790123457,0)" xlink:href="#F"/><use transform="matrix(0.06172839506172839,0,0,0.06172839506172839,96.11111111111111,0)" xlink:href="#B"/><use transform="matrix(0.06172839506172839,0,0,0.06172839506172839,107.22222222222223,0)" xlink:href="#C"/></g><path fill="#3a414a" d="M108 0H70L1-190h34L89-25l56-165h34" id="T"/><g id="n"><use transform="matrix(0.06172839506172839,0,0,0.06172839506172839,0,0)" xlink:href="#A"/><use transform="matrix(0.06172839506172839,0,0,0.06172839506172839,12.345679012345679,0)" xlink:href="#T"/><use transform="matrix(0.06172839506172839,0,0,0.06172839506172839,23.45679012345679,0)" xlink:href="#A"/><use transform="matrix(0.06172839506172839,0,0,0.06172839506172839,35.80246913580247,0)" xlink:href="#H"/><use transform="matrix(0.06172839506172839,0,0,0.06172839506172839,48.148148148148145,0)" xlink:href="#L"/></g></defs></g></svg>