<svg xmlns="http://www.w3.org/2000/svg" xmlns:xlink="http://www.w3.org/1999/xlink" xmlns:lucid="lucid" width="1188" height="540"><g transform="translate(-352.00000000003877 -335.9999999999611)" lucid:page-tab-id="0_0"><path d="M0 0h1870.87v1322.83H0z" fill="#fff"/><path d="M372 362a6 6 0 0 1 6-6h1136a6 6 0 0 1 6 6v488a6 6 0 0 1-6 6H378a6 6 0 0 1-6-6z" stroke="#232f3e" fill="#fff" fill-opacity="0"/><path d="M372 356h56v56h-56v-56z" stroke="#fff" stroke-opacity="0" fill="#232f3e"/><path d="M412.88 397.22h-25c-4.13.05-7.57-3.1-7.9-7.2v-.64c-.15-3.4 1.97-6.38 5.25-7.36v-.66c.12-4.22 2.44-7.75 6.24-9.57 4.12-1.86 8.73-.96 11.8 2.3 1.1 1.1 1.85 2.2 2.45 3.6 1.2-1 2.72-1.32 4.24-.9 2.24.8 3.68 2.74 3.76 5.1 3.68.65 6.32 3.8 6.28 7.56 0 7.07-7.04 7.73-7.12 7.76zm-26.7-13.88c-2.83.6-4.75 3.14-4.6 6.04v.53c.3 3.33 3.1 5.84 6.4 5.76h24.98c3.04-.3 5.4-2.64 5.68-5.7.28-3.43-2.24-6.5-5.68-6.78-.44-.05-.72-.44-.64-.87.08-1.83-1-3.44-2.72-4.13-1.32-.37-2.64.13-3.44 1.24-.2.25-.44.38-.76.33-.28-.05-.48-.24-.6-.5-.6-1.6-1.4-2.85-2.6-4.04-2.68-2.8-6.6-3.6-10.13-2-3.24 1.6-5.2 4.63-5.32 8.24-.04.4-.04.74 0 1.14.04.4-.2.76-.6.84z" stroke="#fff" stroke-opacity="0" fill="#fff"/><use xlink:href="#a" transform="matrix(1,0,0,1,443.00000000003877,375.9999999999611) translate(0 14.4)"/><use xlink:href="#b" transform="matrix(1,0,0,1,443.00000000003877,375.9999999999611) translate(45.3 14.4)"/><path d="M585.18 524.45v-12.6l-13.3-14.62-21.8 48.1 21.8 48.1 13.3-14.63v-12.7l-4.42 3.08v-6.16l4.42-2.3V548l-4.42.1v-5.68l4.42.2V530.2l-4.42-2.3v-4.34l4.42.87z" fill="#2e73b8"/><path d="M548.13 605.33l23.75-11.88V497.2l-23.75-11.87-26.9 60.96 26.9 59.03z" fill="#5294cf"/><path d="M514.87 605.33h33.27v-120h-33.27l-17.2 60.96 17.2 59.03z" fill="#2e73b8"/><path d="M514.85 605.33l-23.95-11.88-7.53-47.16 7.53-49.1 23.9-11.87.05 120z" fill="#205b99"/><path d="M580.76 563.1l-8.9 4.32-23.74 5.1H514.83l-23.2-5.1-.44-.1-.32-.1v-18.07l23.95 1.73H548.12l23.74-1.73 13.36-1.16h-4.46v-5.4h4.35l-13.24-.96-23.74-.77h-33.08l-24.16.58v-18.28h.3l23.86-5.67h33.08l23.74 5.67 8.9 4.72v-3l4.46-.38-13.36-9.33-23.74-7.7h-33.08l-24.16 7.98V497.2l-11.66 14.62v12.7l3.4.38v3.08l-3.4 1.93v12.7h3.4v5.4l-3.4.1v12.6l3.4 1.9v3.2l-3.4.37v12.6l11.66 14.62V575.1l23.95 7.4H548.12l23.74-7.4 13.36-8.95-4.46-.38v-2.7z" fill="#19486f"/><use xlink:href="#c" transform="matrix(1,0,0,1,479.21614173226,605.3333333332944) translate(2.4135802469135683 17.77777777777778)"/><path d="M878.1 495.33h120v120h-120v-120z" stroke="#fff" stroke-opacity="0" stroke-width="2" fill="#d86613"/><path d="M974.9 595.33h-19.72c-.64 0-1.15-.32-1.4-.88l-27.92-58.32h-11.78c-.9 0-1.6-.72-1.6-1.6v-17.6c0-.88.7-1.6 1.6-1.6h24.65c.64 0 1.15.32 1.4.88l27.8 58.33h6.97c.9 0 1.6.72 1.6 1.6v17.6c0 .88-.7 1.6-1.6 1.6zm-18.7-3.2h17.1v-14.4h-6.4c-.64 0-1.15-.32-1.4-.88l-27.8-58.32H915.7v14.4h11.2c.65 0 1.16.32 1.48.88z" stroke="#fff" stroke-opacity="0" stroke-width="2" fill="#fff"/><path d="M922.06 595.33h-20.8c-.55 0-1.05-.3-1.37-.73-.33-.53-.33-1.12-.08-1.6l21.78-45.46c.24-.6.8-.93 1.4-.93.65 0 1.18.35 1.46.9l10.4 21.43c.26.44.26.92 0 1.4l-11.35 23.98c-.2.64-.77 1.03-1.44 1.03zm-18.24-3.2h17.24l10.6-22.37-8.6-17.88z" stroke="#fff" stroke-opacity="0" stroke-width="2" fill="#fff"/><use xlink:href="#d" transform="matrix(1,0,0,1,848.0997375328083,624.3333333332944) translate(36.388888888888886 17.77777777777778)"/><use xlink:href="#e" transform="matrix(1,0,0,1,848.0997375328083,624.3333333332944) translate(79.53703703703704 17.77777777777778)"/><path d="M1361.7 595.33c-10.84 0-28.1-2.46-28.32-9.1l-7.73-57.2c-.14-.97.43-1.86 1.37-2.06.94-.14 1.88.48 2.1 1.43.8 3.3 13.65 7.87 32.64 7.87 19 0 31.86-4.58 32.65-7.87.23-.95 1.17-1.57 2.1-1.43.95.2 1.52 1.1 1.38 2.05l-7.87 57.22c0 2.26-2.1 4.17-6 5.74-1.8.7-3.38 1.17-5.26 1.58-5.92 1.3-10.98 1.77-17.05 1.77zm-31.93-61.66l6.93 52.3v.2c0 2.05 9.75 5.8 24.92 5.8 5.78.08 10.62-.47 16.25-1.63 1.73-.4 3.18-.9 4.84-1.57 3.12-1.23 3.84-2.32 3.84-2.67v-.2l7-52.23c-6.57 3.9-19.8 6-31.92 6-12.13 0-25.28-2.1-31.85-6z" stroke="#fff" stroke-opacity="0" fill="#3f8624"/><path d="M1361.7 539.66c-16.14 0-34.24-3.65-35.97-10.4V528.32v-.23c0-7.5 19.03-12.77 36.12-12.77 17.1 0 35.98 5.26 35.98 12.77v.22l-.07.7v.23c-1.88 6.76-19.98 10.4-36.05 10.4zm-32.66-11.2c1.1 3.3 13.85 7.8 32.67 7.8s31.6-4.5 32.67-7.8v-.45c-.22-3.3-13.63-9.26-32.66-9.26-19.03 0-32.5 5.96-32.73 9.27zM1397.88 563.2c-8.07 0-25.83-8.02-36.92-13.47l1.5-3.06c15.3 7.53 33.35 14.5 36.45 13.18-.23-.48-1.4-2.02-6.82-4.97l-.24-.16 1.7-2.97.24.17c5.47 3 8.07 5.32 8.53 7.5.17.95-.07 1.84-.7 2.6-1.03.93-2.3 1.34-3.72 1.18z" stroke="#fff" stroke-opacity="0" fill="#3f8624"/><path d="M1361.7 551.93c-2.03 0-3.7-1.66-3.7-3.7 0-2.03 1.67-3.7 3.7-3.7 2.04 0 3.7 1.67 3.7 3.7 0 2.04-1.66 3.7-3.7 3.7zm0-3.98c-.17 0-.3.12-.3.28 0 .33.6.33.6 0v-.03c0-.16-.13-.3-.3-.3z" stroke="#fff" stroke-opacity="0" fill="#3f8624"/><use xlink:href="#f" transform="matrix(1,0,0,1,1295.6500000000233,604.3333333332944) translate(29.67283950617285 17.77777777777778)"/><path d="M1361.7 746.17c-10.84 0-28.1-2.46-28.32-9.1l-7.73-57.22c-.14-.95.43-1.84 1.37-2.05.94-.13 1.88.48 2.1 1.44.8 3.28 13.65 7.86 32.64 7.86 19 0 31.86-4.58 32.65-7.86.23-.96 1.17-1.57 2.1-1.44.95.2 1.52 1.1 1.38 2.05l-7.87 57.22c0 2.26-2.1 4.17-6 5.75-1.8.68-3.38 1.16-5.26 1.57-5.92 1.3-10.98 1.77-17.05 1.77zm-31.93-61.67l6.93 52.3v.2c0 2.06 9.75 5.82 24.92 5.82 5.78.07 10.62-.48 16.25-1.64 1.73-.4 3.18-.9 4.84-1.58 3.12-1.23 3.84-2.32 3.84-2.66v-.2l7-52.24c-6.57 3.9-19.8 6.02-31.92 6.02-12.13 0-25.28-2.12-31.85-6.02z" stroke="#fff" stroke-opacity="0" fill="#3f8624"/><path d="M1361.7 690.5c-16.14 0-34.24-3.66-35.97-10.42V679.16v-.22c0-7.52 19.03-12.77 36.12-12.77 17.1 0 35.98 5.25 35.98 12.77v.22l-.07.7v.22c-1.88 6.76-19.98 10.4-36.05 10.4zm-32.66-11.2c1.1 3.28 13.85 7.78 32.67 7.78s31.6-4.5 32.67-7.78v-.46c-.22-3.3-13.63-9.27-32.66-9.27-19.03 0-32.5 5.96-32.73 9.27zM1397.88 714.03c-8.07 0-25.83-8-36.92-13.46l1.5-3.07c15.3 7.54 33.35 14.5 36.45 13.2-.23-.5-1.4-2.03-6.82-4.98l-.24-.17 1.7-2.96.24.15c5.47 3 8.07 5.32 8.53 7.5.17.95-.07 1.84-.7 2.6-1.03.93-2.3 1.35-3.72 1.18z" stroke="#fff" stroke-opacity="0" fill="#3f8624"/><path d="M1361.7 702.76c-2.03 0-3.7-1.65-3.7-3.7 0-2.03 1.67-3.7 3.7-3.7 2.04 0 3.7 1.67 3.7 3.7 0 2.05-1.66 3.7-3.7 3.7zm0-3.98c-.17 0-.3.13-.3.3 0 .3.6.3.6 0v-.05c0-.16-.13-.3-.3-.3z" stroke="#fff" stroke-opacity="0" fill="#3f8624"/><use xlink:href="#g" transform="matrix(1,0,0,1,1295.6500000000228,755.1666666666666) translate(11.802469135802468 17.77777777777778)"/><path d="M585.68 549.47h276.04" stroke="#3a414a" fill="none"/><path d="M585.7 549.97h-.52v-1h.52z" stroke="#3a414a" stroke-width=".05" fill="#3a414a"/><path d="M876.48 549.47l-14.26 4.64v-9.26z" stroke="#3a414a" fill="#3a414a"/><path d="M605 501.33a6 6 0 0 1 6-6H852.3a6 6 0 0 1 6 6v51.34a6 6 0 0 1-6 6H611a6 6 0 0 1-6-6z" stroke="#000" stroke-opacity="0" fill="#fff" fill-opacity="0"/><use xlink:href="#h" transform="matrix(1,0,0,1,609.9912729658676,500.3333333332943) translate(2.3703703703703667 31.27777777777778)"/><use xlink:href="#i" transform="matrix(1,0,0,1,609.9912729658676,500.3333333332943) translate(72.61728395061728 31.27777777777778)"/><use xlink:href="#j" transform="matrix(1,0,0,1,609.9912729658676,500.3333333332943) translate(168.85185185185185 31.27777777777778)"/><path d="M998.6 555.33h314.22" stroke="#3a414a" fill="none"/><path d="M998.6 555.83h-.5v-1h.5z" stroke="#3a414a" stroke-width=".05" fill="#3a414a"/><path d="M1327.6 555.33l-14.28 4.64v-9.27z" stroke="#3a414a" fill="#3a414a"/><path d="M998.6 555.33h159.9a6 6 0 0 1 6 6V712.8a6 6 0 0 0 6 6h144.03" stroke="#3a414a" fill="none"/><path d="M998.6 555.83h-.5v-1h.5z" stroke="#3a414a" stroke-width=".05" fill="#3a414a"/><path d="M1329.3 718.8l-14.27 4.65v-9.27z" stroke="#3a414a" fill="#3a414a"/><path d="M972 511.33a6 6 0 0 1 6-6h228a6 6 0 0 1 6 6v48a6 6 0 0 1-6 6H978a6 6 0 0 1-6-6z" stroke="#000" stroke-opacity="0" fill="#fff" fill-opacity="0"/><g><use xlink:href="#k" transform="matrix(1,0,0,1,976.9873031496118,510.3333333332944) translate(30 30.27777777777778)"/><use xlink:href="#l" transform="matrix(1,0,0,1,976.9873031496118,510.3333333332944) translate(100.24691358024691 30.27777777777778)"/><use xlink:href="#m" transform="matrix(1,0,0,1,976.9873031496118,510.3333333332944) translate(128.51851851851853 30.27777777777778)"/></g><defs><path fill="#232f3e" d="M205 0l-28-72H64L36 0H1l101-248h38L239 0h-34zm-38-99l-47-123c-12 45-31 82-46 123h93" id="n"/><path fill="#232f3e" d="M266 0h-40l-56-210L115 0H75L2-248h35L96-30l15-64 43-154h32l59 218 59-218h35" id="o"/><path fill="#232f3e" d="M185-189c-5-48-123-54-124 2 14 75 158 14 163 119 3 78-121 87-175 55-17-10-28-26-33-46l33-7c5 56 141 63 141-1 0-78-155-14-162-118-5-82 145-84 179-34 5 7 8 16 11 25" id="p"/><g id="a"><use transform="matrix(0.05,0,0,0.05,0,0)" xlink:href="#n"/><use transform="matrix(0.05,0,0,0.05,11.35,0)" xlink:href="#o"/><use transform="matrix(0.05,0,0,0.05,28.299999999999997,0)" xlink:href="#p"/></g><path fill="#232f3e" d="M212-179c-10-28-35-45-73-45-59 0-87 40-87 99 0 60 29 101 89 101 43 0 62-24 78-52l27 14C228-24 195 4 139 4 59 4 22-46 18-125c-6-104 99-153 187-111 19 9 31 26 39 46" id="q"/><path fill="#232f3e" d="M24 0v-261h32V0H24" id="r"/><path fill="#232f3e" d="M100-194c62-1 85 37 85 99 1 63-27 99-86 99S16-35 15-95c0-66 28-99 85-99zM99-20c44 1 53-31 53-75 0-43-8-75-51-75s-53 32-53 75 10 74 51 75" id="s"/><path fill="#232f3e" d="M84 4C-5 8 30-112 23-190h32v120c0 31 7 50 39 49 72-2 45-101 50-169h31l1 190h-30c-1-10 1-25-2-33-11 22-28 36-60 37" id="t"/><path fill="#232f3e" d="M85-194c31 0 48 13 60 33l-1-100h32l1 261h-30c-2-10 0-23-3-31C134-8 116 4 85 4 32 4 16-35 15-94c0-66 23-100 70-100zm9 24c-40 0-46 34-46 75 0 40 6 74 45 74 42 0 51-32 51-76 0-42-9-74-50-73" id="u"/><g id="b"><use transform="matrix(0.05,0,0,0.05,0,0)" xlink:href="#q"/><use transform="matrix(0.05,0,0,0.05,12.950000000000001,0)" xlink:href="#r"/><use transform="matrix(0.05,0,0,0.05,16.900000000000002,0)" xlink:href="#s"/><use transform="matrix(0.05,0,0,0.05,26.900000000000002,0)" xlink:href="#t"/><use transform="matrix(0.05,0,0,0.05,36.900000000000006,0)" xlink:href="#u"/></g><path fill="#3a414a" d="M210-169c-67 3-38 105-44 169h-31v-121c0-29-5-50-35-48C34-165 62-65 56 0H25l-1-190h30c1 10-1 24 2 32 10-44 99-50 107 0 11-21 27-35 58-36 85-2 47 119 55 194h-31v-121c0-29-5-49-35-48" id="v"/><path fill="#3a414a" d="M100-194c63 0 86 42 84 106H49c0 40 14 67 53 68 26 1 43-12 49-29l28 8c-11 28-37 45-77 45C44 4 14-33 15-96c1-61 26-98 85-98zm52 81c6-60-76-77-97-28-3 7-6 17-6 28h103" id="w"/><path fill="#3a414a" d="M135-143c-3-34-86-38-87 0 15 53 115 12 119 90S17 21 10-45l28-5c4 36 97 45 98 0-10-56-113-15-118-90-4-57 82-63 122-42 12 7 21 19 24 35" id="x"/><path fill="#3a414a" d="M141-36C126-15 110 5 73 4 37 3 15-17 15-53c-1-64 63-63 125-63 3-35-9-54-41-54-24 1-41 7-42 31l-33-3c5-37 33-52 76-52 45 0 72 20 72 64v82c-1 20 7 32 28 27v20c-31 9-61-2-59-35zM48-53c0 20 12 33 32 33 41-3 63-29 60-74-43 2-92-5-92 41" id="y"/><path fill="#3a414a" d="M177-190C167-65 218 103 67 71c-23-6-38-20-44-43l32-5c15 47 100 32 89-28v-30C133-14 115 1 83 1 29 1 15-40 15-95c0-56 16-97 71-98 29-1 48 16 59 35 1-10 0-23 2-32h30zM94-22c36 0 50-32 50-73 0-42-14-75-50-75-39 0-46 34-46 75s6 73 46 73" id="z"/><g id="c"><use transform="matrix(0.06172839506172839,0,0,0.06172839506172839,0,0)" xlink:href="#v"/><use transform="matrix(0.06172839506172839,0,0,0.06172839506172839,18.456790123456788,0)" xlink:href="#w"/><use transform="matrix(0.06172839506172839,0,0,0.06172839506172839,30.80246913580247,0)" xlink:href="#x"/><use transform="matrix(0.06172839506172839,0,0,0.06172839506172839,41.91358024691358,0)" xlink:href="#x"/><use transform="matrix(0.06172839506172839,0,0,0.06172839506172839,53.0246913580247,0)" xlink:href="#y"/><use transform="matrix(0.06172839506172839,0,0,0.06172839506172839,65.37037037037038,0)" xlink:href="#z"/><use transform="matrix(0.06172839506172839,0,0,0.06172839506172839,77.71604938271606,0)" xlink:href="#w"/><use transform="matrix(0.06172839506172839,0,0,0.06172839506172839,90.06172839506175,0)" xlink:href="#x"/></g><path fill="#3a414a" d="M33 0v-248h34V0H33" id="A"/><g id="d"><use transform="matrix(0.06172839506172839,0,0,0.06172839506172839,0,0)" xlink:href="#A"/><use transform="matrix(0.06172839506172839,0,0,0.06172839506172839,6.172839506172839,0)" xlink:href="#v"/><use transform="matrix(0.06172839506172839,0,0,0.06172839506172839,24.629629629629626,0)" xlink:href="#z"/></g><path fill="#3a414a" d="M30-248c118-7 216 8 213 122C240-48 200 0 122 0H30v-248zM63-27c89 8 146-16 146-99s-60-101-146-95v194" id="B"/><path fill="#3a414a" d="M24 0v-261h32V0H24" id="C"/><path fill="#3a414a" d="M59-47c-2 24 18 29 38 22v24C64 9 27 4 27-40v-127H5v-23h24l9-43h21v43h35v23H59v120" id="D"/><g id="e"><use transform="matrix(0.06172839506172839,0,0,0.06172839506172839,0,0)" xlink:href="#B"/><use transform="matrix(0.06172839506172839,0,0,0.06172839506172839,15.987654320987653,0)" xlink:href="#w"/><use transform="matrix(0.06172839506172839,0,0,0.06172839506172839,28.333333333333332,0)" xlink:href="#C"/><use transform="matrix(0.06172839506172839,0,0,0.06172839506172839,33.20987654320987,0)" xlink:href="#w"/><use transform="matrix(0.06172839506172839,0,0,0.06172839506172839,45.55555555555555,0)" xlink:href="#D"/><use transform="matrix(0.06172839506172839,0,0,0.06172839506172839,51.72839506172839,0)" xlink:href="#w"/></g><path fill="#3a414a" d="M24-231v-30h32v30H24zM24 0v-190h32V0H24" id="E"/><path fill="#3a414a" d="M0 4l72-265h28L28 4H0" id="F"/><g id="f"><use transform="matrix(0.06172839506172839,0,0,0.06172839506172839,0,0)" xlink:href="#E"/><use transform="matrix(0.06172839506172839,0,0,0.06172839506172839,4.876543209876543,0)" xlink:href="#v"/><use transform="matrix(0.06172839506172839,0,0,0.06172839506172839,23.33333333333333,0)" xlink:href="#y"/><use transform="matrix(0.06172839506172839,0,0,0.06172839506172839,35.679012345679006,0)" xlink:href="#z"/><use transform="matrix(0.06172839506172839,0,0,0.06172839506172839,48.02469135802468,0)" xlink:href="#w"/><use transform="matrix(0.06172839506172839,0,0,0.06172839506172839,60.37037037037036,0)" xlink:href="#x"/><use transform="matrix(0.06172839506172839,0,0,0.06172839506172839,71.48148148148147,0)" xlink:href="#F"/></g><path fill="#3a414a" d="M106-169C34-169 62-67 57 0H25v-261h32l-1 103c12-21 28-36 61-36 89 0 53 116 60 194h-32v-121c2-32-8-49-39-48" id="G"/><path fill="#3a414a" d="M84 4C-5 8 30-112 23-190h32v120c0 31 7 50 39 49 72-2 45-101 50-169h31l1 190h-30c-1-10 1-25-2-33-11 22-28 36-60 37" id="H"/><path fill="#3a414a" d="M115-194c53 0 69 39 70 98 0 66-23 100-70 100C84 3 66-7 56-30L54 0H23l1-261h32v101c10-23 28-34 59-34zm-8 174c40 0 45-34 45-75 0-40-5-75-45-74-42 0-51 32-51 76 0 43 10 73 51 73" id="I"/><path fill="#3a414a" d="M117-194c89-4 53 116 60 194h-32v-121c0-31-8-49-39-48C34-167 62-67 57 0H25l-1-190h30c1 10-1 24 2 32 11-22 29-35 61-36" id="J"/><g id="g"><use transform="matrix(0.06172839506172839,0,0,0.06172839506172839,0,0)" xlink:href="#D"/><use transform="matrix(0.06172839506172839,0,0,0.06172839506172839,6.172839506172839,0)" xlink:href="#G"/><use transform="matrix(0.06172839506172839,0,0,0.06172839506172839,18.51851851851852,0)" xlink:href="#H"/><use transform="matrix(0.06172839506172839,0,0,0.06172839506172839,30.864197530864196,0)" xlink:href="#v"/><use transform="matrix(0.06172839506172839,0,0,0.06172839506172839,49.32098765432099,0)" xlink:href="#I"/><use transform="matrix(0.06172839506172839,0,0,0.06172839506172839,61.666666666666664,0)" xlink:href="#J"/><use transform="matrix(0.06172839506172839,0,0,0.06172839506172839,74.01234567901234,0)" xlink:href="#y"/><use transform="matrix(0.06172839506172839,0,0,0.06172839506172839,86.35802469135803,0)" xlink:href="#E"/><use transform="matrix(0.06172839506172839,0,0,0.06172839506172839,91.23456790123457,0)" xlink:href="#C"/><use transform="matrix(0.06172839506172839,0,0,0.06172839506172839,96.11111111111111,0)" xlink:href="#x"/><use transform="matrix(0.06172839506172839,0,0,0.06172839506172839,107.22222222222223,0)" xlink:href="#F"/></g><path fill="#3a414a" d="M185-48c-13 30-37 53-82 52C43 2 14-33 14-96s30-98 90-98c62 0 83 45 84 108H66c0 31 8 55 39 56 18 0 30-7 34-22zm-45-69c5-46-57-63-70-21-2 6-4 13-4 21h74" id="K"/><path fill="#3a414a" d="M128 0H69L1-190h53L99-40l48-150h52" id="L"/><path fill="#3a414a" d="M135-194c87-1 58 113 63 194h-50c-7-57 23-157-34-157-59 0-34 97-39 157H25l-1-190h47c2 12-1 28 3 38 12-26 28-41 61-42" id="M"/><path fill="#3a414a" d="M115-3C79 11 28 4 28-45v-112H4v-33h27l15-45h31v45h36v33H77v99c-1 23 16 31 38 25v30" id="N"/><path fill="#3a414a" d="M33-154v-36h34v36H33zM33 0v-36h34V0H33" id="O"/><g id="h"><use transform="matrix(0.06172839506172839,0,0,0.06172839506172839,0,0)" xlink:href="#K"/><use transform="matrix(0.06172839506172839,0,0,0.06172839506172839,12.345679012345679,0)" xlink:href="#L"/><use transform="matrix(0.06172839506172839,0,0,0.06172839506172839,24.691358024691358,0)" xlink:href="#K"/><use transform="matrix(0.06172839506172839,0,0,0.06172839506172839,37.03703703703704,0)" xlink:href="#M"/><use transform="matrix(0.06172839506172839,0,0,0.06172839506172839,50.55555555555556,0)" xlink:href="#N"/><use transform="matrix(0.06172839506172839,0,0,0.06172839506172839,57.901234567901234,0)" xlink:href="#O"/></g><g id="i"><use transform="matrix(0.06172839506172839,0,0,0.06172839506172839,0,0)" xlink:href="#v"/><use transform="matrix(0.06172839506172839,0,0,0.06172839506172839,18.456790123456788,0)" xlink:href="#w"/><use transform="matrix(0.06172839506172839,0,0,0.06172839506172839,30.80246913580247,0)" xlink:href="#x"/><use transform="matrix(0.06172839506172839,0,0,0.06172839506172839,41.91358024691358,0)" xlink:href="#x"/><use transform="matrix(0.06172839506172839,0,0,0.06172839506172839,53.0246913580247,0)" xlink:href="#y"/><use transform="matrix(0.06172839506172839,0,0,0.06172839506172839,65.37037037037038,0)" xlink:href="#z"/><use transform="matrix(0.06172839506172839,0,0,0.06172839506172839,77.71604938271606,0)" xlink:href="#w"/></g><path fill="#3a414a" d="M85-194c31 0 48 13 60 33l-1-100h32l1 261h-30c-2-10 0-23-3-31C134-8 116 4 85 4 32 4 16-35 15-94c0-66 23-100 70-100zm9 24c-40 0-46 34-46 75 0 40 6 74 45 74 42 0 51-32 51-76 0-42-9-74-50-73" id="P"/><g id="j"><use transform="matrix(0.06172839506172839,0,0,0.06172839506172839,0,0)" xlink:href="#P"/><use transform="matrix(0.06172839506172839,0,0,0.06172839506172839,12.345679012345679,0)" xlink:href="#w"/><use transform="matrix(0.06172839506172839,0,0,0.06172839506172839,24.691358024691358,0)" xlink:href="#C"/><use transform="matrix(0.06172839506172839,0,0,0.06172839506172839,29.5679012345679,0)" xlink:href="#w"/><use transform="matrix(0.06172839506172839,0,0,0.06172839506172839,41.913580246913575,0)" xlink:href="#D"/><use transform="matrix(0.06172839506172839,0,0,0.06172839506172839,48.08641975308642,0)" xlink:href="#w"/><use transform="matrix(0.06172839506172839,0,0,0.06172839506172839,60.432098765432094,0)" xlink:href="#P"/></g><path fill="#3a414a" d="M88-194c31-1 46 15 58 34l-1-101h50l1 261h-48c-2-10 0-23-3-31C134-8 116 4 84 4 32 4 16-41 15-95c0-56 19-97 73-99zm17 164c33 0 40-30 41-66 1-37-9-64-41-64s-38 30-39 65c0 43 13 65 39 65" id="Q"/><path fill="#3a414a" d="M25 0v-261h50V0H25" id="R"/><g id="k"><use transform="matrix(0.06172839506172839,0,0,0.06172839506172839,0,0)" xlink:href="#Q"/><use transform="matrix(0.06172839506172839,0,0,0.06172839506172839,13.518518518518517,0)" xlink:href="#K"/><use transform="matrix(0.06172839506172839,0,0,0.06172839506172839,25.864197530864196,0)" xlink:href="#R"/><use transform="matrix(0.06172839506172839,0,0,0.06172839506172839,32.03703703703704,0)" xlink:href="#K"/><use transform="matrix(0.06172839506172839,0,0,0.06172839506172839,44.382716049382715,0)" xlink:href="#N"/><use transform="matrix(0.06172839506172839,0,0,0.06172839506172839,51.72839506172839,0)" xlink:href="#K"/></g><g id="l"><use transform="matrix(0.06172839506172839,0,0,0.06172839506172839,0,0)" xlink:href="#y"/><use transform="matrix(0.06172839506172839,0,0,0.06172839506172839,12.345679012345679,0)" xlink:href="#C"/><use transform="matrix(0.06172839506172839,0,0,0.06172839506172839,17.22222222222222,0)" xlink:href="#C"/></g><g id="m"><use transform="matrix(0.06172839506172839,0,0,0.06172839506172839,0,0)" xlink:href="#E"/><use transform="matrix(0.06172839506172839,0,0,0.06172839506172839,4.876543209876543,0)" xlink:href="#v"/><use transform="matrix(0.06172839506172839,0,0,0.06172839506172839,23.33333333333333,0)" xlink:href="#y"/><use transform="matrix(0.06172839506172839,0,0,0.06172839506172839,35.679012345679006,0)" xlink:href="#z"/><use transform="matrix(0.06172839506172839,0,0,0.06172839506172839,48.02469135802468,0)" xlink:href="#w"/><use transform="matrix(0.06172839506172839,0,0,0.06172839506172839,60.37037037037036,0)" xlink:href="#x"/></g></defs></g></svg>