<svg xmlns="http://www.w3.org/2000/svg" xmlns:xlink="http://www.w3.org/1999/xlink" xmlns:lucid="lucid" width="2138" height="1183"><g transform="translate(-325 -435)" lucid:page-tab-id="0_0"><path d="M0 0h2645.67v1870.87H0z" fill="#fff"/><path d="M483.86 481.1a6 6 0 0 1 6-6H943.2a6 6 0 0 1 6 6v488.03a6 6 0 0 1-6 6H489.86a6 6 0 0 1-6-6z" fill="#fff" fill-opacity="0"/><path d="M486.93 475.9l.2-.13.87-.36.92-.2h2m3.98 0h3.98m4 0l3.97-.02m4 0h3.97m4 0h3.97m3.98 0h3.98m4 0h3.97m4 0h3.97m4 0h3.97m4 0h3.97m4 0h3.97m4 0h3.98m3.98 0h4m3.97 0h4m3.97 0h4m3.97 0h4m3.97 0h4m3.97 0h4m3.98-.02h4m3.97 0h4m3.97 0h4m3.97 0h3.98m3.98 0h4m3.97 0h4m3.97 0h4m3.97 0h4m3.97 0h4m3.97 0h4m3.98 0h4m3.97 0h4m3.97 0H730m4 0h3.97m4 0h3.97m4 0l3.97-.02m4 0h3.98m4 0h3.97m4 0h3.97m4 0h3.97m3.98 0h3.98m4 0h3.97m4 0h3.97m4 0h3.97m4 0h3.97m4 0h3.97m4 0h3.98m4 0h3.97m4 0h3.97m4 0h3.97m3.98 0h3.98m4-.02h3.97m4 0h3.97m3.98 0h4m3.97 0h4m3.97 0h4m3.97 0h3.98m3.98 0h4m3.97 0h4m3.97 0h2l.93.07.92.2.22.1m3.15 2.7l.12.2.36.86.22.92v2m0 4v4m0 4.02v4m0 4.02v4m0 4v4.02m0 4v4.02m0 4v4m0 4.02v4m0 4.02v4m0 4v4.02m0 4v4.02m0 4l.02 4m0 4.02v4m0 4.02v4m0 4v4.02m0 4v4m0 4.02v4m0 4.02v4m0 4v4.02m0 4v4.02m0 4v4m0 4.02v4m0 4.02v4m0 4v4.02m0 4v4.02m0 4v4m0 4.02v4m0 4v4.02m.02 4v4.02m0 4v4m0 4.02v4m0 4.02v4m0 4v4.02m0 4v4.02m0 4v4m0 4.02v4m0 4.02v4m0 4v4.02m0 4v4m0 4.02v4m0 4.02v4m0 4v4.02m0 4v4.02m0 4v4m0 4.02l.02 4m0 4.02v4m0 4v4.02m0 4v4.02m0 4v4m0 4.02v4m0 4v4.02m0 4V891m0 4v4m0 4.02v4m0 4.02v4m0 4v4.02m0 4v4.02m0 4v4m0 4.02v4m0 4.02v4m0 4v4.02m.02 4v2l-.08.95-.22.9-.1.23m-2.68 3.15l-.2.13-.87.36-.92.22h-2m-3.97 0h-4m-3.97 0h-4m-3.98 0h-4m-3.97 0h-4m-3.97 0h-4m-3.97 0h-3.98m-3.98 0h-4m-3.97 0h-4m-3.97 0h-4m-3.97 0h-4m-3.97 0h-4m-3.97 0h-4m-3.98 0h-3.98m-4 0l-3.97.02m-4 0h-3.97m-4 0h-3.97m-4 0h-3.97m-4 0h-3.97m-4 0h-3.98m-4 0h-3.97m-4 0h-3.97m-4 0h-3.97m-3.98 0h-3.98m-4 0h-3.97m-4 0h-3.97m-4 0h-3.97m-4 0h-3.97m-4 0H719m-4 0h-3.98m-4 .02h-3.97m-4 0h-3.97m-4 0h-3.97m-3.97 0h-4m-3.97 0h-4m-3.97 0h-4m-3.98 0h-4m-3.97 0h-4m-3.97 0h-4m-3.97 0h-3.98m-3.98 0h-4m-3.97 0h-4m-3.97 0h-4m-3.97 0h-4m-3.97 0h-4m-3.97 0l-4 .02m-3.98 0h-4m-3.97 0h-4m-3.97 0h-4m-3.97 0h-3.98m-3.98 0h-4m-3.97 0h-4m-3.97 0h-4m-3.97 0h-3.98m-4 0h-3.97m-4 0h-3.97m-3.98 0h-3.98m-4 0h-1.98l-.94-.06-.92-.22-.2-.1m-3.16-2.68l-.13-.2-.35-.88-.22-.9v-2m0-4.02v-4m0-4.02v-4m0-4V944m0-4V936m0-4v-4m0-4.02v-4m0-4.02v-4m0-4v-4.02m0-4v-4.02m0-4v-4m0-4.02v-4m0-4v-4.02m0-4v-4.02m0-4v-4m-.02-4.02v-4m0-4.02v-4m0-4v-4.02m0-4v-4.02m0-4v-4m0-4.02v-4m0-4.02v-4m0-4v-4.02m0-4v-4m0-4.02v-4m0-4.02v-4m0-4v-4.02m0-4v-4.02m0-4v-4m0-4.02v-4m0-4.02v-4m0-4v-4.02m0-4v-4.02m0-4v-4m0-4.02v-4m0-4v-4.02m0-4v-4.02m0-4v-4m0-4.02v-4m0-4.02v-4m-.02-4v-4.02m0-4v-4.02m0-4v-4m0-4.02v-4m0-4.02v-4m0-4v-4.02m0-4v-4.02m0-4v-4m0-4.02v-4m0-4v-4.02m0-4v-4.02m0-4v-4m0-4.02v-4m0-4.02v-4m0-4v-4.02m0-4v-4.02m0-4l-.02-4m0-4.02v-4m0-4.02v-4m0-4v-4.02m0-4v-4m0-4.02v-2l.07-.94.22-.92.1-.22" stroke="#5a6c86" fill="none"/><use xlink:href="#a" transform="matrix(1,0,0,1,483.85866150186916,495.11393633205444) translate(185.9 14.4)"/><path d="M989.8 481.1a6 6 0 0 1 6-6h296.28a6 6 0 0 1 6 6v1091.26a6 6 0 0 1-6 6H995.8a6 6 0 0 1-6-6z" fill="#fff" fill-opacity="0"/><path d="M992.88 475.9l.2-.13.87-.36.9-.2h2.02m4.02 0h4m4.02-.02h4.02m4.02 0h4m4.03 0h4m4.02 0h4.02m4 0h4.03m4.02 0h4m4.02 0h4.02m4 0h4.03m4.02 0h4m4.02 0h4.02m4-.02h4.03m4 0h4.03m4.02 0h4m4.03 0h4.02m4 0h4.03m4.02 0h4m4.03 0h4.02m4 0h4.03m4 0h4.03m4.02 0h4m4.03-.02h4.02m4 0h4.03m4.02 0h4m4.03 0h4.02m4 0h4.03m4.02 0h4m4.03 0h4m4.03 0h4.03m4 0h4.03m4.02 0h4m4.03-.02h4.03m4 0h4.03m4.02 0h4m4.03 0h4.03m4 0h4.03m4 0h2.02l.94.07.92.2.2.1m3.17 2.7l.13.2.36.86.2.92v2m0 3.97v4m0 3.98v3.98m0 4v3.98m0 4v3.98m0 3.98v4m0 3.98V530m0 4v3.97m0 4v3.98m0 3.98v4m0 3.97v4m0 3.98v3.98m.02 4v3.97m0 4v3.98m0 4v3.98m0 3.98v4m0 3.98v3.98m0 4v3.97m0 3.98v4m0 3.97v4m0 3.97v4m0 3.98v3.98m0 4v3.98m0 3.98v4m0 3.97v4m0 4v3.97m0 4v3.97m0 4v3.98m0 3.98v4m0 3.97v4m0 3.98v3.98m0 4v3.97m0 4v3.98m0 3.98v4m0 3.97v4m0 3.98v4m0 3.98v4m0 3.97v4m0 3.97v4m0 3.98v3.98m0 4v3.97m0 4v3.98m0 3.98v4m0 3.98v4m0 3.98v3.98m0 4v3.97m0 4v4m0 3.97v4m0 3.97v4m.02 3.98v3.98m0 4v3.98m0 3.98v4m0 3.97v4m0 3.98v4m0 3.98v3.98m0 4v3.98m0 3.98v4m0 3.97v3.98m0 4v3.97m0 4v3.97m0 4v3.98m0 3.98v4m0 3.97v4m0 3.98v3.98m0 4v3.98m0 4v3.98m0 3.98v4m0 3.98v3.98m0 4v3.97m0 4v3.98m0 3.98v4m0 3.97v4m0 3.98v3.98m0 4v3.97m0 4v3.98m0 4v3.98m0 3.98v4m0 3.98v3.98m0 4v3.97m0 3.98v4m0 3.97v4m0 3.98v3.98m0 4v3.98m0 4v3.98m0 3.98v4m0 3.97v4m.02 4v3.97m0 4v3.97m0 4v3.98m0 3.98v4m0 3.97v4m0 3.98v3.98m0 4v3.97m0 4v3.98m0 3.98v4m0 3.97v4m0 3.98v4m0 3.98v4m0 3.97v4m0 3.97v4m0 3.98v3.98m0 4v3.97m0 4v3.98m0 3.98v4m0 3.98v4m0 3.98v3.98m0 4v3.97m0 4v4m0 3.97v4m0 3.97v4m0 3.98v3.98m0 4v3.98m0 3.98v4m0 3.97v4m0 3.98v4m0 3.98v3.98m0 4v3.98m0 3.98v4m0 3.97v3.98m0 4v3.97m0 4v3.97m0 4v3.98m0 3.98v4m.02 3.97v4m0 3.98v3.98m0 4v4m0 3.97v4m0 3.97v4m0 3.98v3.98m0 4v3.97m0 4v3.98m0 3.98v4m0 3.97v4m0 3.98v3.98m0 4v3.97m0 4v3.98m0 4v3.98m0 3.98v2l-.07.94-.2.9-.1.23m-2.7 3.15l-.2.12-.86.36-.92.22h-2m-4.02 0h-4.02m-4.02 0h-4m-4.03 0h-4.02m-4 0h-4.02m-4.02 0h-4m-4.03.02h-4m-4.03 0h-4.02m-4 0h-4.03m-4.02 0h-4m-4.03 0h-4.02m-4 0h-4.03m-4.02 0h-4m-4.03 0h-4m-4.03 0h-4.02m-4 0h-4.03m-4.02.02h-4m-4.03 0h-4.02m-4 0h-4.03m-4.02 0h-4m-4.03 0h-4.02m-4 0h-4.03m-4 0h-4.03m-4.03 0h-4m-4.03 0h-4.02m-4 0h-4.03m-4.03.02h-4m-4.03 0h-4.02m-4 0h-4.03m-4.03 0h-4m-4.03 0h-4m-4.03 0h-4m-4.02 0h-4.02m-4.02 0h-4m-4.03 0h-4m-4.02 0h-4.02m-4.02.02h-4m-4.03 0h-2l-.94-.08-.9-.22-.23-.1m-3.15-2.68l-.12-.2-.36-.87-.22-.9v-2m0-3.98v-4m0-3.98v-3.98m0-4v-3.97m0-4v-4m0-3.97v-4m0-3.97v-4m0-3.98v-3.98m0-4v-3.97m0-4v-3.98m0-3.98v-4m0-3.97v-4m0-3.98v-3.98m0-4v-3.97m0-4v-3.98m0-4v-3.98m0-3.98v-4m0-3.98v-3.98m0-4v-3.98m0-3.98v-4m0-3.97v-4m0-3.98v-3.98m0-4v-3.98m0-4l-.02-3.98m0-3.98v-4m0-3.97v-4m0-4v-3.97m0-4v-3.97m0-4v-3.98m0-3.98v-4m0-3.97v-4m0-3.98v-3.98m0-4v-3.98m0-4v-3.98m0-3.98v-4m0-3.98v-3.98m0-4v-3.97m0-3.98v-4m0-3.97v-4m0-3.97v-4m0-3.98v-3.98m0-4v-3.97m0-4v-3.98m0-3.98v-4m0-3.98v-4m0-3.98v-3.98m0-4v-3.97m0-4v-4m0-3.97v-4m0-3.98v-3.98m0-4v-3.97m0-4v-3.98m0-3.98v-4m0-3.97v-4m0-3.98v-4m0-3.98v-3.98m0-4v-3.98m0-3.98v-4m0-3.97v-3.98m0-4v-3.97m0-4l-.02-3.97m0-4V1085m0-3.98v-4m0-3.98v-3.98m0-4v-3.97m0-4v-4m0-3.97v-4m0-3.97v-4m0-3.98v-3.98m0-4v-3.97m0-4v-3.98m0-3.98v-4m0-3.97v-4m0-3.98v-3.98m0-4v-3.97m0-4v-3.98m0-4v-3.98m0-4v-3.97m0-4v-3.97m0-4v-3.98m0-3.98v-4m0-3.97v-4m0-3.98v-3.98m0-4v-3.98m0-4v-3.98m0-3.98v-4m0-3.97v-4m0-4v-3.97m0-4v-3.97m0-4v-3.98m0-3.98v-4m0-3.97v-4m0-3.98v-3.98m0-4v-3.98m0-4v-3.98m0-3.98v-4m0-3.98v-3.98m0-4l-.02-3.97m0-3.98v-4m0-3.97v-4m0-3.97v-4m0-3.98v-3.98m0-4v-3.97m0-4v-3.98m0-3.98v-4m0-3.98v-4m0-3.98v-3.98m0-4v-3.98m0-3.98v-4m0-3.97v-4m0-3.98v-3.98m0-4v-3.97m0-4v-3.98m0-3.98v-4m0-3.97v-4m0-3.98v-4m0-3.98v-3.98m0-4v-3.98m0-3.98v-4m0-3.97v-3.98m0-4v-3.97m0-4v-3.97m0-4v-3.98m0-3.98v-4m0-3.98v-3.98m0-4v-3.97m0-4v-4m0-3.97v-4m0-3.97v-4m0-3.98v-3.98m0-4v-3.97m0-4v-3.98m0-3.98v-4m0-3.97v-4m0-3.98l-.02-3.98m0-4v-3.97m0-4v-3.98m0-4v-2l.08-.92.22-.92.1-.22" stroke="#5a6c86" fill="none"/><use xlink:href="#b" transform="matrix(1,0,0,1,989.8034228154343,495.11393633205444) translate(108.1 14.4)"/><path d="M1338.7 481.1a6 6 0 0 1 6-6h264.23a6 6 0 0 1 6 6v798.8a6 6 0 0 1-6 6H1344.7a6 6 0 0 1-6-6z" fill="#fff" fill-opacity="0"/><path d="M1341.77 475.9l.2-.13.87-.36.9-.2h2.02m4.02 0h4.02m4-.02h4.03m4.02 0h4.02m4.02 0h4m4.02 0h4.02m4.02 0h4.02m4 0h4.03m4.03 0h4.02m4.02 0h4m4.03 0l4.02-.02m4.02 0h4m4.03 0h4.02m4 0h4.03m4 0h4.03m4.02 0h4.02m4.02 0h4m4.03 0h4.02m4.02 0h4m4.02 0l4.02-.02m4.02 0h4.02m4 0h4.03m4.03 0h4.02m4.02 0h4m4.03 0h4.02m4.02 0h4.02m4 0h4.03m4 0h4.03m4.02 0l4-.02m4.03 0h4.02m4.02 0h4m4.03 0h4.02m4.02 0h4m4.02 0h2l.95.07.92.2.2.1m3.16 2.7l.12.2.36.86.22.92v2m0 4v4m0 4v4m0 4v4m0 4v3.98m0 4v4m0 4v4m0 4v4m0 4v4m0 4v4m0 4v4m0 4v4m0 3.98v4m0 4v4m0 4v4m0 4v4m0 4v4m0 4v4m0 4v4m0 4v3.98m0 4v4m0 4v4m.02 4v4m0 4v4m0 4v4m0 4v4m0 4v3.98m0 4v4m0 4v4m0 4v4m0 4v4m0 4v4m0 4v4m0 4v4m0 3.98v4m0 4v4m0 4v4m0 4v4m0 4v4m0 4v4m0 4v4m0 4v3.98m0 4v4m0 4v4m0 4v4m0 4v4m0 4v4m0 4v4m0 4v4m.02 3.98v4m0 4v4m0 4v4m0 4v4m0 4v4m0 4v4m0 4v4m0 4V930m0 4v4m0 4v4m0 4v4m0 4v4m0 4v4m0 4v4m0 4v4m0 3.98v4m0 4v4m0 4v4m0 4v4m0 4v4m0 4v4m0 4v4m0 4v3.98m0 4v4m0 4v4m0 4v4m0 4v4m.02 4v4m0 4v4m0 4v4m0 3.98v4m0 4v4m0 4v4m0 4v4m0 4v4m0 4v4m0 4v4m0 4v3.98m0 4v4m0 4v4m0 4v4m0 4v4m0 4v4m0 4v4m0 4v4m0 3.98v4m0 4v4m0 4v4m0 4v4m0 4v4m0 4v4m0 4v2l-.06.93-.22.9-.1.23m-2.68 3.15l-.2.12-.87.36-.93.23h-2m-4.03 0h-4m-4.03 0h-4m-4.03 0h-4m-4.03 0h-4.02m-4.02 0l-4.02.02m-4 0h-4.03m-4.02 0h-4.02m-4 0h-4.02m-4.02 0h-4.02m-4.02 0h-4.02m-4 0h-4.03m-4.02 0h-4.02m-4 0h-4.03m-4.02 0l-4.02.02m-4.02 0h-4m-4.03 0h-4m-4.03 0h-4.02m-4 0h-4.03m-4.02 0h-4.02m-4.02 0h-4m-4.03 0h-4.02m-4 0h-4.02m-4.02 0l-4.02.02m-4.02 0H1415m-4 0h-4.03m-4.02 0h-4.02m-4.02 0h-4m-4.02 0h-4.02m-4.02 0h-4.02m-4 0h-4.03m-4.03 0h-4.02m-4 0h-4.03m-4.02 0h-2l-.95-.07-.9-.22-.23-.08m-3.15-2.7l-.13-.2-.36-.86-.22-.9v-2m0-4v-4m0-4v-4m0-4v-4m0-4v-4m0-4v-4m0-4v-4m0-4v-4m0-4v-4m0-4v-4m0-4v-4m0-4v-3.98m0-4v-4m0-4v-4m0-4v-4m0-4v-4m0-4v-4m0-4v-4m0-4v-4m0-3.98v-4m0-4v-4m0-4v-4m0-4v-4m0-4v-4m0-4v-4m0-4v-4m0-4l-.02-3.98m0-4v-4m0-4v-4m0-4v-4m0-4v-4m0-4v-4m0-4v-4m0-4v-4m0-3.98v-4m0-4v-4m0-4v-4m0-4v-4m0-4v-4m0-4v-4m0-4v-4m0-3.98v-4m0-4v-4m0-4v-4m0-4v-4m0-4v-4m0-4v-4m0-4v-4m0-4V895m0-4v-4m0-4v-4m0-4v-4m0-4v-4m0-4v-4m-.02-4v-4m0-4v-4m0-3.98v-4m0-4v-4m0-4v-4m0-4v-4m0-4v-4m0-4v-4m0-4v-4m0-4v-3.98m0-4v-4m0-4v-4m0-4v-4m0-4v-4m0-4v-4m0-4v-4m0-4v-4m0-3.98v-4m0-4v-4m0-4v-4m0-4v-4m0-4v-4m0-4v-4m0-4v-4m0-4v-3.98m0-4v-4m0-4v-4m-.02-4v-4m0-4v-4m0-4v-4m0-4v-4m0-4v-4m0-3.98v-4m0-4v-4m0-4v-4m0-4v-4m0-4v-4m0-4v-4m0-4v-4m0-4v-3.98m0-4v-4m0-4v-4m0-4v-4m0-4v-4m0-4v-4m0-4v-4m0-4v-2l.06-.92.22-.92.1-.22" stroke="#5a6c86" fill="none"/><use xlink:href="#c" transform="matrix(1,0,0,1,1338.690428107319,495.11393633205444) translate(97.57499999999999 14.4)"/><path d="M1748.13 481.1a6 6 0 0 1 6-6h662.75a6 6 0 0 1 6 6v566.17a6 6 0 0 1-6 6h-662.75a6 6 0 0 1-6-6z" fill="#fff" fill-opacity="0"/><path d="M1751.2 475.9l.2-.13.88-.36.92-.2h2m4 0h4m4 0h4m4 0l3.98-.02m4 0h4m4 0h4m4 0h4m4 0h4m4 0h3.98m4 0h4m4 0h4m4 0h4m4 0h4m4 0h4m3.98 0h4m4 0h4m4 0h4m4 0h4m4 0h4m3.98 0h4m4 0h4m4 0h4m4 0h4m4 0h4m4 0h3.98m4 0h4m4-.02h4m4 0h4m4 0h4m4 0h4m3.98 0h4m4 0h4m4 0h4m4 0h4m4 0h4m3.98 0h4m4 0h4m4 0h4m4 0h4m4 0h4m4 0h3.98m4 0h4m4 0h4m4 0h4m4 0h4m4 0h3.98m4 0h4m4 0h4m4 0l4-.02m4 0h4m4 0h4m3.98 0h4m4 0h4m4 0h4m4 0h4m4 0h4m3.98 0h4m4 0h4m4 0h4m4 0h4m4 0h4m4 0h3.98m4 0h4m4 0h4m4 0h4m4 0h4m4 0h4m3.98 0h4m4 0h4m4 0h4m4 0h4m4-.02h4m3.98 0h4m4 0h4m4 0h4m4 0h4m4 0h4m4 0h3.98m4 0h4m4 0h4m4 0h4m4 0h4m4 0h3.98m4 0h2l.94.07.92.2.2.1m3.16 2.7l.13.2.36.86.2.92v2m0 4v3.98m0 4v4m0 3.98v4m0 4v3.98m0 4v4m0 3.98v4m0 4l.02 3.98m0 4v4m0 3.98v4m0 4v3.98m0 4v4m0 4V578m0 4v4m0 3.98v4m0 4v3.98m0 4v4m0 3.98v4m0 4v3.98m0 4v4m0 3.98v4m0 4v3.98m0 4v4m0 3.98v4m0 4v4m0 3.98v4m0 4l.02 3.98m0 4v4m0 3.98v4m0 4v3.98m0 4v4m0 3.98v4m0 4v3.98m0 4v4m0 3.98v4m0 4v4m0 3.98v4m0 4v3.98m0 4v4m0 3.98v4m0 4v3.98m0 4v4m0 3.98v4m0 4v3.98m0 4v4m0 3.98l.02 4m0 4v3.98m0 4v4m0 4v3.98m0 4v4m0 3.98v4m0 4v3.98m0 4v4m0 3.98v4m0 4v3.98m0 4v4m0 3.98v4m0 4v3.98m0 4v4m0 4v3.98m0 4v4m0 3.98v4m0 4v3.98m0 4v4m0 3.98v4m.02 4v3.98m0 4v4m0 3.98v4m0 4v3.98m0 4v4m0 3.98v4m0 4v2l-.07.93-.2.92-.1.22m-2.7 3.15l-.2.1-.86.38-.92.22h-2m-4 0h-4m-4 0h-4m-4 0h-4m-4 0h-3.98m-4 0h-4m-4 0h-4m-4 0h-4m-4 0h-4m-4 0h-3.98m-4 0h-4m-4 0h-4m-4 0h-4m-4 0h-4m-4 0h-4m-3.98 0h-4m-4 0h-4m-4 0h-4m-4 0h-4m-4 0h-4m-3.98 0h-4m-4 0h-4m-4 0h-4m-4 .02h-4m-4 0h-4m-4 0h-3.98m-4 0h-4m-4 0h-4m-4 0h-4m-4 0h-4m-4 0h-4m-3.98 0h-4m-4 0h-4m-4 0h-4m-4 0h-4m-4 0h-4m-3.98 0h-4m-4 0h-4m-4 0h-4m-4 0h-4m-4 0h-4m-4 0H2088m-4 0h-4m-4 0h-4m-4 0h-4m-4 0l-4 .02m-4 0H2048m-4 0h-4m-4 0h-4m-4 0h-4m-4 0h-4m-4 0h-4m-3.98 0h-4m-4 0h-4m-4 0h-4m-4 0h-4m-4 0h-4m-3.98 0h-4m-4 0h-4m-4 0h-4m-4 0h-4m-4 0h-4m-4 0h-3.98m-4 0h-4m-4 0h-4m-4 0h-4m-4 0h-4m-4 0h-4m-3.98.02h-4m-4 0h-4m-4 0h-4m-4 0h-4m-4 0h-4m-3.98 0h-4m-4 0h-4m-4 0h-4m-4 0h-4m-4 0h-4m-4 0h-3.98m-4 0h-4m-4 0h-4m-4 0h-4m-4 0h-4m-4 0h-2l-.92-.06-.92-.22-.22-.1m-3.15-2.7l-.1-.2-.37-.86-.22-.9v-2m0-4v-4m0-4v-3.98m0-4v-4m0-3.98v-4m0-4v-4m0-3.98v-4m0-4v-3.98m0-4v-4m0-3.98v-4m0-4v-3.98m0-4v-4m0-3.98v-4m0-4v-3.98m0-4v-4m0-3.98v-4m0-4v-3.98m0-4v-4m0-4v-3.98m0-4v-4m0-3.98v-4m0-4v-3.98m0-4v-4m-.02-3.98v-4m0-4v-3.98m0-4v-4m0-3.98v-4m0-4v-3.98m0-4v-4m0-4v-3.98m0-4v-4m0-3.98v-4m0-4v-3.98m0-4v-4m0-3.98v-4m0-4v-3.98m0-4v-4m0-3.98v-4m0-4v-3.98m0-4v-4m0-3.98v-4m0-4v-4m-.02-3.98v-4m0-4v-3.98m0-4v-4m0-3.98v-4m0-4v-3.98m0-4v-4m0-3.98v-4m0-4v-3.98m0-4v-4m0-3.98v-4m0-4v-4m0-3.98v-4m0-4v-3.98m0-4v-4m0-3.98v-4m0-4v-3.98m0-4v-4m0-3.98v-4m0-4V567m0-4l-.02-4m0-3.98v-4m0-4v-3.98m0-4v-4m0-4v-3.98m0-4v-4m0-3.98v-4m0-4v-3.98m0-4v-4m0-3.98v-4m0-4v-2l.07-.92.23-.92.1-.22" stroke="#5a6c86" fill="none"/><use xlink:href="#d" transform="matrix(1,0,0,1,1748.1345283828007,495.11393633205444) translate(288.525 14.4)"/><path d="M507.1 588.67a6 6 0 0 1 6-6h148a6 6 0 0 1 6 6v108a6 6 0 0 1-6 6h-148a6 6 0 0 1-6-6z" stroke="#fcce14" stroke-width="5" fill="#fff"/><use xlink:href="#e" transform="matrix(1,0,0,1,519.1123426534148,594.6666666666667) translate(42.72222222222222 38.77777777777778)"/><use xlink:href="#f" transform="matrix(1,0,0,1,519.1123426534148,594.6666666666667) translate(64.91358024691358 65.44444444444446)"/><path d="M760.45 588.67a6 6 0 0 1 6-6h148a6 6 0 0 1 6 6v108a6 6 0 0 1-6 6h-148a6 6 0 0 1-6-6z" stroke="#3a414a" fill="#fff"/><use xlink:href="#g" transform="matrix(1,0,0,1,772.445675986748,594.6666666666667) translate(29.141975308641975 38.77777777777778)"/><use xlink:href="#h" transform="matrix(1,0,0,1,772.445675986748,594.6666666666667) translate(31.086419753086417 65.44444444444446)"/><path d="M1886.37 547a7.73 7.73 0 0 1 9.48 0l118.52 92a4.66 4.66 0 0 1 0 7.35l-118.52 91.97a7.73 7.73 0 0 1-9.48 0l-118.52-91.97a4.66 4.66 0 0 1 0-7.36z" stroke="#3a414a" fill="#fff"/><use xlink:href="#i" transform="matrix(1,0,0,1,1768.1123426534145,548.3333334000008) translate(85.99882716049382 82.74652777777777)"/><use xlink:href="#j" transform="matrix(1,0,0,1,1768.1123426534145,548.3333334000008) translate(83.005 109.41319444444446)"/><path d="M1138.2 547a7.73 7.73 0 0 1 9.5 0l118.5 92a4.66 4.66 0 0 1 0 7.35l-118.5 91.97a7.73 7.73 0 0 1-9.5 0l-118.5-91.97a4.66 4.66 0 0 1 0-7.36z" stroke="#3a414a" fill="#fff"/><use xlink:href="#k" transform="matrix(1,0,0,1,1019.9510821262134,548.3333333333335) translate(101.43092592592592 65.02777777777777)"/><use xlink:href="#l" transform="matrix(1,0,0,1,1019.9510821262134,548.3333333333335) translate(28.221049382716085 91.69444444444446)"/><path d="M1359.1 1152.67a6 6 0 0 1 6-6h216a6 6 0 0 1 6 6v108a6 6 0 0 1-6 6h-216a6 6 0 0 1-6-6z" stroke="#1071e5" stroke-width="4" fill="#fff"/><use xlink:href="#m" transform="matrix(1,0,0,1,1371.1123426534145,1158.666666666667) translate(24.345679012345684 38.77777777777778)"/><use xlink:href="#n" transform="matrix(1,0,0,1,1371.1123426534145,1158.666666666667) translate(94.5925925925926 38.77777777777778)"/><use xlink:href="#o" transform="matrix(1,0,0,1,1371.1123426534145,1158.666666666667) translate(49.0679012345679 65.44444444444446)"/><path d="M507.1 833.48a6 6 0 0 1 6-6h148a6 6 0 0 1 6 6v108a6 6 0 0 1-6 6h-148a6 6 0 0 1-6-6z" stroke="#fcce14" stroke-width="5" fill="#fff"/><use xlink:href="#e" transform="matrix(1,0,0,1,519.1123426534148,839.4847052383614) translate(42.72222222222222 38.77777777777778)"/><use xlink:href="#p" transform="matrix(1,0,0,1,519.1123426534148,839.4847052383614) translate(38.46296296296296 65.44444444444446)"/><path d="M1444.93 643.67H1269.5v-2h175.43zm302.12 0h-256.2v-2h256.2z" stroke="#008a0e" stroke-width=".05" fill="#008a0e"/><path d="M1269.54 643.67h-1.13l.1-1-.07-.94 1.1-.06z" fill="#008a0e"/><path d="M1269.57 643.7h-1.2l.12-1.03-.1-.96 1.17-.06zm-1.1-1.94l.07.9-.1.98h1.08v-1.95z" stroke="#008a0e" stroke-width=".05" fill="#008a0e"/><path d="M1762.3 642.67l-14.25 4.63v-9.27z" fill="#008a0e"/><path d="M1765.55 642.67l-18.5 6v-12.02zm-16.5 3.26l10.03-3.26-10.03-3.26z" stroke="#008a0e" stroke-width=".05" fill="#008a0e"/><use xlink:href="#q" transform="matrix(1,0,0,1,1444.9257596977573,626.6666667333342) translate(0 21.33333333333333)"/><path d="M847.33 783.7l-254.18.03-.82.07-.76.18-.73.3-.66.4-.6.52-.5.6-.42.67-.3.72-.17.72-.1 18.6h-2l.1-18.85.25-1.1.42-1.02.58-.93.7-.84.85-.7.93-.6 1.02-.4 1.07-.26 1.05-.1 254.26-.02zm296.62-6.93l-.08 1.06-.26 1.07-.4 1-.58.95-.72.84-.83.7-.94.57-1 .42-1.12.26-255.26.03v-2l255.03-.04.73-.17.72-.3.67-.42.58-.5.5-.6.42-.68.3-.72.2-.76.05-.83v-35.25h2z" stroke="#e81313" stroke-width=".05" fill="#e81313"/><path d="M1142.95 740.45l1-.07v1.1h-2v-1.1z" fill="#e81313"/><path d="M1142.95 740.42l1.03-.07v1.15h-2.05v-1.15zm-.97 1.03h1.95v-1.04l-.98.07-.97-.06z" stroke="#e81313" stroke-width=".05" fill="#e81313"/><path d="M587.1 821.8l-4.62-14.28h9.27z" fill="#e81313"/><path d="M587.1 825.02l-6-18.5h12.02zm-3.25-16.5l3.26 10.03 3.27-10.03z" stroke="#e81313" stroke-width=".05" fill="#e81313"/><use xlink:href="#r" transform="matrix(1,0,0,1,847.32800868584,766.733750972652) translate(0 21.33333333333333)"/><path d="M840.45 948.45v142.6a6 6 0 0 0 6 6h614.5a6 6 0 0 1 6 6v25.27" stroke="#3a414a" fill="none"/><path d="M840.95 948.46h-1v-.5h1z" stroke="#3a414a" stroke-width=".05" fill="#3a414a"/><path d="M1466.96 1143.1l-4.63-14.28h9.27z" stroke="#3a414a" fill="#3a414a"/><path d="M670.08 642.67h73.52" stroke="#3a414a" fill="none"/><path d="M670.1 643.17h-.52v-1h.5z" stroke="#3a414a" stroke-width=".05" fill="#3a414a"/><path d="M758.36 642.67l-14.26 4.63v-9.27z" stroke="#3a414a" fill="#3a414a"/><path d="M921.4 642.67h79.6" stroke="#3a414a" fill="none"/><path d="M921.42 643.17h-.5v-1h.5z" stroke="#3a414a" stroke-width=".05" fill="#3a414a"/><path d="M1015.77 642.67l-14.27 4.63v-9.27z" stroke="#3a414a" fill="#3a414a"/><path d="M1891.6 889.82h-1v-50.5h1zm0-82.5h-1v-66.37h1z" stroke="#3a414a" stroke-width=".05" fill="#3a414a"/><path d="M1891.1 740.45l.5-.04v.56h-1v-.55z" fill="#3a414a"/><path d="M1891.1 740.42l.54-.03v.58h-1.05v-.6zm-.46.5h.95v-.48l-.5.03-.46-.03z" stroke="#3a414a" stroke-width=".05" fill="#3a414a"/><path d="M1891.1 904.6l-4.62-14.28h9.27z" fill="#3a414a"/><path d="M1891.1 906.2l-5.3-16.38h10.64zm-3.93-15.38l3.94 12.15 3.96-12.15z" stroke="#3a414a" stroke-width=".05" fill="#3a414a"/><use xlink:href="#s" transform="matrix(1,0,0,1,1863.741972283044,807.3247683816679) translate(0 21.33333333333333)"/><path d="M1777.1 912.67a6 6 0 0 1 6-6h216a6 6 0 0 1 6 6v108a6 6 0 0 1-6 6h-216a6 6 0 0 1-6-6z" stroke="#3a414a" fill="#fff"/><use xlink:href="#t" transform="matrix(1,0,0,1,1789.1123426534145,918.666666666667) translate(7.648148148148138 38.77777777777778)"/><use xlink:href="#u" transform="matrix(1,0,0,1,1789.1123426534145,918.666666666667) translate(44.685185185185176 38.77777777777778)"/><use xlink:href="#v" transform="matrix(1,0,0,1,1789.1123426534145,918.666666666667) translate(152.0308641975309 38.77777777777778)"/><use xlink:href="#w" transform="matrix(1,0,0,1,1789.1123426534145,918.666666666667) translate(19.0679012345679 65.44444444444446)"/><use xlink:href="#x" transform="matrix(1,0,0,1,1789.1123426534145,918.666666666667) translate(152.95679012345678 65.44444444444446)"/><path d="M1360.1 912.67a6 6 0 0 1 6-6h216a6 6 0 0 1 6 6v108a6 6 0 0 1-6 6h-216a6 6 0 0 1-6-6z" stroke="#1071e5" stroke-width="4" fill="#fff"/><use xlink:href="#m" transform="matrix(1,0,0,1,1372.112342653415,918.666666666667) translate(24.345679012345684 38.77777777777778)"/><use xlink:href="#n" transform="matrix(1,0,0,1,1372.112342653415,918.666666666667) translate(94.5925925925926 38.77777777777778)"/><use xlink:href="#y" transform="matrix(1,0,0,1,1372.112342653415,918.666666666667) translate(45.95061728395062 65.44444444444446)"/><path d="M1622.1 967.17h-15.64v-1h15.63zm154.05 0h-31.52v-1h31.52z" stroke="#3a414a" stroke-width=".05" fill="#3a414a"/><path d="M1776.65 967.17h-.5v-1h.5z" fill="#3a414a"/><path d="M1776.67 967.2h-.56v-1.06h.57zm-.5-1v.94h.45v-.95z" stroke="#3a414a" stroke-width=".05" fill="#3a414a"/><path d="M1605.96 971.3l-14.27-4.63 14.26-4.64z" fill="#3a414a"/><path d="M1606.46 972l-16.38-5.33 16.38-5.33zm-13.15-5.33l12.16 3.94v-7.88z" stroke="#3a414a" stroke-width=".05" fill="#3a414a"/><use xlink:href="#z" transform="matrix(1,0,0,1,1622.0907378879667,938.666666666667) translate(23.705617283950623 12.444444444444446)"/><use xlink:href="#A" transform="matrix(1,0,0,1,1622.0907378879667,938.666666666667) translate(0.005000000000002558 31.111111111111118)"/><use xlink:href="#B" transform="matrix(1,0,0,1,1622.0907378879667,938.666666666667) translate(30.208703703703705 31.111111111111118)"/><use xlink:href="#C" transform="matrix(1,0,0,1,1622.0907378879667,938.666666666667) translate(50.949444444444445 31.111111111111118)"/><use xlink:href="#D" transform="matrix(1,0,0,1,1622.0907378879667,938.666666666667) translate(28.09141975308642 49.777777777777786)"/><use xlink:href="#E" transform="matrix(1,0,0,1,1622.0907378879667,938.666666666667) translate(59.893888888888895 49.777777777777786)"/><use xlink:href="#F" transform="matrix(1,0,0,1,1622.0907378879667,938.666666666667) translate(77.17783950617286 49.777777777777786)"/><path d="M2177.08 588.67a6 6 0 0 1 6-6h216a6 6 0 0 1 6 6v108a6 6 0 0 1-6 6h-216a6 6 0 0 1-6-6z" stroke="#3a414a" fill="#fff"/><use xlink:href="#G" transform="matrix(1,0,0,1,2189.08412568081,594.6666667333342) translate(23.018518518518505 38.77777777777778)"/><use xlink:href="#H" transform="matrix(1,0,0,1,2189.08412568081,594.6666667333342) translate(66.22839506172838 38.77777777777778)"/><use xlink:href="#I" transform="matrix(1,0,0,1,2189.08412568081,594.6666667333342) translate(162.46296296296296 38.77777777777778)"/><use xlink:href="#w" transform="matrix(1,0,0,1,2189.08412568081,594.6666667333342) translate(19.0679012345679 65.44444444444446)"/><use xlink:href="#x" transform="matrix(1,0,0,1,2189.08412568081,594.6666667333342) translate(152.95679012345678 65.44444444444446)"/><path d="M2060.4 643.17h-43.22v-1h43.2zm99.84 0h-27.33v-1h27.34z" stroke="#3a414a" stroke-width=".05" fill="#3a414a"/><path d="M2017.2 643.17h-.57l.05-.5-.05-.5h.56z" fill="#3a414a"/><path d="M2017.2 643.2h-.6l.05-.53-.05-.53h.6zm-.54-1l.04.47-.04.47h.5v-.95z" stroke="#3a414a" stroke-width=".05" fill="#3a414a"/><path d="M2175 642.67l-14.26 4.63v-9.27z" fill="#3a414a"/><path d="M2176.62 642.67l-16.38 5.32v-10.66zm-15.38 3.94l12.14-3.93-12.14-3.95z" stroke="#3a414a" stroke-width=".05" fill="#3a414a"/><use xlink:href="#J" transform="matrix(1,0,0,1,2060.3890603014015,626.6666668000016) translate(0 21.33333333333333)"/><path d="M2291.08 703.63v257.04a6 6 0 0 1-6 6h-263.12" stroke="#3a414a" fill="none"/><path d="M2291.58 703.64h-1v-.5h1z" stroke="#3a414a" stroke-width=".05" fill="#3a414a"/><path d="M2007.2 966.67l14.26-4.64v9.27z" stroke="#3a414a" fill="#3a414a"/><path d="M1062.95 1412.5a6 6 0 0 1 6-6h148a6 6 0 0 1 6 6v108a6 6 0 0 1-6 6h-148a6 6 0 0 1-6-6z" stroke="#3a414a" fill="#fff"/><use xlink:href="#K" transform="matrix(1,0,0,1,1074.9510821262134,1418.5042468149215) translate(4.604938271604929 53.77777777777778)"/><path d="M398.15 1461.38l.2.82.32.8.46.74.56.65.64.55.74.45.8.33.83.2.9.07H1062v1H403.54l-1-.07-1-.24-.93-.4-.87-.54-.77-.66-.67-.77-.52-.87-.4-.95-.23-1-.04-383.87h1zm90.12-818.2l-85.58.06-.83.2-.8.33-.73.45-.65.56-.57.65-.46.74-.33.8-.2.84-.07.9.04 396.93h-1l-.03-396.98.08-1 .24-1 .38-.93.53-.87.68-.78.77-.66.87-.53.94-.4 1.02-.23 85.68-.07z" stroke="#3a414a" stroke-width=".05" fill="#3a414a"/><path d="M1062.5 1467h-.53v-1h.52z" fill="#3a414a"/><path d="M1062.5 1467.03h-.55v-1.05h.56zm-.5-1v.95h.46v-.95z" stroke="#3a414a" stroke-width=".05" fill="#3a414a"/><path d="M503.03 642.67l-14.26 4.63v-9.27z" fill="#3a414a"/><path d="M504.65 642.67L488.27 648v-10.66zm-15.38 3.94l12.14-3.93-12.13-3.95z" stroke="#3a414a" stroke-width=".05" fill="#3a414a"/><use xlink:href="#L" transform="matrix(1,0,0,1,348.75903280777663,1045.6261807792384) translate(0 21.33333333333333)"/><path d="M1886.37 1370.85a7.73 7.73 0 0 1 9.48 0l118.52 91.98a4.66 4.66 0 0 1 0 7.35l-118.52 91.98a7.73 7.73 0 0 1-9.48 0l-118.52-91.98a4.66 4.66 0 0 1 0-7.35z" stroke="#3a414a" fill="#fff"/><g><use xlink:href="#M" transform="matrix(1,0,0,1,1768.1123426534145,1372.1709134815883) translate(85.41240740740741 82.74652777777777)"/><use xlink:href="#N" transform="matrix(1,0,0,1,1768.1123426534145,1372.1709134815883) translate(64.45561728395063 109.41319444444446)"/></g><path d="M1473.1 1269.13v53.22a6 6 0 0 0 6 6h406a6 6 0 0 1 6 6v18" stroke="#3a414a" fill="none"/><path d="M1473.6 1269.14h-1v-.5h1z" stroke="#3a414a" stroke-width=".05" fill="#3a414a"/><path d="M1891.1 1367.1l-4.62-14.26h9.27z" stroke="#3a414a" fill="#3a414a"/><path d="M1471.52 1467.5h-229.6v-2h229.6zm293.03 0h-247.1v-2h247.1z" stroke="#008a0e" stroke-width=".05" fill="#008a0e"/><path d="M1765.63 1465.57l-.08.93.08.94-1.1.06v-2h1.12z" fill="#008a0e"/><path d="M1765.66 1465.57l-.1.93.1.96-1.16.07v-2.05h1.2zm-1.1-.04v1.95l1.05-.06-.08-.92.1-.93v-.04z" stroke="#008a0e" stroke-width=".05" fill="#008a0e"/><path d="M1240.92 1471.14l-14.27-4.64 14.27-4.63z" fill="#008a0e"/><path d="M1241.92 1472.52l-18.5-6.02 18.5-6zm-12.03-6.02l10.02 3.26v-6.5z" stroke="#008a0e" stroke-width=".05" fill="#008a0e"/><g><use xlink:href="#q" transform="matrix(1,0,0,1,1471.5186640455047,1450.5042468149215) translate(0 21.33333333333333)"/></g><path d="M2051.73 1205.74l1.1.27 1.03.43.93.57.83.7.7.85.6.94.4 1 .26 1.07.08 1.06-.08 248.93-.26 1.1-.42 1.02-.58.94-.7.84-.85.7-.94.58-1.02.42-1.07.26-1.05.08h-33.04v-2h32.96l.82-.06.76-.18.72-.3.67-.4.6-.52.52-.6.4-.67.3-.72.18-.73.08-248.6-.07-.84-.17-.76-.3-.72-.4-.67-.52-.6-.6-.5-.66-.42-.72-.3-.72-.16h-61v-2zm-96.64-.02v2l-347.52-.05v-2z" stroke="#e81313" stroke-width=".05" fill="#e81313"/><path d="M2017.7 1467.5h-1.13l.1-1-.08-.93 1.1-.07z" fill="#e81313"/><path d="M2017.73 1467.53h-1.2l.12-1.03-.1-.95 1.18-.07zm-1.1-1.94l.07.9-.1.98h1.08v-1.95z" stroke="#e81313" stroke-width=".05" fill="#e81313"/><path d="M1606.58 1211.3l-14.27-4.63 14.28-4.64z" fill="#e81313"/><path d="M1607.58 1212.68l-18.5-6 18.5-6.03zm-12.03-6l10.03 3.25v-6.52z" stroke="#e81313" stroke-width=".05" fill="#e81313"/><g><use xlink:href="#r" transform="matrix(1,0,0,1,1955.0908558021772,1190.666666666667) translate(0 21.33333333333333)"/></g><path d="M760.45 833.48a6 6 0 0 1 6-6h148a6 6 0 0 1 6 6v108a6 6 0 0 1-6 6h-148a6 6 0 0 1-6-6z" stroke="#3a414a" fill="#fff"/><g><use xlink:href="#g" transform="matrix(1,0,0,1,772.445675986748,839.4847052383614) translate(29.141975308641975 38.77777777777778)"/><use xlink:href="#O" transform="matrix(1,0,0,1,772.445675986748,839.4847052383614) translate(34.2037037037037 65.44444444444446)"/></g><path d="M670.08 887.48h73.52" stroke="#3a414a" fill="none"/><path d="M670.1 887.98h-.52v-1h.5z" stroke="#3a414a" stroke-width=".05" fill="#3a414a"/><path d="M758.36 887.48l-14.26 4.64v-9.27z" stroke="#3a414a" fill="#3a414a"/><defs><path fill="#5a6c86" d="M198-261c85 0 136 45 136 128 0 61-22 111-78 115-29 2-39-18-37-44-12 23-32 44-66 44-41 0-58-28-58-68 0-60 30-105 88-108 29-1 43 15 54 32l7-28h28c-9 45-23 84-27 134-1 11 6 17 14 16 39-4 51-48 51-92 0-69-42-107-112-107-93 0-145 59-145 153C53-15 94 26 168 27c43 0 78-13 106-28l9 19c-30 18-67 32-115 32C79 50 28-1 28-86c0-107 62-175 170-175zM158-41c46 0 70-43 70-90 0-26-17-40-43-40-44 0-59 41-61 85-1 26 9 45 34 45" id="P"/><path fill="#5a6c86" d="M141-36C126-15 110 5 73 4 37 3 15-17 15-53c-1-64 63-63 125-63 3-35-9-54-41-54-24 1-41 7-42 31l-33-3c5-37 33-52 76-52 45 0 72 20 72 64v82c-1 20 7 32 28 27v20c-31 9-61-2-59-35zM48-53c0 20 12 33 32 33 41-3 63-29 60-74-43 2-92-5-92 41" id="Q"/><path fill="#5a6c86" d="M115-194c55 1 70 41 70 98S169 2 115 4C84 4 66-9 55-30l1 105H24l-1-265h31l2 30c10-21 28-34 59-34zm-8 174c40 0 45-34 45-75s-6-73-45-74c-42 0-51 32-51 76 0 43 10 73 51 73" id="R"/><path fill="#5a6c86" d="M33 0v-38h34V0H33" id="S"/><path fill="#5a6c86" d="M114-163C36-179 61-72 57 0H25l-1-190h30c1 12-1 29 2 39 6-27 23-49 58-41v29" id="T"/><path fill="#5a6c86" d="M100-194c62-1 85 37 85 99 1 63-27 99-86 99S16-35 15-95c0-66 28-99 85-99zM99-20c44 1 53-31 53-75 0-43-8-75-51-75s-53 32-53 75 10 74 51 75" id="U"/><path fill="#5a6c86" d="M84 4C-5 8 30-112 23-190h32v120c0 31 7 50 39 49 72-2 45-101 50-169h31l1 190h-30c-1-10 1-25-2-33-11 22-28 36-60 37" id="V"/><path fill="#5a6c86" d="M59-47c-2 24 18 29 38 22v24C64 9 27 4 27-40v-127H5v-23h24l9-43h21v43h35v23H59v120" id="W"/><path fill="#5a6c86" d="M100-194c63 0 86 42 84 106H49c0 40 14 67 53 68 26 1 43-12 49-29l28 8c-11 28-37 45-77 45C44 4 14-33 15-96c1-61 26-98 85-98zm52 81c6-60-76-77-97-28-3 7-6 17-6 28h103" id="X"/><g id="a"><use transform="matrix(0.05,0,0,0.05,0,0)" xlink:href="#P"/><use transform="matrix(0.05,0,0,0.05,18.25,0)" xlink:href="#Q"/><use transform="matrix(0.05,0,0,0.05,28.25,0)" xlink:href="#R"/><use transform="matrix(0.05,0,0,0.05,38.25,0)" xlink:href="#R"/><use transform="matrix(0.05,0,0,0.05,48.25,0)" xlink:href="#S"/><use transform="matrix(0.05,0,0,0.05,53.25,0)" xlink:href="#T"/><use transform="matrix(0.05,0,0,0.05,59.2,0)" xlink:href="#U"/><use transform="matrix(0.05,0,0,0.05,69.2,0)" xlink:href="#V"/><use transform="matrix(0.05,0,0,0.05,79.2,0)" xlink:href="#W"/><use transform="matrix(0.05,0,0,0.05,84.2,0)" xlink:href="#X"/></g><path fill="#5a6c86" d="M63-220v92h138v28H63V0H30v-248h175v28H63" id="Y"/><path fill="#5a6c86" d="M24 0v-261h32V0H24" id="Z"/><path fill="#5a6c86" d="M135-143c-3-34-86-38-87 0 15 53 115 12 119 90S17 21 10-45l28-5c4 36 97 45 98 0-10-56-113-15-118-90-4-57 82-63 122-42 12 7 21 19 24 35" id="aa"/><path fill="#5a6c86" d="M143 0L79-87 56-68V0H24v-261h32v163l83-92h37l-77 82L181 0h-38" id="ab"/><path fill="#5a6c86" d="M16-82v-28h88v28H16" id="ac"/><path fill="#5a6c86" d="M30 0v-248h33v221h125V0H30" id="ad"/><path fill="#5a6c86" d="M177-190C167-65 218 103 67 71c-23-6-38-20-44-43l32-5c15 47 100 32 89-28v-30C133-14 115 1 83 1 29 1 15-40 15-95c0-56 16-97 71-98 29-1 48 16 59 35 1-10 0-23 2-32h30zM94-22c36 0 50-32 50-73 0-42-14-75-50-75-39 0-46 34-46 75s6 73 46 73" id="ae"/><path fill="#5a6c86" d="M24-231v-30h32v30H24zM24 0v-190h32V0H24" id="af"/><path fill="#5a6c86" d="M117-194c89-4 53 116 60 194h-32v-121c0-31-8-49-39-48C34-167 62-67 57 0H25l-1-190h30c1 10-1 24 2 32 11-22 29-35 61-36" id="ag"/><g id="b"><use transform="matrix(0.05,0,0,0.05,0,0)" xlink:href="#Y"/><use transform="matrix(0.05,0,0,0.05,10.950000000000001,0)" xlink:href="#Z"/><use transform="matrix(0.05,0,0,0.05,14.9,0)" xlink:href="#Q"/><use transform="matrix(0.05,0,0,0.05,24.900000000000002,0)" xlink:href="#aa"/><use transform="matrix(0.05,0,0,0.05,33.900000000000006,0)" xlink:href="#ab"/><use transform="matrix(0.05,0,0,0.05,42.900000000000006,0)" xlink:href="#ac"/><use transform="matrix(0.05,0,0,0.05,48.85000000000001,0)" xlink:href="#ad"/><use transform="matrix(0.05,0,0,0.05,58.85,0)" xlink:href="#U"/><use transform="matrix(0.05,0,0,0.05,68.85000000000001,0)" xlink:href="#ae"/><use transform="matrix(0.05,0,0,0.05,78.85000000000001,0)" xlink:href="#af"/><use transform="matrix(0.05,0,0,0.05,82.80000000000001,0)" xlink:href="#ag"/></g><path fill="#5a6c86" d="M127-220V0H93v-220H8v-28h204v28h-85" id="ah"/><path fill="#5a6c86" d="M210-169c-67 3-38 105-44 169h-31v-121c0-29-5-50-35-48C34-165 62-65 56 0H25l-1-190h30c1 10-1 24 2 32 10-44 99-50 107 0 11-21 27-35 58-36 85-2 47 119 55 194h-31v-121c0-29-5-49-35-48" id="ai"/><g id="c"><use transform="matrix(0.05,0,0,0.05,0,0)" xlink:href="#ah"/><use transform="matrix(0.05,0,0,0.05,8.950000000000001,0)" xlink:href="#X"/><use transform="matrix(0.05,0,0,0.05,18.950000000000003,0)" xlink:href="#ai"/><use transform="matrix(0.05,0,0,0.05,33.900000000000006,0)" xlink:href="#R"/><use transform="matrix(0.05,0,0,0.05,43.900000000000006,0)" xlink:href="#Z"/><use transform="matrix(0.05,0,0,0.05,47.85000000000001,0)" xlink:href="#Q"/><use transform="matrix(0.05,0,0,0.05,57.85,0)" xlink:href="#W"/><use transform="matrix(0.05,0,0,0.05,62.85,0)" xlink:href="#X"/><use transform="matrix(0.05,0,0,0.05,72.85000000000001,0)" xlink:href="#aa"/></g><path fill="#5a6c86" d="M30-248c87 1 191-15 191 75 0 78-77 80-158 76V0H30v-248zm33 125c57 0 124 11 124-50 0-59-68-47-124-48v98" id="aj"/><path fill="#5a6c86" d="M185-189c-5-48-123-54-124 2 14 75 158 14 163 119 3 78-121 87-175 55-17-10-28-26-33-46l33-7c5 56 141 63 141-1 0-78-155-14-162-118-5-82 145-84 179-34 5 7 8 16 11 25" id="ak"/><path fill="#5a6c86" d="M140-251c81 0 123 46 123 126C263-53 228-8 163 1c7 30 30 48 69 40v23c-55 16-95-15-103-61C56-3 17-48 17-125c0-80 42-126 123-126zm0 227c63 0 89-41 89-101s-29-99-89-99c-61 0-89 39-89 99S79-25 140-24" id="al"/><g id="d"><use transform="matrix(0.05,0,0,0.05,0,0)" xlink:href="#aj"/><use transform="matrix(0.05,0,0,0.05,12,0)" xlink:href="#U"/><use transform="matrix(0.05,0,0,0.05,22,0)" xlink:href="#aa"/><use transform="matrix(0.05,0,0,0.05,31,0)" xlink:href="#W"/><use transform="matrix(0.05,0,0,0.05,36,0)" xlink:href="#ae"/><use transform="matrix(0.05,0,0,0.05,46,0)" xlink:href="#T"/><use transform="matrix(0.05,0,0,0.05,51.95,0)" xlink:href="#X"/><use transform="matrix(0.05,0,0,0.05,61.95,0)" xlink:href="#ak"/><use transform="matrix(0.05,0,0,0.05,73.95,0)" xlink:href="#al"/><use transform="matrix(0.05,0,0,0.05,87.95,0)" xlink:href="#ad"/></g><path fill="#3a414a" d="M114-163C36-179 61-72 57 0H25l-1-190h30c1 12-1 29 2 39 6-27 23-49 58-41v29" id="am"/><path fill="#3a414a" d="M100-194c62-1 85 37 85 99 1 63-27 99-86 99S16-35 15-95c0-66 28-99 85-99zM99-20c44 1 53-31 53-75 0-43-8-75-51-75s-53 32-53 75 10 74 51 75" id="an"/><path fill="#3a414a" d="M84 4C-5 8 30-112 23-190h32v120c0 31 7 50 39 49 72-2 45-101 50-169h31l1 190h-30c-1-10 1-25-2-33-11 22-28 36-60 37" id="ao"/><path fill="#3a414a" d="M59-47c-2 24 18 29 38 22v24C64 9 27 4 27-40v-127H5v-23h24l9-43h21v43h35v23H59v120" id="ap"/><path fill="#3a414a" d="M100-194c63 0 86 42 84 106H49c0 40 14 67 53 68 26 1 43-12 49-29l28 8c-11 28-37 45-77 45C44 4 14-33 15-96c1-61 26-98 85-98zm52 81c6-60-76-77-97-28-3 7-6 17-6 28h103" id="aq"/><g id="e"><use transform="matrix(0.06172839506172839,0,0,0.06172839506172839,0,0)" xlink:href="#am"/><use transform="matrix(0.06172839506172839,0,0,0.06172839506172839,7.345679012345679,0)" xlink:href="#an"/><use transform="matrix(0.06172839506172839,0,0,0.06172839506172839,19.691358024691358,0)" xlink:href="#ao"/><use transform="matrix(0.06172839506172839,0,0,0.06172839506172839,32.03703703703704,0)" xlink:href="#ap"/><use transform="matrix(0.06172839506172839,0,0,0.06172839506172839,38.20987654320988,0)" xlink:href="#aq"/></g><path fill="#3a414a" d="M4 7l51-268h42L46 7H4" id="ar"/><use transform="matrix(0.06172839506172839,0,0,0.06172839506172839,0,0)" xlink:href="#ar" id="f"/><path fill="#3a414a" d="M101-234c-31-9-42 10-38 44h38v23H63V0H32v-167H5v-23h27c-7-52 17-82 69-68v24" id="as"/><path fill="#3a414a" d="M117-194c89-4 53 116 60 194h-32v-121c0-31-8-49-39-48C34-167 62-67 57 0H25l-1-190h30c1 10-1 24 2 32 11-22 29-35 61-36" id="at"/><path fill="#3a414a" d="M96-169c-40 0-48 33-48 73s9 75 48 75c24 0 41-14 43-38l32 2c-6 37-31 61-74 61-59 0-76-41-82-99-10-93 101-131 147-64 4 7 5 14 7 22l-32 3c-4-21-16-35-41-35" id="au"/><path fill="#3a414a" d="M24-231v-30h32v30H24zM24 0v-190h32V0H24" id="av"/><g id="g"><use transform="matrix(0.06172839506172839,0,0,0.06172839506172839,0,0)" xlink:href="#as"/><use transform="matrix(0.06172839506172839,0,0,0.06172839506172839,6.172839506172839,0)" xlink:href="#ao"/><use transform="matrix(0.06172839506172839,0,0,0.06172839506172839,18.51851851851852,0)" xlink:href="#at"/><use transform="matrix(0.06172839506172839,0,0,0.06172839506172839,30.864197530864196,0)" xlink:href="#au"/><use transform="matrix(0.06172839506172839,0,0,0.06172839506172839,41.9753086419753,0)" xlink:href="#ap"/><use transform="matrix(0.06172839506172839,0,0,0.06172839506172839,48.148148148148145,0)" xlink:href="#av"/><use transform="matrix(0.06172839506172839,0,0,0.06172839506172839,53.02469135802469,0)" xlink:href="#an"/><use transform="matrix(0.06172839506172839,0,0,0.06172839506172839,65.37037037037037,0)" xlink:href="#at"/></g><path fill="#3a414a" d="M114-157C55-157 80-60 75 0H25v-261h50l-1 109c12-26 28-41 61-42 86-1 58 113 63 194h-50c-7-57 23-157-34-157" id="aw"/><path fill="#3a414a" d="M110-194c64 0 96 36 96 99 0 64-35 99-97 99-61 0-95-36-95-99 0-62 34-99 96-99zm-1 164c35 0 45-28 45-65 0-40-10-65-43-65-34 0-45 26-45 65 0 36 10 65 43 65" id="ax"/><path fill="#3a414a" d="M220-157c-53 9-28 100-34 157h-49v-107c1-27-5-49-29-50C55-147 81-57 75 0H25l-1-190h47c2 12-1 28 3 38 10-53 101-56 108 0 13-22 24-43 59-42 82 1 51 116 57 194h-49v-107c-1-25-5-48-29-50" id="ay"/><path fill="#3a414a" d="M185-48c-13 30-37 53-82 52C43 2 14-33 14-96s30-98 90-98c62 0 83 45 84 108H66c0 31 8 55 39 56 18 0 30-7 34-22zm-45-69c5-46-57-63-70-21-2 6-4 13-4 21h74" id="az"/><path fill="#3a414a" d="M67-93c0 74 22 123 53 168H70C40 30 18-18 18-93s22-123 52-168h50c-32 44-53 94-53 168" id="aA"/><path fill="#3a414a" d="M102-93c0 74-22 123-52 168H0C30 29 54-18 53-93c0-74-22-123-53-168h50c30 45 52 94 52 168" id="aB"/><g id="h"><use transform="matrix(0.06172839506172839,0,0,0.06172839506172839,0,0)" xlink:href="#aw"/><use transform="matrix(0.06172839506172839,0,0,0.06172839506172839,13.518518518518517,0)" xlink:href="#ax"/><use transform="matrix(0.06172839506172839,0,0,0.06172839506172839,27.037037037037035,0)" xlink:href="#ay"/><use transform="matrix(0.06172839506172839,0,0,0.06172839506172839,46.79012345679012,0)" xlink:href="#az"/><use transform="matrix(0.06172839506172839,0,0,0.06172839506172839,59.1358024691358,0)" xlink:href="#aA"/><use transform="matrix(0.06172839506172839,0,0,0.06172839506172839,66.48148148148148,0)" xlink:href="#aB"/></g><path fill="#3a414a" d="M145-31C134-9 116 4 85 4 32 4 16-35 15-94c0-59 17-99 70-100 32-1 48 14 60 33 0-11-1-24 2-32h30l-1 268h-32zM93-21c41 0 51-33 51-76s-8-73-50-73c-40 0-46 35-46 75s5 74 45 74" id="aC"/><path fill="#3a414a" d="M135-143c-3-34-86-38-87 0 15 53 115 12 119 90S17 21 10-45l28-5c4 36 97 45 98 0-10-56-113-15-118-90-4-57 82-63 122-42 12 7 21 19 24 35" id="aD"/><g id="i"><use transform="matrix(0.06172839506172839,0,0,0.06172839506172839,0,0)" xlink:href="#am"/><use transform="matrix(0.06172839506172839,0,0,0.06172839506172839,7.345679012345679,0)" xlink:href="#aq"/><use transform="matrix(0.06172839506172839,0,0,0.06172839506172839,19.691358024691358,0)" xlink:href="#aC"/><use transform="matrix(0.06172839506172839,0,0,0.06172839506172839,32.03703703703704,0)" xlink:href="#ao"/><use transform="matrix(0.06172839506172839,0,0,0.06172839506172839,44.382716049382715,0)" xlink:href="#aq"/><use transform="matrix(0.06172839506172839,0,0,0.06172839506172839,56.72839506172839,0)" xlink:href="#aD"/><use transform="matrix(0.06172839506172839,0,0,0.06172839506172839,67.8395061728395,0)" xlink:href="#ap"/></g><path fill="#3a414a" d="M115-3C79 11 28 4 28-45v-112H4v-33h27l15-45h31v45h36v33H77v99c-1 23 16 31 38 25v30" id="aE"/><path fill="#3a414a" d="M88-194c31-1 46 15 58 34l-1-101h50l1 261h-48c-2-10 0-23-3-31C134-8 116 4 84 4 32 4 16-41 15-95c0-56 19-97 73-99zm17 164c33 0 40-30 41-66 1-37-9-64-41-64s-38 30-39 65c0 43 13 65 39 65" id="aF"/><g id="j"><use transform="matrix(0.06172839506172839,0,0,0.06172839506172839,0,0)" xlink:href="#ay"/><use transform="matrix(0.06172839506172839,0,0,0.06172839506172839,19.753086419753085,0)" xlink:href="#az"/><use transform="matrix(0.06172839506172839,0,0,0.06172839506172839,32.098765432098766,0)" xlink:href="#aE"/><use transform="matrix(0.06172839506172839,0,0,0.06172839506172839,39.44444444444444,0)" xlink:href="#aw"/><use transform="matrix(0.06172839506172839,0,0,0.06172839506172839,52.96296296296296,0)" xlink:href="#ax"/><use transform="matrix(0.06172839506172839,0,0,0.06172839506172839,66.48148148148148,0)" xlink:href="#aF"/></g><g id="k"><use transform="matrix(0.06172839506172839,0,0,0.06172839506172839,0,0)" xlink:href="#ao"/><use transform="matrix(0.06172839506172839,0,0,0.06172839506172839,12.345679012345679,0)" xlink:href="#aD"/><use transform="matrix(0.06172839506172839,0,0,0.06172839506172839,23.45679012345679,0)" xlink:href="#aq"/><use transform="matrix(0.06172839506172839,0,0,0.06172839506172839,35.80246913580247,0)" xlink:href="#am"/></g><path fill="#3a414a" d="M25-224v-37h50v37H25zM25 0v-190h50V0H25" id="aG"/><path fill="#3a414a" d="M137-138c1-29-70-34-71-4 15 46 118 7 119 86 1 83-164 76-172 9l43-7c4 19 20 25 44 25 33 8 57-30 24-41C81-84 22-81 20-136c-2-80 154-74 161-7" id="aH"/><path fill="#3a414a" d="M-4 44V30h207v14H-4" id="aI"/><path fill="#3a414a" d="M133-34C117-15 103 5 69 4 32 3 11-16 11-54c-1-60 55-63 116-61 1-26-3-47-28-47-18 1-26 9-28 27l-52-2c7-38 36-58 82-57s74 22 75 68l1 82c-1 14 12 18 25 15v27c-30 8-71 5-69-32zm-48 3c29 0 43-24 42-57-32 0-66-3-65 30 0 17 8 27 23 27" id="aJ"/><path fill="#3a414a" d="M85 4C-2 5 27-109 22-190h50c7 57-23 150 33 157 60-5 35-97 40-157h50l1 190h-47c-2-12 1-28-3-38-12 25-28 42-61 42" id="aK"/><path fill="#3a414a" d="M135-194c87-1 58 113 63 194h-50c-7-57 23-157-34-157-59 0-34 97-39 157H25l-1-190h47c2 12-1 28 3 38 12-26 28-41 61-42" id="aL"/><path fill="#3a414a" d="M190-63c-7 42-38 67-86 67-59 0-84-38-90-98-12-110 154-137 174-36l-49 2c-2-19-15-32-35-32-30 0-35 28-38 64-6 74 65 87 74 30" id="aM"/><g id="l"><use transform="matrix(0.06172839506172839,0,0,0.06172839506172839,0,0)" xlink:href="#aG"/><use transform="matrix(0.06172839506172839,0,0,0.06172839506172839,6.172839506172839,0)" xlink:href="#aH"/><use transform="matrix(0.06172839506172839,0,0,0.06172839506172839,18.51851851851852,0)" xlink:href="#aI"/><use transform="matrix(0.06172839506172839,0,0,0.06172839506172839,30.864197530864196,0)" xlink:href="#aJ"/><use transform="matrix(0.06172839506172839,0,0,0.06172839506172839,43.20987654320987,0)" xlink:href="#aK"/><use transform="matrix(0.06172839506172839,0,0,0.06172839506172839,56.72839506172839,0)" xlink:href="#aE"/><use transform="matrix(0.06172839506172839,0,0,0.06172839506172839,64.07407407407408,0)" xlink:href="#aw"/><use transform="matrix(0.06172839506172839,0,0,0.06172839506172839,77.5925925925926,0)" xlink:href="#az"/><use transform="matrix(0.06172839506172839,0,0,0.06172839506172839,89.93827160493828,0)" xlink:href="#aL"/><use transform="matrix(0.06172839506172839,0,0,0.06172839506172839,103.4567901234568,0)" xlink:href="#aE"/><use transform="matrix(0.06172839506172839,0,0,0.06172839506172839,110.80246913580248,0)" xlink:href="#aG"/><use transform="matrix(0.06172839506172839,0,0,0.06172839506172839,116.97530864197532,0)" xlink:href="#aM"/><use transform="matrix(0.06172839506172839,0,0,0.06172839506172839,129.320987654321,0)" xlink:href="#aJ"/><use transform="matrix(0.06172839506172839,0,0,0.06172839506172839,141.66666666666666,0)" xlink:href="#aE"/><use transform="matrix(0.06172839506172839,0,0,0.06172839506172839,149.01234567901233,0)" xlink:href="#az"/><use transform="matrix(0.06172839506172839,0,0,0.06172839506172839,161.358024691358,0)" xlink:href="#aF"/><use transform="matrix(0.06172839506172839,0,0,0.06172839506172839,174.8765432098765,0)" xlink:href="#aA"/><use transform="matrix(0.06172839506172839,0,0,0.06172839506172839,182.22222222222217,0)" xlink:href="#aB"/></g><path fill="#3a414a" d="M85-194c31 0 48 13 60 33l-1-100h32l1 261h-30c-2-10 0-23-3-31C134-8 116 4 85 4 32 4 16-35 15-94c0-66 23-100 70-100zm9 24c-40 0-46 34-46 75 0 40 6 74 45 74 42 0 51-32 51-76 0-42-9-74-50-73" id="aN"/><g id="m"><use transform="matrix(0.06172839506172839,0,0,0.06172839506172839,0,0)" xlink:href="#am"/><use transform="matrix(0.06172839506172839,0,0,0.06172839506172839,7.345679012345679,0)" xlink:href="#aq"/><use transform="matrix(0.06172839506172839,0,0,0.06172839506172839,19.691358024691358,0)" xlink:href="#at"/><use transform="matrix(0.06172839506172839,0,0,0.06172839506172839,32.03703703703704,0)" xlink:href="#aN"/><use transform="matrix(0.06172839506172839,0,0,0.06172839506172839,44.382716049382715,0)" xlink:href="#aq"/><use transform="matrix(0.06172839506172839,0,0,0.06172839506172839,56.72839506172839,0)" xlink:href="#am"/></g><path fill="#3a414a" d="M210-169c-67 3-38 105-44 169h-31v-121c0-29-5-50-35-48C34-165 62-65 56 0H25l-1-190h30c1 10-1 24 2 32 10-44 99-50 107 0 11-21 27-35 58-36 85-2 47 119 55 194h-31v-121c0-29-5-49-35-48" id="aO"/><path fill="#3a414a" d="M115-194c55 1 70 41 70 98S169 2 115 4C84 4 66-9 55-30l1 105H24l-1-265h31l2 30c10-21 28-34 59-34zm-8 174c40 0 45-34 45-75s-6-73-45-74c-42 0-51 32-51 76 0 43 10 73 51 73" id="aP"/><path fill="#3a414a" d="M24 0v-261h32V0H24" id="aQ"/><path fill="#3a414a" d="M141-36C126-15 110 5 73 4 37 3 15-17 15-53c-1-64 63-63 125-63 3-35-9-54-41-54-24 1-41 7-42 31l-33-3c5-37 33-52 76-52 45 0 72 20 72 64v82c-1 20 7 32 28 27v20c-31 9-61-2-59-35zM48-53c0 20 12 33 32 33 41-3 63-29 60-74-43 2-92-5-92 41" id="aR"/><g id="n"><use transform="matrix(0.06172839506172839,0,0,0.06172839506172839,0,0)" xlink:href="#ap"/><use transform="matrix(0.06172839506172839,0,0,0.06172839506172839,6.172839506172839,0)" xlink:href="#aq"/><use transform="matrix(0.06172839506172839,0,0,0.06172839506172839,18.51851851851852,0)" xlink:href="#aO"/><use transform="matrix(0.06172839506172839,0,0,0.06172839506172839,36.9753086419753,0)" xlink:href="#aP"/><use transform="matrix(0.06172839506172839,0,0,0.06172839506172839,49.32098765432098,0)" xlink:href="#aQ"/><use transform="matrix(0.06172839506172839,0,0,0.06172839506172839,54.197530864197525,0)" xlink:href="#aR"/><use transform="matrix(0.06172839506172839,0,0,0.06172839506172839,66.5432098765432,0)" xlink:href="#ap"/><use transform="matrix(0.06172839506172839,0,0,0.06172839506172839,72.71604938271604,0)" xlink:href="#aq"/></g><path fill="#3a414a" d="M25 0v-261h50V0H25" id="aS"/><path fill="#3a414a" d="M195-6C206 82 75 100 31 46c-4-6-6-13-8-21l49-6c3 16 16 24 34 25 40 0 42-37 40-79-11 22-30 35-61 35-53 0-70-43-70-97 0-56 18-96 73-97 30 0 46 14 59 34l2-30h47zm-90-29c32 0 41-27 41-63 0-35-9-62-40-62-32 0-39 29-40 63 0 36 9 62 39 62" id="aT"/><path fill="#3a414a" d="M24 0v-54h51V0H24" id="aU"/><g id="o"><use transform="matrix(0.06172839506172839,0,0,0.06172839506172839,0,0)" xlink:href="#aS"/><use transform="matrix(0.06172839506172839,0,0,0.06172839506172839,6.172839506172839,0)" xlink:href="#ax"/><use transform="matrix(0.06172839506172839,0,0,0.06172839506172839,19.691358024691358,0)" xlink:href="#aT"/><use transform="matrix(0.06172839506172839,0,0,0.06172839506172839,33.20987654320987,0)" xlink:href="#aG"/><use transform="matrix(0.06172839506172839,0,0,0.06172839506172839,39.382716049382715,0)" xlink:href="#aL"/><use transform="matrix(0.06172839506172839,0,0,0.06172839506172839,52.901234567901234,0)" xlink:href="#aU"/><use transform="matrix(0.06172839506172839,0,0,0.06172839506172839,59.074074074074076,0)" xlink:href="#aw"/><use transform="matrix(0.06172839506172839,0,0,0.06172839506172839,72.5925925925926,0)" xlink:href="#aE"/><use transform="matrix(0.06172839506172839,0,0,0.06172839506172839,79.93827160493828,0)" xlink:href="#ay"/><use transform="matrix(0.06172839506172839,0,0,0.06172839506172839,99.69135802469137,0)" xlink:href="#aS"/></g><g id="p"><use transform="matrix(0.06172839506172839,0,0,0.06172839506172839,0,0)" xlink:href="#ar"/><use transform="matrix(0.06172839506172839,0,0,0.06172839506172839,6.172839506172839,0)" xlink:href="#aS"/><use transform="matrix(0.06172839506172839,0,0,0.06172839506172839,12.345679012345679,0)" xlink:href="#ax"/><use transform="matrix(0.06172839506172839,0,0,0.06172839506172839,25.864197530864196,0)" xlink:href="#aT"/><use transform="matrix(0.06172839506172839,0,0,0.06172839506172839,39.382716049382715,0)" xlink:href="#aG"/><use transform="matrix(0.06172839506172839,0,0,0.06172839506172839,45.55555555555556,0)" xlink:href="#aL"/></g><path fill="#333" d="M146-102V0H94v-102L6-248h54l60 105 60-105h54" id="aV"/><path fill="#333" d="M185-48c-13 30-37 53-82 52C43 2 14-33 14-96s30-98 90-98c62 0 83 45 84 108H66c0 31 8 55 39 56 18 0 30-7 34-22zm-45-69c5-46-57-63-70-21-2 6-4 13-4 21h74" id="aW"/><path fill="#333" d="M137-138c1-29-70-34-71-4 15 46 118 7 119 86 1 83-164 76-172 9l43-7c4 19 20 25 44 25 33 8 57-30 24-41C81-84 22-81 20-136c-2-80 154-74 161-7" id="aX"/><g id="q"><use transform="matrix(0.07407407407407406,0,0,0.07407407407407406,0,0)" xlink:href="#aV"/><use transform="matrix(0.07407407407407406,0,0,0.07407407407407406,16.296296296296294,0)" xlink:href="#aW"/><use transform="matrix(0.07407407407407406,0,0,0.07407407407407406,31.111111111111107,0)" xlink:href="#aX"/></g><path fill="#333" d="M175 0L67-191c6 58 2 128 3 191H24v-248h59L193-55c-6-58-2-129-3-193h46V0h-61" id="aY"/><path fill="#333" d="M110-194c64 0 96 36 96 99 0 64-35 99-97 99-61 0-95-36-95-99 0-62 34-99 96-99zm-1 164c35 0 45-28 45-65 0-40-10-65-43-65-34 0-45 26-45 65 0 36 10 65 43 65" id="aZ"/><g id="r"><use transform="matrix(0.07407407407407406,0,0,0.07407407407407406,0,0)" xlink:href="#aY"/><use transform="matrix(0.07407407407407406,0,0,0.07407407407407406,19.18518518518518,0)" xlink:href="#aZ"/></g><path fill="#333" d="M67-125c0 54 23 88 75 88 28 0 53-7 68-21v-34h-60v-39h108v91C232-14 192 4 140 4 58 4 20-42 15-125 8-236 126-280 215-234c19 10 29 26 37 47l-47 15c-11-23-29-39-63-39-53 1-75 33-75 86" id="ba"/><path fill="#333" d="M24 0v-248h195v40H76v63h132v40H76v65h150V0H24" id="bb"/><path fill="#333" d="M136-208V0H84v-208H4v-40h212v40h-80" id="bc"/><g id="s"><use transform="matrix(0.07407407407407406,0,0,0.07407407407407406,0,0)" xlink:href="#ba"/><use transform="matrix(0.07407407407407406,0,0,0.07407407407407406,20.740740740740737,0)" xlink:href="#bb"/><use transform="matrix(0.07407407407407406,0,0,0.07407407407407406,38.51851851851851,0)" xlink:href="#bc"/></g><path fill="#3a414a" d="M177-190C167-65 218 103 67 71c-23-6-38-20-44-43l32-5c15 47 100 32 89-28v-30C133-14 115 1 83 1 29 1 15-40 15-95c0-56 16-97 71-98 29-1 48 16 59 35 1-10 0-23 2-32h30zM94-22c36 0 50-32 50-73 0-42-14-75-50-75-39 0-46 34-46 75s6 73 46 73" id="bd"/><g id="t"><use transform="matrix(0.06172839506172839,0,0,0.06172839506172839,0,0)" xlink:href="#bd"/><use transform="matrix(0.06172839506172839,0,0,0.06172839506172839,12.345679012345679,0)" xlink:href="#aq"/><use transform="matrix(0.06172839506172839,0,0,0.06172839506172839,24.691358024691358,0)" xlink:href="#ap"/></g><g id="u"><use transform="matrix(0.06172839506172839,0,0,0.06172839506172839,0,0)" xlink:href="#aO"/><use transform="matrix(0.06172839506172839,0,0,0.06172839506172839,18.456790123456788,0)" xlink:href="#aq"/><use transform="matrix(0.06172839506172839,0,0,0.06172839506172839,30.80246913580247,0)" xlink:href="#aD"/><use transform="matrix(0.06172839506172839,0,0,0.06172839506172839,41.91358024691358,0)" xlink:href="#aD"/><use transform="matrix(0.06172839506172839,0,0,0.06172839506172839,53.0246913580247,0)" xlink:href="#aR"/><use transform="matrix(0.06172839506172839,0,0,0.06172839506172839,65.37037037037038,0)" xlink:href="#bd"/><use transform="matrix(0.06172839506172839,0,0,0.06172839506172839,77.71604938271606,0)" xlink:href="#aq"/><use transform="matrix(0.06172839506172839,0,0,0.06172839506172839,90.06172839506175,0)" xlink:href="#aD"/></g><g id="v"><use transform="matrix(0.06172839506172839,0,0,0.06172839506172839,0,0)" xlink:href="#as"/><use transform="matrix(0.06172839506172839,0,0,0.06172839506172839,6.172839506172839,0)" xlink:href="#am"/><use transform="matrix(0.06172839506172839,0,0,0.06172839506172839,13.518518518518519,0)" xlink:href="#an"/><use transform="matrix(0.06172839506172839,0,0,0.06172839506172839,25.864197530864196,0)" xlink:href="#aO"/></g><path fill="#3a414a" d="M24-248c93 1 206-16 204 79-1 75-69 88-152 82V0H24v-248zm52 121c47 0 100 7 100-41 0-47-54-39-100-39v80" id="be"/><path fill="#3a414a" d="M135-150c-39-12-60 13-60 57V0H25l-1-190h47c2 13-1 29 3 40 6-28 27-53 61-41v41" id="bf"/><path fill="#3a414a" d="M169-182c-1-43-94-46-97-3 18 66 151 10 154 114 3 95-165 93-204 36-6-8-10-19-12-30l50-8c3 46 112 56 116 5-17-69-150-10-154-114-4-87 153-88 188-35 5 8 8 18 10 28" id="bg"/><path fill="#3a414a" d="M140-251c80 0 125 45 125 126 0 70-33 111-92 124 6 28 34 38 68 31l-1 36C177 83 129 55 120 2 51-6 15-50 15-125c0-81 44-126 125-126zm-1 214c52 0 73-35 73-88 0-50-21-86-72-86-52 0-73 35-73 86s22 88 72 88" id="bh"/><path fill="#3a414a" d="M24 0v-248h52v208h133V0H24" id="bi"/><g id="w"><use transform="matrix(0.06172839506172839,0,0,0.06172839506172839,0,0)" xlink:href="#be"/><use transform="matrix(0.06172839506172839,0,0,0.06172839506172839,14.814814814814813,0)" xlink:href="#ax"/><use transform="matrix(0.06172839506172839,0,0,0.06172839506172839,28.33333333333333,0)" xlink:href="#aH"/><use transform="matrix(0.06172839506172839,0,0,0.06172839506172839,40.679012345679006,0)" xlink:href="#aE"/><use transform="matrix(0.06172839506172839,0,0,0.06172839506172839,48.02469135802468,0)" xlink:href="#aT"/><use transform="matrix(0.06172839506172839,0,0,0.06172839506172839,61.5432098765432,0)" xlink:href="#bf"/><use transform="matrix(0.06172839506172839,0,0,0.06172839506172839,70.18518518518518,0)" xlink:href="#az"/><use transform="matrix(0.06172839506172839,0,0,0.06172839506172839,82.53086419753086,0)" xlink:href="#bg"/><use transform="matrix(0.06172839506172839,0,0,0.06172839506172839,97.34567901234567,0)" xlink:href="#bh"/><use transform="matrix(0.06172839506172839,0,0,0.06172839506172839,114.62962962962962,0)" xlink:href="#bi"/></g><path fill="#3a414a" d="M24-248c120-7 223 5 221 122C244-46 201 0 124 0H24v-248zM76-40c74 7 117-18 117-86 0-67-45-88-117-82v168" id="bj"/><path fill="#3a414a" d="M182-130c37 4 62 22 62 59C244 23 116-4 24 0v-248c84 5 203-23 205 63 0 31-19 50-47 55zM76-148c40-3 101 13 101-30 0-44-60-28-101-31v61zm0 110c48-3 116 14 116-37 0-48-69-32-116-35v72" id="bk"/><g id="x"><use transform="matrix(0.06172839506172839,0,0,0.06172839506172839,0,0)" xlink:href="#bj"/><use transform="matrix(0.06172839506172839,0,0,0.06172839506172839,15.987654320987653,0)" xlink:href="#bk"/></g><g id="y"><use transform="matrix(0.06172839506172839,0,0,0.06172839506172839,0,0)" xlink:href="#aw"/><use transform="matrix(0.06172839506172839,0,0,0.06172839506172839,13.518518518518517,0)" xlink:href="#ax"/><use transform="matrix(0.06172839506172839,0,0,0.06172839506172839,27.037037037037035,0)" xlink:href="#ay"/><use transform="matrix(0.06172839506172839,0,0,0.06172839506172839,46.79012345679012,0)" xlink:href="#az"/><use transform="matrix(0.06172839506172839,0,0,0.06172839506172839,59.1358024691358,0)" xlink:href="#aU"/><use transform="matrix(0.06172839506172839,0,0,0.06172839506172839,65.30864197530863,0)" xlink:href="#aw"/><use transform="matrix(0.06172839506172839,0,0,0.06172839506172839,78.82716049382715,0)" xlink:href="#aE"/><use transform="matrix(0.06172839506172839,0,0,0.06172839506172839,86.17283950617283,0)" xlink:href="#ay"/><use transform="matrix(0.06172839506172839,0,0,0.06172839506172839,105.92592592592592,0)" xlink:href="#aS"/></g><path fill="#333" d="M220-157c-53 9-28 100-34 157h-49v-107c1-27-5-49-29-50C55-147 81-57 75 0H25l-1-190h47c2 12-1 28 3 38 10-53 101-56 108 0 13-22 24-43 59-42 82 1 51 116 57 194h-49v-107c-1-25-5-48-29-50" id="bl"/><path fill="#333" d="M133-34C117-15 103 5 69 4 32 3 11-16 11-54c-1-60 55-63 116-61 1-26-3-47-28-47-18 1-26 9-28 27l-52-2c7-38 36-58 82-57s74 22 75 68l1 82c-1 14 12 18 25 15v27c-30 8-71 5-69-32zm-48 3c29 0 43-24 42-57-32 0-66-3-65 30 0 17 8 27 23 27" id="bm"/><path fill="#333" d="M195-6C206 82 75 100 31 46c-4-6-6-13-8-21l49-6c3 16 16 24 34 25 40 0 42-37 40-79-11 22-30 35-61 35-53 0-70-43-70-97 0-56 18-96 73-97 30 0 46 14 59 34l2-30h47zm-90-29c32 0 41-27 41-63 0-35-9-62-40-62-32 0-39 29-40 63 0 36 9 62 39 62" id="bn"/><g id="z"><use transform="matrix(0.04320987654320988,0,0,0.04320987654320988,0,0)" xlink:href="#bl"/><use transform="matrix(0.04320987654320988,0,0,0.04320987654320988,13.827160493827162,0)" xlink:href="#aW"/><use transform="matrix(0.04320987654320988,0,0,0.04320987654320988,22.46913580246914,0)" xlink:href="#aX"/><use transform="matrix(0.04320987654320988,0,0,0.04320987654320988,31.111111111111114,0)" xlink:href="#aX"/><use transform="matrix(0.04320987654320988,0,0,0.04320987654320988,39.75308641975309,0)" xlink:href="#bm"/><use transform="matrix(0.04320987654320988,0,0,0.04320987654320988,48.39506172839506,0)" xlink:href="#bn"/><use transform="matrix(0.04320987654320988,0,0,0.04320987654320988,57.85802469135802,0)" xlink:href="#aW"/><use transform="matrix(0.04320987654320988,0,0,0.04320987654320988,66.5,0)" xlink:href="#aX"/></g><path fill="#333" d="M135-143c-3-34-86-38-87 0 15 53 115 12 119 90S17 21 10-45l28-5c4 36 97 45 98 0-10-56-113-15-118-90-4-57 82-63 122-42 12 7 21 19 24 35" id="bo"/><path fill="#333" d="M100-194c62-1 85 37 85 99 1 63-27 99-86 99S16-35 15-95c0-66 28-99 85-99zM99-20c44 1 53-31 53-75 0-43-8-75-51-75s-53 32-53 75 10 74 51 75" id="bp"/><path fill="#333" d="M114-163C36-179 61-72 57 0H25l-1-190h30c1 12-1 29 2 39 6-27 23-49 58-41v29" id="bq"/><path fill="#333" d="M59-47c-2 24 18 29 38 22v24C64 9 27 4 27-40v-127H5v-23h24l9-43h21v43h35v23H59v120" id="br"/><g id="A"><use transform="matrix(0.04320987654320988,0,0,0.04320987654320988,0,0)" xlink:href="#bo"/><use transform="matrix(0.04320987654320988,0,0,0.04320987654320988,7.777777777777779,0)" xlink:href="#bp"/><use transform="matrix(0.04320987654320988,0,0,0.04320987654320988,16.419753086419753,0)" xlink:href="#bq"/><use transform="matrix(0.04320987654320988,0,0,0.04320987654320988,21.561728395061728,0)" xlink:href="#br"/></g><path fill="#333" d="M115-194c53 0 69 39 70 98 0 66-23 100-70 100C84 3 66-7 56-30L54 0H23l1-261h32v101c10-23 28-34 59-34zm-8 174c40 0 45-34 45-75 0-40-5-75-45-74-42 0-51 32-51 76 0 43 10 73 51 73" id="bs"/><path fill="#333" d="M179-190L93 31C79 59 56 82 12 73V49c39 6 53-20 64-50L1-190h34L92-34l54-156h33" id="bt"/><g id="B"><use transform="matrix(0.04320987654320988,0,0,0.04320987654320988,0,0)" xlink:href="#bs"/><use transform="matrix(0.04320987654320988,0,0,0.04320987654320988,8.641975308641976,0)" xlink:href="#bt"/></g><path fill="#333" d="M24-231v-30h32v30H24zM24 0v-190h32V0H24" id="bu"/><path fill="#333" d="M210-169c-67 3-38 105-44 169h-31v-121c0-29-5-50-35-48C34-165 62-65 56 0H25l-1-190h30c1 10-1 24 2 32 10-44 99-50 107 0 11-21 27-35 58-36 85-2 47 119 55 194h-31v-121c0-29-5-49-35-48" id="bv"/><path fill="#333" d="M100-194c63 0 86 42 84 106H49c0 40 14 67 53 68 26 1 43-12 49-29l28 8c-11 28-37 45-77 45C44 4 14-33 15-96c1-61 26-98 85-98zm52 81c6-60-76-77-97-28-3 7-6 17-6 28h103" id="bw"/><path fill="#333" d="M141-36C126-15 110 5 73 4 37 3 15-17 15-53c-1-64 63-63 125-63 3-35-9-54-41-54-24 1-41 7-42 31l-33-3c5-37 33-52 76-52 45 0 72 20 72 64v82c-1 20 7 32 28 27v20c-31 9-61-2-59-35zM48-53c0 20 12 33 32 33 41-3 63-29 60-74-43 2-92-5-92 41" id="bx"/><path fill="#333" d="M115-194c55 1 70 41 70 98S169 2 115 4C84 4 66-9 55-30l1 105H24l-1-265h31l2 30c10-21 28-34 59-34zm-8 174c40 0 45-34 45-75s-6-73-45-74c-42 0-51 32-51 76 0 43 10 73 51 73" id="by"/><g id="C"><use transform="matrix(0.04320987654320988,0,0,0.04320987654320988,0,0)" xlink:href="#br"/><use transform="matrix(0.04320987654320988,0,0,0.04320987654320988,4.320987654320988,0)" xlink:href="#bu"/><use transform="matrix(0.04320987654320988,0,0,0.04320987654320988,7.734567901234569,0)" xlink:href="#bv"/><use transform="matrix(0.04320987654320988,0,0,0.04320987654320988,20.654320987654323,0)" xlink:href="#bw"/><use transform="matrix(0.04320987654320988,0,0,0.04320987654320988,29.296296296296298,0)" xlink:href="#bo"/><use transform="matrix(0.04320987654320988,0,0,0.04320987654320988,37.074074074074076,0)" xlink:href="#br"/><use transform="matrix(0.04320987654320988,0,0,0.04320987654320988,41.39506172839506,0)" xlink:href="#bx"/><use transform="matrix(0.04320987654320988,0,0,0.04320987654320988,50.037037037037045,0)" xlink:href="#bv"/><use transform="matrix(0.04320987654320988,0,0,0.04320987654320988,62.956790123456784,0)" xlink:href="#by"/></g><path fill="#333" d="M24 0v-261h32V0H24" id="bz"/><g id="D"><use transform="matrix(0.04320987654320988,0,0,0.04320987654320988,0,0)" xlink:href="#bz"/><use transform="matrix(0.04320987654320988,0,0,0.04320987654320988,3.4135802469135808,0)" xlink:href="#bu"/><use transform="matrix(0.04320987654320988,0,0,0.04320987654320988,6.8271604938271615,0)" xlink:href="#bv"/><use transform="matrix(0.04320987654320988,0,0,0.04320987654320988,19.74691358024692,0)" xlink:href="#bu"/><use transform="matrix(0.04320987654320988,0,0,0.04320987654320988,23.1604938271605,0)" xlink:href="#br"/></g><g id="E"><use transform="matrix(0.04320987654320988,0,0,0.04320987654320988,0,0)" xlink:href="#br"/><use transform="matrix(0.04320987654320988,0,0,0.04320987654320988,4.320987654320988,0)" xlink:href="#bp"/></g><path fill="#333" d="M27 0v-27h64v-190l-56 39v-29l58-41h29v221h61V0H27" id="bA"/><path fill="#333" d="M101-251c68 0 85 55 85 127S166 4 100 4C33 4 14-52 14-124c0-73 17-127 87-127zm-1 229c47 0 54-49 54-102s-4-102-53-102c-51 0-55 48-55 102 0 53 5 102 54 102" id="bB"/><g id="F"><use transform="matrix(0.04320987654320988,0,0,0.04320987654320988,0,0)" xlink:href="#bA"/><use transform="matrix(0.04320987654320988,0,0,0.04320987654320988,8.641975308641976,0)" xlink:href="#bB"/></g><g id="G"><use transform="matrix(0.06172839506172839,0,0,0.06172839506172839,0,0)" xlink:href="#aR"/><use transform="matrix(0.06172839506172839,0,0,0.06172839506172839,12.345679012345679,0)" xlink:href="#aN"/><use transform="matrix(0.06172839506172839,0,0,0.06172839506172839,24.691358024691358,0)" xlink:href="#aN"/></g><g id="H"><use transform="matrix(0.06172839506172839,0,0,0.06172839506172839,0,0)" xlink:href="#aO"/><use transform="matrix(0.06172839506172839,0,0,0.06172839506172839,18.456790123456788,0)" xlink:href="#aq"/><use transform="matrix(0.06172839506172839,0,0,0.06172839506172839,30.80246913580247,0)" xlink:href="#aD"/><use transform="matrix(0.06172839506172839,0,0,0.06172839506172839,41.91358024691358,0)" xlink:href="#aD"/><use transform="matrix(0.06172839506172839,0,0,0.06172839506172839,53.0246913580247,0)" xlink:href="#aR"/><use transform="matrix(0.06172839506172839,0,0,0.06172839506172839,65.37037037037038,0)" xlink:href="#bd"/><use transform="matrix(0.06172839506172839,0,0,0.06172839506172839,77.71604938271606,0)" xlink:href="#aq"/></g><g id="I"><use transform="matrix(0.06172839506172839,0,0,0.06172839506172839,0,0)" xlink:href="#ap"/><use transform="matrix(0.06172839506172839,0,0,0.06172839506172839,6.172839506172839,0)" xlink:href="#an"/></g><path fill="#333" d="M24-248c93 1 206-16 204 79-1 75-69 88-152 82V0H24v-248zm52 121c47 0 100 7 100-41 0-47-54-39-100-39v80" id="bC"/><path fill="#333" d="M140-251c80 0 125 45 125 126S219 4 139 4C58 4 15-44 15-125s44-126 125-126zm-1 214c52 0 73-35 73-88 0-50-21-86-72-86-52 0-73 35-73 86s22 88 72 88" id="bD"/><path fill="#333" d="M169-182c-1-43-94-46-97-3 18 66 151 10 154 114 3 95-165 93-204 36-6-8-10-19-12-30l50-8c3 46 112 56 116 5-17-69-150-10-154-114-4-87 153-88 188-35 5 8 8 18 10 28" id="bE"/><g id="J"><use transform="matrix(0.07407407407407406,0,0,0.07407407407407406,0,0)" xlink:href="#bC"/><use transform="matrix(0.07407407407407406,0,0,0.07407407407407406,17.777777777777775,0)" xlink:href="#bD"/><use transform="matrix(0.07407407407407406,0,0,0.07407407407407406,38.51851851851851,0)" xlink:href="#bE"/><use transform="matrix(0.07407407407407406,0,0,0.07407407407407406,56.29629629629629,0)" xlink:href="#bc"/></g><g id="K"><use transform="matrix(0.06172839506172839,0,0,0.06172839506172839,0,0)" xlink:href="#aS"/><use transform="matrix(0.06172839506172839,0,0,0.06172839506172839,6.172839506172839,0)" xlink:href="#ax"/><use transform="matrix(0.06172839506172839,0,0,0.06172839506172839,19.691358024691358,0)" xlink:href="#aT"/><use transform="matrix(0.06172839506172839,0,0,0.06172839506172839,33.20987654320987,0)" xlink:href="#aG"/><use transform="matrix(0.06172839506172839,0,0,0.06172839506172839,39.382716049382715,0)" xlink:href="#aL"/><use transform="matrix(0.06172839506172839,0,0,0.06172839506172839,52.901234567901234,0)" xlink:href="#aI"/><use transform="matrix(0.06172839506172839,0,0,0.06172839506172839,65.24691358024691,0)" xlink:href="#aK"/><use transform="matrix(0.06172839506172839,0,0,0.06172839506172839,78.76543209876543,0)" xlink:href="#aH"/><use transform="matrix(0.06172839506172839,0,0,0.06172839506172839,91.11111111111111,0)" xlink:href="#az"/><use transform="matrix(0.06172839506172839,0,0,0.06172839506172839,103.4567901234568,0)" xlink:href="#bf"/><use transform="matrix(0.06172839506172839,0,0,0.06172839506172839,112.09876543209877,0)" xlink:href="#aA"/><use transform="matrix(0.06172839506172839,0,0,0.06172839506172839,119.44444444444446,0)" xlink:href="#aB"/></g><path fill="#333" d="M135-150c-39-12-60 13-60 57V0H25l-1-190h47c2 13-1 29 3 40 6-28 27-53 61-41v41" id="bF"/><path fill="#333" d="M88-194c31-1 46 15 58 34l-1-101h50l1 261h-48c-2-10 0-23-3-31C134-8 116 4 84 4 32 4 16-41 15-95c0-56 19-97 73-99zm17 164c33 0 40-30 41-66 1-37-9-64-41-64s-38 30-39 65c0 43 13 65 39 65" id="bG"/><path fill="#333" d="M25-224v-37h50v37H25zM25 0v-190h50V0H25" id="bH"/><path fill="#333" d="M190-63c-7 42-38 67-86 67-59 0-84-38-90-98-12-110 154-137 174-36l-49 2c-2-19-15-32-35-32-30 0-35 28-38 64-6 74 65 87 74 30" id="bI"/><path fill="#333" d="M115-3C79 11 28 4 28-45v-112H4v-33h27l15-45h31v45h36v33H77v99c-1 23 16 31 38 25v30" id="bJ"/><g id="L"><use transform="matrix(0.07407407407407406,0,0,0.07407407407407406,0,0)" xlink:href="#bF"/><use transform="matrix(0.07407407407407406,0,0,0.07407407407407406,10.370370370370368,0)" xlink:href="#aW"/><use transform="matrix(0.07407407407407406,0,0,0.07407407407407406,25.18518518518518,0)" xlink:href="#bG"/><use transform="matrix(0.07407407407407406,0,0,0.07407407407407406,41.4074074074074,0)" xlink:href="#bH"/><use transform="matrix(0.07407407407407406,0,0,0.07407407407407406,48.8148148148148,0)" xlink:href="#bF"/><use transform="matrix(0.07407407407407406,0,0,0.07407407407407406,59.18518518518517,0)" xlink:href="#aW"/><use transform="matrix(0.07407407407407406,0,0,0.07407407407407406,73.99999999999999,0)" xlink:href="#bI"/><use transform="matrix(0.07407407407407406,0,0,0.07407407407407406,88.8148148148148,0)" xlink:href="#bJ"/></g><g id="M"><use transform="matrix(0.06172839506172839,0,0,0.06172839506172839,0,0)" xlink:href="#aM"/><use transform="matrix(0.06172839506172839,0,0,0.06172839506172839,12.345679012345679,0)" xlink:href="#ax"/><use transform="matrix(0.06172839506172839,0,0,0.06172839506172839,25.864197530864196,0)" xlink:href="#bf"/><use transform="matrix(0.06172839506172839,0,0,0.06172839506172839,34.50617283950617,0)" xlink:href="#bf"/><use transform="matrix(0.06172839506172839,0,0,0.06172839506172839,43.148148148148145,0)" xlink:href="#az"/><use transform="matrix(0.06172839506172839,0,0,0.06172839506172839,55.49382716049382,0)" xlink:href="#aM"/><use transform="matrix(0.06172839506172839,0,0,0.06172839506172839,67.8395061728395,0)" xlink:href="#aE"/></g><g id="N"><use transform="matrix(0.06172839506172839,0,0,0.06172839506172839,0,0)" xlink:href="#aM"/><use transform="matrix(0.06172839506172839,0,0,0.06172839506172839,12.345679012345679,0)" xlink:href="#bf"/><use transform="matrix(0.06172839506172839,0,0,0.06172839506172839,20.98765432098765,0)" xlink:href="#az"/><use transform="matrix(0.06172839506172839,0,0,0.06172839506172839,33.33333333333333,0)" xlink:href="#aF"/><use transform="matrix(0.06172839506172839,0,0,0.06172839506172839,46.85185185185185,0)" xlink:href="#az"/><use transform="matrix(0.06172839506172839,0,0,0.06172839506172839,59.197530864197525,0)" xlink:href="#aL"/><use transform="matrix(0.06172839506172839,0,0,0.06172839506172839,72.71604938271604,0)" xlink:href="#aE"/><use transform="matrix(0.06172839506172839,0,0,0.06172839506172839,80.06172839506172,0)" xlink:href="#aG"/><use transform="matrix(0.06172839506172839,0,0,0.06172839506172839,86.23456790123456,0)" xlink:href="#aJ"/><use transform="matrix(0.06172839506172839,0,0,0.06172839506172839,98.58024691358024,0)" xlink:href="#aS"/><use transform="matrix(0.06172839506172839,0,0,0.06172839506172839,104.75308641975307,0)" xlink:href="#aH"/></g><g id="O"><use transform="matrix(0.06172839506172839,0,0,0.06172839506172839,0,0)" xlink:href="#aS"/><use transform="matrix(0.06172839506172839,0,0,0.06172839506172839,6.172839506172839,0)" xlink:href="#ax"/><use transform="matrix(0.06172839506172839,0,0,0.06172839506172839,19.691358024691358,0)" xlink:href="#aT"/><use transform="matrix(0.06172839506172839,0,0,0.06172839506172839,33.20987654320987,0)" xlink:href="#aG"/><use transform="matrix(0.06172839506172839,0,0,0.06172839506172839,39.382716049382715,0)" xlink:href="#aL"/><use transform="matrix(0.06172839506172839,0,0,0.06172839506172839,52.901234567901234,0)" xlink:href="#aA"/><use transform="matrix(0.06172839506172839,0,0,0.06172839506172839,60.24691358024691,0)" xlink:href="#aB"/></g></defs></g></svg>