<svg xmlns="http://www.w3.org/2000/svg" xmlns:xlink="http://www.w3.org/1999/xlink" xmlns:lucid="lucid" width="2215.22" height="377.14"><g transform="translate(-122.66666666662786 -723.8564689317876)" lucid:page-tab-id="0_0"><path d="M0 0h3741.73v2645.67H0z" fill="#fff"/><path d="M684.36 823.86c-10.84 0-28.1-2.46-28.3-9.1l-7.74-57.22c-.15-.95.43-1.84 1.37-2.05.93-.14 1.87.47 2.08 1.43.8 3.28 13.65 7.86 32.65 7.86s31.85-4.6 32.65-7.87c.22-.96 1.15-1.57 2.1-1.44.93.2 1.5 1.1 1.37 2.04l-7.88 57.22c0 2.26-2.1 4.17-6 5.75-1.8.7-3.4 1.17-5.27 1.58-5.92 1.3-10.97 1.78-17.04 1.78zm-31.93-61.67l6.94 52.3v.2c0 2.05 9.75 5.8 24.92 5.8 5.76.07 10.6-.47 16.24-1.63 1.73-.4 3.18-.9 4.84-1.58 3.1-1.24 3.83-2.33 3.83-2.67v-.2l7-52.24c-6.56 3.9-19.78 6-31.9 6-12.15 0-25.3-2.1-31.87-6z" stroke="#fff" stroke-opacity="0" fill="#3f8624"/><path d="M684.37 768.18c-16.15 0-34.25-3.65-35.98-10.4V756.84v-.22c0-7.52 19.03-12.77 36.12-12.77 17.1 0 35.98 5.25 35.98 12.77v.2l-.08.72v.22c-1.87 6.76-19.97 10.4-36.05 10.4zm-32.66-11.2c1.1 3.3 13.85 7.8 32.67 7.8s31.58-4.5 32.67-7.8v-.45c-.22-3.3-13.63-9.27-32.67-9.27-19.03 0-32.52 5.96-32.73 9.27zM720.55 791.72c-8.08 0-25.83-8-36.93-13.46l1.5-3.07c15.3 7.53 33.36 14.5 36.46 13.18-.25-.48-1.4-2.02-6.83-4.97l-.25-.16 1.7-2.96.25.16c5.46 3 8.07 5.32 8.53 7.5.16.95-.1 1.84-.7 2.6-1.04.93-2.33 1.35-3.73 1.18z" stroke="#fff" stroke-opacity="0" fill="#3f8624"/><path d="M684.37 780.45c-2.04 0-3.7-1.65-3.7-3.7 0-2.03 1.66-3.7 3.7-3.7s3.7 1.67 3.7 3.7c0 2.05-1.66 3.7-3.7 3.7zm0-3.98c-.18 0-.3.13-.3.3 0 .3.6.3.6 0v-.05c0-.16-.14-.3-.3-.3z" stroke="#fff" stroke-opacity="0" fill="#3f8624"/><use xlink:href="#a" transform="matrix(1,0,0,1,618.3166666667054,832.8564689317876) translate(-2.9506172839506064 17.77777777777778)"/><path d="M142.67 955.33a6 6 0 0 1 6-6h148a6 6 0 0 1 6 6v108a6 6 0 0 1-6 6h-148a6 6 0 0 1-6-6z" stroke="#3a414a" fill="#fff"/><use xlink:href="#b" transform="matrix(1,0,0,1,147.66666666662786,954.3333333333721) translate(14.660493827160494 59.02777777777778)"/><use xlink:href="#c" transform="matrix(1,0,0,1,147.66666666662786,954.3333333333721) translate(62.74691358024692 59.02777777777778)"/><path d="M374.67 955.33a6 6 0 0 1 6-6h148a6 6 0 0 1 6 6v108a6 6 0 0 1-6 6h-148a6 6 0 0 1-6-6z" stroke="#3a414a" fill="#fff"/><use xlink:href="#d" transform="matrix(1,0,0,1,379.66666666666663,954.3333333333721) translate(18 45.27777777777778)"/><use xlink:href="#e" transform="matrix(1,0,0,1,379.66666666666663,954.3333333333721) translate(18 71.94444444444446)"/><use xlink:href="#f" transform="matrix(1,0,0,1,379.66666666666663,954.3333333333721) translate(24.17283950617284 71.94444444444446)"/><path d="M303.63 1009.33h54.2" stroke="#3a414a" fill="none"/><path d="M303.64 1009.83h-.5v-1h.5z" stroke="#3a414a" stroke-width=".05" fill="#3a414a"/><path d="M372.6 1009.33l-14.28 4.64v-9.27z" stroke="#3a414a" fill="#3a414a"/><path d="M651.37 783.86h-190.7a6 6 0 0 0-6 6V932.5" stroke="#3a414a" fill="none"/><path d="M651.94 784.36h-.58v-1h.44z" stroke="#3a414a" stroke-width=".05" fill="#3a414a"/><path d="M454.67 947.25L450.03 933h9.27z" stroke="#3a414a" fill="#3a414a"/><path d="M606.67 955.33a6 6 0 0 1 6-6h148a6 6 0 0 1 6 6v108a6 6 0 0 1-6 6h-148a6 6 0 0 1-6-6z" stroke="#3a414a" fill="#fff"/><use xlink:href="#g" transform="matrix(1,0,0,1,611.6666666667054,954.3333333333721) translate(13.364197530864203 59.02777777777778)"/><use xlink:href="#h" transform="matrix(1,0,0,1,611.6666666667054,954.3333333333721) translate(83.61111111111111 59.02777777777778)"/><path d="M535.63 1009.33h54.2" stroke="#3a414a" fill="none"/><path d="M535.64 1009.83h-.5v-1h.5z" stroke="#3a414a" stroke-width=".05" fill="#3a414a"/><path d="M604.6 1009.33l-14.28 4.64v-9.27z" stroke="#3a414a" fill="#3a414a"/><path d="M838.67 943.67a6 6 0 0 1 6-6h262.66a6 6 0 0 1 6 6V1075a6 6 0 0 1-6 6H844.67a6 6 0 0 1-6-6z" stroke="#3a414a" fill="#fff"/><use xlink:href="#i" transform="matrix(1,0,0,1,843.6666666667442,942.6666666667055) translate(0 21.96527777777778)"/><use xlink:href="#j" transform="matrix(1,0,0,1,843.6666666667442,942.6666666667055) translate(18 48.63194444444444)"/><use xlink:href="#k" transform="matrix(1,0,0,1,843.6666666667442,942.6666666667055) translate(77.19753086419752 48.63194444444444)"/><use xlink:href="#l" transform="matrix(1,0,0,1,843.6666666667442,942.6666666667055) translate(144.9753086419753 48.63194444444444)"/><use xlink:href="#m" transform="matrix(1,0,0,1,843.6666666667442,942.6666666667055) translate(18 75.29861111111111)"/><use xlink:href="#n" transform="matrix(1,0,0,1,843.6666666667442,942.6666666667055) translate(65.34567901234567 75.29861111111111)"/><use xlink:href="#m" transform="matrix(1,0,0,1,843.6666666667442,942.6666666667055) translate(18 101.96527777777777)"/><use xlink:href="#o" transform="matrix(1,0,0,1,843.6666666667442,942.6666666667055) translate(65.34567901234567 101.96527777777777)"/><use xlink:href="#p" transform="matrix(1,0,0,1,843.6666666667442,942.6666666667055) translate(18 128.63194444444446)"/><use xlink:href="#q" transform="matrix(1,0,0,1,843.6666666667442,942.6666666667055) translate(56.148148148148145 128.63194444444446)"/><path d="M767.63 1009.33h54.2" stroke="#3a414a" fill="none"/><path d="M767.64 1009.83h-.5v-1h.5z" stroke="#3a414a" stroke-width=".05" fill="#3a414a"/><path d="M836.6 1009.33l-14.28 4.64v-9.27z" stroke="#3a414a" fill="#3a414a"/><path d="M722.26 783.86H970a6 6 0 0 1 6 6v130.96" stroke="#3a414a" fill="none"/><path d="M722.27 784.23l-1.2-.87h1.2z" stroke="#3a414a" stroke-width=".05" fill="#3a414a"/><path d="M976 935.6l-4.64-14.28h9.28z" stroke="#3a414a" fill="#3a414a"/><path d="M1201.33 955.33a6 6 0 0 1 6-6h148a6 6 0 0 1 6 6v108a6 6 0 0 1-6 6h-148a6 6 0 0 1-6-6z" stroke="#3a414a" fill="#fff"/><use xlink:href="#r" transform="matrix(1,0,0,1,1206.3333333333721,954.3333333333721) translate(21.388888888888893 59.02777777777778)"/><use xlink:href="#h" transform="matrix(1,0,0,1,1206.3333333333721,954.3333333333721) translate(75.58641975308643 59.02777777777778)"/><path d="M1114.3 1009.33h70.2" stroke="#3a414a" fill="none"/><path d="M1114.3 1009.83h-.5v-1h.5z" stroke="#3a414a" stroke-width=".05" fill="#3a414a"/><path d="M1199.25 1009.33l-14.26 4.64v-9.27z" stroke="#3a414a" fill="#3a414a"/><path d="M1449.33 955.33a6 6 0 0 1 6-6h148a6 6 0 0 1 6 6v108a6 6 0 0 1-6 6h-148a6 6 0 0 1-6-6z" stroke="#3a414a" fill="#fff"/><use xlink:href="#g" transform="matrix(1,0,0,1,1454.3333333333721,954.3333333333721) translate(6.574074074074076 59.02777777777778)"/><use xlink:href="#s" transform="matrix(1,0,0,1,1454.3333333333721,954.3333333333721) translate(76.82098765432099 59.02777777777778)"/><path d="M1362.3 1009.33h70.2" stroke="#3a414a" fill="none"/><path d="M1362.3 1009.83h-.5v-1h.5z" stroke="#3a414a" stroke-width=".05" fill="#3a414a"/><path d="M1447.25 1009.33l-14.26 4.64v-9.27z" stroke="#3a414a" fill="#3a414a"/><path d="M1697.33 955.33a6 6 0 0 1 6-6h148a6 6 0 0 1 6 6v108a6 6 0 0 1-6 6h-148a6 6 0 0 1-6-6z" stroke="#3a414a" fill="#fff"/><g><use xlink:href="#d" transform="matrix(1,0,0,1,1702.3333333333721,954.3333333333723) translate(18 38.40277777777778)"/><use xlink:href="#e" transform="matrix(1,0,0,1,1702.3333333333721,954.3333333333723) translate(18 65.06944444444446)"/><use xlink:href="#t" transform="matrix(1,0,0,1,1702.3333333333721,954.3333333333723) translate(24.17283950617284 65.06944444444446)"/><use xlink:href="#u" transform="matrix(1,0,0,1,1702.3333333333721,954.3333333333723) translate(18 84.625)"/><use xlink:href="#v" transform="matrix(1,0,0,1,1702.3333333333721,954.3333333333723) translate(57.88888888888888 84.625)"/><use xlink:href="#w" transform="matrix(1,0,0,1,1702.3333333333721,954.3333333333723) translate(83.8148148148148 84.625)"/><use xlink:href="#x" transform="matrix(1,0,0,1,1702.3333333333721,954.3333333333723) translate(112.70370370370368 84.625)"/></g><path d="M1610.3 1009.33h70.2" stroke="#3a414a" fill="none"/><path d="M1610.3 1009.83h-.5v-1h.5z" stroke="#3a414a" stroke-width=".05" fill="#3a414a"/><path d="M1695.25 1009.33l-14.26 4.64v-9.27z" stroke="#3a414a" fill="#3a414a"/><path d="M722.26 783.86h1049.07a6 6 0 0 1 6 6V932.5" stroke="#3a414a" fill="none"/><path d="M722.27 784.23l-1.2-.87h1.2z" stroke="#3a414a" stroke-width=".05" fill="#3a414a"/><path d="M1777.33 947.25L1772.7 933h9.27z" stroke="#3a414a" fill="#3a414a"/><path d="M1945.33 955.33a6 6 0 0 1 6-6h360.56a6 6 0 0 1 6 6v108a6 6 0 0 1-6 6h-360.57a6 6 0 0 1-6-6z" stroke="#3a414a" fill="#fff"/><g><use xlink:href="#y" transform="matrix(1,0,0,1,1950.3333333333721,954.3333333333723) translate(0 17.77777777777778)"/><use xlink:href="#z" transform="matrix(1,0,0,1,1950.3333333333721,954.3333333333723) translate(72.77777777777777 17.77777777777778)"/><use xlink:href="#A" transform="matrix(1,0,0,1,1950.3333333333721,954.3333333333723) translate(36.01 44.44444444444444)"/><use xlink:href="#B" transform="matrix(1,0,0,1,1950.3333333333721,954.3333333333723) translate(80.39271604938273 44.44444444444444)"/><use xlink:href="#C" transform="matrix(1,0,0,1,1950.3333333333721,954.3333333333723) translate(36.01 71.11111111111111)"/><use xlink:href="#D" transform="matrix(1,0,0,1,1950.3333333333721,954.3333333333723) translate(103.84950617283951 71.11111111111111)"/><use xlink:href="#E" transform="matrix(1,0,0,1,1950.3333333333721,954.3333333333723) translate(36.01 97.77777777777777)"/><use xlink:href="#F" transform="matrix(1,0,0,1,1950.3333333333721,954.3333333333723) translate(102.5532098765432 97.77777777777777)"/></g><path d="M1858.3 1009.33h70.2" stroke="#3a414a" fill="none"/><path d="M1858.3 1009.83h-.5v-1h.5z" stroke="#3a414a" stroke-width=".05" fill="#3a414a"/><path d="M1943.25 1009.33l-14.26 4.64v-9.27z" stroke="#3a414a" fill="#3a414a"/><defs><path fill="#3a414a" d="M210-169c-67 3-38 105-44 169h-31v-121c0-29-5-50-35-48C34-165 62-65 56 0H25l-1-190h30c1 10-1 24 2 32 10-44 99-50 107 0 11-21 27-35 58-36 85-2 47 119 55 194h-31v-121c0-29-5-49-35-48" id="G"/><path fill="#3a414a" d="M115-194c53 0 69 39 70 98 0 66-23 100-70 100C84 3 66-7 56-30L54 0H23l1-261h32v101c10-23 28-34 59-34zm-8 174c40 0 45-34 45-75 0-40-5-75-45-74-42 0-51 32-51 76 0 43 10 73 51 73" id="H"/><path fill="#3a414a" d="M16-82v-28h88v28H16" id="I"/><path fill="#3a414a" d="M96-169c-40 0-48 33-48 73s9 75 48 75c24 0 41-14 43-38l32 2c-6 37-31 61-74 61-59 0-76-41-82-99-10-93 101-131 147-64 4 7 5 14 7 22l-32 3c-4-21-16-35-41-35" id="J"/><path fill="#3a414a" d="M100-194c62-1 85 37 85 99 1 63-27 99-86 99S16-35 15-95c0-66 28-99 85-99zM99-20c44 1 53-31 53-75 0-43-8-75-51-75s-53 32-53 75 10 74 51 75" id="K"/><path fill="#3a414a" d="M117-194c89-4 53 116 60 194h-32v-121c0-31-8-49-39-48C34-167 62-67 57 0H25l-1-190h30c1 10-1 24 2 32 11-22 29-35 61-36" id="L"/><path fill="#3a414a" d="M101-234c-31-9-42 10-38 44h38v23H63V0H32v-167H5v-23h27c-7-52 17-82 69-68v24" id="M"/><path fill="#3a414a" d="M24 0v-261h32V0H24" id="N"/><path fill="#3a414a" d="M85-194c31 0 48 13 60 33l-1-100h32l1 261h-30c-2-10 0-23-3-31C134-8 116 4 85 4 32 4 16-35 15-94c0-66 23-100 70-100zm9 24c-40 0-46 34-46 75 0 40 6 74 45 74 42 0 51-32 51-76 0-42-9-74-50-73" id="O"/><path fill="#3a414a" d="M100-194c63 0 86 42 84 106H49c0 40 14 67 53 68 26 1 43-12 49-29l28 8c-11 28-37 45-77 45C44 4 14-33 15-96c1-61 26-98 85-98zm52 81c6-60-76-77-97-28-3 7-6 17-6 28h103" id="P"/><path fill="#3a414a" d="M114-163C36-179 61-72 57 0H25l-1-190h30c1 12-1 29 2 39 6-27 23-49 58-41v29" id="Q"/><g id="a"><use transform="matrix(0.06172839506172839,0,0,0.06172839506172839,0,0)" xlink:href="#G"/><use transform="matrix(0.06172839506172839,0,0,0.06172839506172839,18.456790123456788,0)" xlink:href="#H"/><use transform="matrix(0.06172839506172839,0,0,0.06172839506172839,30.80246913580247,0)" xlink:href="#I"/><use transform="matrix(0.06172839506172839,0,0,0.06172839506172839,38.148148148148145,0)" xlink:href="#J"/><use transform="matrix(0.06172839506172839,0,0,0.06172839506172839,49.25925925925925,0)" xlink:href="#K"/><use transform="matrix(0.06172839506172839,0,0,0.06172839506172839,61.60493827160493,0)" xlink:href="#L"/><use transform="matrix(0.06172839506172839,0,0,0.06172839506172839,73.9506172839506,0)" xlink:href="#M"/><use transform="matrix(0.06172839506172839,0,0,0.06172839506172839,80.12345679012344,0)" xlink:href="#I"/><use transform="matrix(0.06172839506172839,0,0,0.06172839506172839,87.46913580246913,0)" xlink:href="#M"/><use transform="matrix(0.06172839506172839,0,0,0.06172839506172839,93.64197530864196,0)" xlink:href="#K"/><use transform="matrix(0.06172839506172839,0,0,0.06172839506172839,105.98765432098764,0)" xlink:href="#N"/><use transform="matrix(0.06172839506172839,0,0,0.06172839506172839,110.86419753086419,0)" xlink:href="#O"/><use transform="matrix(0.06172839506172839,0,0,0.06172839506172839,123.20987654320987,0)" xlink:href="#P"/><use transform="matrix(0.06172839506172839,0,0,0.06172839506172839,135.55555555555554,0)" xlink:href="#Q"/></g><path fill="#3a414a" d="M179-190L93 31C79 59 56 82 12 73V49c39 6 53-20 64-50L1-190h34L92-34l54-156h33" id="R"/><path fill="#3a414a" d="M84 4C-5 8 30-112 23-190h32v120c0 31 7 50 39 49 72-2 45-101 50-169h31l1 190h-30c-1-10 1-25-2-33-11 22-28 36-60 37" id="S"/><g id="b"><use transform="matrix(0.06172839506172839,0,0,0.06172839506172839,0,0)" xlink:href="#R"/><use transform="matrix(0.06172839506172839,0,0,0.06172839506172839,11.11111111111111,0)" xlink:href="#S"/><use transform="matrix(0.06172839506172839,0,0,0.06172839506172839,23.45679012345679,0)" xlink:href="#G"/></g><path fill="#3a414a" d="M85 4C-2 5 27-109 22-190h50c7 57-23 150 33 157 60-5 35-97 40-157h50l1 190h-47c-2-12 1-28-3-38-12 25-28 42-61 42" id="T"/><path fill="#3a414a" d="M135-194c53 0 70 44 70 98 0 56-19 98-73 100-31 1-45-17-59-34 3 33 2 69 2 105H25l-1-265h48c2 10 0 23 3 31 11-24 29-35 60-35zM114-30c33 0 39-31 40-66 0-38-9-64-40-64-56 0-55 130 0 130" id="U"/><path fill="#3a414a" d="M115-3C79 11 28 4 28-45v-112H4v-33h27l15-45h31v45h36v33H77v99c-1 23 16 31 38 25v30" id="V"/><path fill="#3a414a" d="M133-34C117-15 103 5 69 4 32 3 11-16 11-54c-1-60 55-63 116-61 1-26-3-47-28-47-18 1-26 9-28 27l-52-2c7-38 36-58 82-57s74 22 75 68l1 82c-1 14 12 18 25 15v27c-30 8-71 5-69-32zm-48 3c29 0 43-24 42-57-32 0-66-3-65 30 0 17 8 27 23 27" id="W"/><path fill="#3a414a" d="M88-194c31-1 46 15 58 34l-1-101h50l1 261h-48c-2-10 0-23-3-31C134-8 116 4 84 4 32 4 16-41 15-95c0-56 19-97 73-99zm17 164c33 0 40-30 41-66 1-37-9-64-41-64s-38 30-39 65c0 43 13 65 39 65" id="X"/><path fill="#3a414a" d="M185-48c-13 30-37 53-82 52C43 2 14-33 14-96s30-98 90-98c62 0 83 45 84 108H66c0 31 8 55 39 56 18 0 30-7 34-22zm-45-69c5-46-57-63-70-21-2 6-4 13-4 21h74" id="Y"/><g id="c"><use transform="matrix(0.06172839506172839,0,0,0.06172839506172839,0,0)" xlink:href="#T"/><use transform="matrix(0.06172839506172839,0,0,0.06172839506172839,13.518518518518517,0)" xlink:href="#U"/><use transform="matrix(0.06172839506172839,0,0,0.06172839506172839,27.037037037037035,0)" xlink:href="#V"/><use transform="matrix(0.06172839506172839,0,0,0.06172839506172839,34.382716049382715,0)" xlink:href="#W"/><use transform="matrix(0.06172839506172839,0,0,0.06172839506172839,46.72839506172839,0)" xlink:href="#X"/><use transform="matrix(0.06172839506172839,0,0,0.06172839506172839,60.24691358024691,0)" xlink:href="#Y"/></g><path fill="#3a414a" d="M110-194c64 0 96 36 96 99 0 64-35 99-97 99-61 0-95-36-95-99 0-62 34-99 96-99zm-1 164c35 0 45-28 45-65 0-40-10-65-43-65-34 0-45 26-45 65 0 36 10 65 43 65" id="Z"/><path fill="#3a414a" d="M231 0h-52l-39-155L100 0H48L-1-190h46L77-45c9-52 24-97 36-145h53l37 145 32-145h46" id="aa"/><path fill="#3a414a" d="M135-194c87-1 58 113 63 194h-50c-7-57 23-157-34-157-59 0-34 97-39 157H25l-1-190h47c2 12-1 28 3 38 12-26 28-41 61-42" id="ab"/><path fill="#3a414a" d="M25 0v-261h50V0H25" id="ac"/><g id="d"><use transform="matrix(0.06172839506172839,0,0,0.06172839506172839,0,0)" xlink:href="#X"/><use transform="matrix(0.06172839506172839,0,0,0.06172839506172839,13.518518518518517,0)" xlink:href="#Z"/><use transform="matrix(0.06172839506172839,0,0,0.06172839506172839,27.037037037037035,0)" xlink:href="#aa"/><use transform="matrix(0.06172839506172839,0,0,0.06172839506172839,44.32098765432099,0)" xlink:href="#ab"/><use transform="matrix(0.06172839506172839,0,0,0.06172839506172839,57.839506172839506,0)" xlink:href="#ac"/><use transform="matrix(0.06172839506172839,0,0,0.06172839506172839,64.01234567901234,0)" xlink:href="#Z"/><use transform="matrix(0.06172839506172839,0,0,0.06172839506172839,77.53086419753086,0)" xlink:href="#W"/><use transform="matrix(0.06172839506172839,0,0,0.06172839506172839,89.87654320987654,0)" xlink:href="#X"/></g><path fill="#3a414a" d="M177-190C167-65 218 103 67 71c-23-6-38-20-44-43l32-5c15 47 100 32 89-28v-30C133-14 115 1 83 1 29 1 15-40 15-95c0-56 16-97 71-98 29-1 48 16 59 35 1-10 0-23 2-32h30zM94-22c36 0 50-32 50-73 0-42-14-75-50-75-39 0-46 34-46 75s6 73 46 73" id="ad"/><path fill="#3a414a" d="M24-231v-30h32v30H24zM24 0v-190h32V0H24" id="ae"/><path fill="#3a414a" d="M141 0L90-78 38 0H4l68-98-65-92h35l48 74 47-74h35l-64 92 68 98h-35" id="af"/><path fill="#3a414a" d="M33 0v-38h34V0H33" id="ag"/><path fill="#3a414a" d="M115-194c55 1 70 41 70 98S169 2 115 4C84 4 66-9 55-30l1 105H24l-1-265h31l2 30c10-21 28-34 59-34zm-8 174c40 0 45-34 45-75s-6-73-45-74c-42 0-51 32-51 76 0 43 10 73 51 73" id="ah"/><g id="f"><use transform="matrix(0.06172839506172839,0,0,0.06172839506172839,0,0)" xlink:href="#L"/><use transform="matrix(0.06172839506172839,0,0,0.06172839506172839,12.345679012345679,0)" xlink:href="#ad"/><use transform="matrix(0.06172839506172839,0,0,0.06172839506172839,24.691358024691358,0)" xlink:href="#ae"/><use transform="matrix(0.06172839506172839,0,0,0.06172839506172839,29.5679012345679,0)" xlink:href="#L"/><use transform="matrix(0.06172839506172839,0,0,0.06172839506172839,41.913580246913575,0)" xlink:href="#af"/><use transform="matrix(0.06172839506172839,0,0,0.06172839506172839,53.02469135802468,0)" xlink:href="#ag"/><use transform="matrix(0.06172839506172839,0,0,0.06172839506172839,59.197530864197525,0)" xlink:href="#Q"/><use transform="matrix(0.06172839506172839,0,0,0.06172839506172839,66.5432098765432,0)" xlink:href="#P"/><use transform="matrix(0.06172839506172839,0,0,0.06172839506172839,78.88888888888889,0)" xlink:href="#ah"/><use transform="matrix(0.06172839506172839,0,0,0.06172839506172839,91.23456790123457,0)" xlink:href="#K"/></g><path fill="#3a414a" d="M25-224v-37h50v37H25zM25 0v-190h50V0H25" id="ai"/><path fill="#3a414a" d="M137-138c1-29-70-34-71-4 15 46 118 7 119 86 1 83-164 76-172 9l43-7c4 19 20 25 44 25 33 8 57-30 24-41C81-84 22-81 20-136c-2-80 154-74 161-7" id="aj"/><g id="g"><use transform="matrix(0.06172839506172839,0,0,0.06172839506172839,0,0)" xlink:href="#ai"/><use transform="matrix(0.06172839506172839,0,0,0.06172839506172839,6.172839506172839,0)" xlink:href="#ab"/><use transform="matrix(0.06172839506172839,0,0,0.06172839506172839,19.691358024691358,0)" xlink:href="#aj"/><use transform="matrix(0.06172839506172839,0,0,0.06172839506172839,32.03703703703704,0)" xlink:href="#V"/><use transform="matrix(0.06172839506172839,0,0,0.06172839506172839,39.382716049382715,0)" xlink:href="#W"/><use transform="matrix(0.06172839506172839,0,0,0.06172839506172839,51.72839506172839,0)" xlink:href="#ac"/><use transform="matrix(0.06172839506172839,0,0,0.06172839506172839,57.901234567901234,0)" xlink:href="#ac"/></g><g id="h"><use transform="matrix(0.06172839506172839,0,0,0.06172839506172839,0,0)" xlink:href="#L"/><use transform="matrix(0.06172839506172839,0,0,0.06172839506172839,12.345679012345679,0)" xlink:href="#ad"/><use transform="matrix(0.06172839506172839,0,0,0.06172839506172839,24.691358024691358,0)" xlink:href="#ae"/><use transform="matrix(0.06172839506172839,0,0,0.06172839506172839,29.5679012345679,0)" xlink:href="#L"/><use transform="matrix(0.06172839506172839,0,0,0.06172839506172839,41.913580246913575,0)" xlink:href="#af"/></g><g id="i"><use transform="matrix(0.06172839506172839,0,0,0.06172839506172839,0,0)" xlink:href="#X"/><use transform="matrix(0.06172839506172839,0,0,0.06172839506172839,13.518518518518517,0)" xlink:href="#Z"/><use transform="matrix(0.06172839506172839,0,0,0.06172839506172839,27.037037037037035,0)" xlink:href="#aa"/><use transform="matrix(0.06172839506172839,0,0,0.06172839506172839,44.32098765432099,0)" xlink:href="#ab"/><use transform="matrix(0.06172839506172839,0,0,0.06172839506172839,57.839506172839506,0)" xlink:href="#ac"/><use transform="matrix(0.06172839506172839,0,0,0.06172839506172839,64.01234567901234,0)" xlink:href="#Z"/><use transform="matrix(0.06172839506172839,0,0,0.06172839506172839,77.53086419753086,0)" xlink:href="#W"/><use transform="matrix(0.06172839506172839,0,0,0.06172839506172839,89.87654320987654,0)" xlink:href="#X"/></g><g id="j"><use transform="matrix(0.06172839506172839,0,0,0.06172839506172839,0,0)" xlink:href="#L"/><use transform="matrix(0.06172839506172839,0,0,0.06172839506172839,12.345679012345679,0)" xlink:href="#ad"/><use transform="matrix(0.06172839506172839,0,0,0.06172839506172839,24.691358024691358,0)" xlink:href="#ae"/><use transform="matrix(0.06172839506172839,0,0,0.06172839506172839,29.5679012345679,0)" xlink:href="#L"/><use transform="matrix(0.06172839506172839,0,0,0.06172839506172839,41.913580246913575,0)" xlink:href="#af"/></g><path fill="#3a414a" d="M135-143c-3-34-86-38-87 0 15 53 115 12 119 90S17 21 10-45l28-5c4 36 97 45 98 0-10-56-113-15-118-90-4-57 82-63 122-42 12 7 21 19 24 35" id="ak"/><path fill="#3a414a" d="M108 0H70L1-190h34L89-25l56-165h34" id="al"/><g id="k"><use transform="matrix(0.06172839506172839,0,0,0.06172839506172839,0,0)" xlink:href="#ak"/><use transform="matrix(0.06172839506172839,0,0,0.06172839506172839,11.11111111111111,0)" xlink:href="#P"/><use transform="matrix(0.06172839506172839,0,0,0.06172839506172839,23.45679012345679,0)" xlink:href="#Q"/><use transform="matrix(0.06172839506172839,0,0,0.06172839506172839,30.80246913580247,0)" xlink:href="#al"/><use transform="matrix(0.06172839506172839,0,0,0.06172839506172839,41.91358024691358,0)" xlink:href="#P"/><use transform="matrix(0.06172839506172839,0,0,0.06172839506172839,54.25925925925926,0)" xlink:href="#Q"/></g><g id="l"><use transform="matrix(0.06172839506172839,0,0,0.06172839506172839,0,0)" xlink:href="#J"/><use transform="matrix(0.06172839506172839,0,0,0.06172839506172839,11.11111111111111,0)" xlink:href="#K"/><use transform="matrix(0.06172839506172839,0,0,0.06172839506172839,23.45679012345679,0)" xlink:href="#L"/><use transform="matrix(0.06172839506172839,0,0,0.06172839506172839,35.80246913580247,0)" xlink:href="#M"/></g><path fill="#3a414a" d="M185-189c-5-48-123-54-124 2 14 75 158 14 163 119 3 78-121 87-175 55-17-10-28-26-33-46l33-7c5 56 141 63 141-1 0-78-155-14-162-118-5-82 145-84 179-34 5 7 8 16 11 25" id="am"/><path fill="#3a414a" d="M30 0v-248h33v221h125V0H30" id="an"/><g id="m"><use transform="matrix(0.06172839506172839,0,0,0.06172839506172839,0,0)" xlink:href="#am"/><use transform="matrix(0.06172839506172839,0,0,0.06172839506172839,14.814814814814813,0)" xlink:href="#am"/><use transform="matrix(0.06172839506172839,0,0,0.06172839506172839,29.629629629629626,0)" xlink:href="#an"/></g><path fill="#3a414a" d="M59-47c-2 24 18 29 38 22v24C64 9 27 4 27-40v-127H5v-23h24l9-43h21v43h35v23H59v120" id="ao"/><g id="n"><use transform="matrix(0.06172839506172839,0,0,0.06172839506172839,0,0)" xlink:href="#J"/><use transform="matrix(0.06172839506172839,0,0,0.06172839506172839,11.11111111111111,0)" xlink:href="#P"/><use transform="matrix(0.06172839506172839,0,0,0.06172839506172839,23.45679012345679,0)" xlink:href="#Q"/><use transform="matrix(0.06172839506172839,0,0,0.06172839506172839,30.80246913580247,0)" xlink:href="#ao"/></g><path fill="#3a414a" d="M143 0L79-87 56-68V0H24v-261h32v163l83-92h37l-77 82L181 0h-38" id="ap"/><g id="o"><use transform="matrix(0.06172839506172839,0,0,0.06172839506172839,0,0)" xlink:href="#ap"/><use transform="matrix(0.06172839506172839,0,0,0.06172839506172839,11.11111111111111,0)" xlink:href="#P"/><use transform="matrix(0.06172839506172839,0,0,0.06172839506172839,23.45679012345679,0)" xlink:href="#R"/></g><path fill="#3a414a" d="M30-248c118-7 216 8 213 122C240-48 200 0 122 0H30v-248zM63-27c89 8 146-16 146-99s-60-101-146-95v194" id="aq"/><path fill="#3a414a" d="M197 0v-115H63V0H30v-248h33v105h134v-105h34V0h-34" id="ar"/><g id="p"><use transform="matrix(0.06172839506172839,0,0,0.06172839506172839,0,0)" xlink:href="#aq"/><use transform="matrix(0.06172839506172839,0,0,0.06172839506172839,15.987654320987653,0)" xlink:href="#ar"/></g><path fill="#3a414a" d="M141-36C126-15 110 5 73 4 37 3 15-17 15-53c-1-64 63-63 125-63 3-35-9-54-41-54-24 1-41 7-42 31l-33-3c5-37 33-52 76-52 45 0 72 20 72 64v82c-1 20 7 32 28 27v20c-31 9-61-2-59-35zM48-53c0 20 12 33 32 33 41-3 63-29 60-74-43 2-92-5-92 41" id="as"/><g id="q"><use transform="matrix(0.06172839506172839,0,0,0.06172839506172839,0,0)" xlink:href="#ah"/><use transform="matrix(0.06172839506172839,0,0,0.06172839506172839,12.345679012345679,0)" xlink:href="#as"/><use transform="matrix(0.06172839506172839,0,0,0.06172839506172839,24.691358024691358,0)" xlink:href="#Q"/><use transform="matrix(0.06172839506172839,0,0,0.06172839506172839,32.03703703703704,0)" xlink:href="#as"/><use transform="matrix(0.06172839506172839,0,0,0.06172839506172839,44.382716049382715,0)" xlink:href="#G"/></g><path fill="#3a414a" d="M135-150c-39-12-60 13-60 57V0H25l-1-190h47c2 13-1 29 3 40 6-28 27-53 61-41v41" id="at"/><g id="r"><use transform="matrix(0.06172839506172839,0,0,0.06172839506172839,0,0)" xlink:href="#aj"/><use transform="matrix(0.06172839506172839,0,0,0.06172839506172839,12.345679012345679,0)" xlink:href="#V"/><use transform="matrix(0.06172839506172839,0,0,0.06172839506172839,19.691358024691358,0)" xlink:href="#W"/><use transform="matrix(0.06172839506172839,0,0,0.06172839506172839,32.03703703703704,0)" xlink:href="#at"/><use transform="matrix(0.06172839506172839,0,0,0.06172839506172839,40.67901234567901,0)" xlink:href="#V"/></g><g id="s"><use transform="matrix(0.06172839506172839,0,0,0.06172839506172839,0,0)" xlink:href="#O"/><use transform="matrix(0.06172839506172839,0,0,0.06172839506172839,12.345679012345679,0)" xlink:href="#K"/><use transform="matrix(0.06172839506172839,0,0,0.06172839506172839,24.691358024691358,0)" xlink:href="#J"/><use transform="matrix(0.06172839506172839,0,0,0.06172839506172839,35.80246913580247,0)" xlink:href="#ap"/><use transform="matrix(0.06172839506172839,0,0,0.06172839506172839,46.91358024691358,0)" xlink:href="#P"/><use transform="matrix(0.06172839506172839,0,0,0.06172839506172839,59.25925925925926,0)" xlink:href="#Q"/></g><g id="t"><use transform="matrix(0.06172839506172839,0,0,0.06172839506172839,0,0)" xlink:href="#J"/><use transform="matrix(0.06172839506172839,0,0,0.06172839506172839,11.11111111111111,0)" xlink:href="#K"/><use transform="matrix(0.06172839506172839,0,0,0.06172839506172839,23.45679012345679,0)" xlink:href="#L"/><use transform="matrix(0.06172839506172839,0,0,0.06172839506172839,35.80246913580247,0)" xlink:href="#M"/><use transform="matrix(0.06172839506172839,0,0,0.06172839506172839,41.97530864197531,0)" xlink:href="#ag"/><use transform="matrix(0.06172839506172839,0,0,0.06172839506172839,48.14814814814815,0)" xlink:href="#J"/><use transform="matrix(0.06172839506172839,0,0,0.06172839506172839,59.25925925925927,0)" xlink:href="#M"/><use transform="matrix(0.06172839506172839,0,0,0.06172839506172839,65.4320987654321,0)" xlink:href="#ad"/></g><path fill="#3a414a" d="M87 75C49 33 22-17 22-94c0-76 28-126 65-167h31c-38 41-64 92-64 168S80 34 118 75H87" id="au"/><path fill="#3a414a" d="M63-220v92h138v28H63V0H30v-248h175v28H63" id="av"/><g id="u"><use transform="matrix(0.03703703703703703,0,0,0.03703703703703703,0,0)" xlink:href="#au"/><use transform="matrix(0.03703703703703703,0,0,0.03703703703703703,4.4074074074074066,0)" xlink:href="#av"/><use transform="matrix(0.03703703703703703,0,0,0.03703703703703703,12.518518518518515,0)" xlink:href="#N"/><use transform="matrix(0.03703703703703703,0,0,0.03703703703703703,15.444444444444441,0)" xlink:href="#as"/><use transform="matrix(0.03703703703703703,0,0,0.03703703703703703,22.851851851851848,0)" xlink:href="#ak"/><use transform="matrix(0.03703703703703703,0,0,0.03703703703703703,29.518518518518512,0)" xlink:href="#ap"/></g><g id="v"><use transform="matrix(0.03703703703703703,0,0,0.03703703703703703,0,0)" xlink:href="#as"/><use transform="matrix(0.03703703703703703,0,0,0.03703703703703703,7.407407407407406,0)" xlink:href="#ah"/><use transform="matrix(0.03703703703703703,0,0,0.03703703703703703,14.814814814814811,0)" xlink:href="#ah"/></g><g id="w"><use transform="matrix(0.03703703703703703,0,0,0.03703703703703703,0,0)" xlink:href="#J"/><use transform="matrix(0.03703703703703703,0,0,0.03703703703703703,6.666666666666665,0)" xlink:href="#K"/><use transform="matrix(0.03703703703703703,0,0,0.03703703703703703,14.07407407407407,0)" xlink:href="#L"/><use transform="matrix(0.03703703703703703,0,0,0.03703703703703703,21.481481481481477,0)" xlink:href="#M"/></g><path fill="#3a414a" d="M33-261c38 41 65 92 65 168S71 34 33 75H2C39 34 66-17 66-93S39-220 2-261h31" id="aw"/><g id="x"><use transform="matrix(0.03703703703703703,0,0,0.03703703703703703,0,0)" xlink:href="#M"/><use transform="matrix(0.03703703703703703,0,0,0.03703703703703703,3.703703703703703,0)" xlink:href="#ae"/><use transform="matrix(0.03703703703703703,0,0,0.03703703703703703,6.629629629629628,0)" xlink:href="#N"/><use transform="matrix(0.03703703703703703,0,0,0.03703703703703703,9.555555555555554,0)" xlink:href="#P"/><use transform="matrix(0.03703703703703703,0,0,0.03703703703703703,16.96296296296296,0)" xlink:href="#aw"/></g><g id="y"><use transform="matrix(0.06172839506172839,0,0,0.06172839506172839,0,0)" xlink:href="#O"/><use transform="matrix(0.06172839506172839,0,0,0.06172839506172839,12.345679012345679,0)" xlink:href="#K"/><use transform="matrix(0.06172839506172839,0,0,0.06172839506172839,24.691358024691358,0)" xlink:href="#J"/><use transform="matrix(0.06172839506172839,0,0,0.06172839506172839,35.80246913580247,0)" xlink:href="#ap"/><use transform="matrix(0.06172839506172839,0,0,0.06172839506172839,46.91358024691358,0)" xlink:href="#P"/><use transform="matrix(0.06172839506172839,0,0,0.06172839506172839,59.25925925925926,0)" xlink:href="#Q"/></g><g id="z"><use transform="matrix(0.06172839506172839,0,0,0.06172839506172839,0,0)" xlink:href="#at"/><use transform="matrix(0.06172839506172839,0,0,0.06172839506172839,8.641975308641975,0)" xlink:href="#T"/><use transform="matrix(0.06172839506172839,0,0,0.06172839506172839,22.160493827160494,0)" xlink:href="#ab"/></g><g id="A"><use transform="matrix(0.06172839506172839,0,0,0.06172839506172839,0,0)" xlink:href="#ah"/><use transform="matrix(0.06172839506172839,0,0,0.06172839506172839,12.345679012345679,0)" xlink:href="#K"/><use transform="matrix(0.06172839506172839,0,0,0.06172839506172839,24.691358024691358,0)" xlink:href="#Q"/><use transform="matrix(0.06172839506172839,0,0,0.06172839506172839,32.03703703703704,0)" xlink:href="#ao"/></g><path fill="#3a414a" d="M139-81c0-46-55-55-73-27H18l9-140h149v37H72l-4 63c44-38 133-4 122 66C201 21 21 35 11-62l49-4c5 18 15 30 39 30 26 0 40-18 40-45" id="ax"/><path fill="#3a414a" d="M101-251c68 0 84 54 84 127C185-50 166 4 99 4S15-52 14-124c-1-75 17-127 87-127zm-1 216c37-5 36-46 36-89s4-89-36-89c-39 0-36 45-36 89 0 43-3 85 36 89" id="ay"/><g id="B"><use transform="matrix(0.06172839506172839,0,0,0.06172839506172839,0,0)" xlink:href="#ax"/><use transform="matrix(0.06172839506172839,0,0,0.06172839506172839,12.345679012345679,0)" xlink:href="#ay"/><use transform="matrix(0.06172839506172839,0,0,0.06172839506172839,24.691358024691358,0)" xlink:href="#ay"/><use transform="matrix(0.06172839506172839,0,0,0.06172839506172839,37.03703703703704,0)" xlink:href="#ay"/></g><g id="C"><use transform="matrix(0.06172839506172839,0,0,0.06172839506172839,0,0)" xlink:href="#G"/><use transform="matrix(0.06172839506172839,0,0,0.06172839506172839,18.456790123456788,0)" xlink:href="#K"/><use transform="matrix(0.06172839506172839,0,0,0.06172839506172839,30.80246913580247,0)" xlink:href="#S"/><use transform="matrix(0.06172839506172839,0,0,0.06172839506172839,43.148148148148145,0)" xlink:href="#L"/><use transform="matrix(0.06172839506172839,0,0,0.06172839506172839,55.49382716049382,0)" xlink:href="#ao"/></g><path fill="#3a414a" d="M190-63c-7 42-38 67-86 67-59 0-84-38-90-98-12-110 154-137 174-36l-49 2c-2-19-15-32-35-32-30 0-35 28-38 64-6 74 65 87 74 30" id="az"/><path fill="#3a414a" d="M121-226c-27-7-43 5-38 36h38v33H83V0H34v-157H6v-33h28c-9-59 32-81 87-68v32" id="aA"/><path fill="#3a414a" d="M24 0v-54h51V0H24" id="aB"/><path fill="#3a414a" d="M195-6C206 82 75 100 31 46c-4-6-6-13-8-21l49-6c3 16 16 24 34 25 40 0 42-37 40-79-11 22-30 35-61 35-53 0-70-43-70-97 0-56 18-96 73-97 30 0 46 14 59 34l2-30h47zm-90-29c32 0 41-27 41-63 0-35-9-62-40-62-32 0-39 29-40 63 0 36 9 62 39 62" id="aC"/><g id="D"><use transform="matrix(0.06172839506172839,0,0,0.06172839506172839,0,0)" xlink:href="#az"/><use transform="matrix(0.06172839506172839,0,0,0.06172839506172839,12.345679012345679,0)" xlink:href="#Z"/><use transform="matrix(0.06172839506172839,0,0,0.06172839506172839,25.864197530864196,0)" xlink:href="#ab"/><use transform="matrix(0.06172839506172839,0,0,0.06172839506172839,39.382716049382715,0)" xlink:href="#aA"/><use transform="matrix(0.06172839506172839,0,0,0.06172839506172839,46.72839506172839,0)" xlink:href="#aB"/><use transform="matrix(0.06172839506172839,0,0,0.06172839506172839,52.901234567901234,0)" xlink:href="#az"/><use transform="matrix(0.06172839506172839,0,0,0.06172839506172839,65.24691358024691,0)" xlink:href="#aA"/><use transform="matrix(0.06172839506172839,0,0,0.06172839506172839,72.5925925925926,0)" xlink:href="#aC"/></g><g id="E"><use transform="matrix(0.06172839506172839,0,0,0.06172839506172839,0,0)" xlink:href="#ae"/><use transform="matrix(0.06172839506172839,0,0,0.06172839506172839,4.876543209876543,0)" xlink:href="#G"/><use transform="matrix(0.06172839506172839,0,0,0.06172839506172839,23.33333333333333,0)" xlink:href="#as"/><use transform="matrix(0.06172839506172839,0,0,0.06172839506172839,35.679012345679006,0)" xlink:href="#ad"/><use transform="matrix(0.06172839506172839,0,0,0.06172839506172839,48.02469135802468,0)" xlink:href="#P"/></g><path fill="#3a414a" d="M147 0L96-86 75-71V0H25v-261h50v150l67-79h53l-66 74L201 0h-54" id="aD"/><path fill="#3a414a" d="M4 7l51-268h42L46 7H4" id="aE"/><path fill="#3a414a" d="M220-157c-53 9-28 100-34 157h-49v-107c1-27-5-49-29-50C55-147 81-57 75 0H25l-1-190h47c2 12-1 28 3 38 10-53 101-56 108 0 13-22 24-43 59-42 82 1 51 116 57 194h-49v-107c-1-25-5-48-29-50" id="aF"/><path fill="#3a414a" d="M14-72v-43h91v43H14" id="aG"/><path fill="#3a414a" d="M135-194c52 0 70 43 70 98 0 56-19 99-73 100-30 1-46-15-58-35L72 0H24l1-261h50v104c11-23 29-37 60-37zM114-30c31 0 40-27 40-66 0-37-7-63-39-63s-41 28-41 65c0 36 8 64 40 64" id="aH"/><g id="F"><use transform="matrix(0.06172839506172839,0,0,0.06172839506172839,0,0)" xlink:href="#aD"/><use transform="matrix(0.06172839506172839,0,0,0.06172839506172839,12.345679012345679,0)" xlink:href="#W"/><use transform="matrix(0.06172839506172839,0,0,0.06172839506172839,24.691358024691358,0)" xlink:href="#at"/><use transform="matrix(0.06172839506172839,0,0,0.06172839506172839,33.33333333333333,0)" xlink:href="#ac"/><use transform="matrix(0.06172839506172839,0,0,0.06172839506172839,39.50617283950617,0)" xlink:href="#W"/><use transform="matrix(0.06172839506172839,0,0,0.06172839506172839,51.85185185185185,0)" xlink:href="#at"/><use transform="matrix(0.06172839506172839,0,0,0.06172839506172839,60.49382716049382,0)" xlink:href="#T"/><use transform="matrix(0.06172839506172839,0,0,0.06172839506172839,74.01234567901234,0)" xlink:href="#aE"/><use transform="matrix(0.06172839506172839,0,0,0.06172839506172839,80.18518518518518,0)" xlink:href="#aF"/><use transform="matrix(0.06172839506172839,0,0,0.06172839506172839,99.93827160493827,0)" xlink:href="#Y"/><use transform="matrix(0.06172839506172839,0,0,0.06172839506172839,112.28395061728395,0)" xlink:href="#aj"/><use transform="matrix(0.06172839506172839,0,0,0.06172839506172839,124.62962962962963,0)" xlink:href="#aj"/><use transform="matrix(0.06172839506172839,0,0,0.06172839506172839,136.97530864197532,0)" xlink:href="#W"/><use transform="matrix(0.06172839506172839,0,0,0.06172839506172839,149.320987654321,0)" xlink:href="#aC"/><use transform="matrix(0.06172839506172839,0,0,0.06172839506172839,162.8395061728395,0)" xlink:href="#Y"/><use transform="matrix(0.06172839506172839,0,0,0.06172839506172839,175.18518518518516,0)" xlink:href="#aG"/><use transform="matrix(0.06172839506172839,0,0,0.06172839506172839,182.53086419753083,0)" xlink:href="#aH"/><use transform="matrix(0.06172839506172839,0,0,0.06172839506172839,196.04938271604934,0)" xlink:href="#Z"/><use transform="matrix(0.06172839506172839,0,0,0.06172839506172839,209.56790123456784,0)" xlink:href="#W"/><use transform="matrix(0.06172839506172839,0,0,0.06172839506172839,221.9135802469135,0)" xlink:href="#at"/><use transform="matrix(0.06172839506172839,0,0,0.06172839506172839,230.5555555555555,0)" xlink:href="#X"/></g></defs></g></svg>