<svg xmlns="http://www.w3.org/2000/svg" xmlns:xlink="http://www.w3.org/1999/xlink" xmlns:lucid="lucid" width="2475.32" height="1840.53"><g transform="translate(-322.00912866402655 -300.6911563927731)" lucid:page-tab-id="0_0"><path d="M0 0h3741.73v2645.67H0z" fill="#fff"/><path d="M401.24 1221a6 6 0 0 1 6-6h828.2a6 6 0 0 1 6 6v829.13a6 6 0 0 1-6 6h-828.2a6 6 0 0 1-6-6z" fill="#fff" fill-opacity="0"/><path d="M404.32 1215.78l.2-.12.87-.36.9-.22h2m3.98 0h4m3.97 0h4m3.98 0h3.98m4 0h3.98m4 0h3.98m3.98 0h4m3.98 0h3.98m4 0h3.97m4 0h3.98m3.98 0h4m3.98 0h4m3.98 0h3.98m4 0h3.98m3.98 0h4m3.98 0h3.98m4 0h3.97m4 0h3.98m3.98 0h4m3.98 0h4m3.98 0h3.98m4 0l3.98-.02m3.98 0h4m3.97 0h4m3.98 0h3.98m4 0h3.98m4 0h3.98m3.98 0h4m3.98 0h3.98m4 0h3.98m3.98 0h4m3.97 0h4m3.98 0h3.98m4 0h4m3.97 0h4m3.97 0h4m3.98 0h3.98m4 0h3.98m3.98 0h4m3.97 0h4m3.98 0h4m3.98 0h3.98m4 0h3.98m3.98 0h4m3.98 0h3.98m4 0h3.97m4 0h3.98m3.98 0h4m4 0h3.97m4 0l3.97-.02m4 0h3.98m3.98 0h4m3.98 0h3.98m4 0h3.97m4 0h3.98m4 0h3.98m4 0h3.97m4 0h3.97m4 0h3.98m3.98 0h4m3.98 0h3.98m4 0h3.97m4 0h4m3.97 0h4m3.97 0h4m3.98 0h3.98m4 0h3.98m3.98 0h4m3.97 0h4m3.98 0h4m3.98 0h4m3.97 0h4m3.97 0h4m3.98 0h3.98m4 0h3.98m3.98 0h4m3.97 0h4m4 0l3.97-.02m4 0h3.98m3.98 0h4m3.97 0h4m3.98 0h3.98m4 0h3.97m4 0h3.98m4 0h3.98m4 0h3.97m4 0h3.97m4 0h3.98m3.98 0h4m3.98 0h3.98m4 0h3.97m4 0h4m3.97 0h4m3.98 0h3.98m4 0h3.97m4 0h3.98m3.98 0h4m3.98 0h3.98m4 0h3.97m3.98 0h4m3.97 0h4m3.98 0h3.98m4 0h3.98m4 0h3.98m3.98 0h2l.93.06.92.22.2.1m3.16 2.68l.12.2.36.87.22.92v2m0 3.98v4m0 3.98v4m0 4v3.98m0 4v4m0 3.98v4m0 3.98v4m0 3.98v4m0 3.98v4m0 3.98v4m0 4v3.98m0 4v3.98m0 4v3.98m0 4v3.98m0 4v3.98m0 4v3.98m0 4v3.98m0 4v4m0 3.98v4m0 3.98l.02 4m0 3.98v4m0 3.98v4m0 3.98v4m0 3.98v4m0 3.98v4m0 4v3.98m0 4v3.98m0 4v3.98m0 4v3.98m0 4v3.98m0 4v3.98m0 4v3.98m0 4v4m0 3.98v4m0 3.98v4m0 3.98v4m0 3.98v4m0 3.98v4m0 3.98v4m0 4v3.98m0 4v3.98m0 4v3.98m0 4v3.98m0 4v3.98m0 4v3.98m0 4v3.98m0 4v4m0 3.98l.02 4m0 3.98v4m0 3.98v4m0 3.98v4m0 3.98v4m0 3.98v4m0 3.98v4m0 4v3.98m0 4v3.98m0 4v3.98m0 4v3.98m0 4v3.98m0 4v3.98m0 4v3.98m0 4v4m0 3.98v4m0 3.98v4m0 3.98v4m0 3.98v4m0 3.98v4m0 3.98v4m0 3.98v4m0 4v3.98m0 4v3.98m0 4v3.98m0 4v3.98m0 4v3.98m0 4v3.98m0 4l.02 3.98m0 4v4m0 3.98v4m0 3.98v4m0 3.98v4m0 3.98v4m0 3.98v4m0 3.98v4m0 4v3.98m0 4v3.98m0 4v3.98m0 4v3.98m0 4v3.98m0 4v3.98m0 4v3.98m0 4v4m0 3.98v4m0 3.98v4m0 3.98v4m0 3.98v4m0 3.98v4m0 3.98v4m0 3.98v4m0 4v3.98m0 4v3.98m0 4v3.98m0 4v3.98m0 4v3.98m0 4v3.98m.02 4v2l-.08.93-.22.9-.1.23m-2.68 3.15l-.2.13-.87.36-.93.22h-2m-3.98 0h-4m-3.98 0h-3.98m-4 0h-3.98m-3.98 0h-4m-3.98 0h-3.98m-4 0h-3.97m-4 0h-3.98m-3.98 0h-4m-3.98 0h-4m-3.98 0h-3.98m-4 0h-3.98m-3.98 0h-4m-3.97 0h-4m-3.98 0h-3.98m-4 0h-3.98m-4 0h-3.98m-3.98 0h-4m-3.98 0h-3.98m-4 0h-3.98m-3.98 0h-4m-3.97 0h-4m-3.98 0H1059m-4 0h-4m-3.97 0h-4m-3.97 0h-4m-3.98 0h-3.98m-4 0h-3.97m-4 0l-3.98.02m-3.98 0h-4m-3.98 0h-4m-3.98 0h-3.98m-4 0h-3.98m-3.98 0h-4m-3.98 0h-3.98m-4 0h-3.97m-4 0h-3.98m-3.98 0h-4m-4 0h-3.97m-4 0h-3.97m-4 0h-3.98m-3.98 0h-4m-3.98 0h-3.98m-4 0h-3.97m-4 0h-3.98m-4 0h-3.98m-4 0h-3.97m-4 0h-3.97m-4 0h-3.98m-3.98 0h-4m-3.97 0h-4m-3.98 0h-3.98m-4 0h-4m-3.97 0h-4m-3.97 0h-4m-3.98 0h-3.98m-4 0l-3.98.02m-3.98 0h-4m-3.97 0h-4m-3.98 0h-4m-3.98 0h-4m-3.97 0h-4m-3.97 0h-4m-3.98 0h-3.98m-4 0h-3.98m-3.98 0h-4m-3.97 0h-4m-4 0h-3.97m-4 0h-3.97m-4 0h-3.98m-3.98 0h-4m-3.98 0h-3.98m-4 0h-3.97m-4 0h-3.98m-4 0h-3.98m-4 0h-3.97m-4 0h-3.97m-4 0h-3.98m-3.98 0h-4m-3.98 0h-3.98m-4 0h-3.97m-4 0h-4m-3.97 0h-4m-3.98 0h-3.98m-4 0l-3.97.02m-4 0h-3.98m-3.98 0h-4m-3.98 0h-3.98m-4 0h-3.97m-3.98 0h-4m-3.97 0h-4m-3.97 0h-4m-3.98 0h-3.98m-4 0h-3.98m-3.98 0h-4m-3.97 0h-4m-4 0h-3.97m-4 0h-3.98m-3.98 0h-4m-3.97 0h-4m-3.98 0h-3.98m-4 0h-3.98m-3.98 0h-4m-3.97 0h-3.98m-4 0h-1.98l-.94-.06-.9-.22-.23-.1m-3.15-2.7l-.13-.2-.37-.86-.22-.9v-2m0-4v-4m0-3.98v-4m0-3.98v-4m0-3.98v-4m0-3.98v-4m0-4v-3.98m0-4v-3.98m0-4v-3.98m0-4v-3.98m0-4v-3.98m0-4v-3.98m0-4v-3.98m0-4v-4m0-3.98v-4m0-3.98v-4m0-3.98v-4m0-3.98v-4m0-3.98v-4m0-3.98v-4m0-3.98v-4m0-4v-3.98m0-4v-3.98m0-4v-3.98m0-4v-3.98m0-4v-3.98m0-4v-3.98m0-4v-3.98m0-4v-4m0-3.98v-4m0-3.98v-4m0-3.98v-4m0-3.98v-4m0-3.98v-4m0-3.98v-4m0-3.98v-4m0-4v-3.98m0-4v-3.98m0-4v-3.98m0-4v-3.98m0-4v-3.98m0-4l-.02-3.98m0-4v-3.98m0-4v-4m0-3.98v-4m0-3.98v-4m0-3.98v-4m0-3.98v-4m0-3.98v-4m0-3.98v-4m0-4V1650m0-4v-3.98m0-4v-3.98m0-4v-3.98m0-4v-3.98m0-4v-3.98m0-4v-3.98m0-4v-4m0-3.98v-4m0-3.98v-4m0-3.98v-4m0-3.98v-4m0-3.98v-4m0-3.98v-4m0-3.98v-4m0-4v-3.98m0-4v-3.98m0-4v-3.98m0-4v-3.98m0-4v-3.98m-.02-4v-3.98m0-4v-3.98m0-4v-4m0-3.98v-4m0-3.98v-4m0-3.98v-4m0-3.98v-4m0-3.98v-4m0-3.98v-4m0-3.98v-4m0-4v-3.98m0-4v-3.98m0-4v-3.98m0-4v-3.98m0-4v-3.98m0-4v-3.98m0-4v-3.98m0-4v-4m0-3.98v-4m0-3.98v-4m0-3.98v-4m0-3.98v-4m0-3.98v-4m0-3.98v-4m0-4v-3.98m0-4v-3.98m0-4v-3.98m0-4v-3.98m-.02-4v-3.98m0-4v-3.98m0-4v-3.98m0-4v-4m0-3.98v-4m0-3.98v-4m0-3.98v-2l.07-.93.23-.92.1-.22" stroke="#5a6c86" fill="none"/><use xlink:href="#a" transform="matrix(1,0,0,1,401.2403481611829,1235.005807765137) translate(274.2543209876543 21.511111111111113)"/><use xlink:href="#b" transform="matrix(1,0,0,1,401.2403481611829,1235.005807765137) translate(419.0808641975309 21.511111111111113)"/><use xlink:href="#c" transform="matrix(1,0,0,1,401.2403481611829,1235.005807765137) translate(506.9925925925926 21.511111111111113)"/><path d="M342 1122.68a6 6 0 0 1 6-6h946.67a6 6 0 0 1 6 6v992.55a6 6 0 0 1-6 6H348a6 6 0 0 1-6-6z" stroke="#d86613" fill="#fff" fill-opacity="0"/><path d="M342 1116.68h56v56h-56v-56z" stroke="#fff" stroke-opacity="0" fill="#d86613"/><path d="M389.2 1135.42v-1.57h-3.75v-4.6h-4.8v-3.77h-1.62v3.76h-3.4v-3.76H374v3.76h-3.38v-3.76h-1.6v3.76h-3.43v-3.76h-1.62v3.76h-3.42v-3.76H359v3.76h-4.43v4.57h-3.76v1.62h3.77v3.42h-3.76v1.6h3.77v3.43h-3.76v1.6h3.77v3.43h-3.76v1.6h3.77v3.43h-3.76v1.6h3.77v4.58H359v3.78h1.56v-3.77h3.42v3.78h1.6v-3.77h3.43v3.78h1.62v-3.77H374v3.78h1.62v-3.77h3.4v3.78h1.63v-3.77h4.8v-4.56h3.76v-1.6h-3.75v-3.43h3.76v-1.6h-3.75v-3.42h3.76v-1.6h-3.75v-3.43h3.76v-1.6h-3.75v-3.43zm-5.37 23.08H356.2v-27.65h27.63z" stroke="#fff" stroke-opacity="0" fill="#fff"/><use xlink:href="#d" transform="matrix(1,0,0,1,413.00912866402655,1136.6760000309519) translate(0 21.511111111111113)"/><use xlink:href="#e" transform="matrix(1,0,0,1,413.00912866402655,1136.6760000309519) translate(59.678395061728395 21.511111111111113)"/><use xlink:href="#f" transform="matrix(1,0,0,1,413.00912866402655,1136.6760000309519) translate(122.41913580246914 21.511111111111113)"/><path d="M421.63 1776.3a6 6 0 0 1 6-6H623.9a6 6 0 0 1 6 6v248.78a6 6 0 0 1-6 6H427.63a6 6 0 0 1-6-6z" fill="#fff" fill-opacity="0"/><path d="M424.7 1771.06l.2-.12.88-.36.92-.22h1.97m3.94 0h3.96m3.94 0h3.94m3.95 0h3.93m3.95 0h3.94m3.95 0l3.94-.02m3.95 0H476m3.94 0h3.95m3.93 0h3.94m3.95 0h3.94m3.95 0h3.95m3.94 0h3.94m3.94 0l3.95-.02m3.94 0h3.95m3.94 0h3.94m3.95 0H547m3.94 0h3.94m3.94 0h3.95m3.94 0h3.96m3.94-.02h3.95m3.94 0h3.93m3.95 0h3.94m3.95 0h3.94m3.95 0h3.95m3.94 0H618m3.93 0h1.97l.94.06.92.22.2.1m3.17 2.68l.12.2.36.87.23.92v2m0 4.04v4.02m0 4.03v4.02m0 4.03v4.03m0 4.03v4.03m0 4v4.04m0 4.03v4.03m0 4.02l.02 4.03m0 4.03v4.03m0 4.04v4.02m0 4.03v4.02m0 4.03v4.03m0 4.02v4.03m0 4.03v4.03m0 4.02v4.02m0 4.03l.02 4.03m0 4.03v4.03m0 4.02v4.03m0 4.04v4.03m0 4.03v4.02m0 4.03v4.03m0 4.03v4.03m0 4.03v4.03m0 4.02v4.03m.02 4.02v4.03m0 4.03v4.03m0 4.03v4m0 4.04v4.03m0 4.03v4.03m0 4.02v4.03m0 4.03v4.04m0 4.03v2l-.07.95-.22.9-.08.23m-2.7 3.15l-.2.13-.86.36-.92.2h-1.97m-3.94 0h-3.95m-3.94 0h-3.95m-3.95 0h-3.95m-3.94.02h-3.94m-3.95 0h-3.94m-3.95 0h-3.94m-3.94 0h-3.95m-3.94 0h-3.94m-3.94 0h-3.95m-3.94 0l-3.94.02m-3.96 0h-3.94m-3.95 0h-3.94m-3.93 0h-3.95m-3.94 0h-3.95m-3.94 0h-3.95m-3.95 0h-3.94m-3.95 0l-3.93.02m-3.95 0h-3.94m-3.94 0H473m-3.95 0h-3.95m-3.94 0h-3.94m-3.95 0h-3.94m-3.95 0h-3.94m-3.94.02h-3.95m-3.94 0h-1.97l-.93-.07-.92-.2-.22-.1m-3.15-2.7l-.1-.2-.37-.87-.22-.9V2024m0-4.02v-4.03m0-4.03v-4.03m0-4.04v-4.02m0-4.03v-4.02m0-4.03v-4.03m0-4.02v-4.03m0-4.03v-4.03m0-4v-4.04m0-4.03v-4.03m0-4.03l-.02-4.02m0-4.03v-4.03m0-4.04v-4.03m0-4.02v-4.02m0-4.03v-4.03m0-4.03v-4.03m0-4.03v-4.03m0-4.02v-4.03m0-4.02V1879m-.02-4.03v-4.03m0-4.03v-4m0-4.04v-4.03m0-4.03v-4.02m0-4.03v-4.03m0-4.03v-4.04m0-4.02v-4.03m0-4.02v-4.03m-.02-4.03v-4.02m0-4.03v-4.03m0-4.03v-4.02m0-4.02v-4.03m0-4.03v-2l.07-.95.23-.92.1-.22" stroke="#5a6c86" fill="none"/><use xlink:href="#g" transform="matrix(1,0,0,1,421.6347011096502,1790.2864161146263) translate(52.846604938271604 17.95555555555556)"/><use xlink:href="#h" transform="matrix(1,0,0,1,421.6347011096502,1790.2864161146263) translate(108.77067901234568 17.95555555555556)"/><path d="M1011.8 1776.3a6 6 0 0 1 6-6h196.27a6 6 0 0 1 6 6v248.78a6 6 0 0 1-6 6H1017.8a6 6 0 0 1-6-6z" fill="#fff" fill-opacity="0"/><path d="M1014.87 1771.06l.2-.12.88-.36.9-.22h1.98m3.95 0h3.94m3.95 0h3.94m3.95 0h3.95m3.94 0h3.95m3.93 0l3.94-.02m3.95 0h3.94m3.95 0h3.95m3.94 0h3.94m3.94 0h3.95m3.94 0h3.95m3.94 0h3.94m3.95 0l3.94-.02m3.94 0h3.94m3.94 0h3.95m3.94 0h3.96m3.94 0h3.94m3.95 0h3.93m3.95 0h3.94m3.95-.02h3.94m3.95 0h3.95m3.94 0h3.95m3.93 0h3.94m3.95 0h3.94m3.95 0h3.95m3.95 0h1.97l.94.06.92.22.22.1m3.15 2.68l.1.2.37.87.22.92v2m0 4.04v4.02m0 4.03v4.02m0 4.03v4.03m0 4.03v4.03m0 4v4.04m0 4.03v4.03m0 4.02v4.03m0 4.03v4.03m0 4.04l.02 4.02m0 4.03v4.02m0 4.03v4.03m0 4.02v4.03m0 4.03v4.03m0 4.02v4.02m0 4.03v4.03m0 4.03v4.03m0 4.02v4.03m.02 4.04v4.03m0 4.03v4.02m0 4.03v4.03m0 4.03v4.03m0 4.03v4.03m0 4.02v4.03m0 4.02v4.03m0 4.03v4.03m0 4.03l.02 4m0 4.04v4.03m0 4.03v4.03m0 4.02v4.03m0 4.03v4.04m0 4.03v2l-.07.95-.23.9-.1.23m-2.68 3.15l-.2.13-.88.36-.9.2h-2m-3.93 0h-3.95m-3.95 0h-3.94m-3.95 0h-3.93m-3.95.02h-3.94m-3.94 0h-3.95m-3.95 0h-3.95m-3.94 0h-3.94m-3.95 0h-3.94m-3.95 0h-3.94m-3.94 0l-3.95.02m-3.94 0h-3.94m-3.94 0h-3.95m-3.94 0h-3.94m-3.96 0h-3.94m-3.95 0h-3.94m-3.93 0h-3.95m-3.94 0l-3.95.02m-3.94 0h-3.96m-3.94 0h-3.94m-3.95 0h-3.93m-3.95 0h-3.94m-3.94 0h-3.95m-3.95 0h-3.95m-3.94.02h-3.94m-3.95 0h-1.97l-.94-.07-.9-.2-.23-.1m-3.15-2.7l-.13-.2-.36-.87-.23-.9V2024m0-4.02v-4.03m0-4.03v-4.03m0-4.04v-4.02m0-4.03v-4.02m0-4.03v-4.03m0-4.02v-4.03m0-4.03v-4.03m-.02-4v-4.04m0-4.03v-4.03m0-4.03v-4.02m0-4.03v-4.03m0-4.04v-4.03m0-4.02v-4.02m0-4.03v-4.03m0-4.03v-4.03m0-4.03l-.02-4.03m0-4.02v-4.03m0-4.02V1879m0-4.03v-4.03m0-4.03v-4m0-4.04v-4.03m0-4.03v-4.02m0-4.03v-4.03m0-4.03v-4.04m-.02-4.02v-4.03m0-4.02v-4.03m0-4.03v-4.02m0-4.03v-4.03m0-4.03v-4.02m0-4.02v-4.03m0-4.03v-2l.07-.95.22-.92.08-.22" stroke="#5a6c86" fill="none"/><use xlink:href="#g" transform="matrix(1,0,0,1,1011.7991803441166,1790.2864161146263) translate(60.98271604938272 17.95555555555556)"/><use xlink:href="#i" transform="matrix(1,0,0,1,1011.7991803441166,1790.2864161146263) translate(116.9067901234568 17.95555555555556)"/><path d="M1222.9 326.7a6 6 0 0 1 6-6h658.72a6 6 0 0 1 6 6v228.64a6 6 0 0 1-6 6h-658.7a6 6 0 0 1-6-6z" fill="#fff" fill-opacity="0"/><path d="M1226 321.47l.2-.12.86-.37.9-.2 2.03-.02m4 0h4.03m4.02 0h4.02m4.03 0h4.02m4.02 0h4.02m4.03 0h4m4.03 0h4.02m4.02 0h4.03m4.02 0h4.02m4.02 0h4.03m4 0h4.03m4.02 0h4.03m4.02 0h4.02m4.02 0h4.02m4.03 0h4m4.03 0h4.02m4.03 0h4.02m4.02 0h4.02m4.02 0h4.03m4 0h4.03m4.02 0h4.03m4.02 0h4.02m4.02 0h4.02m4.03-.02h4m4.03 0h4.02m4.03 0h4.02m4.02 0h4.02m4.03 0h4.02m4 0h4.03m4.02 0h4.03m4.02 0h4.02m4.02 0h4.03m4.02 0h4m4.03 0h4.02m4.03 0h4.02m4.02 0h4.02m4.03 0h4.02m4 0h4.03m4.02 0h4.03m4.02 0h4.02m4.02 0h4.03m4.02 0h4m4.03 0h4.02m4.03 0h4.02m4.02 0h4.02m4.03-.02h4.02m4 0h4.03m4.03 0h4.02m4.02 0h4.02m4.02 0h4.03m4.02 0h4m4.03 0h4.03m4.02 0h4.02m4.02 0h4.02m4.03 0h4.02m4 0h4.03m4.03 0h4.02m4.02 0h4.02m4.02 0h4.03m4.02 0h4m4.03 0h4.03m4.02 0h4.02m4.02 0h4.03m4.02 0h4.02m4 0h4.03m4.03 0h4.02m4.02 0h4.02m4.03-.02h4.02m4.02 0h4m4.03 0h4.03m4.02 0h4.02m4.02 0h4.03m4.02 0h4.02m4 0h4.03m4.03 0h4.02m4.02 0h4.02m4.03 0h4.02m4.02 0h4m4.03 0h4.03m4.02 0h4.02m4.02 0h4.03m4.02 0h4.02m4 0h2.02l.94.07.92.2.22.1m3.15 2.7l.12.2.36.87.22.9v2m0 3.95v3.95m0 3.96v3.97m0 3.95v3.96m0 3.96v3.96m0 3.96v3.96m0 3.95l.02 3.96m0 3.96v3.95m0 3.96v3.96m0 3.96v3.96m0 3.96v3.96m0 3.96v3.95m0 3.97v3.96m0 3.96v3.95m.02 3.96v3.96m0 3.96v3.96m0 3.96v3.96m0 3.96v3.95m0 3.97v3.96m0 3.96v3.95m0 3.96v3.96m0 3.96v3.96m0 3.96v3.96m0 3.96v3.95m0 3.97v3.96m0 3.96v3.95m.02 3.96v3.96m0 3.96v3.96m0 3.96v3.96m0 3.96v1.98l-.07.93-.22.92-.1.2m-2.68 3.16l-.2.12-.87.36-.92.22h-2m-4.03 0h-4.02m-4.02 0h-4.02m-4.02 0h-4.02m-4.02 0h-4.03m-4.02 0h-4.02m-4.02 0h-4.02m-4.02 0h-4.02m-4.02 0h-4.02m-4.03 0h-4.02m-4.02 0h-4.02m-4.02 0h-4.02m-4.02 0h-4.02m-4.02 0h-4.03m-4.02 0h-4.02m-4.02 0l-4.02.02m-4.02 0h-4.02m-4.02 0h-4.03m-4.03 0h-4.02m-4.02 0h-4.02m-4.02 0h-4.02m-4.02 0h-4.02m-4.03 0h-4.03m-4.02 0h-4.02m-4.02 0h-4.02m-4.02 0h-4.02m-4.02 0h-4.03m-4.03 0h-4.02m-4.02 0h-4.02m-4.02 0h-4.02m-4.02 0h-4.02m-4.03 0h-4.03m-4.02 0h-4.02m-4.02 0h-4.02m-4.02 0h-4.02m-4.02 0H1605m-4.03 0h-4.02m-4.02 0l-4.03.02m-4.02 0h-4.02m-4.02 0h-4.02m-4.03 0h-4.03m-4.02 0h-4.02m-4.03 0h-4.02m-4.02 0h-4.02m-4.02 0h-4.03m-4.03 0h-4.02m-4.02 0h-4.03m-4.02 0h-4.02m-4.02 0h-4.02m-4.03 0h-4.03m-4.02 0h-4.02m-4.03 0h-4.02m-4.02 0h-4.02m-4.03 0h-4m-4.03 0h-4.02m-4.02 0h-4.03m-4.02 0h-4.02m-4.02 0H1428m-4 0h-4.03m-4.02 0l-4.02.02m-4.03 0h-4.02m-4.02 0h-4.02m-4.03 0h-4m-4.03 0h-4.02m-4.02 0h-4.03m-4.02 0h-4.02m-4.02 0h-4.03m-4 0h-4.03m-4.02 0h-4.02m-4.03 0h-4.02m-4.02 0h-4.02m-4.03 0h-4m-4.03 0h-4.02m-4.03 0h-4.02m-4.02 0h-4.02m-4.02 0h-4.03m-4 0h-4.03m-4.02 0h-4.03m-4.02 0h-4.02m-4.02 0h-4.02m-4.03 0h-4m-4.03 0h-4.02m-4.03.02h-2l-.95-.08-.9-.22-.23-.1m-3.15-2.68l-.13-.2-.36-.87-.2-.93v-1.97m0-3.96l-.02-3.96m0-3.96v-3.96m0-3.96v-3.95m0-3.96v-3.97m0-3.96v-3.96m0-3.95v-3.95m0-3.96v-3.96m0-3.96v-3.96m-.02-3.96v-3.95m0-3.96v-3.97m0-3.96v-3.96m0-3.95v-3.95m0-3.96v-3.96m0-3.96v-3.96m0-3.96v-3.95m0-3.96v-3.97m-.02-3.96v-3.96m0-3.95v-3.95m0-3.96v-3.96m0-3.96v-3.96m0-3.96v-3.95m0-3.96v-3.97m0-3.96v-3.96m0-3.95v-3.95m-.02-3.96v-3.96m0-3.96v-3.96m0-3.96v-3.95m0-3.96v-3.97m0-3.96v-1.98l.07-.95.2-.9.1-.23" stroke="#5a6c86" fill="none"/><use xlink:href="#j" transform="matrix(1,0,0,1,1222.9130272931652,340.6911563927731) translate(281.0126543209876 21.511111111111116)"/><use xlink:href="#k" transform="matrix(1,0,0,1,1222.9130272931652,340.6911563927731) translate(360.1108024691358 21.511111111111116)"/><path d="M1222.9 632.74a6 6 0 0 1 6-6h658.72a6 6 0 0 1 6 6V786.3a6 6 0 0 1-6 6h-658.7a6 6 0 0 1-6-6z" fill="#fff" fill-opacity="0"/><path d="M1226 627.52l.2-.12.86-.36.9-.22h2.03m4 0h4.03m4.02 0h4.02m4.03 0h4.02m4.02 0h4.02m4.03 0h4m4.03 0h4.02m4.02 0h4.03m4.02 0h4.02m4.02 0h4.03m4 0h4.03m4.02 0h4.03m4.02 0l4.02-.02m4.02 0h4.02m4.03 0h4m4.03 0h4.02m4.03 0h4.02m4.02 0h4.02m4.02 0h4.03m4 0h4.03m4.02 0h4.03m4.02 0h4.02m4.02 0h4.02m4.03 0h4m4.03 0h4.02m4.03 0h4.02m4.02 0h4.02m4.03 0h4.02m4 0h4.03m4.02 0h4.03m4.02 0h4.02m4.02 0h4.03m4.02 0h4m4.03 0h4.02m4.03 0h4.02m4.02-.02h4.02m4.03 0h4.02m4 0h4.03m4.02 0h4.03m4.02 0h4.02m4.02 0h4.03m4.02 0h4m4.03 0h4.02m4.03 0h4.02m4.02 0h4.02m4.03 0h4.02m4 0h4.03m4.03 0h4.02m4.02 0h4.02m4.02 0h4.03m4.02 0h4m4.03 0h4.03m4.02 0h4.02m4.02 0h4.02m4.03 0h4.02m4 0h4.03m4.03 0h4.02m4.02-.02h4.02m4.02 0h4.03m4.02 0h4m4.03 0h4.03m4.02 0h4.02m4.02 0h4.03m4.02 0h4.02m4 0h4.03m4.03 0h4.02m4.02 0h4.02m4.03 0h4.02m4.02 0h4m4.03 0h4.03m4.02 0h4.02m4.02 0h4.03m4.02 0h4.02m4 0h4.03m4.03 0h4.02m4.02 0h4.02m4.03 0h4.02m4.02 0h4m4.03 0h4.03m4.02-.02h4.02m4.02 0h4.03m4.02 0h4.02m4 0h2.02l.94.08.92.22.22.1m3.15 2.68l.12.2.36.87.22.9v2.04m0 4.06v4.07m0 4.06v4.07m0 4.06v4.07m0 4.06l.02 4.06m0 4.06v4.07m0 4.06v4.06m0 4.07v4.05m0 4.07v4.06m0 4.07l.02 4.06m0 4.08v4.06m0 4.07v4.07m0 4.07v4.07m0 4.07v4.07m0 4.06v4.07m0 4.06v4.07m0 4.06v4.07m.02 4.06v4.06m0 4.06v4.07m0 4.06v2.03l-.07.93-.22.9-.1.23m-2.68 3.15l-.2.13-.87.36-.92.2h-2m-4.03 0l-4.02.02m-4.02 0h-4.02m-4.02 0h-4.02m-4.02 0h-4.03m-4.02 0h-4.02m-4.02 0h-4.02m-4.02 0h-4.02m-4.02 0h-4.02m-4.03 0h-4.02m-4.02 0h-4.02m-4.02 0h-4.02m-4.02 0h-4.02m-4.02 0h-4.03m-4.02 0h-4.02m-4.02 0h-4.02m-4.02 0h-4.02m-4.02 0h-4.03m-4.03 0h-4.02m-4.02 0h-4.02m-4.02 0h-4.02m-4.02 0h-4.02m-4.03 0h-4.03m-4.02 0h-4.02m-4.02.02h-4.02m-4.02 0h-4.02m-4.02 0h-4.03m-4.03 0h-4.02m-4.02 0h-4.02m-4.02 0h-4.02m-4.02 0h-4.02m-4.03 0h-4.03m-4.02 0h-4.02m-4.02 0h-4.02m-4.02 0h-4.02m-4.02 0H1605m-4.03 0h-4.02m-4.02 0h-4.03m-4.02 0h-4.02m-4.02 0h-4.02m-4.03 0h-4.03m-4.02 0h-4.02m-4.03 0h-4.02m-4.02 0h-4.02m-4.02 0h-4.03m-4.03 0h-4.02m-4.02.02h-4.03m-4.02 0h-4.02m-4.02 0h-4.02m-4.03 0h-4.03m-4.02 0h-4.02m-4.03 0h-4.02m-4.02 0h-4.02m-4.03 0h-4m-4.03 0h-4.02m-4.02 0h-4.03m-4.02 0h-4.02m-4.02 0H1428m-4 0h-4.03m-4.02 0h-4.02m-4.03 0h-4.02m-4.02 0h-4.02m-4.03 0h-4m-4.03 0h-4.02m-4.02 0h-4.03m-4.02 0h-4.02m-4.02 0h-4.03m-4 0h-4.03m-4.02.02h-4.02m-4.03 0h-4.02m-4.02 0h-4.02m-4.03 0h-4m-4.03 0h-4.02m-4.03 0h-4.02m-4.02 0h-4.02m-4.02 0h-4.03m-4 0h-4.03m-4.02 0h-4.03m-4.02 0h-4.02m-4.02 0h-4.02m-4.03 0h-4m-4.03 0h-4.02m-4.03 0h-2l-.95-.07-.9-.2-.23-.1m-3.15-2.7l-.13-.2-.36-.86-.2-.9v-2.05m-.02-4.07v-4.07m0-4.06v-4.07m0-4.06v-4.07m0-4.06v-4.07m0-4.06v-4.06m-.02-4.07v-4.06m0-4.06v-4.06m0-4.07v-4.05m0-4.07v-4.06m0-4.07v-4.06m0-4.08l-.02-4.06m0-4.07v-4.08m0-4.06v-4.07m0-4.07v-4.07m0-4.06v-4.07m0-4.06l-.02-4.07m0-4.06v-4.07m0-4.06v-4.06m0-4.07v-2.03l.07-.94.2-.9.1-.23" stroke="#5a6c86" fill="none"/><use xlink:href="#l" transform="matrix(1,0,0,1,1222.9130272931652,646.7420086107602) translate(190.82685185185179 17.95555555555556)"/><use xlink:href="#m" transform="matrix(1,0,0,1,1222.9130272931652,646.7420086107602) translate(247.312037037037 17.95555555555556)"/><use xlink:href="#n" transform="matrix(1,0,0,1,1222.9130272931652,646.7420086107602) translate(335.65586419753083 17.95555555555556)"/><use xlink:href="#o" transform="matrix(1,0,0,1,1222.9130272931652,646.7420086107602) translate(391.76697530864203 17.95555555555556)"/><path d="M717.2 1392.03a6 6 0 0 1 6-6h196.27a6 6 0 0 1 6 6v248.8a6 6 0 0 1-6 6H723.2a6 6 0 0 1-6-6z" fill="#fff" fill-opacity="0"/><path d="M720.28 1386.8l.2-.12.87-.36.92-.22h1.97m3.94 0h3.95m3.94 0H740m3.96 0h3.94m3.95 0h3.94m3.93 0h3.95m3.94 0l3.95-.02m3.94 0h3.96m3.94 0h3.94m3.95 0h3.93m3.95 0h3.94m3.94 0H811m3.95 0h3.95m3.94 0l3.94-.02m3.95 0h3.94m3.95 0h3.94m3.95 0h3.95m3.94 0h3.94m3.94 0h3.95m3.94 0h3.94m3.96-.02H882m3.95 0h3.94m3.94 0h3.94m3.94 0h3.95m3.94 0h3.96m3.94 0h1.97l.94.06.93.22.2.1m3.16 2.68l.12.2.36.88.22.9v2.02m0 4.03v4.03m0 4.03v4.02m0 4.02v4.03m0 4.03v4.03m0 4.03v4.02m0 4.03v4.04m0 4.03l.02 4.03m0 4.02v4.03m0 4.03v4.03m0 4.04v4.02m0 4.03v4.02m0 4.03v4.03m0 4.02v4.03m0 4.03v4.03m0 4v4.04m.02 4.03v4.03m0 4.03v4.02m0 4.03v4.03m0 4.04v4.03m0 4.02v4.02m0 4.03v4.03m0 4.03v4.03m0 4.03v4.03m0 4.02l.02 4.03m0 4.02v4.03m0 4.03v4.03m0 4.02v4.03m0 4.04v4.03m0 4.03v4.02m0 4.03v4.03m0 4.03v2.02l-.06.94-.22.92-.1.2m-2.68 3.17l-.2.12-.87.36-.92.22h-1.96m-3.95 0h-3.95m-3.94 0h-3.94m-3.94 0h-3.95m-3.94 0h-3.94m-3.96 0H879m-3.95.02h-3.94m-3.94 0h-3.94m-3.94 0h-3.95m-3.94 0h-3.96m-3.94 0h-3.94m-3.95 0h-3.93m-3.95 0h-3.94m-3.94.02h-3.95m-3.95 0H808m-3.94 0h-3.95m-3.93 0h-3.94m-3.95 0h-3.94m-3.95 0h-3.95m-3.94 0h-3.94m-3.94 0h-3.95m-3.94 0h-3.95m-3.94 0h-3.94m-3.95.02H737m-3.94 0h-3.94m-3.94 0h-1.98l-.93-.07-.92-.22-.22-.1m-3.15-2.68l-.12-.2-.36-.87-.22-.92v-2m0-4.04v-4.03m0-4.04v-4.02m0-4.03v-4.02m0-4.03v-4.03m0-4.02v-4.03m-.02-4.03v-4.03m0-4.02v-4.02m0-4.03v-4.03m0-4.03v-4.03m0-4.02v-4.03m0-4.04v-4.03m0-4.03v-4.02m0-4.03v-4.03m0-4.03l-.02-4.03m0-4.03v-4.03m0-4.02v-4.03m0-4.02v-4.03m0-4.03v-4.03m0-4.03v-4m0-4.04v-4.03m0-4.03v-4.03m0-4.02l-.02-4.03m0-4.03v-4.04m0-4.03v-4.02m0-4.02v-4.03m0-4.03v-4.03m0-4.03v-4.03m0-4.03v-4.02m0-4.02v-4.03m0-4.03v-4.03m-.02-4.03v-2l.08-.95.22-.92.1-.22" stroke="#5a6c86" fill="none"/><use xlink:href="#p" transform="matrix(1,0,0,1,717.2039206222034,1406.0294634583543) translate(79.65524691358024 17.95555555555556)"/><use xlink:href="#q" transform="matrix(1,0,0,1,717.2039206222034,1406.0294634583543) translate(29.809876543209867 44.8888888888889)"/><use xlink:href="#r" transform="matrix(1,0,0,1,717.2039206222034,1406.0294634583543) translate(106.99382716049382 44.8888888888889)"/><path d="M1877.9 1221a6 6 0 0 1 6-6h828.2a6 6 0 0 1 6 6v829.13a6 6 0 0 1-6 6h-828.2a6 6 0 0 1-6-6z" fill="#fff" fill-opacity="0"/><path d="M1880.97 1215.78l.2-.12.87-.36.92-.22h2m3.98 0h3.98m4 0h3.98m3.98 0h4m3.98 0h3.98m4 0h3.97m4 0h4m3.97 0h4m3.98 0h3.98m4 0h3.97m4 0h3.98m3.98 0h4m3.98 0h3.98m4 0h3.97m3.98 0h4m3.97 0h4m3.98 0h3.98m4 0h3.98m4 0h3.98m3.98 0h4m3.97 0h4m4 0l3.97-.02m4 0h3.98m3.98 0h4m3.97 0h4m3.98 0h3.98m4 0h3.98m3.98 0h4m3.97 0h3.98m4 0h3.97m4 0h3.98m3.98 0h4m3.98 0h4m3.98 0h3.98m4 0h3.98m3.98 0h4m3.97 0h4m3.98 0h3.98m4 0h3.98m4 0h3.98m3.98 0h4m3.98 0h3.98m4 0h3.97m3.98 0h4m3.97 0h4m3.98 0h3.98m4 0h3.98m4 0h3.98m3.98 0h4m3.98 0l3.98-.02m4 0h3.97m4 0h3.98m3.98 0h4m3.98 0h4m3.98 0h3.98m4 0h3.98m3.98 0h4m3.98 0h3.98m4 0h3.97m4 0h3.98m3.98 0h4m3.98 0h4m3.98 0h3.98m4 0h3.98m3.98 0h4m3.97 0h4m3.98 0h3.98m4 0h3.98m4 0h3.98m3.98 0h4m3.98 0h3.98m4 0h3.98m3.98 0h4m3.97 0h4m3.98 0h3.98m4 0h4m3.97 0h4m3.97 0l4-.02m3.98 0h3.98m4 0h3.98m3.98 0h4m3.97 0h4m3.98 0h4m3.98 0h3.98m4 0h3.98m3.98 0h4m3.98 0h3.98m4 0h3.97m4 0h3.98m3.98 0h4m4 0h3.97m4 0h3.97m4 0h3.98m3.98 0h4m3.98 0h3.98m4 0h3.97m4 0h3.98m4 0h3.98m4 0h3.97m4 0h3.97m4 0h3.98m3.98 0h4m3.97 0h4m3.98 0h3.98m4 0h2l.93.06.92.22.2.1m3.17 2.68l.12.2.36.87.22.92v2m0 3.98v4m0 3.98v4m0 4v3.98m0 4v4m0 3.98v4m0 3.98v4m0 3.98v4m0 3.98v4m0 3.98v4m0 4v3.98m0 4v3.98m0 4v3.98m0 4v3.98m0 4v3.98m0 4v3.98m0 4v3.98m0 4v4m0 3.98v4m0 3.98v4m0 3.98v4m0 3.98v4m0 3.98v4m.02 3.98v4m0 3.98v4m0 4v3.98m0 4v3.98m0 4v3.98m0 4v3.98m0 4v3.98m0 4v3.98m0 4v3.98m0 4v4m0 3.98v4m0 3.98v4m0 3.98v4m0 3.98v4m0 3.98v4m0 3.98v4m0 4v3.98m0 4v3.98m0 4v3.98m0 4v3.98m0 4v3.98m0 4v3.98m0 4v3.98m0 4v4m0 3.98v4m0 3.98v4m0 3.98v4m0 3.98v4m.02 3.98v4m0 3.98v4m0 3.98v4m0 4v3.98m0 4v3.98m0 4v3.98m0 4v3.98m0 4v3.98m0 4v3.98m0 4v3.98m0 4v4m0 3.98v4m0 3.98v4m0 3.98v4m0 3.98v4m0 3.98v4m0 3.98v4m0 3.98v4m0 4v3.98m0 4v3.98m0 4v3.98m0 4v3.98m0 4v3.98m0 4v3.98m0 4v3.98m0 4v4m0 3.98v4m0 3.98v4m.02 3.98v4m0 3.98v4m0 3.98v4m0 3.98v4m0 4v3.98m0 4v3.98m0 4v3.98m0 4v3.98m0 4v3.98m0 4v3.98m0 4v3.98m0 4v4m0 3.98v4m0 3.98v4m0 3.98v4m0 3.98v4m0 3.98v4m0 3.98v4m0 3.98v4m0 4v3.98m0 4v3.98m0 4v3.98m0 4v3.98m0 4v3.98m0 4v3.98m0 4v2l-.06.93-.22.9-.1.23m-2.68 3.15l-.2.13-.87.36-.92.22h-2m-3.98 0h-3.98m-4 0h-3.98m-4 0h-3.98m-4 0h-3.97m-4 0h-3.97m-4 0h-3.98m-3.98 0h-4m-3.97 0h-4m-3.98 0h-3.98m-4 0h-4m-3.97 0h-4m-3.97 0h-4m-3.98 0h-3.98m-4 0h-3.98m-3.98 0h-4m-3.97 0h-4m-3.98 0h-4m-3.98 0h-4m-3.97 0h-4m-3.97 0h-4m-3.98 0h-3.98m-4 0h-3.98m-3.98 0h-4m-3.97 0h-4m-4 0h-3.97m-4 0h-3.97m-4 0h-3.98m-3.98 0l-4 .02m-3.98 0h-3.98m-4 0h-3.97m-4 0h-3.98m-4 0h-3.98m-4 0h-3.97m-4 0H2440m-4 0H2432m-3.98 0h-4m-3.98 0h-3.98m-4 0h-3.97m-4 0h-4m-3.97 0h-4m-3.98 0h-3.98m-4 0h-3.97m-4 0h-3.98m-3.98 0h-4m-3.98 0h-3.98m-4 0h-3.97m-3.98 0h-4m-3.97 0h-4m-3.97 0h-4m-3.98 0h-3.98m-4 0h-3.98m-3.98 0h-4m-3.97 0h-4m-4 0h-3.97m-4 0h-3.98m-3.98 0l-4 .02m-3.97 0h-4m-3.98 0h-3.98m-4 0h-3.98m-3.98 0h-4m-3.97 0h-3.98m-4 0h-3.97m-4 0h-3.98m-3.98 0h-4m-3.98 0h-4m-3.98 0h-3.98m-4 0h-3.97m-4 0h-4m-3.97 0h-4m-3.98 0h-3.98m-4 0H2145m-4 0h-3.98m-3.98 0h-4m-3.98 0h-3.98m-4 0h-3.97m-3.98 0h-4m-3.97 0h-4m-3.98 0h-3.98m-4 0h-3.98m-4 0h-3.98m-3.98 0h-4m-3.98 0h-3.98m-4 0h-3.97m-4 0l-3.98.02m-3.98 0h-4m-3.98 0h-4m-3.98 0h-3.98m-4 0h-3.98m-3.98 0h-4m-3.97 0h-3.98m-4 0h-3.97m-4 0h-3.98m-3.98 0h-4m-3.98 0h-4m-3.98 0h-3.98m-4 0h-3.98m-3.98 0h-4m-3.97 0h-4m-3.98 0h-3.98m-4 0h-3.98m-4 0h-3.98m-3.98 0h-4m-3.98 0h-3.98m-4 0h-1.98l-.94-.06-.92-.22-.2-.1m-3.17-2.7l-.12-.2-.36-.86-.23-.9v-2m0-4v-4m0-3.98v-4m0-3.98v-4m0-3.98v-4m0-3.98v-4m0-4v-3.98m0-4v-3.98m0-4v-3.98m0-4v-3.98m0-4v-3.98m0-4v-3.98m0-4v-3.98m0-4v-4m0-3.98v-4m0-3.98v-4m0-3.98v-4m0-3.98v-4m0-3.98v-4m0-3.98v-4m0-3.98v-4m0-4v-3.98m0-4v-3.98m0-4v-3.98m-.02-4v-3.98m0-4v-3.98m0-4v-3.98m0-4v-3.98m0-4v-4m0-3.98v-4m0-3.98v-4m0-3.98v-4m0-3.98v-4m0-3.98v-4m0-3.98v-4m0-3.98v-4m0-4v-3.98m0-4v-3.98m0-4v-3.98m0-4v-3.98m0-4v-3.98m0-4v-3.98m0-4v-3.98m0-4v-4m0-3.98v-4m0-3.98v-4m0-3.98v-4m0-3.98v-4m0-3.98v-4m0-3.98v-4m0-4V1650m0-4v-3.98m0-4l-.02-3.98m0-4v-3.98m0-4v-3.98m0-4v-3.98m0-4v-3.98m0-4v-4m0-3.98v-4m0-3.98v-4m0-3.98v-4m0-3.98v-4m0-3.98v-4m0-3.98v-4m0-3.98v-4m0-4v-3.98m0-4v-3.98m0-4v-3.98m0-4v-3.98m0-4v-3.98m0-4v-3.98m0-4v-3.98m0-4v-4m0-3.98v-4m0-3.98v-4m0-3.98v-4m0-3.98v-4m0-3.98v-4m0-3.98v-4m0-3.98v-4m0-4l-.02-3.98m0-4v-3.98m0-4v-3.98m0-4v-3.98m0-4v-3.98m0-4v-3.98m0-4v-3.98m0-4v-4m0-3.98v-4m0-3.98v-4m0-3.98v-4m0-3.98v-4m0-3.98v-4m0-3.98v-4m0-4v-3.98m0-4v-3.98m0-4v-3.98m0-4v-3.98m0-4v-3.98m0-4v-3.98m0-4v-3.98m0-4v-4m0-3.98v-4m0-3.98v-4m0-3.98v-2l.07-.93.22-.92.08-.22" stroke="#5a6c86" fill="none"/><use xlink:href="#s" transform="matrix(1,0,0,1,1877.8978861638238,1235.0058077651368) translate(274.2543209876543 21.511111111111113)"/><use xlink:href="#t" transform="matrix(1,0,0,1,1877.8978861638238,1235.0058077651368) translate(419.0808641975309 21.511111111111113)"/><use xlink:href="#u" transform="matrix(1,0,0,1,1877.8978861638238,1235.0058077651368) translate(506.9925925925926 21.511111111111113)"/><path d="M1818.67 1122.68a6 6 0 0 1 6-6h946.65a6 6 0 0 1 6 6v992.55a6 6 0 0 1-6 6h-946.65a6 6 0 0 1-6-6z" stroke="#d86613" fill="#fff" fill-opacity="0"/><path d="M1818.67 1116.68h56v56h-56v-56z" stroke="#fff" stroke-opacity="0" fill="#d86613"/><path d="M1865.87 1135.42v-1.57h-3.77v-4.6h-4.8v-3.77h-1.6v3.76h-3.43v-3.76h-1.6v3.76h-3.4v-3.76h-1.6v3.76h-3.42v-3.76h-1.6v3.76h-3.43v-3.76h-1.57v3.76h-4.42v4.57h-3.76v1.62h3.76v3.42h-3.76v1.6h3.76v3.43h-3.76v1.6h3.76v3.43h-3.76v1.6h3.76v3.43h-3.76v1.6h3.76v4.58h4.42v3.78h1.57v-3.77h3.42v3.78h1.6v-3.77h3.43v3.78h1.6v-3.77h3.4v3.78h1.6v-3.77h3.42v3.78h1.6v-3.77h4.8v-4.56h3.77v-1.6h-3.77v-3.43h3.77v-1.6h-3.77v-3.42h3.77v-1.6h-3.77v-3.43h3.77v-1.6h-3.77v-3.43zm-5.38 23.08h-27.66v-27.65h27.65z" stroke="#fff" stroke-opacity="0" fill="#fff"/><use xlink:href="#v" transform="matrix(1,0,0,1,1889.6666666666672,1136.6760000309519) translate(0 21.511111111111113)"/><use xlink:href="#w" transform="matrix(1,0,0,1,1889.6666666666672,1136.6760000309519) translate(59.678395061728395 21.511111111111113)"/><use xlink:href="#x" transform="matrix(1,0,0,1,1889.6666666666672,1136.6760000309519) translate(122.41913580246914 21.511111111111113)"/><path d="M1898.3 1776.3a6 6 0 0 1 6-6h196.26a6 6 0 0 1 6 6v248.78a6 6 0 0 1-6 6H1904.3a6 6 0 0 1-6-6z" fill="#fff" fill-opacity="0"/><path d="M1901.37 1771.06l.2-.12.87-.36.9-.22h2m3.93 0h3.94m3.96 0h3.94m3.95 0h3.94m3.93 0h3.95m3.94 0l3.95-.02m3.94 0h3.96m3.94 0h3.94m3.95 0h3.93m3.95 0h3.94m3.94 0h3.95m3.95 0h3.95m3.94 0l3.94-.02m3.95 0h3.94m3.95 0h3.94m3.95 0h3.95m3.94 0h3.94m3.94 0h3.95m3.94 0h3.94m3.96-.02h3.94m3.95 0h3.94m3.94 0h3.94m3.94 0h3.95m3.94 0h3.96m3.94 0h3.94m3.95 0h1.96l.94.06.9.22.23.1m3.15 2.68l.13.2.37.87.22.92v2m0 4.04v4.02m0 4.03v4.02m0 4.03v4.03m0 4.03v4.03m0 4v4.04m0 4.03v4.03m0 4.02v4.03m0 4.03v4.03m0 4.04v4.02m0 4.03v4.02m0 4.03v4.03m0 4.02l.02 4.03m0 4.03v4.03m0 4.02v4.02m0 4.03v4.03m0 4.03v4.03m0 4.02v4.03m0 4.04v4.03m0 4.03v4.02m0 4.03v4.03m.02 4.03v4.03m0 4.03v4.03m0 4.02v4.03m0 4.02v4.03m0 4.03v4.03m0 4.03v4m0 4.04v4.03m0 4.03v4.03m0 4.02l.02 4.03m0 4.03v4.04m0 4.03v2l-.07.95-.23.9-.1.23m-2.7 3.15l-.2.13-.86.36-.9.2h-1.97m-3.95 0h-3.94m-3.95 0h-3.95m-3.94 0h-3.94m-3.94.02h-3.95m-3.94 0h-3.94m-3.96 0h-3.94m-3.95 0h-3.94m-3.94 0h-3.94m-3.94 0h-3.95m-3.94 0l-3.96.02m-3.94 0h-3.94m-3.95 0h-3.93m-3.95 0h-3.94m-3.94 0h-3.95m-3.95 0h-3.95m-3.94 0h-3.95m-3.93 0l-3.94.02m-3.95 0h-3.94m-3.95 0h-3.95m-3.94 0h-3.94m-3.94 0h-3.95m-3.94 0h-3.95m-3.94 0h-3.94m-3.95.02h-3.94m-3.94 0h-1.97l-.95-.07-.9-.2-.23-.1m-3.15-2.7l-.12-.2-.36-.87-.23-.9V2024m0-4.02v-4.03m0-4.03v-4.03m0-4.04v-4.02m0-4.03v-4.02m-.02-4.03v-4.03m0-4.02v-4.03m0-4.03v-4.03m0-4v-4.04m0-4.03v-4.03m0-4.03v-4.02m0-4.03v-4.03m0-4.04v-4.03m0-4.02l-.02-4.02m0-4.03v-4.03m0-4.03v-4.03m0-4.03v-4.03m0-4.02v-4.03m0-4.02V1879m0-4.03v-4.03m0-4.03v-4m0-4.04v-4.03m-.02-4.03v-4.02m0-4.03v-4.03m0-4.03v-4.04m0-4.02v-4.03m0-4.02v-4.03m0-4.03v-4.02m0-4.03v-4.03m0-4.03v-4.02m0-4.02v-4.03m0-4.03v-2l.07-.95.22-.92.08-.22" stroke="#5a6c86" fill="none"/><use xlink:href="#g" transform="matrix(1,0,0,1,1898.292239112291,1790.2864161146258) translate(52.846604938271604 17.95555555555556)"/><use xlink:href="#h" transform="matrix(1,0,0,1,1898.292239112291,1790.2864161146258) translate(108.77067901234568 17.95555555555556)"/><path d="M2488.46 1776.3a6 6 0 0 1 6-6h196.26a6 6 0 0 1 6 6v248.78a6 6 0 0 1-6 6h-196.26a6 6 0 0 1-6-6z" fill="#fff" fill-opacity="0"/><path d="M2491.53 1771.06l.2-.12.87-.36.92-.22h1.97m3.93 0h3.95m3.94 0h3.95m3.94 0h3.95m3.95 0h3.94m3.95 0l3.93-.02m3.95 0h3.94m3.94 0h3.95m3.95 0h3.95m3.94 0h3.94m3.95 0h3.94m3.95 0h3.94m3.95 0l3.95-.02m3.94 0h3.94m3.94 0h3.95m3.94 0h3.94m3.96 0h3.94m3.95 0h3.94m3.93 0h3.95m3.94-.02h3.95m3.94 0h3.96m3.94 0h3.94m3.95 0h3.93m3.95 0h3.94m3.94 0h3.95m3.95 0h1.97l.94.06.92.22.22.1m3.15 2.68l.12.2.36.87.22.92v2m0 4.04v4.02m0 4.03v4.02m0 4.03v4.03m0 4.03v4.03m0 4v4.04m0 4.03l.02 4.03m0 4.02v4.03m0 4.03v4.03m0 4.04v4.02m0 4.03v4.02m0 4.03v4.03m0 4.02v4.03m0 4.03v4.03m0 4.02v4.02m.02 4.03v4.03m0 4.03v4.03m0 4.02v4.03m0 4.04v4.03m0 4.03v4.02m0 4.03v4.03m0 4.03v4.03m0 4.03v4.03m0 4.02v4.03m0 4.02v4.03m0 4.03v4.03m0 4.03v4m0 4.04l.02 4.03m0 4.03v4.03m0 4.02v4.03m0 4.03v4.04m0 4.03v2l-.07.95-.22.9-.1.23m-2.68 3.15l-.2.13-.87.36-.92.2h-1.97m-3.95 0h-3.95m-3.94 0h-3.95m-3.93 0h-3.94m-3.95.02h-3.94m-3.95 0h-3.95m-3.94 0h-3.94m-3.94 0h-3.95m-3.94 0h-3.94m-3.96 0h-3.94m-3.95 0l-3.94.02m-3.94 0h-3.94m-3.94 0h-3.95m-3.94 0h-3.96m-3.94 0h-3.94m-3.95 0h-3.93m-3.95 0h-3.94m-3.95 0l-3.94.02m-3.95 0h-3.95m-3.94 0h-3.95m-3.93 0h-3.94m-3.95 0h-3.94m-3.95 0h-3.95m-3.94 0h-3.94m-3.94.02h-3.95m-3.94 0h-1.97l-.94-.07-.92-.2-.2-.1m-3.17-2.7l-.12-.2-.35-.87-.22-.9V2024m0-4.02v-4.03m0-4.03v-4.03m0-4.04v-4.02m0-4.03v-4.02m0-4.03v-4.03m0-4.02v-4.03m-.02-4.03v-4.03m0-4v-4.04m0-4.03v-4.03m0-4.03v-4.02m0-4.03v-4.03m0-4.04v-4.03m0-4.02v-4.02m0-4.03v-4.03m0-4.03v-4.03m0-4.03v-4.03m0-4.02v-4.03m0-4.02V1879m0-4.03l-.02-4.03m0-4.03v-4m0-4.04v-4.03m0-4.03v-4.02m0-4.03v-4.03m0-4.03v-4.04m0-4.02v-4.03m0-4.02v-4.03m0-4.03v-4.02m-.02-4.03v-4.03m0-4.03v-4.02m0-4.02v-4.03m0-4.03v-2l.07-.95.22-.92.1-.22" stroke="#5a6c86" fill="none"/><use xlink:href="#g" transform="matrix(1,0,0,1,2488.456718346758,1790.2864161146263) translate(60.98271604938272 17.95555555555556)"/><use xlink:href="#i" transform="matrix(1,0,0,1,2488.456718346758,1790.2864161146263) translate(116.9067901234568 17.95555555555556)"/><path d="M2193.86 1392.03a6 6 0 0 1 6-6h196.27a6 6 0 0 1 6 6v248.8a6 6 0 0 1-6 6h-196.27a6 6 0 0 1-6-6z" fill="#fff" fill-opacity="0"/><path d="M2196.94 1386.8l.2-.12.87-.36.92-.22h1.97m3.94 0h3.94m3.95 0h3.94m3.95 0h3.94m3.94 0h3.95m3.94 0h3.94m3.94 0l3.94-.02m3.95 0h3.94m3.96 0h3.94m3.95 0h3.94m3.93 0h3.95m3.94 0h3.95m3.94 0h3.95m3.95 0l3.94-.02m3.95 0h3.93m3.94 0h3.95m3.94 0h3.95m3.95 0h3.95m3.94 0h3.94m3.95 0h3.94m3.95-.02h3.94m3.94 0h3.95m3.94 0h3.94m3.94 0h3.94m3.95 0h3.94m3.96 0h1.97l.94.06.9.22.23.1m3.15 2.68l.13.2.36.88.22.9v2.02m0 4.03v4.03m0 4.03v4.02m0 4.02v4.03m0 4.03v4.03m0 4.03v4.02m0 4.03v4.04m0 4.03v4.03m0 4.02l.02 4.03m0 4.03v4.03m0 4.04v4.02m0 4.03v4.02m0 4.03v4.03m0 4.02v4.03m0 4.03v4.03m0 4v4.04m0 4.03v4.03m.02 4.03v4.02m0 4.03v4.03m0 4.04v4.03m0 4.02v4.02m0 4.03v4.03m0 4.03v4.03m0 4.03v4.03m0 4.02v4.03m0 4.02l.02 4.03m0 4.03v4.03m0 4.02v4.03m0 4.04v4.03m0 4.03v4.02m0 4.03v4.03m0 4.03v2.02l-.06.94-.22.92-.1.2m-2.7 3.17l-.2.12-.86.36-.9.22h-1.98m-3.95 0h-3.94m-3.94 0h-3.94m-3.94 0h-3.95m-3.94 0h-3.96m-3.94 0h-3.95m-3.94.02h-3.93m-3.95 0h-3.94m-3.95 0H2332m-3.95 0h-3.95m-3.94 0h-3.95m-3.93 0h-3.94m-3.95 0h-3.94m-3.95.02h-3.95m-3.95 0h-3.94m-3.94 0h-3.95m-3.94 0h-3.95m-3.94 0H2261m-3.95 0h-3.94m-3.94 0h-3.94m-3.95 0h-3.94m-3.94 0h-3.96m-3.94 0h-3.95m-3.94.02h-3.93m-3.95 0h-3.94m-3.95 0h-1.97l-.94-.07-.9-.22-.23-.1m-3.16-2.68l-.12-.2-.36-.87-.22-.92v-2m0-4.04v-4.03m0-4.04v-4.02m0-4.03v-4.02m0-4.03v-4.03m-.02-4.02v-4.03m0-4.03v-4.03m0-4.02v-4.02m0-4.03v-4.03m0-4.03v-4.03m0-4.02v-4.03m0-4.04v-4.03m0-4.03v-4.02m-.02-4.03v-4.03m0-4.03v-4.03m0-4.03v-4.03m0-4.02v-4.03m0-4.02v-4.03m0-4.03v-4.03m0-4.03v-4m0-4.04v-4.03m0-4.03l-.02-4.03m0-4.02v-4.03m0-4.03v-4.04m0-4.03v-4.02m0-4.02v-4.03m0-4.03v-4.03m0-4.03v-4.03m0-4.03v-4.02m0-4.02v-4.03m-.02-4.03v-4.03m0-4.03v-2l.08-.95.22-.92.1-.22" stroke="#5a6c86" fill="none"/><use xlink:href="#p" transform="matrix(1,0,0,1,2193.861458624845,1406.0294634583543) translate(79.65524691358024 17.95555555555556)"/><use xlink:href="#q" transform="matrix(1,0,0,1,2193.861458624845,1406.0294634583543) translate(29.809876543209867 44.8888888888889)"/><use xlink:href="#r" transform="matrix(1,0,0,1,2193.861458624845,1406.0294634583543) translate(106.99382716049382 44.8888888888889)"/><path d="M1300.67 396a6 6 0 0 1 6-6h176.66a6 6 0 0 1 6 6v108a6 6 0 0 1-6 6h-176.66a6 6 0 0 1-6-6z" stroke="#3a414a" fill="#fff"/><use xlink:href="#y" transform="matrix(1,0,0,1,1305.6666666666279,395) translate(31.598765432098766 59.02777777777778)"/><path d="M1630 396a6 6 0 0 1 6-6h176.67a6 6 0 0 1 6 6v108a6 6 0 0 1-6 6H1636a6 6 0 0 1-6-6z" stroke="#3a414a" fill="#fff"/><use xlink:href="#z" transform="matrix(1,0,0,1,1635.0000000000005,395) translate(5.055555555555557 59.02777777777778)"/><path d="M1565.6 680c-22.1 0-40 17.92-40 40s17.9 40 40 40c22.07 0 40-17.92 40-40s-17.93-40-40-40zm0 76.8c-20.33 0-36.8-16.48-36.8-36.8 0-20.32 16.47-36.8 36.8-36.8 20.3 0 36.8 16.48 36.8 36.8 0 20.32-16.5 36.8-36.8 36.8z" stroke="#fff" stroke-opacity="0" stroke-width="3" fill="#693cc5"/><path d="M1551.2 729.6h-16.02c-.88 0-1.6-.7-1.6-1.6v-16c0-.9.72-1.6 1.6-1.6h16c.9 0 1.6.7 1.6 1.6v16c0 .9-.7 1.6-1.6 1.6zm-14.4-3.2h12.78v-12.8h-12.8zM1588 708.8h-9.6c-.9 0-1.6-.72-1.6-1.6v-9.6c0-.88.7-1.6 1.6-1.6h9.6c.87 0 1.6.72 1.6 1.6v9.6c0 .88-.73 1.6-1.6 1.6zm-8-3.2h6.4v-6.4h-6.4zM1588 726.4h-9.6c-.9 0-1.6-.72-1.6-1.6v-9.6c0-.88.7-1.6 1.6-1.6h9.6c.87 0 1.6.72 1.6 1.6v9.6c0 .88-.73 1.6-1.6 1.6zm-8-3.2h6.4v-6.4h-6.4zM1588 744h-9.6c-.9 0-1.6-.72-1.6-1.6v-9.6c0-.88.7-1.6 1.6-1.6h9.6c.87 0 1.6.72 1.6 1.6v9.6c0 .88-.73 1.6-1.6 1.6zm-8-3.2h6.4v-6.4h-6.4zM1574.7 721.13l-5.36 5.38-2.27-2.24 2.65-2.66H1556v-3.2h13.72l-2.65-2.66 2.27-2.25 5.37 5.37c.65.62.65 1.62.03 2.26h-.02zM1573.84 703.22l-1.98 7.35-3.07-.84 1-3.8-14.2 7.48-1.47-2.8 13.85-7.32-3.44-.88.83-3.2 7.36 2c.85.2 1.37 1.08 1.13 1.94 0 .02 0 .05-.02.08zM1572.73 738.76l-7.35 2.04-.85-3.2 3.44-.94-13.86-7.32 1.5-2.8 14.2 7.48-1-3.75 3.08-.83 1.98 7.35c.23.83-.28 1.72-1.13 1.94v.02z" stroke="#fff" stroke-opacity="0" stroke-width="3" fill="#693cc5"/><path d="M1395 510.96V714a6 6 0 0 0 6 6h108.2" stroke="#3a414a" fill="none"/><path d="M1395.5 510.98h-1v-.52h1z" stroke="#3a414a" stroke-width=".05" fill="#3a414a"/><path d="M1523.97 720l-14.27 4.64v-9.28z" stroke="#3a414a" fill="#3a414a"/><path d="M1724.33 510.96V714a6 6 0 0 1-6 6h-96.36" stroke="#3a414a" fill="none"/><path d="M1724.83 510.98h-1v-.52h1z" stroke="#3a414a" stroke-width=".05" fill="#3a414a"/><path d="M1607.2 720l14.27-4.64v9.28z" stroke="#3a414a" fill="#3a414a"/><path d="M448.64 1896.2a6 6 0 0 1 6-6h148a6 6 0 0 1 6 6v108a6 6 0 0 1-6 6h-148a6 6 0 0 1-6-6z" stroke="#3a414a" fill="#fff"/><use xlink:href="#A" transform="matrix(1,0,0,1,453.6424916068887,1895.1888666105008) translate(29.382716049382708 45.27777777777778)"/><use xlink:href="#B" transform="matrix(1,0,0,1,453.6424916068887,1895.1888666105008) translate(49.135802469135804 71.94444444444446)"/><path d="M1035.93 1896.2a6 6 0 0 1 6-6h148a6 6 0 0 1 6 6v108a6 6 0 0 1-6 6h-148a6 6 0 0 1-6-6z" stroke="#3a414a" fill="#fff"/><use xlink:href="#A" transform="matrix(1,0,0,1,1040.9331573872405,1895.1888666105008) translate(29.382716049382708 46.111111111111114)"/><use xlink:href="#C" transform="matrix(1,0,0,1,1040.9331573872405,1895.1888666105008) translate(-3.2716049382715937 72.77777777777777)"/><path d="M741.34 1511.93a6 6 0 0 1 6-6h148a6 6 0 0 1 6 6v108a6 6 0 0 1-6 6h-148a6 6 0 0 1-6-6z" stroke="#3a414a" fill="#fff"/><use xlink:href="#D" transform="matrix(1,0,0,1,746.3378976653273,1510.9319139542285) translate(29.382716049382708 45.27777777777778)"/><use xlink:href="#E" transform="matrix(1,0,0,1,746.3378976653273,1510.9319139542285) translate(9.104938271604937 71.94444444444446)"/><path d="M1565.6 760.5v530.13a6 6 0 0 1-6 6H827.33a6 6 0 0 0-6 6v66.55" stroke="#3a414a" fill="none"/><path d="M1566.1 760.5h-1V760l.5.02.5-.03z" stroke="#3a414a" stroke-width=".05" fill="#3a414a"/><path d="M821.34 1383.95l-4.64-14.27h9.27z" stroke="#3a414a" fill="#3a414a"/><path d="M675.5 1944.2l-.1 1-.23 1-.4.94-.52.87-.66.8-.8.65-.86.53-.94.4-1 .23-44.5.1v-1l44.37-.08.82-.2.8-.33.72-.46.66-.56.56-.66.45-.73.32-.8.2-.85.07-.88.02-175.44h1zm64.87-377.77H681l-.87.07-.84.2-.8.33-.74.45-.66.56-.56.66-.45.74-.34.8-.2.8-.03 176.35h-1l.03-176.47.25-1 .4-.95.53-.87.66-.77.77-.66.87-.53.94-.4 1-.23 1-.07h59.4z" stroke="#3a414a" stroke-width=".05" fill="#3a414a"/><path d="M740.87 1566.43h-.5v-1h.5z" fill="#3a414a"/><path d="M740.9 1566.46h-.56v-1.05h.56zm-.5-1v.95h.45v-.94z" stroke="#3a414a" stroke-width=".05" fill="#3a414a"/><path d="M625 1954.82l-14.28-4.63 14.27-4.65z" fill="#3a414a"/><path d="M625.5 1955.5l-16.4-5.3 16.4-5.33zm-13.16-5.3l12.15 3.94v-7.9z" stroke="#3a414a" stroke-width=".05" fill="#3a414a"/><use xlink:href="#F" transform="matrix(1,0,0,1,601.5087131546265,1747.393723615698) translate(0 14.222222222222223)"/><path d="M969.14 1944.17l.06.88.2.84.34.8.45.72.55.66.65.56.74.45.8.32.82.2 45.33.07v1l-45.46-.1-1-.23-.96-.4-.87-.52-.76-.66-.66-.8-.54-.86-.4-.94-.23-1-.06-1-.04-175.47h1zm-5.5-378.66l1 .25.95.4.86.52.77.66.67.78.53.88.4.94.23 1 .04 176.47h-1l-.04-176.35-.2-.82-.33-.8-.45-.73-.56-.66-.65-.56-.74-.45-.8-.33-.83-.2-.88-.07H902.3v-1h60.36z" stroke="#3a414a" stroke-width=".05" fill="#3a414a"/><path d="M902.3 1566.43h-.5v-1h.5z" fill="#3a414a"/><path d="M902.34 1566.46h-.56v-1.05h.56zm-.5-1v.95h.45v-.94z" stroke="#3a414a" stroke-width=".05" fill="#3a414a"/><path d="M1033.85 1950.2l-14.26 4.62v-9.27z" fill="#3a414a"/><path d="M1035.47 1950.2l-16.38 5.3v-10.63zm-15.38 3.94l12.13-3.95-12.14-3.96z" stroke="#3a414a" stroke-width=".05" fill="#3a414a"/><g><use xlink:href="#G" transform="matrix(1,0,0,1,918.3145398719629,1747.3937236156978) translate(0 14.222222222222223)"/></g><path d="M1925.3 1896.2a6 6 0 0 1 6-6h148a6 6 0 0 1 6 6v108a6 6 0 0 1-6 6h-148a6 6 0 0 1-6-6z" stroke="#3a414a" fill="#fff"/><g><use xlink:href="#D" transform="matrix(1,0,0,1,1930.30002960953,1895.1888666105006) translate(29.382716049382708 45.27777777777778)"/><use xlink:href="#H" transform="matrix(1,0,0,1,1930.30002960953,1895.1888666105006) translate(49.135802469135804 71.94444444444446)"/></g><path d="M2512.6 1896.2a6 6 0 0 1 6-6h148a6 6 0 0 1 6 6v108a6 6 0 0 1-6 6h-148a6 6 0 0 1-6-6z" stroke="#3a414a" fill="#fff"/><g><use xlink:href="#D" transform="matrix(1,0,0,1,2517.590695389882,1895.1888666105006) translate(29.382716049382708 46.111111111111114)"/><use xlink:href="#I" transform="matrix(1,0,0,1,2517.590695389882,1895.1888666105006) translate(-3.2716049382715937 72.77777777777777)"/></g><path d="M2218 1511.93a6 6 0 0 1 6-6h148a6 6 0 0 1 6 6v108a6 6 0 0 1-6 6h-148a6 6 0 0 1-6-6z" stroke="#3a414a" fill="#fff"/><g><use xlink:href="#D" transform="matrix(1,0,0,1,2222.995435667968,1510.931913954228) translate(29.382716049382708 45.27777777777778)"/><use xlink:href="#E" transform="matrix(1,0,0,1,2222.995435667968,1510.931913954228) translate(9.104938271604937 71.94444444444446)"/></g><path d="M2152.15 1944.2l-.08 1-.24 1-.4.94-.52.87-.65.8-.78.65-.87.53-.94.4-1 .23-44.5.1v-1l44.37-.08.82-.2.8-.33.73-.46.66-.56.56-.66.45-.73.33-.8.2-.85.07-.88.03-175.44h1zm64.88-377.77h-59.36l-.88.07-.85.2-.8.33-.73.45-.66.56-.56.66-.45.74-.33.8-.2.8-.03 176.35h-1l.02-176.47.24-1 .4-.95.53-.87.65-.77.78-.66.87-.53.94-.4 1-.23 1-.07h59.4z" stroke="#3a414a" stroke-width=".05" fill="#3a414a"/><path d="M2217.53 1566.43h-.5v-1h.5z" fill="#3a414a"/><path d="M2217.56 1566.46h-.57v-1.05h.56zm-.52-1v.95h.47v-.94z" stroke="#3a414a" stroke-width=".05" fill="#3a414a"/><path d="M2101.65 1954.82l-14.27-4.63 14.27-4.65z" fill="#3a414a"/><path d="M2102.15 1955.5l-16.4-5.3 16.4-5.33zm-13.15-5.3l12.15 3.94v-7.9z" stroke="#3a414a" stroke-width=".05" fill="#3a414a"/><g><use xlink:href="#F" transform="matrix(1,0,0,1,2078.1662511572677,1747.3937236156976) translate(0 14.222222222222223)"/></g><path d="M2445.8 1944.17l.06.88.2.84.33.8.44.72.57.66.66.56.74.45.8.32.8.2 45.34.07v1l-45.45-.1-1.02-.23-.94-.4-.87-.52-.77-.66-.67-.8-.53-.86-.4-.94-.23-1-.08-1-.04-175.47h1zm-5.5-378.66l1 .25.94.4.87.52.8.66.65.78.54.88.38.94.24 1 .03 176.47h-1l-.03-176.35-.2-.82-.33-.8-.46-.73-.56-.66-.66-.56-.73-.45-.8-.33-.85-.2-.88-.07h-60.3v-1h60.34z" stroke="#3a414a" stroke-width=".05" fill="#3a414a"/><path d="M2378.97 1566.43h-.5v-1h.5z" fill="#3a414a"/><path d="M2379 1566.46h-.57v-1.05h.57zm-.52-1v.95h.47v-.94z" stroke="#3a414a" stroke-width=".05" fill="#3a414a"/><path d="M2510.5 1950.2l-14.26 4.62v-9.27z" fill="#3a414a"/><path d="M2512.13 1950.2l-16.4 5.3v-10.63zm-15.4 3.94l12.16-3.95-12.16-3.96z" stroke="#3a414a" stroke-width=".05" fill="#3a414a"/><g><use xlink:href="#G" transform="matrix(1,0,0,1,2394.9720778746037,1747.3937236156978) translate(0 14.222222222222223)"/></g><path d="M1565.6 760.5v530.13a6 6 0 0 0 6 6H2292a6 6 0 0 1 6 6v66.55" stroke="#3a414a" fill="none"/><path d="M1566.1 760.5h-1V760l.5.02.5-.03z" stroke="#3a414a" stroke-width=".05" fill="#3a414a"/><path d="M2298 1383.95l-4.64-14.27h9.27z" stroke="#3a414a" fill="#3a414a"/><defs><path fill="#5a6c86" d="M194 0L95-120 63-95V0H30v-248h33v124l119-124h40L117-140 236 0h-42" id="J"/><path fill="#5a6c86" d="M84 4C-5 8 30-112 23-190h32v120c0 31 7 50 39 49 72-2 45-101 50-169h31l1 190h-30c-1-10 1-25-2-33-11 22-28 36-60 37" id="K"/><path fill="#5a6c86" d="M115-194c53 0 69 39 70 98 0 66-23 100-70 100C84 3 66-7 56-30L54 0H23l1-261h32v101c10-23 28-34 59-34zm-8 174c40 0 45-34 45-75 0-40-5-75-45-74-42 0-51 32-51 76 0 43 10 73 51 73" id="L"/><path fill="#5a6c86" d="M100-194c63 0 86 42 84 106H49c0 40 14 67 53 68 26 1 43-12 49-29l28 8c-11 28-37 45-77 45C44 4 14-33 15-96c1-61 26-98 85-98zm52 81c6-60-76-77-97-28-3 7-6 17-6 28h103" id="M"/><path fill="#5a6c86" d="M114-163C36-179 61-72 57 0H25l-1-190h30c1 12-1 29 2 39 6-27 23-49 58-41v29" id="N"/><path fill="#5a6c86" d="M117-194c89-4 53 116 60 194h-32v-121c0-31-8-49-39-48C34-167 62-67 57 0H25l-1-190h30c1 10-1 24 2 32 11-22 29-35 61-36" id="O"/><path fill="#5a6c86" d="M59-47c-2 24 18 29 38 22v24C64 9 27 4 27-40v-127H5v-23h24l9-43h21v43h35v23H59v120" id="P"/><path fill="#5a6c86" d="M135-143c-3-34-86-38-87 0 15 53 115 12 119 90S17 21 10-45l28-5c4 36 97 45 98 0-10-56-113-15-118-90-4-57 82-63 122-42 12 7 21 19 24 35" id="Q"/><g id="a"><use transform="matrix(0.07469135802469136,0,0,0.07469135802469136,0,0)" xlink:href="#J"/><use transform="matrix(0.07469135802469136,0,0,0.07469135802469136,17.925925925925927,0)" xlink:href="#K"/><use transform="matrix(0.07469135802469136,0,0,0.07469135802469136,32.8641975308642,0)" xlink:href="#L"/><use transform="matrix(0.07469135802469136,0,0,0.07469135802469136,47.802469135802475,0)" xlink:href="#M"/><use transform="matrix(0.07469135802469136,0,0,0.07469135802469136,62.74074074074075,0)" xlink:href="#N"/><use transform="matrix(0.07469135802469136,0,0,0.07469135802469136,71.62901234567902,0)" xlink:href="#O"/><use transform="matrix(0.07469135802469136,0,0,0.07469135802469136,86.56728395061728,0)" xlink:href="#M"/><use transform="matrix(0.07469135802469136,0,0,0.07469135802469136,101.50555555555556,0)" xlink:href="#P"/><use transform="matrix(0.07469135802469136,0,0,0.07469135802469136,108.9746913580247,0)" xlink:href="#M"/><use transform="matrix(0.07469135802469136,0,0,0.07469135802469136,123.91296296296298,0)" xlink:href="#Q"/></g><path fill="#5a6c86" d="M206 0h-36l-40-164L89 0H53L-1-190h32L70-26l43-164h34l41 164 42-164h31" id="R"/><path fill="#5a6c86" d="M100-194c62-1 85 37 85 99 1 63-27 99-86 99S16-35 15-95c0-66 28-99 85-99zM99-20c44 1 53-31 53-75 0-43-8-75-51-75s-53 32-53 75 10 74 51 75" id="S"/><path fill="#5a6c86" d="M143 0L79-87 56-68V0H24v-261h32v163l83-92h37l-77 82L181 0h-38" id="T"/><g id="b"><use transform="matrix(0.07469135802469136,0,0,0.07469135802469136,0,0)" xlink:href="#R"/><use transform="matrix(0.07469135802469136,0,0,0.07469135802469136,19.345061728395063,0)" xlink:href="#S"/><use transform="matrix(0.07469135802469136,0,0,0.07469135802469136,34.28333333333333,0)" xlink:href="#N"/><use transform="matrix(0.07469135802469136,0,0,0.07469135802469136,43.1716049382716,0)" xlink:href="#T"/><use transform="matrix(0.07469135802469136,0,0,0.07469135802469136,56.61604938271604,0)" xlink:href="#M"/><use transform="matrix(0.07469135802469136,0,0,0.07469135802469136,71.55432098765431,0)" xlink:href="#N"/></g><path fill="#5a6c86" d="M85-194c31 0 48 13 60 33l-1-100h32l1 261h-30c-2-10 0-23-3-31C134-8 116 4 85 4 32 4 16-35 15-94c0-66 23-100 70-100zm9 24c-40 0-46 34-46 75 0 40 6 74 45 74 42 0 51-32 51-76 0-42-9-74-50-73" id="U"/><g id="c"><use transform="matrix(0.07469135802469136,0,0,0.07469135802469136,0,0)" xlink:href="#O"/><use transform="matrix(0.07469135802469136,0,0,0.07469135802469136,14.938271604938272,0)" xlink:href="#S"/><use transform="matrix(0.07469135802469136,0,0,0.07469135802469136,29.876543209876544,0)" xlink:href="#U"/><use transform="matrix(0.07469135802469136,0,0,0.07469135802469136,44.81481481481482,0)" xlink:href="#M"/></g><path fill="#d86613" d="M30 0v-248h187v28H63v79h144v27H63v87h162V0H30" id="V"/><path fill="#d86613" d="M212-179c-10-28-35-45-73-45-59 0-87 40-87 99 0 60 29 101 89 101 43 0 62-24 78-52l27 14C228-24 195 4 139 4 59 4 22-46 18-125c-6-104 99-153 187-111 19 9 31 26 39 46" id="W"/><path fill="#d86613" d="M101-251c82-7 93 87 43 132L82-64C71-53 59-42 53-27h129V0H18c2-99 128-94 128-182 0-28-16-43-45-43s-46 15-49 41l-32-3c6-41 34-60 81-64" id="X"/><g id="d"><use transform="matrix(0.07469135802469136,0,0,0.07469135802469136,0,0)" xlink:href="#V"/><use transform="matrix(0.07469135802469136,0,0,0.07469135802469136,17.925925925925927,0)" xlink:href="#W"/><use transform="matrix(0.07469135802469136,0,0,0.07469135802469136,37.27098765432099,0)" xlink:href="#X"/></g><path fill="#d86613" d="M185-189c-5-48-123-54-124 2 14 75 158 14 163 119 3 78-121 87-175 55-17-10-28-26-33-46l33-7c5 56 141 63 141-1 0-78-155-14-162-118-5-82 145-84 179-34 5 7 8 16 11 25" id="Y"/><path fill="#d86613" d="M115-194c55 1 70 41 70 98S169 2 115 4C84 4 66-9 55-30l1 105H24l-1-265h31l2 30c10-21 28-34 59-34zm-8 174c40 0 45-34 45-75s-6-73-45-74c-42 0-51 32-51 76 0 43 10 73 51 73" id="Z"/><path fill="#d86613" d="M100-194c62-1 85 37 85 99 1 63-27 99-86 99S16-35 15-95c0-66 28-99 85-99zM99-20c44 1 53-31 53-75 0-43-8-75-51-75s-53 32-53 75 10 74 51 75" id="aa"/><path fill="#d86613" d="M59-47c-2 24 18 29 38 22v24C64 9 27 4 27-40v-127H5v-23h24l9-43h21v43h35v23H59v120" id="ab"/><g id="e"><use transform="matrix(0.07469135802469136,0,0,0.07469135802469136,0,0)" xlink:href="#Y"/><use transform="matrix(0.07469135802469136,0,0,0.07469135802469136,17.925925925925927,0)" xlink:href="#Z"/><use transform="matrix(0.07469135802469136,0,0,0.07469135802469136,32.8641975308642,0)" xlink:href="#aa"/><use transform="matrix(0.07469135802469136,0,0,0.07469135802469136,47.802469135802475,0)" xlink:href="#ab"/></g><path fill="#d86613" d="M33 0v-248h34V0H33" id="ac"/><path fill="#d86613" d="M117-194c89-4 53 116 60 194h-32v-121c0-31-8-49-39-48C34-167 62-67 57 0H25l-1-190h30c1 10-1 24 2 32 11-22 29-35 61-36" id="ad"/><path fill="#d86613" d="M135-143c-3-34-86-38-87 0 15 53 115 12 119 90S17 21 10-45l28-5c4 36 97 45 98 0-10-56-113-15-118-90-4-57 82-63 122-42 12 7 21 19 24 35" id="ae"/><path fill="#d86613" d="M96-169c-40 0-48 33-48 73s9 75 48 75c24 0 41-14 43-38l32 2c-6 37-31 61-74 61-59 0-76-41-82-99-10-93 101-131 147-64 4 7 5 14 7 22l-32 3c-4-21-16-35-41-35" id="af"/><path fill="#d86613" d="M141-36C126-15 110 5 73 4 37 3 15-17 15-53c-1-64 63-63 125-63 3-35-9-54-41-54-24 1-41 7-42 31l-33-3c5-37 33-52 76-52 45 0 72 20 72 64v82c-1 20 7 32 28 27v20c-31 9-61-2-59-35zM48-53c0 20 12 33 32 33 41-3 63-29 60-74-43 2-92-5-92 41" id="ag"/><path fill="#d86613" d="M100-194c63 0 86 42 84 106H49c0 40 14 67 53 68 26 1 43-12 49-29l28 8c-11 28-37 45-77 45C44 4 14-33 15-96c1-61 26-98 85-98zm52 81c6-60-76-77-97-28-3 7-6 17-6 28h103" id="ah"/><g id="f"><use transform="matrix(0.07469135802469136,0,0,0.07469135802469136,0,0)" xlink:href="#ac"/><use transform="matrix(0.07469135802469136,0,0,0.07469135802469136,7.469135802469136,0)" xlink:href="#ad"/><use transform="matrix(0.07469135802469136,0,0,0.07469135802469136,22.40740740740741,0)" xlink:href="#ae"/><use transform="matrix(0.07469135802469136,0,0,0.07469135802469136,35.851851851851855,0)" xlink:href="#af"/><use transform="matrix(0.07469135802469136,0,0,0.07469135802469136,49.2962962962963,0)" xlink:href="#ag"/><use transform="matrix(0.07469135802469136,0,0,0.07469135802469136,64.23456790123457,0)" xlink:href="#ad"/><use transform="matrix(0.07469135802469136,0,0,0.07469135802469136,79.17283950617283,0)" xlink:href="#af"/><use transform="matrix(0.07469135802469136,0,0,0.07469135802469136,92.61728395061729,0)" xlink:href="#ah"/></g><path fill="#5a6c86" d="M24-248c93 1 206-16 204 79-1 75-69 88-152 82V0H24v-248zm52 121c47 0 100 7 100-41 0-47-54-39-100-39v80" id="ai"/><path fill="#5a6c86" d="M110-194c64 0 96 36 96 99 0 64-35 99-97 99-61 0-95-36-95-99 0-62 34-99 96-99zm-1 164c35 0 45-28 45-65 0-40-10-65-43-65-34 0-45 26-45 65 0 36 10 65 43 65" id="aj"/><path fill="#5a6c86" d="M88-194c31-1 46 15 58 34l-1-101h50l1 261h-48c-2-10 0-23-3-31C134-8 116 4 84 4 32 4 16-41 15-95c0-56 19-97 73-99zm17 164c33 0 40-30 41-66 1-37-9-64-41-64s-38 30-39 65c0 43 13 65 39 65" id="ak"/><path fill="#5a6c86" d="M35-132v-50h50v50H35zM35 0v-49h50V0H35" id="al"/><g id="g"><use transform="matrix(0.06234567901234568,0,0,0.06234567901234568,0,0)" xlink:href="#ai"/><use transform="matrix(0.06234567901234568,0,0,0.06234567901234568,14.962962962962964,0)" xlink:href="#aj"/><use transform="matrix(0.06234567901234568,0,0,0.06234567901234568,28.616666666666667,0)" xlink:href="#ak"/><use transform="matrix(0.06234567901234568,0,0,0.06234567901234568,42.27037037037037,0)" xlink:href="#al"/></g><path fill="#5a6c86" d="M96-169c-40 0-48 33-48 73s9 75 48 75c24 0 41-14 43-38l32 2c-6 37-31 61-74 61-59 0-76-41-82-99-10-93 101-131 147-64 4 7 5 14 7 22l-32 3c-4-21-16-35-41-35" id="am"/><g id="h"><use transform="matrix(0.06234567901234568,0,0,0.06234567901234568,0,0)" xlink:href="#U"/><use transform="matrix(0.06234567901234568,0,0,0.06234567901234568,12.469135802469136,0)" xlink:href="#S"/><use transform="matrix(0.06234567901234568,0,0,0.06234567901234568,24.938271604938272,0)" xlink:href="#am"/><use transform="matrix(0.06234567901234568,0,0,0.06234567901234568,36.160493827160494,0)" xlink:href="#Q"/></g><path fill="#5a6c86" d="M210-169c-67 3-38 105-44 169h-31v-121c0-29-5-50-35-48C34-165 62-65 56 0H25l-1-190h30c1 10-1 24 2 32 10-44 99-50 107 0 11-21 27-35 58-36 85-2 47 119 55 194h-31v-121c0-29-5-49-35-48" id="an"/><g id="i"><use transform="matrix(0.06234567901234568,0,0,0.06234567901234568,0,0)" xlink:href="#an"/><use transform="matrix(0.06234567901234568,0,0,0.06234567901234568,18.64135802469136,0)" xlink:href="#L"/></g><path fill="#5a6c86" d="M233-177c-1 41-23 64-60 70L243 0h-38l-65-103H63V0H30v-248c88 3 205-21 203 71zM63-129c60-2 137 13 137-47 0-61-80-42-137-45v92" id="ao"/><g id="j"><use transform="matrix(0.07469135802469137,0,0,0.07469135802469137,0,0)" xlink:href="#ao"/><use transform="matrix(0.07469135802469137,0,0,0.07469135802469137,19.345061728395066,0)" xlink:href="#S"/><use transform="matrix(0.07469135802469137,0,0,0.07469135802469137,34.28333333333334,0)" xlink:href="#K"/><use transform="matrix(0.07469135802469137,0,0,0.07469135802469137,49.221604938271604,0)" xlink:href="#P"/><use transform="matrix(0.07469135802469137,0,0,0.07469135802469137,56.69074074074075,0)" xlink:href="#M"/></g><path fill="#5a6c86" d="M54-142c48-35 137-8 131 61C196 18 31 33 14-55l32-4c7 23 22 37 52 37 35-1 51-22 54-58 4-55-73-65-99-34H22l8-134h141v27H59" id="ap"/><path fill="#5a6c86" d="M126-127c33 6 58 20 58 59 0 88-139 92-164 29-3-8-5-16-6-25l32-3c6 27 21 44 54 44 32 0 52-15 52-46 0-38-36-46-79-43v-28c39 1 72-4 72-42 0-27-17-43-46-43-28 0-47 15-49 41l-32-3c6-42 35-63 81-64 48-1 79 21 79 65 0 36-21 52-52 59" id="aq"/><g id="k"><use transform="matrix(0.07469135802469137,0,0,0.07469135802469137,0,0)" xlink:href="#ap"/><use transform="matrix(0.07469135802469137,0,0,0.07469135802469137,14.938271604938274,0)" xlink:href="#aq"/></g><path fill="#5a6c86" d="M205 0l-28-72H64L36 0H1l101-248h38L239 0h-34zm-38-99l-47-123c-12 45-31 82-46 123h93" id="ar"/><path fill="#5a6c86" d="M266 0h-40l-56-210L115 0H75L2-248h35L96-30l15-64 43-154h32l59 218 59-218h35" id="as"/><path fill="#5a6c86" d="M185-189c-5-48-123-54-124 2 14 75 158 14 163 119 3 78-121 87-175 55-17-10-28-26-33-46l33-7c5 56 141 63 141-1 0-78-155-14-162-118-5-82 145-84 179-34 5 7 8 16 11 25" id="at"/><g id="l"><use transform="matrix(0.062345679012345695,0,0,0.062345679012345695,0,0)" xlink:href="#ar"/><use transform="matrix(0.062345679012345695,0,0,0.062345679012345695,14.152469135802473,0)" xlink:href="#as"/><use transform="matrix(0.062345679012345695,0,0,0.062345679012345695,35.28765432098766,0)" xlink:href="#at"/></g><path fill="#5a6c86" d="M190 0L58-211 59 0H30v-248h39L202-35l-2-213h31V0h-41" id="au"/><g id="m"><use transform="matrix(0.062345679012345695,0,0,0.062345679012345695,0,0)" xlink:href="#au"/><use transform="matrix(0.062345679012345695,0,0,0.062345679012345695,16.147530864197535,0)" xlink:href="#M"/><use transform="matrix(0.062345679012345695,0,0,0.062345679012345695,28.616666666666674,0)" xlink:href="#P"/><use transform="matrix(0.062345679012345695,0,0,0.062345679012345695,34.851234567901244,0)" xlink:href="#R"/><use transform="matrix(0.062345679012345695,0,0,0.062345679012345695,50.99876543209878,0)" xlink:href="#S"/><use transform="matrix(0.062345679012345695,0,0,0.062345679012345695,63.46790123456792,0)" xlink:href="#N"/><use transform="matrix(0.062345679012345695,0,0,0.062345679012345695,70.88703703703706,0)" xlink:href="#T"/></g><path fill="#5a6c86" d="M30 0v-248h33v221h125V0H30" id="av"/><path fill="#5a6c86" d="M141-36C126-15 110 5 73 4 37 3 15-17 15-53c-1-64 63-63 125-63 3-35-9-54-41-54-24 1-41 7-42 31l-33-3c5-37 33-52 76-52 45 0 72 20 72 64v82c-1 20 7 32 28 27v20c-31 9-61-2-59-35zM48-53c0 20 12 33 32 33 41-3 63-29 60-74-43 2-92-5-92 41" id="aw"/><g id="n"><use transform="matrix(0.062345679012345695,0,0,0.062345679012345695,0,0)" xlink:href="#av"/><use transform="matrix(0.062345679012345695,0,0,0.062345679012345695,12.46913580246914,0)" xlink:href="#S"/><use transform="matrix(0.062345679012345695,0,0,0.062345679012345695,24.93827160493828,0)" xlink:href="#aw"/><use transform="matrix(0.062345679012345695,0,0,0.062345679012345695,37.40740740740742,0)" xlink:href="#U"/></g><path fill="#5a6c86" d="M160-131c35 5 61 23 61 61C221 17 115-2 30 0v-248c76 3 177-17 177 60 0 33-19 50-47 57zm-97-11c50-1 110 9 110-42 0-47-63-36-110-37v79zm0 115c55-2 124 14 124-45 0-56-70-42-124-44v89" id="ax"/><path fill="#5a6c86" d="M24 0v-261h32V0H24" id="ay"/><g id="o"><use transform="matrix(0.062345679012345695,0,0,0.062345679012345695,0,0)" xlink:href="#ax"/><use transform="matrix(0.062345679012345695,0,0,0.062345679012345695,14.962962962962967,0)" xlink:href="#aw"/><use transform="matrix(0.062345679012345695,0,0,0.062345679012345695,27.43209876543211,0)" xlink:href="#ay"/><use transform="matrix(0.062345679012345695,0,0,0.062345679012345695,32.35740740740742,0)" xlink:href="#aw"/><use transform="matrix(0.062345679012345695,0,0,0.062345679012345695,44.82654320987656,0)" xlink:href="#O"/><use transform="matrix(0.062345679012345695,0,0,0.062345679012345695,57.2956790123457,0)" xlink:href="#am"/><use transform="matrix(0.062345679012345695,0,0,0.062345679012345695,68.51790123456793,0)" xlink:href="#M"/><use transform="matrix(0.062345679012345695,0,0,0.062345679012345695,80.98703703703707,0)" xlink:href="#N"/></g><g id="p"><use transform="matrix(0.06234567901234568,0,0,0.06234567901234568,0,0)" xlink:href="#ai"/><use transform="matrix(0.06234567901234568,0,0,0.06234567901234568,14.962962962962964,0)" xlink:href="#aj"/><use transform="matrix(0.06234567901234568,0,0,0.06234567901234568,28.616666666666667,0)" xlink:href="#ak"/><use transform="matrix(0.06234567901234568,0,0,0.06234567901234568,42.27037037037037,0)" xlink:href="#al"/></g><path fill="#5a6c86" d="M143 4C61 4 22-44 18-125c-5-107 100-154 193-111 17 8 29 25 37 43l-32 9c-13-25-37-40-76-40-61 0-88 39-88 99 0 61 29 100 91 101 35 0 62-11 79-27v-45h-74v-28h105v86C228-13 192 4 143 4" id="az"/><path fill="#5a6c86" d="M33 0v-248h34V0H33" id="aA"/><path fill="#5a6c86" d="M195 0l-74-108L45 0H8l94-129-87-119h37l69 98 67-98h37l-84 118L233 0h-38" id="aB"/><g id="q"><use transform="matrix(0.06234567901234568,0,0,0.06234567901234568,0,0)" xlink:href="#au"/><use transform="matrix(0.06234567901234568,0,0,0.06234567901234568,16.14753086419753,0)" xlink:href="#az"/><use transform="matrix(0.06234567901234568,0,0,0.06234567901234568,33.60432098765432,0)" xlink:href="#aA"/><use transform="matrix(0.06234567901234568,0,0,0.06234567901234568,39.83888888888889,0)" xlink:href="#au"/><use transform="matrix(0.06234567901234568,0,0,0.06234567901234568,55.98641975308642,0)" xlink:href="#aB"/></g><path fill="#5a6c86" d="M24-231v-30h32v30H24zM24 0v-190h32V0H24" id="aC"/><path fill="#5a6c86" d="M177-190C167-65 218 103 67 71c-23-6-38-20-44-43l32-5c15 47 100 32 89-28v-30C133-14 115 1 83 1 29 1 15-40 15-95c0-56 16-97 71-98 29-1 48 16 59 35 1-10 0-23 2-32h30zM94-22c36 0 50-32 50-73 0-42-14-75-50-75-39 0-46 34-46 75s6 73 46 73" id="aD"/><g id="r"><use transform="matrix(0.06234567901234568,0,0,0.06234567901234568,0,0)" xlink:href="#aC"/><use transform="matrix(0.06234567901234568,0,0,0.06234567901234568,4.925308641975309,0)" xlink:href="#O"/><use transform="matrix(0.06234567901234568,0,0,0.06234567901234568,17.394444444444446,0)" xlink:href="#aD"/><use transform="matrix(0.06234567901234568,0,0,0.06234567901234568,29.863580246913582,0)" xlink:href="#N"/><use transform="matrix(0.06234567901234568,0,0,0.06234567901234568,37.28271604938272,0)" xlink:href="#M"/><use transform="matrix(0.06234567901234568,0,0,0.06234567901234568,49.75185185185185,0)" xlink:href="#Q"/><use transform="matrix(0.06234567901234568,0,0,0.06234567901234568,60.974074074074075,0)" xlink:href="#Q"/></g><g id="s"><use transform="matrix(0.07469135802469136,0,0,0.07469135802469136,0,0)" xlink:href="#J"/><use transform="matrix(0.07469135802469136,0,0,0.07469135802469136,17.925925925925927,0)" xlink:href="#K"/><use transform="matrix(0.07469135802469136,0,0,0.07469135802469136,32.8641975308642,0)" xlink:href="#L"/><use transform="matrix(0.07469135802469136,0,0,0.07469135802469136,47.802469135802475,0)" xlink:href="#M"/><use transform="matrix(0.07469135802469136,0,0,0.07469135802469136,62.74074074074075,0)" xlink:href="#N"/><use transform="matrix(0.07469135802469136,0,0,0.07469135802469136,71.62901234567902,0)" xlink:href="#O"/><use transform="matrix(0.07469135802469136,0,0,0.07469135802469136,86.56728395061728,0)" xlink:href="#M"/><use transform="matrix(0.07469135802469136,0,0,0.07469135802469136,101.50555555555556,0)" xlink:href="#P"/><use transform="matrix(0.07469135802469136,0,0,0.07469135802469136,108.9746913580247,0)" xlink:href="#M"/><use transform="matrix(0.07469135802469136,0,0,0.07469135802469136,123.91296296296298,0)" xlink:href="#Q"/></g><g id="t"><use transform="matrix(0.07469135802469136,0,0,0.07469135802469136,0,0)" xlink:href="#R"/><use transform="matrix(0.07469135802469136,0,0,0.07469135802469136,19.345061728395063,0)" xlink:href="#S"/><use transform="matrix(0.07469135802469136,0,0,0.07469135802469136,34.28333333333333,0)" xlink:href="#N"/><use transform="matrix(0.07469135802469136,0,0,0.07469135802469136,43.1716049382716,0)" xlink:href="#T"/><use transform="matrix(0.07469135802469136,0,0,0.07469135802469136,56.61604938271604,0)" xlink:href="#M"/><use transform="matrix(0.07469135802469136,0,0,0.07469135802469136,71.55432098765431,0)" xlink:href="#N"/></g><g id="u"><use transform="matrix(0.07469135802469136,0,0,0.07469135802469136,0,0)" xlink:href="#O"/><use transform="matrix(0.07469135802469136,0,0,0.07469135802469136,14.938271604938272,0)" xlink:href="#S"/><use transform="matrix(0.07469135802469136,0,0,0.07469135802469136,29.876543209876544,0)" xlink:href="#U"/><use transform="matrix(0.07469135802469136,0,0,0.07469135802469136,44.81481481481482,0)" xlink:href="#M"/></g><g id="v"><use transform="matrix(0.07469135802469136,0,0,0.07469135802469136,0,0)" xlink:href="#V"/><use transform="matrix(0.07469135802469136,0,0,0.07469135802469136,17.925925925925927,0)" xlink:href="#W"/><use transform="matrix(0.07469135802469136,0,0,0.07469135802469136,37.27098765432099,0)" xlink:href="#X"/></g><g id="w"><use transform="matrix(0.07469135802469136,0,0,0.07469135802469136,0,0)" xlink:href="#Y"/><use transform="matrix(0.07469135802469136,0,0,0.07469135802469136,17.925925925925927,0)" xlink:href="#Z"/><use transform="matrix(0.07469135802469136,0,0,0.07469135802469136,32.8641975308642,0)" xlink:href="#aa"/><use transform="matrix(0.07469135802469136,0,0,0.07469135802469136,47.802469135802475,0)" xlink:href="#ab"/></g><g id="x"><use transform="matrix(0.07469135802469136,0,0,0.07469135802469136,0,0)" xlink:href="#ac"/><use transform="matrix(0.07469135802469136,0,0,0.07469135802469136,7.469135802469136,0)" xlink:href="#ad"/><use transform="matrix(0.07469135802469136,0,0,0.07469135802469136,22.40740740740741,0)" xlink:href="#ae"/><use transform="matrix(0.07469135802469136,0,0,0.07469135802469136,35.851851851851855,0)" xlink:href="#af"/><use transform="matrix(0.07469135802469136,0,0,0.07469135802469136,49.2962962962963,0)" xlink:href="#ag"/><use transform="matrix(0.07469135802469136,0,0,0.07469135802469136,64.23456790123457,0)" xlink:href="#ad"/><use transform="matrix(0.07469135802469136,0,0,0.07469135802469136,79.17283950617283,0)" xlink:href="#af"/><use transform="matrix(0.07469135802469136,0,0,0.07469135802469136,92.61728395061729,0)" xlink:href="#ah"/></g><path fill="#3a414a" d="M143 0L79-87 56-68V0H24v-261h32v163l83-92h37l-77 82L181 0h-38" id="aE"/><path fill="#3a414a" d="M141-36C126-15 110 5 73 4 37 3 15-17 15-53c-1-64 63-63 125-63 3-35-9-54-41-54-24 1-41 7-42 31l-33-3c5-37 33-52 76-52 45 0 72 20 72 64v82c-1 20 7 32 28 27v20c-31 9-61-2-59-35zM48-53c0 20 12 33 32 33 41-3 63-29 60-74-43 2-92-5-92 41" id="aF"/><path fill="#3a414a" d="M114-163C36-179 61-72 57 0H25l-1-190h30c1 12-1 29 2 39 6-27 23-49 58-41v29" id="aG"/><path fill="#3a414a" d="M24 0v-261h32V0H24" id="aH"/><path fill="#3a414a" d="M84 4C-5 8 30-112 23-190h32v120c0 31 7 50 39 49 72-2 45-101 50-169h31l1 190h-30c-1-10 1-25-2-33-11 22-28 36-60 37" id="aI"/><path fill="#3a414a" d="M33 0v-38h34V0H33" id="aJ"/><path fill="#3a414a" d="M96-169c-40 0-48 33-48 73s9 75 48 75c24 0 41-14 43-38l32 2c-6 37-31 61-74 61-59 0-76-41-82-99-10-93 101-131 147-64 4 7 5 14 7 22l-32 3c-4-21-16-35-41-35" id="aK"/><path fill="#3a414a" d="M100-194c62-1 85 37 85 99 1 63-27 99-86 99S16-35 15-95c0-66 28-99 85-99zM99-20c44 1 53-31 53-75 0-43-8-75-51-75s-53 32-53 75 10 74 51 75" id="aL"/><path fill="#3a414a" d="M210-169c-67 3-38 105-44 169h-31v-121c0-29-5-50-35-48C34-165 62-65 56 0H25l-1-190h30c1 10-1 24 2 32 10-44 99-50 107 0 11-21 27-35 58-36 85-2 47 119 55 194h-31v-121c0-29-5-49-35-48" id="aM"/><g id="y"><use transform="matrix(0.06172839506172839,0,0,0.06172839506172839,0,0)" xlink:href="#aE"/><use transform="matrix(0.06172839506172839,0,0,0.06172839506172839,11.11111111111111,0)" xlink:href="#aF"/><use transform="matrix(0.06172839506172839,0,0,0.06172839506172839,23.45679012345679,0)" xlink:href="#aG"/><use transform="matrix(0.06172839506172839,0,0,0.06172839506172839,30.80246913580247,0)" xlink:href="#aH"/><use transform="matrix(0.06172839506172839,0,0,0.06172839506172839,35.67901234567901,0)" xlink:href="#aF"/><use transform="matrix(0.06172839506172839,0,0,0.06172839506172839,48.02469135802469,0)" xlink:href="#aG"/><use transform="matrix(0.06172839506172839,0,0,0.06172839506172839,55.37037037037037,0)" xlink:href="#aI"/><use transform="matrix(0.06172839506172839,0,0,0.06172839506172839,67.71604938271605,0)" xlink:href="#aJ"/><use transform="matrix(0.06172839506172839,0,0,0.06172839506172839,73.88888888888889,0)" xlink:href="#aK"/><use transform="matrix(0.06172839506172839,0,0,0.06172839506172839,85,0)" xlink:href="#aL"/><use transform="matrix(0.06172839506172839,0,0,0.06172839506172839,97.34567901234568,0)" xlink:href="#aM"/></g><path fill="#3a414a" d="M85-194c31 0 48 13 60 33l-1-100h32l1 261h-30c-2-10 0-23-3-31C134-8 116 4 85 4 32 4 16-35 15-94c0-66 23-100 70-100zm9 24c-40 0-46 34-46 75 0 40 6 74 45 74 42 0 51-32 51-76 0-42-9-74-50-73" id="aN"/><path fill="#3a414a" d="M135-143c-3-34-86-38-87 0 15 53 115 12 119 90S17 21 10-45l28-5c4 36 97 45 98 0-10-56-113-15-118-90-4-57 82-63 122-42 12 7 21 19 24 35" id="aO"/><g id="z"><use transform="matrix(0.06172839506172839,0,0,0.06172839506172839,0,0)" xlink:href="#aN"/><use transform="matrix(0.06172839506172839,0,0,0.06172839506172839,12.345679012345679,0)" xlink:href="#aL"/><use transform="matrix(0.06172839506172839,0,0,0.06172839506172839,24.691358024691358,0)" xlink:href="#aK"/><use transform="matrix(0.06172839506172839,0,0,0.06172839506172839,35.80246913580247,0)" xlink:href="#aO"/><use transform="matrix(0.06172839506172839,0,0,0.06172839506172839,46.91358024691358,0)" xlink:href="#aJ"/><use transform="matrix(0.06172839506172839,0,0,0.06172839506172839,53.086419753086425,0)" xlink:href="#aE"/><use transform="matrix(0.06172839506172839,0,0,0.06172839506172839,64.19753086419753,0)" xlink:href="#aF"/><use transform="matrix(0.06172839506172839,0,0,0.06172839506172839,76.54320987654322,0)" xlink:href="#aG"/><use transform="matrix(0.06172839506172839,0,0,0.06172839506172839,83.8888888888889,0)" xlink:href="#aH"/><use transform="matrix(0.06172839506172839,0,0,0.06172839506172839,88.76543209876544,0)" xlink:href="#aF"/><use transform="matrix(0.06172839506172839,0,0,0.06172839506172839,101.11111111111113,0)" xlink:href="#aG"/><use transform="matrix(0.06172839506172839,0,0,0.06172839506172839,108.45679012345681,0)" xlink:href="#aI"/><use transform="matrix(0.06172839506172839,0,0,0.06172839506172839,120.8024691358025,0)" xlink:href="#aJ"/><use transform="matrix(0.06172839506172839,0,0,0.06172839506172839,126.97530864197533,0)" xlink:href="#aK"/><use transform="matrix(0.06172839506172839,0,0,0.06172839506172839,138.08641975308643,0)" xlink:href="#aL"/><use transform="matrix(0.06172839506172839,0,0,0.06172839506172839,150.4320987654321,0)" xlink:href="#aM"/></g><path fill="#3a414a" d="M117-194c89-4 53 116 60 194h-32v-121c0-31-8-49-39-48C34-167 62-67 57 0H25l-1-190h30c1 10-1 24 2 32 11-22 29-35 61-36" id="aP"/><path fill="#3a414a" d="M59-47c-2 24 18 29 38 22v24C64 9 27 4 27-40v-127H5v-23h24l9-43h21v43h35v23H59v120" id="aQ"/><path fill="#3a414a" d="M24-231v-30h32v30H24zM24 0v-190h32V0H24" id="aR"/><path fill="#3a414a" d="M100-194c63 0 86 42 84 106H49c0 40 14 67 53 68 26 1 43-12 49-29l28 8c-11 28-37 45-77 45C44 4 14-33 15-96c1-61 26-98 85-98zm52 81c6-60-76-77-97-28-3 7-6 17-6 28h103" id="aS"/><g id="A"><use transform="matrix(0.06172839506172839,0,0,0.06172839506172839,0,0)" xlink:href="#aK"/><use transform="matrix(0.06172839506172839,0,0,0.06172839506172839,11.11111111111111,0)" xlink:href="#aL"/><use transform="matrix(0.06172839506172839,0,0,0.06172839506172839,23.45679012345679,0)" xlink:href="#aP"/><use transform="matrix(0.06172839506172839,0,0,0.06172839506172839,35.80246913580247,0)" xlink:href="#aQ"/><use transform="matrix(0.06172839506172839,0,0,0.06172839506172839,41.97530864197531,0)" xlink:href="#aF"/><use transform="matrix(0.06172839506172839,0,0,0.06172839506172839,54.32098765432099,0)" xlink:href="#aR"/><use transform="matrix(0.06172839506172839,0,0,0.06172839506172839,59.19753086419753,0)" xlink:href="#aP"/><use transform="matrix(0.06172839506172839,0,0,0.06172839506172839,71.54320987654322,0)" xlink:href="#aS"/><use transform="matrix(0.06172839506172839,0,0,0.06172839506172839,83.8888888888889,0)" xlink:href="#aG"/></g><path fill="#3a414a" d="M88-194c31-1 46 15 58 34l-1-101h50l1 261h-48c-2-10 0-23-3-31C134-8 116 4 84 4 32 4 16-41 15-95c0-56 19-97 73-99zm17 164c33 0 40-30 41-66 1-37-9-64-41-64s-38 30-39 65c0 43 13 65 39 65" id="aT"/><path fill="#3a414a" d="M110-194c64 0 96 36 96 99 0 64-35 99-97 99-61 0-95-36-95-99 0-62 34-99 96-99zm-1 164c35 0 45-28 45-65 0-40-10-65-43-65-34 0-45 26-45 65 0 36 10 65 43 65" id="aU"/><path fill="#3a414a" d="M190-63c-7 42-38 67-86 67-59 0-84-38-90-98-12-110 154-137 174-36l-49 2c-2-19-15-32-35-32-30 0-35 28-38 64-6 74 65 87 74 30" id="aV"/><path fill="#3a414a" d="M137-138c1-29-70-34-71-4 15 46 118 7 119 86 1 83-164 76-172 9l43-7c4 19 20 25 44 25 33 8 57-30 24-41C81-84 22-81 20-136c-2-80 154-74 161-7" id="aW"/><g id="B"><use transform="matrix(0.06172839506172839,0,0,0.06172839506172839,0,0)" xlink:href="#aT"/><use transform="matrix(0.06172839506172839,0,0,0.06172839506172839,13.518518518518517,0)" xlink:href="#aU"/><use transform="matrix(0.06172839506172839,0,0,0.06172839506172839,27.037037037037035,0)" xlink:href="#aV"/><use transform="matrix(0.06172839506172839,0,0,0.06172839506172839,39.382716049382715,0)" xlink:href="#aW"/></g><path fill="#3a414a" d="M220-157c-53 9-28 100-34 157h-49v-107c1-27-5-49-29-50C55-147 81-57 75 0H25l-1-190h47c2 12-1 28 3 38 10-53 101-56 108 0 13-22 24-43 59-42 82 1 51 116 57 194h-49v-107c-1-25-5-48-29-50" id="aX"/><path fill="#3a414a" d="M185-48c-13 30-37 53-82 52C43 2 14-33 14-96s30-98 90-98c62 0 83 45 84 108H66c0 31 8 55 39 56 18 0 30-7 34-22zm-45-69c5-46-57-63-70-21-2 6-4 13-4 21h74" id="aY"/><path fill="#3a414a" d="M133-34C117-15 103 5 69 4 32 3 11-16 11-54c-1-60 55-63 116-61 1-26-3-47-28-47-18 1-26 9-28 27l-52-2c7-38 36-58 82-57s74 22 75 68l1 82c-1 14 12 18 25 15v27c-30 8-71 5-69-32zm-48 3c29 0 43-24 42-57-32 0-66-3-65 30 0 17 8 27 23 27" id="aZ"/><path fill="#3a414a" d="M195-6C206 82 75 100 31 46c-4-6-6-13-8-21l49-6c3 16 16 24 34 25 40 0 42-37 40-79-11 22-30 35-61 35-53 0-70-43-70-97 0-56 18-96 73-97 30 0 46 14 59 34l2-30h47zm-90-29c32 0 41-27 41-63 0-35-9-62-40-62-32 0-39 29-40 63 0 36 9 62 39 62" id="ba"/><path fill="#3a414a" d="M135-194c52 0 70 43 70 98 0 56-19 99-73 100-30 1-46-15-58-35L72 0H24l1-261h50v104c11-23 29-37 60-37zM114-30c31 0 40-27 40-66 0-37-7-63-39-63s-41 28-41 65c0 36 8 64 40 64" id="bb"/><path fill="#3a414a" d="M135-150c-39-12-60 13-60 57V0H25l-1-190h47c2 13-1 29 3 40 6-28 27-53 61-41v41" id="bc"/><g id="C"><use transform="matrix(0.06172839506172839,0,0,0.06172839506172839,0,0)" xlink:href="#aX"/><use transform="matrix(0.06172839506172839,0,0,0.06172839506172839,19.753086419753085,0)" xlink:href="#aY"/><use transform="matrix(0.06172839506172839,0,0,0.06172839506172839,32.098765432098766,0)" xlink:href="#aW"/><use transform="matrix(0.06172839506172839,0,0,0.06172839506172839,44.44444444444444,0)" xlink:href="#aW"/><use transform="matrix(0.06172839506172839,0,0,0.06172839506172839,56.79012345679012,0)" xlink:href="#aZ"/><use transform="matrix(0.06172839506172839,0,0,0.06172839506172839,69.1358024691358,0)" xlink:href="#ba"/><use transform="matrix(0.06172839506172839,0,0,0.06172839506172839,82.65432098765432,0)" xlink:href="#aY"/><use transform="matrix(0.06172839506172839,0,0,0.06172839506172839,95,0)" xlink:href="#bb"/><use transform="matrix(0.06172839506172839,0,0,0.06172839506172839,108.51851851851852,0)" xlink:href="#aU"/><use transform="matrix(0.06172839506172839,0,0,0.06172839506172839,122.03703703703704,0)" xlink:href="#aZ"/><use transform="matrix(0.06172839506172839,0,0,0.06172839506172839,134.3827160493827,0)" xlink:href="#bc"/><use transform="matrix(0.06172839506172839,0,0,0.06172839506172839,143.02469135802468,0)" xlink:href="#aT"/></g><g id="D"><use transform="matrix(0.06172839506172839,0,0,0.06172839506172839,0,0)" xlink:href="#aK"/><use transform="matrix(0.06172839506172839,0,0,0.06172839506172839,11.11111111111111,0)" xlink:href="#aL"/><use transform="matrix(0.06172839506172839,0,0,0.06172839506172839,23.45679012345679,0)" xlink:href="#aP"/><use transform="matrix(0.06172839506172839,0,0,0.06172839506172839,35.80246913580247,0)" xlink:href="#aQ"/><use transform="matrix(0.06172839506172839,0,0,0.06172839506172839,41.97530864197531,0)" xlink:href="#aF"/><use transform="matrix(0.06172839506172839,0,0,0.06172839506172839,54.32098765432099,0)" xlink:href="#aR"/><use transform="matrix(0.06172839506172839,0,0,0.06172839506172839,59.19753086419753,0)" xlink:href="#aP"/><use transform="matrix(0.06172839506172839,0,0,0.06172839506172839,71.54320987654322,0)" xlink:href="#aS"/><use transform="matrix(0.06172839506172839,0,0,0.06172839506172839,83.8888888888889,0)" xlink:href="#aG"/></g><path fill="#3a414a" d="M135-194c87-1 58 113 63 194h-50c-7-57 23-157-34-157-59 0-34 97-39 157H25l-1-190h47c2 12-1 28 3 38 12-26 28-41 61-42" id="bd"/><path fill="#3a414a" d="M25-224v-37h50v37H25zM25 0v-190h50V0H25" id="be"/><path fill="#3a414a" d="M144 0l-44-69L55 0H2l70-98-66-92h53l41 62 40-62h54l-67 91 71 99h-54" id="bf"/><path fill="#3a414a" d="M14-72v-43h91v43H14" id="bg"/><g id="E"><use transform="matrix(0.06172839506172839,0,0,0.06172839506172839,0,0)" xlink:href="#bd"/><use transform="matrix(0.06172839506172839,0,0,0.06172839506172839,13.518518518518517,0)" xlink:href="#ba"/><use transform="matrix(0.06172839506172839,0,0,0.06172839506172839,27.037037037037035,0)" xlink:href="#be"/><use transform="matrix(0.06172839506172839,0,0,0.06172839506172839,33.20987654320987,0)" xlink:href="#bf"/><use transform="matrix(0.06172839506172839,0,0,0.06172839506172839,45.55555555555555,0)" xlink:href="#bg"/><use transform="matrix(0.06172839506172839,0,0,0.06172839506172839,52.90123456790123,0)" xlink:href="#be"/><use transform="matrix(0.06172839506172839,0,0,0.06172839506172839,59.07407407407407,0)" xlink:href="#bd"/><use transform="matrix(0.06172839506172839,0,0,0.06172839506172839,72.59259259259258,0)" xlink:href="#ba"/><use transform="matrix(0.06172839506172839,0,0,0.06172839506172839,86.1111111111111,0)" xlink:href="#bc"/><use transform="matrix(0.06172839506172839,0,0,0.06172839506172839,94.75308641975307,0)" xlink:href="#aY"/><use transform="matrix(0.06172839506172839,0,0,0.06172839506172839,107.09876543209876,0)" xlink:href="#aW"/><use transform="matrix(0.06172839506172839,0,0,0.06172839506172839,119.44444444444444,0)" xlink:href="#aW"/></g><path fill="#333" d="M88-194c31-1 46 15 58 34l-1-101h50l1 261h-48c-2-10 0-23-3-31C134-8 116 4 84 4 32 4 16-41 15-95c0-56 19-97 73-99zm17 164c33 0 40-30 41-66 1-37-9-64-41-64s-38 30-39 65c0 43 13 65 39 65" id="bh"/><path fill="#333" d="M110-194c64 0 96 36 96 99 0 64-35 99-97 99-61 0-95-36-95-99 0-62 34-99 96-99zm-1 164c35 0 45-28 45-65 0-40-10-65-43-65-34 0-45 26-45 65 0 36 10 65 43 65" id="bi"/><path fill="#333" d="M190-63c-7 42-38 67-86 67-59 0-84-38-90-98-12-110 154-137 174-36l-49 2c-2-19-15-32-35-32-30 0-35 28-38 64-6 74 65 87 74 30" id="bj"/><path fill="#333" d="M137-138c1-29-70-34-71-4 15 46 118 7 119 86 1 83-164 76-172 9l43-7c4 19 20 25 44 25 33 8 57-30 24-41C81-84 22-81 20-136c-2-80 154-74 161-7" id="bk"/><path fill="#333" d="M24 0v-54h51V0H24" id="bl"/><path fill="#333" d="M147 0L96-86 75-71V0H25v-261h50v150l67-79h53l-66 74L201 0h-54" id="bm"/><path fill="#333" d="M133-34C117-15 103 5 69 4 32 3 11-16 11-54c-1-60 55-63 116-61 1-26-3-47-28-47-18 1-26 9-28 27l-52-2c7-38 36-58 82-57s74 22 75 68l1 82c-1 14 12 18 25 15v27c-30 8-71 5-69-32zm-48 3c29 0 43-24 42-57-32 0-66-3-65 30 0 17 8 27 23 27" id="bn"/><path fill="#333" d="M135-150c-39-12-60 13-60 57V0H25l-1-190h47c2 13-1 29 3 40 6-28 27-53 61-41v41" id="bo"/><path fill="#333" d="M25 0v-261h50V0H25" id="bp"/><path fill="#333" d="M85 4C-2 5 27-109 22-190h50c7 57-23 150 33 157 60-5 35-97 40-157h50l1 190h-47c-2-12 1-28-3-38-12 25-28 42-61 42" id="bq"/><path fill="#333" d="M220-157c-53 9-28 100-34 157h-49v-107c1-27-5-49-29-50C55-147 81-57 75 0H25l-1-190h47c2 12-1 28 3 38 10-53 101-56 108 0 13-22 24-43 59-42 82 1 51 116 57 194h-49v-107c-1-25-5-48-29-50" id="br"/><g id="F"><use transform="matrix(0.04938271604938272,0,0,0.04938271604938272,0,0)" xlink:href="#bh"/><use transform="matrix(0.04938271604938272,0,0,0.04938271604938272,10.814814814814815,0)" xlink:href="#bi"/><use transform="matrix(0.04938271604938272,0,0,0.04938271604938272,21.62962962962963,0)" xlink:href="#bj"/><use transform="matrix(0.04938271604938272,0,0,0.04938271604938272,31.506172839506174,0)" xlink:href="#bk"/><use transform="matrix(0.04938271604938272,0,0,0.04938271604938272,41.38271604938272,0)" xlink:href="#bl"/><use transform="matrix(0.04938271604938272,0,0,0.04938271604938272,46.320987654320994,0)" xlink:href="#bm"/><use transform="matrix(0.04938271604938272,0,0,0.04938271604938272,56.19753086419754,0)" xlink:href="#bn"/><use transform="matrix(0.04938271604938272,0,0,0.04938271604938272,66.07407407407408,0)" xlink:href="#bo"/><use transform="matrix(0.04938271604938272,0,0,0.04938271604938272,72.98765432098766,0)" xlink:href="#bp"/><use transform="matrix(0.04938271604938272,0,0,0.04938271604938272,77.92592592592592,0)" xlink:href="#bn"/><use transform="matrix(0.04938271604938272,0,0,0.04938271604938272,87.80246913580247,0)" xlink:href="#bo"/><use transform="matrix(0.04938271604938272,0,0,0.04938271604938272,94.71604938271605,0)" xlink:href="#bq"/><use transform="matrix(0.04938271604938272,0,0,0.04938271604938272,105.53086419753085,0)" xlink:href="#bl"/><use transform="matrix(0.04938271604938272,0,0,0.04938271604938272,110.46913580246914,0)" xlink:href="#bj"/><use transform="matrix(0.04938271604938272,0,0,0.04938271604938272,120.34567901234568,0)" xlink:href="#bi"/><use transform="matrix(0.04938271604938272,0,0,0.04938271604938272,131.1604938271605,0)" xlink:href="#br"/></g><g id="G"><use transform="matrix(0.04938271604938272,0,0,0.04938271604938272,0,0)" xlink:href="#bm"/><use transform="matrix(0.04938271604938272,0,0,0.04938271604938272,9.876543209876544,0)" xlink:href="#bn"/><use transform="matrix(0.04938271604938272,0,0,0.04938271604938272,19.75308641975309,0)" xlink:href="#bo"/><use transform="matrix(0.04938271604938272,0,0,0.04938271604938272,26.666666666666668,0)" xlink:href="#bp"/><use transform="matrix(0.04938271604938272,0,0,0.04938271604938272,31.60493827160494,0)" xlink:href="#bn"/><use transform="matrix(0.04938271604938272,0,0,0.04938271604938272,41.48148148148149,0)" xlink:href="#bo"/><use transform="matrix(0.04938271604938272,0,0,0.04938271604938272,48.39506172839507,0)" xlink:href="#bq"/><use transform="matrix(0.04938271604938272,0,0,0.04938271604938272,59.209876543209894,0)" xlink:href="#bl"/><use transform="matrix(0.04938271604938272,0,0,0.04938271604938272,64.14814814814815,0)" xlink:href="#bj"/><use transform="matrix(0.04938271604938272,0,0,0.04938271604938272,74.0246913580247,0)" xlink:href="#bi"/><use transform="matrix(0.04938271604938272,0,0,0.04938271604938272,84.8395061728395,0)" xlink:href="#br"/></g><g id="H"><use transform="matrix(0.06172839506172839,0,0,0.06172839506172839,0,0)" xlink:href="#aT"/><use transform="matrix(0.06172839506172839,0,0,0.06172839506172839,13.518518518518517,0)" xlink:href="#aU"/><use transform="matrix(0.06172839506172839,0,0,0.06172839506172839,27.037037037037035,0)" xlink:href="#aV"/><use transform="matrix(0.06172839506172839,0,0,0.06172839506172839,39.382716049382715,0)" xlink:href="#aW"/></g><g id="I"><use transform="matrix(0.06172839506172839,0,0,0.06172839506172839,0,0)" xlink:href="#aX"/><use transform="matrix(0.06172839506172839,0,0,0.06172839506172839,19.753086419753085,0)" xlink:href="#aY"/><use transform="matrix(0.06172839506172839,0,0,0.06172839506172839,32.098765432098766,0)" xlink:href="#aW"/><use transform="matrix(0.06172839506172839,0,0,0.06172839506172839,44.44444444444444,0)" xlink:href="#aW"/><use transform="matrix(0.06172839506172839,0,0,0.06172839506172839,56.79012345679012,0)" xlink:href="#aZ"/><use transform="matrix(0.06172839506172839,0,0,0.06172839506172839,69.1358024691358,0)" xlink:href="#ba"/><use transform="matrix(0.06172839506172839,0,0,0.06172839506172839,82.65432098765432,0)" xlink:href="#aY"/><use transform="matrix(0.06172839506172839,0,0,0.06172839506172839,95,0)" xlink:href="#bb"/><use transform="matrix(0.06172839506172839,0,0,0.06172839506172839,108.51851851851852,0)" xlink:href="#aU"/><use transform="matrix(0.06172839506172839,0,0,0.06172839506172839,122.03703703703704,0)" xlink:href="#aZ"/><use transform="matrix(0.06172839506172839,0,0,0.06172839506172839,134.3827160493827,0)" xlink:href="#bc"/><use transform="matrix(0.06172839506172839,0,0,0.06172839506172839,143.02469135802468,0)" xlink:href="#aT"/></g></defs></g></svg>