<svg xmlns="http://www.w3.org/2000/svg" xmlns:xlink="http://www.w3.org/1999/xlink" xmlns:lucid="lucid" width="1586.46" height="1395.24"><g transform="translate(-244.56378639224965 -293.3720999663474)" lucid:page-tab-id="0_0"><path d="M0 0h3741.73v2645.67H0z" fill="#fff"/><path d="M869 319.37a6 6 0 0 1 6-6h497.88a6 6 0 0 1 6 6V1662.6a6 6 0 0 1-6 6H875a6 6 0 0 1-6-6z" fill="#e3fae3"/><path d="M891.88 313.44h11.87m11.88 0h11.88m11.88 0h11.88m11.88 0H975m11.9 0h11.86m11.88 0l11.88-.02m11.87 0h11.87m11.88 0h11.87m11.88 0h11.88m11.87 0h11.88m11.88 0h11.88m11.88-.02h11.88m11.87 0h11.9m11.87 0h11.87m11.88 0h11.88m11.87 0h11.88m11.88 0h11.87m11.88-.02h11.87m11.88 0h11.88m11.88 0h11.88m11.88 0h5.94l.93.07.93.22.87.36.8.5.72.6.6.72.5.8.36.87.22.9v6m0 12.02v12m0 12v12m0 12v12m0 12v12m0 12v12m0 12v12m0 12v12.02m0 12v12m0 12v12m0 12l.02 12m0 12v12m0 12v12m0 12v12.02m0 12v12m0 12v12m0 12v12m0 12v12m0 12v12m0 12v12m0 12.02v12m0 12v12m0 12v12m0 12v12m0 12v12m0 12l.02 12m0 12.02v12m0 12v12m0 12v12m0 12v12m0 12v12m0 12v12m0 12v12.02m0 12v12m0 12v12m0 12v12m0 12v12m0 12v12m0 12v12.02m0 12v12m0 12v12m.02 12v12m0 12v12m0 12v12m0 12v12m0 12.02v12m0 12v12m0 12v12m0 12v12m0 12v12m0 12v12m0 12v12.02m0 12v12m0 12v12m0 12v12m0 12v12m.02 12v6l-.08.95-.22.92-.36.87-.5.8-.6.7-.72.63-.8.5-.87.35-.92.22h-5.92m-11.88 0h-11.88m-11.87 0h-11.88m-11.88 0h-11.88m-11.88 0h-11.88m-11.87 0l-11.9.02m-11.87 0h-11.87m-11.88 0h-11.88m-11.87 0h-11.88m-11.87 0h-11.88m-11.88 0h-11.87m-11.88.02h-11.88m-11.88 0h-11.88m-11.88 0h-11.87m-11.9 0h-11.87m-11.87 0h-11.88m-11.88 0h-11.87m-11.88.02h-11.88m-11.87 0h-11.88m-11.88 0h-11.87m-11.88 0h-11.9m-11.86 0H875l-.94-.06-.9-.22-.88-.36-.8-.5-.72-.6-.6-.72-.5-.8-.37-.87-.23-.92v-6m0-12v-12m0-12v-12m0-12v-12m0-12v-12m0-12.02v-12m0-12v-12m0-12v-12m0-12v-12m0-12v-12m0-12v-12m0-12v-12.02m0-12v-12m0-12v-12m0-12v-12m-.02-12v-12m0-12v-12m0-12v-12m0-12v-12m0-12v-12m0-12v-12m0-12.02v-12m0-12v-12m0-12v-12m0-12v-12m0-12v-12m0-12v-12m0-12v-12.02m0-12v-12m0-12v-12m-.02-12v-12m0-12v-12m0-12v-12m0-12v-12.02m0-12v-12m0-12v-12m0-12v-12m0-12v-12m0-12v-12m0-12v-12m0-12.02v-12m0-12v-12m0-12v-12m0-12v-12m0-12v-12m-.02-12v-12m0-12.02v-12m0-12v-12m0-12v-12m0-12v-12m0-12v-12m0-12v-12m0-12v-12.02m0-12v-12m0-12v-12m0-12v-12m0-12v-6l.07-.95.22-.9.35-.88.5-.8.6-.72.72-.6.8-.5.88-.36.9-.22H880" stroke="#008a0e" stroke-width="3" fill="none"/><use xlink:href="#a" transform="matrix(1,0,0,1,869.0000000000232,333.3720999663474) translate(200.14074074074074 28.62222222222223)"/><path d="M1188.97 1291.7v-12.6l-13.3-14.63-21.8 48.1 21.8 48.1 13.3-14.63v-12.7l-4.43 3.08v-6.15l4.43-2.3v-12.7l-4.43.1v-5.7l4.43.2v-12.4l-4.43-2.3v-4.34l4.43.86z" fill="#2e73b8"/><path d="M1151.9 1372.58l23.77-11.88v-96.24l-23.76-11.88-26.88 60.96 26.9 59.04z" fill="#5294cf"/><path d="M1118.66 1372.58h33.26v-120h-33.26l-17.22 60.96 17.22 59.04z" fill="#2e73b8"/><path d="M1118.64 1372.58l-23.96-11.88-7.52-47.16 7.52-49.08 23.9-11.88.06 120z" fill="#205b99"/><path d="M1184.55 1330.34l-8.9 4.33-23.75 5.1h-33.28l-23.22-5.1-.42-.1-.32-.1v-18.08l23.96 1.72h33.27l23.74-1.73 13.36-1.16h-4.45v-5.4h4.34l-13.26-.95-23.74-.78h-33.07l-24.17.58v-18.28h.32l23.85-5.68h33.06l23.74 5.68 8.9 4.7v-2.97l4.46-.38-13.36-9.33-23.74-7.7h-33.07l-24.17 7.98v-18.27l-11.66 14.62v12.7l3.4.38v3.08l-3.4 1.92v12.7h3.4v5.4l-3.4.08v12.6l3.4 1.93v3.17l-3.4.4v12.6l11.66 14.6v-18.27l23.96 7.4h33.27l23.74-7.4 13.36-8.94-4.45-.4v-2.68z" fill="#19486f"/><use xlink:href="#b" transform="matrix(1,0,0,1,1083.0000000000232,1372.5804748328012) translate(2.4135802469135683 17.77777777777778)"/><path d="M1133.7 605.33c-10.84 0-28.1-2.46-28.32-9.1l-7.73-57.2c-.14-.97.43-1.86 1.37-2.06.94-.14 1.88.48 2.1 1.43.8 3.3 13.65 7.87 32.64 7.87 19 0 31.86-4.58 32.65-7.87.23-.95 1.17-1.57 2.1-1.43.95.2 1.52 1.1 1.38 2.05l-7.87 57.22c0 2.26-2.1 4.17-6 5.74-1.8.7-3.38 1.17-5.26 1.58-5.92 1.3-10.98 1.77-17.05 1.77zm-31.93-61.66l6.93 52.3v.2c0 2.05 9.75 5.8 24.92 5.8 5.78.08 10.62-.47 16.25-1.63 1.73-.4 3.18-.9 4.84-1.57 3.12-1.23 3.84-2.32 3.84-2.67v-.2l7-52.23c-6.57 3.9-19.8 6-31.92 6-12.13 0-25.28-2.1-31.85-6z" stroke="#fff" stroke-opacity="0" fill="#3f8624"/><path d="M1133.7 549.66c-16.14 0-34.24-3.65-35.97-10.4V538.32v-.23c0-7.5 19.03-12.77 36.12-12.77 17.1 0 35.98 5.26 35.98 12.77v.22l-.07.7v.23c-1.88 6.76-19.98 10.4-36.05 10.4zm-32.66-11.2c1.1 3.3 13.85 7.8 32.67 7.8s31.6-4.5 32.67-7.8v-.45c-.22-3.3-13.63-9.26-32.66-9.26-19.03 0-32.5 5.96-32.73 9.27zM1169.88 573.2c-8.07 0-25.83-8.02-36.92-13.47l1.5-3.06c15.3 7.53 33.35 14.5 36.45 13.18-.23-.48-1.4-2.02-6.82-4.97l-.24-.16 1.7-2.97.24.17c5.47 3 8.07 5.32 8.53 7.5.17.95-.07 1.84-.7 2.6-1.03.93-2.3 1.34-3.72 1.18z" stroke="#fff" stroke-opacity="0" fill="#3f8624"/><path d="M1133.7 561.93c-2.03 0-3.7-1.66-3.7-3.7 0-2.03 1.67-3.7 3.7-3.7 2.04 0 3.7 1.67 3.7 3.7 0 2.04-1.66 3.7-3.7 3.7zm0-3.98c-.17 0-.3.12-.3.28 0 .33.6.33.6 0v-.03c0-.16-.13-.3-.3-.3z" stroke="#fff" stroke-opacity="0" fill="#3f8624"/><use xlink:href="#c" transform="matrix(1,0,0,1,1067.6500000000233,614.3333333333721) translate(39.51851851851852 17.77777777777778)"/><path d="M1133.7 768.83c-10.84 0-28.1-2.46-28.32-9.1l-7.73-57.2c-.14-.97.43-1.86 1.37-2.06.94-.14 1.88.48 2.1 1.43.8 3.3 13.65 7.87 32.64 7.87 19 0 31.86-4.58 32.65-7.87.23-.95 1.17-1.57 2.1-1.43.95.2 1.52 1.1 1.38 2.05l-7.87 57.22c0 2.26-2.1 4.17-6 5.74-1.8.7-3.38 1.17-5.26 1.58-5.92 1.3-10.98 1.77-17.05 1.77zm-31.93-61.66l6.93 52.3v.2c0 2.05 9.75 5.8 24.92 5.8 5.78.08 10.62-.47 16.25-1.63 1.73-.4 3.18-.9 4.84-1.57 3.12-1.23 3.84-2.32 3.84-2.67v-.2l7-52.23c-6.57 3.9-19.8 6-31.92 6-12.13 0-25.28-2.1-31.85-6z" stroke="#fff" stroke-opacity="0" fill="#3f8624"/><path d="M1133.7 713.16c-16.14 0-34.24-3.65-35.97-10.4V701.82v-.23c0-7.5 19.03-12.77 36.12-12.77 17.1 0 35.98 5.26 35.98 12.77v.22l-.07.7v.23c-1.88 6.76-19.98 10.4-36.05 10.4zm-32.66-11.2c1.1 3.3 13.85 7.8 32.67 7.8s31.6-4.5 32.67-7.8v-.45c-.22-3.3-13.63-9.26-32.66-9.26-19.03 0-32.5 5.96-32.73 9.27zM1169.88 736.7c-8.07 0-25.83-8.02-36.92-13.47l1.5-3.06c15.3 7.53 33.35 14.5 36.45 13.18-.23-.48-1.4-2.02-6.82-4.97l-.24-.16 1.7-2.97.24.17c5.47 3 8.07 5.32 8.53 7.5.17.95-.07 1.84-.7 2.6-1.03.93-2.3 1.34-3.72 1.18z" stroke="#fff" stroke-opacity="0" fill="#3f8624"/><path d="M1133.7 725.43c-2.03 0-3.7-1.66-3.7-3.7 0-2.03 1.67-3.7 3.7-3.7 2.04 0 3.7 1.67 3.7 3.7 0 2.04-1.66 3.7-3.7 3.7zm0-3.98c-.17 0-.3.12-.3.28 0 .33.6.33.6 0v-.03c0-.16-.13-.3-.3-.3z" stroke="#fff" stroke-opacity="0" fill="#3f8624"/><use xlink:href="#d" transform="matrix(1,0,0,1,1067.6500000000233,777.8333333333336) translate(29.67283950617285 17.77777777777778)"/><path d="M1133.7 932.33c-10.84 0-28.1-2.46-28.32-9.1l-7.73-57.2c-.14-.97.43-1.86 1.37-2.06.94-.14 1.88.48 2.1 1.43.8 3.3 13.65 7.87 32.64 7.87 19 0 31.86-4.58 32.65-7.87.23-.95 1.17-1.57 2.1-1.43.95.2 1.52 1.1 1.38 2.05l-7.87 57.22c0 2.26-2.1 4.17-6 5.74-1.8.7-3.38 1.17-5.26 1.58-5.92 1.3-10.98 1.77-17.05 1.77zm-31.93-61.66l6.93 52.3v.2c0 2.05 9.75 5.8 24.92 5.8 5.78.08 10.62-.47 16.25-1.63 1.73-.4 3.18-.9 4.84-1.57 3.12-1.23 3.84-2.32 3.84-2.67v-.2l7-52.23c-6.57 3.9-19.8 6-31.92 6-12.13 0-25.28-2.1-31.85-6z" stroke="#fff" stroke-opacity="0" fill="#3f8624"/><path d="M1133.7 876.66c-16.14 0-34.24-3.65-35.97-10.4V865.32v-.23c0-7.5 19.03-12.77 36.12-12.77 17.1 0 35.98 5.26 35.98 12.77v.22l-.07.7v.23c-1.88 6.76-19.98 10.4-36.05 10.4zm-32.66-11.2c1.1 3.3 13.85 7.8 32.67 7.8s31.6-4.5 32.67-7.8v-.45c-.22-3.3-13.63-9.26-32.66-9.26-19.03 0-32.5 5.96-32.73 9.27zM1169.88 900.2c-8.07 0-25.83-8.02-36.92-13.47l1.5-3.06c15.3 7.53 33.35 14.5 36.45 13.18-.23-.48-1.4-2.02-6.82-4.97l-.24-.16 1.7-2.97.24.17c5.47 3 8.07 5.32 8.53 7.5.17.95-.07 1.84-.7 2.6-1.03.93-2.3 1.34-3.72 1.18z" stroke="#fff" stroke-opacity="0" fill="#3f8624"/><path d="M1133.7 888.93c-2.03 0-3.7-1.66-3.7-3.7 0-2.03 1.67-3.7 3.7-3.7 2.04 0 3.7 1.67 3.7 3.7 0 2.04-1.66 3.7-3.7 3.7zm0-3.98c-.17 0-.3.12-.3.28 0 .33.6.33.6 0v-.03c0-.16-.13-.3-.3-.3z" stroke="#fff" stroke-opacity="0" fill="#3f8624"/><use xlink:href="#e" transform="matrix(1,0,0,1,1067.6500000000233,941.3333333332951) translate(11.802469135802468 17.77777777777778)"/><path d="M692 568.83h120v120H692v-120z" stroke="#fff" stroke-opacity="0" fill="#693cc5"/><path d="M765.82 665.9l-2.85-1.5c1.6-3 2.7-5.72 3.64-9.04l3.1.9c-1.03 3.55-2.17 6.4-3.88 9.65zm2.98-29.28c-.57-9.42-3.23-17.25-8.43-25.08l2.66-1.73c5.55 8.3 8.37 16.65 8.97 26.6zM747.7 598c-2.45-1.82-4.67-3.17-7.4-4.53l1.46-2.86c2.92 1.44 5.26 2.87 7.86 4.83zM760.8 640.67c-5.3-5.27-10.82-8.73-17.87-11.2l1-3.04c7.5 2.64 13.38 6.3 19.03 11.92zM774 659.78c-.6-1.6-1.28-3.07-2.02-4.56l2.87-1.43c.83 1.64 1.46 3.07 2.13 4.8z" stroke="#fff" stroke-opacity="0" fill="#fff"/><path d="M764.9 666.67l-1-3.02c4.02-1.36 7.24-3.1 10.6-5.7l1.96 2.5c-3.66 2.86-7.15 4.75-11.55 6.22zM714.04 628.03l-.73-3.1c3.75-.92 7-1.34 10.85-1.42l.07 3.2c-3.6.08-6.66.48-10.18 1.33zM740.3 617.86l-2.7-1.75c2.47-4 5.06-7.1 8.6-10.23l2.1 2.42c-3.3 2.92-5.7 5.8-8 9.56zM764.08 598.88l-1.1-3c2.55-.96 4.76-1.6 7.42-2.12l.6 3.2c-2.5.47-4.55 1.05-6.92 1.92zM732.4 663.23c-2.75-6.38-4-12.24-4.1-19.2.04-2.67.34-4.95.98-7.54.1-.58.24-1.15.35-1.75l3.2.63c-.1.6-.24 1.17-.35 1.77-.6 2.36-.87 4.44-.92 6.9.07 6.5 1.23 12.03 3.8 18.04z" stroke="#fff" stroke-opacity="0" fill="#fff"/><path d="M752 668.83c-22.08 0-40-17.94-40-39.97 0-.88 0-1.6.08-2.48 1.04-17.07 12.08-31 28.48-35.9 10.8-3.2 21.2-2.07 30.96 3.45 19.28 10.82 26.16 35.17 15.36 54.48-2.72 4.9-5.92 8.66-10.4 12.1-7.36 5.6-15.2 8.33-24.48 8.33zm0-76.82c-3.76 0-6.96.5-10.48 1.6-15.12 4.58-25.28 17.32-26.24 33.02 0 .8-.08 1.52-.08 2.24 0 20.27 16.48 36.77 36.8 36.77 4.24 0 7.84-.56 11.84-2 4.08-1.37 7.28-3.05 10.64-5.7 9.36-7.2 14.32-17.3 14.32-29.07 0-20.35-16.48-36.85-36.8-36.85z" stroke="#fff" stroke-opacity="0" fill="#fff"/><path d="M755.9 610.32c-3.92 0-7.1-3.17-7.1-7.1 0-3.9 3.18-7.07 7.1-7.07 3.9 0 7.08 3.17 7.08 7.08v.02c0 3.9-3.17 7.07-7.08 7.07zm0-10.96c-2.15 0-3.9 1.75-3.9 3.9 0 2.14 1.75 3.87 3.9 3.87 2.13 0 3.87-1.73 3.87-3.88 0-2.14-1.74-3.9-3.88-3.9zM734.06 632.64c-3.9 0-7.08-3.17-7.08-7.1 0-3.9 3.17-7.07 7.08-7.07 3.92 0 7.1 3.17 7.1 7.08-.02 3.92-3.18 7.08-7.1 7.1zm0-10.97c-2.14 0-3.88 1.74-3.88 3.88 0 2.14 1.74 3.9 3.88 3.9 2.14 0 3.9-1.76 3.9-3.9v-.03c0-2.15-1.76-3.9-3.9-3.9zM769.25 653.15c-3.92.02-7.1-3.16-7.1-7.07-.02-3.9 3.16-7.1 7.07-7.1 3.9-.02 7.1 3.16 7.1 7.07v.03c0 3.9-3.16 7.07-7.07 7.07zm0-10.95h-.02c-2.14 0-3.88 1.74-3.88 3.88 0 2.15 1.74 3.88 3.88 3.88 2.14 0 3.9-1.73 3.9-3.88 0-2.14-1.74-3.88-3.88-3.88z" stroke="#fff" stroke-opacity="0" fill="#fff"/><use xlink:href="#f" transform="matrix(1,0,0,1,662,697.8333333333336) translate(49.29012345679012 17.77777777777778)"/><use xlink:href="#g" transform="matrix(1,0,0,1,662,697.8333333333336) translate(35.18518518518518 44.44444444444444)"/><path d="M333.98 593.43c0 13.68-11.12 24.72-24.92 24.72-13.8 0-24.92-11.04-24.92-24.72 0-13.56 11.13-24.6 24.92-24.6 13.8 0 24.92 11.04 24.92 24.6m-6.67 33.12l-18.24 25.32-18.24-25.32h-26.26v62.28h89v-62.28z" stroke="#000" stroke-opacity="0" stroke-width="3" fill="#59b4d9"/><path d="M264.56 626.54v62.3h89v-62.3l-27.32-17.9 4.72-21.73-21.27-16.72-23.24 18.87 5.96 20.64z" stroke="#000" stroke-opacity="0" stroke-width="0" fill-opacity="0"/><use xlink:href="#h" transform="matrix(1,0,0,1,234.56378639224965,697.8333333333336) translate(55.55 14.4)"/><path d="M1188.97 1494.6V1482l-13.3-14.62-21.8 48.1 21.8 48.1 13.3-14.63v-12.7l-4.43 3.08v-6.16l4.43-2.3v-12.7l-4.43.1v-5.68l4.43.18v-12.4l-4.43-2.32v-4.33l4.43.87z" fill="#2e73b8"/><path d="M1151.9 1575.5l23.77-11.9v-96.23l-23.76-11.88-26.88 60.95 26.9 59.04z" fill="#5294cf"/><path d="M1118.66 1575.5h33.26v-120h-33.26l-17.22 60.95 17.22 59.04z" fill="#2e73b8"/><path d="M1118.64 1575.5l-23.96-11.9-7.52-47.15 7.52-49.08 23.9-11.88.06 120z" fill="#205b99"/><path d="M1184.55 1533.25l-8.9 4.32-23.75 5.1h-33.28l-23.22-5.1-.42-.1-.32-.1v-18.07l23.96 1.73h33.27l23.74-1.73 13.36-1.16h-4.45v-5.38h4.34l-13.26-.97-23.74-.78h-33.07l-24.17.58v-18.27h.32l23.85-5.68h33.06l23.74 5.68 8.9 4.7v-2.97l4.46-.4-13.36-9.32-23.74-7.7h-33.07l-24.17 8v-18.3l-11.66 14.63v12.7l3.4.4v3.07l-3.4 1.92v12.7h3.4v5.38l-3.4.1v12.6l3.4 1.92v3.18l-3.4.38v12.6l11.66 14.63v-18.28l23.96 7.4h33.27l23.74-7.4 13.36-8.95-4.45-.38v-2.7z" fill="#19486f"/><use xlink:href="#i" transform="matrix(1,0,0,1,1083.0000000000234,1575.4856297334645) translate(25.870370370370374 17.77777777777778)"/><path d="M1626.8 668.83h120v120h-120v-120z" stroke="#fff" stroke-opacity="0" stroke-width="2" fill="#d86613"/><path d="M1723.6 768.83h-19.7c-.65 0-1.16-.32-1.42-.88l-27.9-58.32h-11.8c-.88 0-1.6-.72-1.6-1.6v-17.6c0-.88.72-1.6 1.6-1.6h24.66c.64 0 1.15.32 1.4.88l27.8 58.33h6.97c.9 0 1.6.72 1.6 1.6v17.6c0 .88-.7 1.6-1.6 1.6zm-18.68-3.2h17.1v-14.4h-6.4c-.65 0-1.17-.32-1.42-.88l-27.78-58.32h-22.03v14.4h11.2c.64 0 1.15.32 1.47.88z" stroke="#fff" stroke-opacity="0" stroke-width="2" fill="#fff"/><path d="M1670.77 768.83h-20.8c-.55 0-1.05-.3-1.37-.73-.32-.53-.32-1.12-.07-1.6l21.77-45.46c.25-.6.82-.93 1.42-.93.64 0 1.17.35 1.45.9l10.4 21.43c.26.44.26.92 0 1.4l-11.35 23.98c-.22.64-.78 1.03-1.45 1.03zm-18.24-3.2h17.24l10.6-22.37-8.6-17.88z" stroke="#fff" stroke-opacity="0" stroke-width="2" fill="#fff"/><use xlink:href="#j" transform="matrix(1,0,0,1,1596.8092900192132,797.8333333333336) translate(5.5864197530864175 17.77777777777778)"/><use xlink:href="#k" transform="matrix(1,0,0,1,1596.8092900192132,797.8333333333336) translate(78.30246913580247 17.77777777777778)"/><path d="M1403.32 729.33H1171.6v-1h231.72zm207.1 0h-32.58v-1h32.6z" stroke="#3a414a" stroke-width=".05" fill="#3a414a"/><path d="M1171.6 729.2l-1.2-.87h1.2z" fill="#3a414a"/><path d="M1171.63 729.26l-1.3-.95h1.3zm-1.14-.9l1.08.8v-.8z" stroke="#3a414a" stroke-width=".05" fill="#3a414a"/><path d="M1625.2 728.83l-14.27 4.64v-9.27z" fill="#3a414a"/><path d="M1626.8 728.83l-16.37 5.33V723.5zm-15.37 3.95l12.14-3.95-12.14-3.94z" stroke="#3a414a" stroke-width=".05" fill="#3a414a"/><use xlink:href="#l" transform="matrix(1,0,0,1,1403.3164872490624,718.166666666667) translate(0 14.222222222222223)"/><use xlink:href="#m" transform="matrix(1,0,0,1,1403.3164872490624,718.166666666667) translate(60.14814814814815 14.222222222222223)"/><use xlink:href="#n" transform="matrix(1,0,0,1,1403.3164872490624,718.166666666667) translate(128.19753086419755 14.222222222222223)"/><path d="M1412.68 892.8l-225.2.03v-1l225.2-.02zm407.36-164.4l1 .25.94.4.87.52.77.67.67.77.52.88.4.94.23 1.02.08 152.5-.08 1-.24 1-.38.94-.53.87-.68.78-.77.66-.87.53-.94.4-1.02.23-282.26.03v-1l282.15-.04.83-.2.8-.33.73-.45.65-.56.57-.65.46-.74.33-.8.2-.84.07-.9-.08-152.35-.2-.82-.32-.8-.46-.73-.56-.65-.64-.57-.74-.45-.8-.33-.83-.2-.9-.07h-71.7v-1h71.75z" stroke="#3a414a" stroke-width=".05" fill="#3a414a"/><path d="M1747.32 729.33h-.5v-1h.5z" fill="#3a414a"/><path d="M1747.35 729.36h-.57v-1.05h.57zm-.52-1v.95h.47v-.94z" stroke="#3a414a" stroke-width=".05" fill="#3a414a"/><path d="M1186.98 896.97l-14.27-4.64 14.28-4.63z" fill="#3a414a"/><path d="M1187.48 897.66l-16.4-5.33 16.4-5.32zm-13.15-5.33l12.15 3.95v-7.9z" stroke="#3a414a" stroke-width=".05" fill="#3a414a"/><use xlink:href="#o" transform="matrix(1,0,0,1,1412.6751288787539,881.6666666666284) translate(0 14.222222222222223)"/><use xlink:href="#p" transform="matrix(1,0,0,1,1412.6751288787539,881.6666666666284) translate(40.39506172839506 14.222222222222223)"/><path d="M1100.7 565.33H962.6a6 6 0 0 0-6 6v51.5a6 6 0 0 1-6 6H828.38" stroke="#3a414a" fill="none"/><path d="M1101.27 565.83h-.58v-1h.44z" stroke="#3a414a" stroke-width=".05" fill="#3a414a"/><path d="M813.62 628.83l14.26-4.63v9.27z" stroke="#3a414a" fill="#3a414a"/><path d="M1100.7 892.33H962.6a6 6 0 0 1-6-6v-251.5a6 6 0 0 0-6-6H828.38" stroke="#3a414a" fill="none"/><path d="M1101.27 892.83h-.58v-1h.44z" stroke="#3a414a" stroke-width=".05" fill="#3a414a"/><path d="M813.62 628.83l14.26-4.63v9.27z" stroke="#3a414a" fill="#3a414a"/><path d="M1100.7 728.83H962.6a6 6 0 0 1-6-6v-88a6 6 0 0 0-6-6H828.38" stroke="#3a414a" fill="none"/><path d="M1101.27 729.33h-.58v-1h.44z" stroke="#3a414a" stroke-width=".05" fill="#3a414a"/><path d="M813.62 628.83l14.26-4.63v9.27z" stroke="#3a414a" fill="#3a414a"/><path d="M516.96 1162.5l51.44-29.17v-58.14l-51.44 29.06v58.23z" fill="#fff"/><path d="M465.6 1133.3l51.4 29.13v-58.16l-51.4-29.03v58.07zM568.05 1075.2L517 1046.34l-51.06 28.88 51.05 28.9 51.05-28.9z" fill="#fff"/><path d="M517 1102.38l48.07-27.16-.05-.03-48.03 27.18z" fill="#fff"/><path d="M468.96 1075.2l-.05.02 48.1 27.16-48.04-27.2z" fill="#fff"/><path d="M568.26 1073.36l-51.3-29.04-51.3 29.04-1.6.96v60l51.4 29.04 1.6.96 1.6-.96 51.4-29.04v-60zm-1.6 59.04l-48 27.24v-54.48l48.12-27.12zm-51.3 27.24l-48.12-27.24v-54.36l48.13 27.12zm-46.42-84.48l48.02-27.12 48.12 27.12-48.12 27.24-48.02-27.24z" fill="#444"/><path d="M517.2 1135.66l27.64-15.65v-31.2l-27.64 15.6v31.26zM489.14 1120l27.64 15.66v-31.25l-27.64-15.6v31.2zM544.54 1088.4L517 1072.8l-27.56 15.57L517 1104l27.54-15.6z" fill="#ffd44f"/><path d="M517 1102.42l24.76-14-.02-.03-24.75 14v.02zM492.23 1088.4l-.02.02 24.78 14v-.02l-24.75-14z" fill="#96bf3d"/><path d="M545.02 1086.5l-28-15.8-28.1 15.8-1.6.94v33.68l28.02 15.86 1.67.94 1.6-.94 28.08-15.86v-33.68zm-1.6 32.74l-24.8 14.05v-28.1l24.8-14zm-28.08 14.05l-24.8-14.06v-28.04l24.8 14zm-23.08-44.92L517 1074.4l24.75 13.98-24.74 14.05-24.8-13.98z" fill="#fff"/><use xlink:href="#q" transform="matrix(1,0,0,1,464.06378639224965,1164.3242866051178) translate(32.660493827160494 17.77777777777778)"/><use xlink:href="#r" transform="matrix(1,0,0,1,464.06378639224965,1164.3242866051178) translate(7.9691358024691255 44.44444444444444)"/><path d="M658.46 1108.96h-87.9v-1h87.9zM1088.2 754.3l-266.52.08-.82.2-.8.33-.74.46-.65.56-.56.65-.44.74-.33.8-.2.85-.07.88-.08 343.63-.24 1-.4.96-.52.87-.67.76-.77.66-.87.54-.93.4-1 .23-1 .06h-60.4v-1h60.37l.88-.06.84-.2.8-.34.73-.45.64-.55.56-.65.46-.74.33-.8.18-.82.08-343.55.07-1 .24-1 .4-.94.53-.87.66-.8.77-.65.87-.54.95-.38 1-.24 266.64-.07z" stroke="#3a414a" stroke-width=".05" fill="#3a414a"/><path d="M570.58 1108.96h-.52v-1h.52z" fill="#3a414a"/><path d="M570.6 1109h-.56v-1.06h.56zm-.5-1v.94h.45v-.95z" stroke="#3a414a" stroke-width=".05" fill="#3a414a"/><path d="M1102.96 753.8l-14.27 4.64v-9.27z" fill="#3a414a"/><path d="M1104.58 753.8l-16.4 5.33v-10.65zm-15.4 3.95l12.16-3.94-12.15-3.94z" stroke="#3a414a" stroke-width=".05" fill="#3a414a"/><use xlink:href="#o" transform="matrix(1,0,0,1,658.460208318824,1097.798244938451) translate(0 14.222222222222223)"/><use xlink:href="#s" transform="matrix(1,0,0,1,658.460208318824,1097.798244938451) translate(40.39506172839506 14.222222222222223)"/><path d="M1066.62 1286.5v1l-336.67-.06v-1zm-446.6-172.6l1 .24.93.4.87.52.78.67.66.77.53.87.38.95.25 1 .07 161.66.07.88.2.84.33.8.45.73.56.66.67.55.73.45.8.33.82.2h27.93v1H630l-1-.25-.95-.4-.87-.52-.78-.66-.66-.78-.53-.87-.38-.94-.24-.98-.08-1-.07-161.58-.2-.8-.33-.8-.45-.75-.56-.66-.67-.56-.73-.45-.8-.34-.84-.2-.88-.08h-48.42v-1h48.46z" stroke="#3a414a" stroke-width=".05" fill="#3a414a"/><path d="M570.58 1114.82h-.52v-1h.52z" fill="#3a414a"/><path d="M570.6 1114.85h-.56v-1.05h.56zm-.5-1v.95h.45v-.95z" stroke="#3a414a" stroke-width=".05" fill="#3a414a"/><path d="M1081.38 1287l-14.26 4.63v-9.27z" fill="#3a414a"/><path d="M1083 1287l-16.38 5.32v-10.64zm-15.38 3.95l12.14-3.95-12.14-3.95z" stroke="#3a414a" stroke-width=".05" fill="#3a414a"/><use xlink:href="#o" transform="matrix(1,0,0,1,658.0493827160494,1276.332835754038) translate(0 14.222222222222223)"/><use xlink:href="#t" transform="matrix(1,0,0,1,658.0493827160494,1276.332835754038) translate(40.39506172839506 14.222222222222223)"/><path d="M516.96 1579.5l51.44-29.15v-58.14l-51.44 29.08v58.23z" fill="#fff"/><path d="M465.6 1550.33l51.4 29.12v-58.16l-51.4-29.04v58.07zM568.05 1492.23L517 1463.35l-51.06 28.88 51.05 28.9 51.05-28.9z" fill="#fff"/><path d="M517 1519.4l48.07-27.16-.05-.03-48.03 27.2z" fill="#fff"/><path d="M468.96 1492.2l-.05.04 48.1 27.16-48.04-27.2z" fill="#fff"/><path d="M568.26 1490.4l-51.3-29.05-51.3 29.04-1.6.95v60l51.4 29.04 1.6.95 1.6-.96 51.4-29.05v-60zm-1.6 59.03l-48 27.24v-54.48l48.12-27.13zm-51.3 27.24l-48.12-27.24v-54.36l48.13 27.12zm-46.42-84.48l48.02-27.13 48.12 27.12-48.12 27.23-48.02-27.24z" fill="#444"/><path d="M517.2 1552.68l27.64-15.65v-31.2l-27.64 15.6v31.25zM489.14 1537.03l27.64 15.65v-31.25l-27.64-15.6v31.2zM544.54 1505.4L517 1489.86l-27.56 15.56 27.55 15.63 27.54-15.62z" fill="#ffd44f"/><path d="M517 1519.44l24.76-14-.02-.03-24.75 14.02v.02zM492.23 1505.4l-.02.04 24.78 14v-.02l-24.75-14z" fill="#96bf3d"/><path d="M545.02 1503.52l-28-15.8-28.1 15.8-1.6.94v33.68l28.02 15.86 1.67.95 1.6-.95 28.08-15.86v-33.68zm-1.6 32.74l-24.8 14.05v-28.1l24.8-13.98zm-28.08 14.05l-24.8-14.04v-28.04l24.8 14zm-23.08-44.9l24.75-13.98 24.75 13.98-24.74 14.05-24.8-13.98z" fill="#fff"/><use xlink:href="#u" transform="matrix(1,0,0,1,464.06378639224965,1581.3450047334645) translate(8 17.77777777777778)"/><use xlink:href="#v" transform="matrix(1,0,0,1,464.06378639224965,1581.3450047334645) translate(54.851851851851855 17.77777777777778)"/><path d="M661.58 1526h-91.02v-1h91.02zm405.04 0H739.46v-1h327.16z" stroke="#3a414a" stroke-width=".05" fill="#3a414a"/><path d="M570.58 1526h-.52v-1h.52z" fill="#3a414a"/><path d="M570.6 1526h-.56v-1.04h.56zm-.5-1v.96h.45v-.95z" stroke="#3a414a" stroke-width=".05" fill="#3a414a"/><path d="M1081.38 1525.5l-14.26 4.62v-9.27z" fill="#3a414a"/><path d="M1083 1525.5l-16.38 5.3v-10.64zm-15.38 3.93l12.14-3.94-12.14-3.96z" stroke="#3a414a" stroke-width=".05" fill="#3a414a"/><use xlink:href="#o" transform="matrix(1,0,0,1,661.5841649422275,1514.8189630667978) translate(0 14.222222222222223)"/><use xlink:href="#w" transform="matrix(1,0,0,1,661.5841649422275,1514.8189630667978) translate(40.39506172839506 14.222222222222223)"/><path d="M1633.7 1262.58h120v120h-120v-120z" stroke="#fff" stroke-opacity="0" stroke-width="2" fill="#d86613"/><path d="M1730.5 1362.58h-19.73c-.64 0-1.15-.32-1.4-.88l-27.92-58.32h-11.78c-.9 0-1.6-.72-1.6-1.6v-17.6c0-.88.7-1.6 1.6-1.6h24.65c.64 0 1.15.32 1.4.88l27.8 58.32h6.97c.9 0 1.6.72 1.6 1.6v17.6c0 .88-.7 1.6-1.6 1.6zm-18.7-3.2h17.1v-14.4h-6.4c-.65 0-1.16-.32-1.42-.88l-27.78-58.32h-22.02v14.4h11.2c.64 0 1.15.32 1.47.88z" stroke="#fff" stroke-opacity="0" stroke-width="2" fill="#fff"/><path d="M1677.65 1362.58h-20.8c-.55 0-1.05-.3-1.37-.73-.32-.54-.32-1.12-.07-1.6l21.8-45.46c.23-.6.8-.94 1.4-.94.64 0 1.17.34 1.45.88l10.4 21.43c.26.44.26.93 0 1.42l-11.35 23.96c-.2.63-.78 1.02-1.45 1.02zm-18.24-3.22h17.25l10.6-22.36-8.6-17.88z" stroke="#fff" stroke-opacity="0" stroke-width="2" fill="#fff"/><use xlink:href="#x" transform="matrix(1,0,0,1,1603.6903601316476,1391.5804748328012) translate(19.13580246913581 17.77777777777778)"/><use xlink:href="#y" transform="matrix(1,0,0,1,1603.6903601316476,1391.5804748328012) translate(89.38271604938272 17.77777777777778)"/><path d="M1402.5 1323.08h-213.03v-1h213.02zm214.8 0h-21.58v-1h21.6z" stroke="#e81313" stroke-width=".05" fill="#e81313"/><path d="M1189.48 1323.08h-.5v-1h.5z" fill="#e81313"/><path d="M1189.5 1323.1h-.56v-1.04h.57zm-.5-1v.96h.46v-.95z" stroke="#e81313" stroke-width=".05" fill="#e81313"/><path d="M1632.07 1322.58l-14.26 4.64v-9.27z" fill="#e81313"/><path d="M1633.7 1322.58l-16.4 5.32v-10.64zm-15.4 3.95l12.15-3.95-12.14-3.95z" stroke="#e81313" stroke-width=".05" fill="#e81313"/><use xlink:href="#z" transform="matrix(1,0,0,1,1402.4879590181151,1311.9138081661345) translate(0 14.222222222222223)"/><use xlink:href="#A" transform="matrix(1,0,0,1,1402.4879590181151,1311.9138081661345) translate(79.90123456790124 14.222222222222223)"/><use xlink:href="#B" transform="matrix(1,0,0,1,1402.4879590181151,1311.9138081661345) translate(146.9135802469136 14.222222222222223)"/><path d="M659.16 1323.08H610.5v.05l-.42.2h-39.52v-1h39.15l.3-.25h49.16zm407.46 0H748.84v-1h317.78z" stroke="#e81313" stroke-width=".05" fill="#e81313"/><path d="M570.58 1323.33h-.52v-1h.52z" fill="#e81313"/><path d="M570.6 1323.36h-.56v-1.05h.56zm-.5-1v.95h.45v-.94z" stroke="#e81313" stroke-width=".05" fill="#e81313"/><path d="M1081.38 1322.58l-14.26 4.64v-9.27z" fill="#e81313"/><path d="M1083 1322.58l-16.38 5.32v-10.64zm-15.38 3.95l12.14-3.95-12.14-3.95z" stroke="#e81313" stroke-width=".05" fill="#e81313"/><use xlink:href="#C" transform="matrix(1,0,0,1,659.1604938271605,1311.9138081661345) translate(0 14.222222222222223)"/><use xlink:href="#D" transform="matrix(1,0,0,1,659.1604938271605,1311.9138081661345) translate(58.17283950617285 14.222222222222223)"/><path d="M1788.7 916.93l1 .24.94.4.87.52.8.66.65.77.53.87.4.94.23 1 .1 1-.08 394.24-.25 1-.4.95-.52.87-.66.78-.8.66-.86.53-.94.4-1 .23-1 .08h-33.5v-1h33.47l.88-.07.84-.2.8-.32.72-.45.66-.56.56-.66.45-.72.32-.8.2-.82.07-394.1-.08-.87-.2-.85-.33-.8-.46-.73-.56-.65-.66-.56-.73-.45-.8-.33-.83-.2-216.77-.02v-1zm-376.5-.05v1l-233-.03v-1z" stroke="#e81313" stroke-width=".05" fill="#e81313"/><path d="M1754.2 1323.08h-.5v-1h.5z" fill="#e81313"/><path d="M1754.23 1323.1h-.56v-1.04h.56zm-.5-1v.96h.45v-.95z" stroke="#e81313" stroke-width=".05" fill="#e81313"/><path d="M1178.7 922l-14.27-4.65 14.27-4.63z" fill="#e81313"/><path d="M1179.2 922.68l-16.38-5.33 16.38-5.32zm-13.15-5.33l12.15 3.95v-7.9z" stroke="#e81313" stroke-width=".05" fill="#e81313"/><use xlink:href="#E" transform="matrix(1,0,0,1,1412.1975308641977,906.6871910379988) translate(0 14.222222222222223)"/><use xlink:href="#F" transform="matrix(1,0,0,1,1412.1975308641977,906.6871910379988) translate(74.9135802469136 14.222222222222223)"/><path d="M1564.33 756.5l1 .25.95.4.87.52.78.66.66.78.53.88.4.94.22 1 .08 1 .08 95.78.2.82.33.8.45.73.57.66.65.57.74.45.8.33.83.2.88.07 214.3.07 1.03.23.94.4.87.53.76.66.67.78.53.87.4.94.23 1 .07 1-.08 447.78-.25 1-.4.95-.52.87-.67.78-.77.66-.88.53-.94.4-1 .23-1 .08h-34.5v-1h34.47l.88-.07.84-.2.8-.32.73-.45.65-.56.57-.66.45-.72.33-.8.2-.82.07-447.62-.07-.88-.2-.84-.33-.8-.45-.73-.57-.67-.65-.56-.74-.45-.8-.33-.8-.2-214.25-.08-.98-.08-1-.24-.94-.4-.87-.52-.76-.67-.67-.76-.53-.87-.4-.94-.23-1-.07-95.88-.07-.88-.2-.84-.33-.8-.45-.73-.56-.66-.65-.56-.74-.45-.8-.33-.82-.2h-37.1v-1zm-163.44-.03v1l-222.12-.04v-1z" stroke="#e81313" stroke-width=".05" fill="#e81313"/><path d="M1754.2 1323.08h-.5v-1h.5z" fill="#e81313"/><path d="M1754.23 1323.1h-.56v-1.04h.56zm-.5-1v.96h.45v-.95z" stroke="#e81313" stroke-width=".05" fill="#e81313"/><path d="M1178.28 761.56l-14.27-4.63 14.28-4.64z" fill="#e81313"/><path d="M1178.78 762.25l-16.4-5.32 16.4-5.32zm-13.15-5.32l12.15 3.95v-7.9z" stroke="#e81313" stroke-width=".05" fill="#e81313"/><use xlink:href="#E" transform="matrix(1,0,0,1,1400.8888888888894,746.2620804408526) translate(0 14.222222222222223)"/><use xlink:href="#G" transform="matrix(1,0,0,1,1400.8888888888894,746.2620804408526) translate(74.9135802469136 14.222222222222223)"/><path d="M516.96 1371l51.44-29.16v-58.14l-51.44 29.07V1371z" fill="#fff"/><path d="M465.6 1341.82l51.4 29.12v-58.16l-51.4-29.03v58.07zM568.05 1283.72L517 1254.84l-51.06 28.88 51.05 28.9 51.05-28.9z" fill="#fff"/><path d="M517 1310.9l48.07-27.17-.05-.03-48.03 27.2z" fill="#fff"/><path d="M468.96 1283.7l-.05.03 48.1 27.16-48.04-27.2z" fill="#fff"/><path d="M568.26 1281.87l-51.3-29.04-51.3 29.04-1.6.96v60l51.4 29.04 1.6.96 1.6-.96 51.4-29.04v-60zm-1.6 59.04l-48 27.25v-54.48l48.12-27.12zm-51.3 27.25l-48.12-27.24v-54.35l48.13 27.12zm-46.42-84.48l48.02-27.12 48.12 27.12-48.12 27.24-48.02-27.23z" fill="#444"/><path d="M517.2 1344.17l27.64-15.65v-31.2l-27.64 15.6v31.25zM489.14 1328.52l27.64 15.65v-31.25l-27.64-15.6v31.2zM544.54 1296.9L517 1281.33l-27.56 15.57 27.55 15.62 27.54-15.62z" fill="#ffd44f"/><path d="M517 1310.93l24.76-14-.02-.03-24.75 14v.03zM492.23 1296.9l-.02.03 24.78 14v-.02l-24.75-14z" fill="#96bf3d"/><path d="M545.02 1295l-28-15.8-28.1 15.8-1.6.95v33.68l28.02 15.86 1.67.93 1.6-.94 28.08-15.87v-33.68zm-1.6 32.75l-24.8 14.05v-28.1l24.8-14zm-28.08 14.05l-24.8-14.05v-28.04l24.8 14zm-23.08-44.9l24.75-14 24.75 14-24.74 14.04-24.8-13.98z" fill="#fff"/><use xlink:href="#H" transform="matrix(1,0,0,1,464.06378639224965,1372.8346456692911) translate(22.783950617283953 17.77777777777778)"/><use xlink:href="#I" transform="matrix(1,0,0,1,464.06378639224965,1372.8346456692911) translate(7.9691358024691255 44.44444444444444)"/><path d="M918.86 381.78a6 6 0 0 1 6-6h390.24a6 6 0 0 1 6 6V994.9a6 6 0 0 1-6 6H924.86a6 6 0 0 1-6-6z" stroke="#232f3e" fill="#fff" fill-opacity="0"/><path d="M918.86 375.78h56v56h-56v-56z" stroke="#fff" stroke-opacity="0" fill="#232f3e"/><path d="M959.74 417h-25c-4.13.05-7.57-3.1-7.9-7.2v-.64c-.15-3.4 1.97-6.38 5.25-7.36v-.66c.1-4.22 2.43-7.75 6.23-9.57 4.12-1.85 8.72-.95 11.8 2.32 1.1 1.07 1.85 2.18 2.45 3.57 1.2-1 2.72-1.3 4.24-.9 2.24.8 3.68 2.75 3.76 5.1 3.68.66 6.32 3.8 6.28 7.57 0 7.07-7.04 7.73-7.12 7.75zm-26.7-13.88c-2.83.6-4.75 3.14-4.6 6.04v.53c.3 3.3 3.1 5.82 6.4 5.74h24.98c3.04-.3 5.4-2.64 5.68-5.7.28-3.43-2.24-6.5-5.68-6.78-.44-.05-.72-.45-.64-.87.08-1.86-1-3.47-2.72-4.15-1.32-.37-2.64.13-3.44 1.24-.2.23-.44.36-.76.3-.28-.05-.48-.23-.6-.5-.6-1.6-1.4-2.84-2.6-4.03-2.7-2.8-6.6-3.6-10.13-2-3.24 1.6-5.2 4.64-5.32 8.25-.03.4-.03.74 0 1.13.05.4-.2.77-.6.85z" stroke="#fff" stroke-opacity="0" fill="#fff"/><use xlink:href="#J" transform="matrix(1,0,0,1,989.8592620241968,395.77674762712684) translate(0 25.06666666666667)"/><use xlink:href="#K" transform="matrix(1,0,0,1,989.8592620241968,395.77674762712684) translate(78.85555555555555 25.06666666666667)"/><use xlink:href="#L" transform="matrix(1,0,0,1,989.8592620241968,395.77674762712684) translate(0 55.55555555555557)"/><use xlink:href="#M" transform="matrix(1,0,0,1,989.8592620241968,395.77674762712684) translate(78.55555555555556 55.55555555555557)"/><use xlink:href="#N" transform="matrix(1,0,0,1,989.8592620241968,395.77674762712684) translate(0 82.48888888888891)"/><path d="M918.86 1101.14a6 6 0 0 1 6-6h390.24a6 6 0 0 1 6 6v517.7a6 6 0 0 1-6 6H924.86a6 6 0 0 1-6-6z" stroke="#232f3e" fill="#fff" fill-opacity="0"/><path d="M918.86 1095.14h56v56h-56v-56z" stroke="#fff" stroke-opacity="0" fill="#232f3e"/><path d="M959.74 1136.36h-25c-4.13.05-7.57-3.1-7.9-7.2v-.64c-.15-3.4 1.97-6.38 5.25-7.36v-.65c.1-4.22 2.43-7.75 6.23-9.57 4.12-1.85 8.72-.95 11.8 2.32 1.1 1.08 1.85 2.2 2.45 3.6 1.2-1 2.72-1.33 4.24-.9 2.24.78 3.68 2.74 3.76 5.08 3.68.66 6.32 3.8 6.28 7.57 0 7.07-7.04 7.73-7.12 7.76zm-26.7-13.88c-2.83.6-4.75 3.14-4.6 6.04v.53c.3 3.33 3.1 5.83 6.4 5.75h24.98c3.04-.3 5.4-2.64 5.68-5.7.28-3.42-2.24-6.48-5.68-6.77-.44-.06-.72-.45-.64-.88.08-1.84-1-3.45-2.72-4.14-1.32-.36-2.64.15-3.44 1.25-.2.24-.44.37-.76.32-.28-.05-.48-.24-.6-.5-.6-1.6-1.4-2.85-2.6-4.04-2.7-2.8-6.6-3.58-10.13-2-3.24 1.6-5.2 4.64-5.32 8.25-.03.4-.03.74 0 1.14.05.4-.2.76-.6.84z" stroke="#fff" stroke-opacity="0" fill="#fff"/><g><use xlink:href="#J" transform="matrix(1,0,0,1,989.8592620241968,1115.141387171694) translate(0 25.06666666666667)"/><use xlink:href="#O" transform="matrix(1,0,0,1,989.8592620241968,1115.141387171694) translate(78.85555555555555 25.06666666666667)"/><use xlink:href="#P" transform="matrix(1,0,0,1,989.8592620241968,1115.141387171694) translate(0 55.55555555555557)"/></g><path d="M691.5 628.83h-98.05" stroke="#3a414a" fill="none"/><path d="M692 629.33h-.5v-1h.5z" stroke="#3a414a" stroke-width=".05" fill="#3a414a"/><path d="M578.68 628.83l14.27-4.63v9.27z" stroke="#3a414a" fill="#3a414a"/><path d="M456.56 628.83h-86.6" stroke="#3a414a" fill="none"/><path d="M457.06 629.33h-.5v-1h.5z" stroke="#3a414a" stroke-width=".05" fill="#3a414a"/><path d="M355.18 628.83l14.27-4.63v9.27z" stroke="#3a414a" fill="#3a414a"/><path d="M457.06 568.83h120v120h-120v-120z" stroke="#fff" stroke-opacity="0" stroke-width="2" fill="#d6242d"/><path d="M535.2 649.18l2.27-2.27 19.13 19.14-2.27 2.27-19.13-19.12zM477.54 591.5l2.25-2.25 21.2 21.2-2.25 2.26-21.2-21.2zM482.34 661.3l11.2-11.2 2.26 2.26-11.2 11.2-2.26-2.26zM538.34 605.3l11.2-11.2 2.26 2.27-11.2 11.2-2.26-2.26z" stroke="#fff" stroke-opacity="0" stroke-width="1.41" fill="#fff"/><path d="M557.06 627.23v3.2h-3.2c-.3 7.56-2.5 13.9-6.96 20l-2.6-1.9c4.03-5.53 6.03-11.27 6.3-18.1h-3.2v-3.2h3.2c-.28-6.82-2.27-12.52-6.3-18.05l2.6-1.95c4.44 6.1 6.63 12.44 6.94 20zM538.66 599l-1.9 2.6c-5.53-4.03-11.27-6.03-18.1-6.32v3.2h-3.2v-3.2c-6.82.3-12.52 2.3-18.05 6.3l-1.94-2.6c6.1-4.42 12.45-6.62 20-6.9v-3.2h3.2v3.2c7.56.28 13.9 2.48 20 6.9zM538.66 658.68c-6.1 4.42-12.44 6.62-20 6.92v3.2h-3.2v-3.2c-7.55-.3-13.9-2.5-20-6.92l1.9-2.6c5.53 4.02 11.28 6.02 18.1 6.3v-3.2h3.2v3.2c6.83-.28 12.53-2.28 18.06-6.3zM483.5 630.43c.3 6.83 2.3 12.53 6.32 18.06l-2.6 1.93c-4.43-6.1-6.63-12.44-6.92-20h-3.2v-3.2h3.2c.3-7.56 2.5-13.9 6.92-20l2.6 1.9c-4.02 5.53-6.02 11.28-6.3 18.1h3.2v3.2z" stroke="#fff" stroke-opacity="0" stroke-width="2" fill="#fff"/><path d="M531.5 618.72c-.45-.25-.98-.25-1.47 0-.5.26-.8.72-.87 1.28-.12 1.03-.27 1.9-.5 2.87-.8-8.14-5.4-14.64-12.8-18.12-2.28-1.74-4.56-2.7-7.37-3.22-.58-.05-1.1.1-1.5.56-.56.66-.5 1.68.2 2.24 3.5 3.43 4.86 8.04 3.8 12.8-1.87-2.46-4.83-5.38-8.3-5.38-.56 0-1 .26-1.32.72-.3.4-.38.97-.2 1.5.96 2.34 2.8 9.45.17 13.6l-.46.77c-3.66 6.65-1.76 14.84 4.44 19.24 3.3 2.2 6.3 3.72 10.06 5 .2.05.38.1.57.1h.34c2.14-.2 16.62-2.04 19.58-13.56 4.06-15.6-4-20.2-4.37-20.42zm-17.88 29.8c-2.36-1.03-4.3-2.06-6.42-3.5-4.87-3.42-6.35-9.82-3.5-15.04l.38-.66c2.7-4.25 1.94-9.98 1.07-13.46 2.2 1.7 3.76 3.48 5.1 5.94.18.4.48.66.9.8.83.32 1.75-.14 2.05-.96 2.05-5.12 1.86-10.23-.53-15.15 2.12 1.22 3.6 2.8 4.67 5.06 2.28 4.7 1.75 11.2-1.33 16.8-3.26 6.5-4.05 13.1-2.38 20.15zm19.18-10.14c-2.1 8.18-12.08 10.5-15.7 11.05-.82-3.12-2.53-11.82 1.72-19.6 3.12-5.42 3.9-11.1 2.36-17.2 2.88 3.38 5.32 8.76 4.02 16.8-.07.45.04.9.35 1.27.57.67 1.55.77 2.24.2 2.2-2.1 3.44-4.5 4-7.47 1.53 2.2 3.17 6.7 1.04 14.95z" stroke="#fff" stroke-opacity="0" stroke-width="2" fill="#fff"/><g><use xlink:href="#Q" transform="matrix(1,0,0,1,427.06378639224965,697.8333333333336) translate(37.808641975308646 17.77777777777778)"/><use xlink:href="#R" transform="matrix(1,0,0,1,427.06378639224965,697.8333333333336) translate(93.73456790123456 17.77777777777778)"/><use xlink:href="#S" transform="matrix(1,0,0,1,427.06378639224965,697.8333333333336) translate(20.9567901234568 44.44444444444444)"/><use xlink:href="#T" transform="matrix(1,0,0,1,427.06378639224965,697.8333333333336) translate(27.129629629629637 44.44444444444444)"/><use xlink:href="#U" transform="matrix(1,0,0,1,427.06378639224965,697.8333333333336) translate(98.73456790123456 44.44444444444444)"/><use xlink:href="#V" transform="matrix(1,0,0,1,427.06378639224965,697.8333333333336) translate(27.098765432098766 71.11111111111111)"/></g><defs><path fill="#008573" d="M185-189c-5-48-123-54-124 2 14 75 158 14 163 119 3 78-121 87-175 55-17-10-28-26-33-46l33-7c5 56 141 63 141-1 0-78-155-14-162-118-5-82 145-84 179-34 5 7 8 16 11 25" id="W"/><path fill="#008573" d="M127-220V0H93v-220H8v-28h204v28h-85" id="X"/><path fill="#008573" d="M205 0l-28-72H64L36 0H1l101-248h38L239 0h-34zm-38-99l-47-123c-12 45-31 82-46 123h93" id="Y"/><path fill="#008573" d="M30 0v-248h187v28H63v79h144v27H63v87h162V0H30" id="Z"/><g id="a"><use transform="matrix(0.09938271604938274,0,0,0.09938271604938274,0,0)" xlink:href="#W"/><use transform="matrix(0.09938271604938274,0,0,0.09938271604938274,23.85185185185186,0)" xlink:href="#X"/><use transform="matrix(0.09938271604938274,0,0,0.09938271604938274,42.933333333333344,0)" xlink:href="#Y"/><use transform="matrix(0.09938271604938274,0,0,0.09938271604938274,64.10185185185186,0)" xlink:href="#X"/><use transform="matrix(0.09938271604938274,0,0,0.09938271604938274,85.86666666666667,0)" xlink:href="#Z"/></g><path fill="#3a414a" d="M210-169c-67 3-38 105-44 169h-31v-121c0-29-5-50-35-48C34-165 62-65 56 0H25l-1-190h30c1 10-1 24 2 32 10-44 99-50 107 0 11-21 27-35 58-36 85-2 47 119 55 194h-31v-121c0-29-5-49-35-48" id="aa"/><path fill="#3a414a" d="M100-194c63 0 86 42 84 106H49c0 40 14 67 53 68 26 1 43-12 49-29l28 8c-11 28-37 45-77 45C44 4 14-33 15-96c1-61 26-98 85-98zm52 81c6-60-76-77-97-28-3 7-6 17-6 28h103" id="ab"/><path fill="#3a414a" d="M135-143c-3-34-86-38-87 0 15 53 115 12 119 90S17 21 10-45l28-5c4 36 97 45 98 0-10-56-113-15-118-90-4-57 82-63 122-42 12 7 21 19 24 35" id="ac"/><path fill="#3a414a" d="M141-36C126-15 110 5 73 4 37 3 15-17 15-53c-1-64 63-63 125-63 3-35-9-54-41-54-24 1-41 7-42 31l-33-3c5-37 33-52 76-52 45 0 72 20 72 64v82c-1 20 7 32 28 27v20c-31 9-61-2-59-35zM48-53c0 20 12 33 32 33 41-3 63-29 60-74-43 2-92-5-92 41" id="ad"/><path fill="#3a414a" d="M177-190C167-65 218 103 67 71c-23-6-38-20-44-43l32-5c15 47 100 32 89-28v-30C133-14 115 1 83 1 29 1 15-40 15-95c0-56 16-97 71-98 29-1 48 16 59 35 1-10 0-23 2-32h30zM94-22c36 0 50-32 50-73 0-42-14-75-50-75-39 0-46 34-46 75s6 73 46 73" id="ae"/><g id="b"><use transform="matrix(0.06172839506172839,0,0,0.06172839506172839,0,0)" xlink:href="#aa"/><use transform="matrix(0.06172839506172839,0,0,0.06172839506172839,18.456790123456788,0)" xlink:href="#ab"/><use transform="matrix(0.06172839506172839,0,0,0.06172839506172839,30.80246913580247,0)" xlink:href="#ac"/><use transform="matrix(0.06172839506172839,0,0,0.06172839506172839,41.91358024691358,0)" xlink:href="#ac"/><use transform="matrix(0.06172839506172839,0,0,0.06172839506172839,53.0246913580247,0)" xlink:href="#ad"/><use transform="matrix(0.06172839506172839,0,0,0.06172839506172839,65.37037037037038,0)" xlink:href="#ae"/><use transform="matrix(0.06172839506172839,0,0,0.06172839506172839,77.71604938271606,0)" xlink:href="#ab"/><use transform="matrix(0.06172839506172839,0,0,0.06172839506172839,90.06172839506175,0)" xlink:href="#ac"/></g><path fill="#3a414a" d="M59-47c-2 24 18 29 38 22v24C64 9 27 4 27-40v-127H5v-23h24l9-43h21v43h35v23H59v120" id="af"/><path fill="#3a414a" d="M24-231v-30h32v30H24zM24 0v-190h32V0H24" id="ag"/><path fill="#3a414a" d="M96-169c-40 0-48 33-48 73s9 75 48 75c24 0 41-14 43-38l32 2c-6 37-31 61-74 61-59 0-76-41-82-99-10-93 101-131 147-64 4 7 5 14 7 22l-32 3c-4-21-16-35-41-35" id="ah"/><path fill="#3a414a" d="M0 4l72-265h28L28 4H0" id="ai"/><g id="c"><use transform="matrix(0.06172839506172839,0,0,0.06172839506172839,0,0)" xlink:href="#ac"/><use transform="matrix(0.06172839506172839,0,0,0.06172839506172839,11.11111111111111,0)" xlink:href="#af"/><use transform="matrix(0.06172839506172839,0,0,0.06172839506172839,17.28395061728395,0)" xlink:href="#ad"/><use transform="matrix(0.06172839506172839,0,0,0.06172839506172839,29.629629629629626,0)" xlink:href="#af"/><use transform="matrix(0.06172839506172839,0,0,0.06172839506172839,35.80246913580247,0)" xlink:href="#ag"/><use transform="matrix(0.06172839506172839,0,0,0.06172839506172839,40.67901234567901,0)" xlink:href="#ah"/><use transform="matrix(0.06172839506172839,0,0,0.06172839506172839,51.79012345679013,0)" xlink:href="#ai"/></g><g id="d"><use transform="matrix(0.06172839506172839,0,0,0.06172839506172839,0,0)" xlink:href="#ag"/><use transform="matrix(0.06172839506172839,0,0,0.06172839506172839,4.876543209876543,0)" xlink:href="#aa"/><use transform="matrix(0.06172839506172839,0,0,0.06172839506172839,23.33333333333333,0)" xlink:href="#ad"/><use transform="matrix(0.06172839506172839,0,0,0.06172839506172839,35.679012345679006,0)" xlink:href="#ae"/><use transform="matrix(0.06172839506172839,0,0,0.06172839506172839,48.02469135802468,0)" xlink:href="#ab"/><use transform="matrix(0.06172839506172839,0,0,0.06172839506172839,60.37037037037036,0)" xlink:href="#ac"/><use transform="matrix(0.06172839506172839,0,0,0.06172839506172839,71.48148148148147,0)" xlink:href="#ai"/></g><path fill="#3a414a" d="M106-169C34-169 62-67 57 0H25v-261h32l-1 103c12-21 28-36 61-36 89 0 53 116 60 194h-32v-121c2-32-8-49-39-48" id="aj"/><path fill="#3a414a" d="M84 4C-5 8 30-112 23-190h32v120c0 31 7 50 39 49 72-2 45-101 50-169h31l1 190h-30c-1-10 1-25-2-33-11 22-28 36-60 37" id="ak"/><path fill="#3a414a" d="M115-194c53 0 69 39 70 98 0 66-23 100-70 100C84 3 66-7 56-30L54 0H23l1-261h32v101c10-23 28-34 59-34zm-8 174c40 0 45-34 45-75 0-40-5-75-45-74-42 0-51 32-51 76 0 43 10 73 51 73" id="al"/><path fill="#3a414a" d="M117-194c89-4 53 116 60 194h-32v-121c0-31-8-49-39-48C34-167 62-67 57 0H25l-1-190h30c1 10-1 24 2 32 11-22 29-35 61-36" id="am"/><path fill="#3a414a" d="M24 0v-261h32V0H24" id="an"/><g id="e"><use transform="matrix(0.06172839506172839,0,0,0.06172839506172839,0,0)" xlink:href="#af"/><use transform="matrix(0.06172839506172839,0,0,0.06172839506172839,6.172839506172839,0)" xlink:href="#aj"/><use transform="matrix(0.06172839506172839,0,0,0.06172839506172839,18.51851851851852,0)" xlink:href="#ak"/><use transform="matrix(0.06172839506172839,0,0,0.06172839506172839,30.864197530864196,0)" xlink:href="#aa"/><use transform="matrix(0.06172839506172839,0,0,0.06172839506172839,49.32098765432099,0)" xlink:href="#al"/><use transform="matrix(0.06172839506172839,0,0,0.06172839506172839,61.666666666666664,0)" xlink:href="#am"/><use transform="matrix(0.06172839506172839,0,0,0.06172839506172839,74.01234567901234,0)" xlink:href="#ad"/><use transform="matrix(0.06172839506172839,0,0,0.06172839506172839,86.35802469135803,0)" xlink:href="#ag"/><use transform="matrix(0.06172839506172839,0,0,0.06172839506172839,91.23456790123457,0)" xlink:href="#an"/><use transform="matrix(0.06172839506172839,0,0,0.06172839506172839,96.11111111111111,0)" xlink:href="#ac"/><use transform="matrix(0.06172839506172839,0,0,0.06172839506172839,107.22222222222223,0)" xlink:href="#ai"/></g><path fill="#3a414a" d="M205 0l-28-72H64L36 0H1l101-248h38L239 0h-34zm-38-99l-47-123c-12 45-31 82-46 123h93" id="ao"/><path fill="#3a414a" d="M9 0v-24l116-142H16v-24h144v24L44-24h123V0H9" id="ap"/><path fill="#3a414a" d="M100-194c62-1 85 37 85 99 1 63-27 99-86 99S16-35 15-95c0-66 28-99 85-99zM99-20c44 1 53-31 53-75 0-43-8-75-51-75s-53 32-53 75 10 74 51 75" id="aq"/><g id="f"><use transform="matrix(0.06172839506172839,0,0,0.06172839506172839,0,0)" xlink:href="#ao"/><use transform="matrix(0.06172839506172839,0,0,0.06172839506172839,14.814814814814813,0)" xlink:href="#aa"/><use transform="matrix(0.06172839506172839,0,0,0.06172839506172839,33.2716049382716,0)" xlink:href="#ad"/><use transform="matrix(0.06172839506172839,0,0,0.06172839506172839,45.61728395061728,0)" xlink:href="#ap"/><use transform="matrix(0.06172839506172839,0,0,0.06172839506172839,56.72839506172839,0)" xlink:href="#aq"/><use transform="matrix(0.06172839506172839,0,0,0.06172839506172839,69.07407407407408,0)" xlink:href="#am"/></g><path fill="#3a414a" d="M212-179c-10-28-35-45-73-45-59 0-87 40-87 99 0 60 29 101 89 101 43 0 62-24 78-52l27 14C228-24 195 4 139 4 59 4 22-46 18-125c-6-104 99-153 187-111 19 9 31 26 39 46" id="ar"/><path fill="#3a414a" d="M85-194c31 0 48 13 60 33l-1-100h32l1 261h-30c-2-10 0-23-3-31C134-8 116 4 85 4 32 4 16-35 15-94c0-66 23-100 70-100zm9 24c-40 0-46 34-46 75 0 40 6 74 45 74 42 0 51-32 51-76 0-42-9-74-50-73" id="as"/><path fill="#3a414a" d="M63-220v92h138v28H63V0H30v-248h175v28H63" id="at"/><path fill="#3a414a" d="M114-163C36-179 61-72 57 0H25l-1-190h30c1 12-1 29 2 39 6-27 23-49 58-41v29" id="au"/><g id="g"><use transform="matrix(0.06172839506172839,0,0,0.06172839506172839,0,0)" xlink:href="#ar"/><use transform="matrix(0.06172839506172839,0,0,0.06172839506172839,15.987654320987653,0)" xlink:href="#an"/><use transform="matrix(0.06172839506172839,0,0,0.06172839506172839,20.864197530864196,0)" xlink:href="#aq"/><use transform="matrix(0.06172839506172839,0,0,0.06172839506172839,33.20987654320987,0)" xlink:href="#ak"/><use transform="matrix(0.06172839506172839,0,0,0.06172839506172839,45.55555555555555,0)" xlink:href="#as"/><use transform="matrix(0.06172839506172839,0,0,0.06172839506172839,57.90123456790123,0)" xlink:href="#at"/><use transform="matrix(0.06172839506172839,0,0,0.06172839506172839,71.41975308641975,0)" xlink:href="#au"/><use transform="matrix(0.06172839506172839,0,0,0.06172839506172839,78.76543209876543,0)" xlink:href="#aq"/><use transform="matrix(0.06172839506172839,0,0,0.06172839506172839,91.11111111111111,0)" xlink:href="#am"/><use transform="matrix(0.06172839506172839,0,0,0.06172839506172839,103.4567901234568,0)" xlink:href="#af"/></g><path d="M232-93c-1 65-40 97-104 97C67 4 28-28 28-90v-158h33c8 89-33 224 67 224 102 0 64-133 71-224h33v155" id="av"/><path d="M135-143c-3-34-86-38-87 0 15 53 115 12 119 90S17 21 10-45l28-5c4 36 97 45 98 0-10-56-113-15-118-90-4-57 82-63 122-42 12 7 21 19 24 35" id="aw"/><path d="M100-194c63 0 86 42 84 106H49c0 40 14 67 53 68 26 1 43-12 49-29l28 8c-11 28-37 45-77 45C44 4 14-33 15-96c1-61 26-98 85-98zm52 81c6-60-76-77-97-28-3 7-6 17-6 28h103" id="ax"/><path d="M114-163C36-179 61-72 57 0H25l-1-190h30c1 12-1 29 2 39 6-27 23-49 58-41v29" id="ay"/><g id="h"><use transform="matrix(0.05,0,0,0.05,0,0)" xlink:href="#av"/><use transform="matrix(0.05,0,0,0.05,12.950000000000001,0)" xlink:href="#aw"/><use transform="matrix(0.05,0,0,0.05,21.950000000000003,0)" xlink:href="#ax"/><use transform="matrix(0.05,0,0,0.05,31.950000000000003,0)" xlink:href="#ay"/></g><g id="i"><use transform="matrix(0.06172839506172839,0,0,0.06172839506172839,0,0)" xlink:href="#ak"/><use transform="matrix(0.06172839506172839,0,0,0.06172839506172839,12.345679012345679,0)" xlink:href="#ac"/><use transform="matrix(0.06172839506172839,0,0,0.06172839506172839,23.45679012345679,0)" xlink:href="#ab"/><use transform="matrix(0.06172839506172839,0,0,0.06172839506172839,35.80246913580247,0)" xlink:href="#au"/><use transform="matrix(0.06172839506172839,0,0,0.06172839506172839,43.148148148148145,0)" xlink:href="#ac"/></g><g id="j"><use transform="matrix(0.06172839506172839,0,0,0.06172839506172839,0,0)" xlink:href="#ar"/><use transform="matrix(0.06172839506172839,0,0,0.06172839506172839,15.987654320987653,0)" xlink:href="#au"/><use transform="matrix(0.06172839506172839,0,0,0.06172839506172839,23.333333333333332,0)" xlink:href="#ab"/><use transform="matrix(0.06172839506172839,0,0,0.06172839506172839,35.67901234567901,0)" xlink:href="#ad"/><use transform="matrix(0.06172839506172839,0,0,0.06172839506172839,48.02469135802469,0)" xlink:href="#af"/><use transform="matrix(0.06172839506172839,0,0,0.06172839506172839,54.19753086419753,0)" xlink:href="#ab"/></g><g id="k"><use transform="matrix(0.06172839506172839,0,0,0.06172839506172839,0,0)" xlink:href="#af"/><use transform="matrix(0.06172839506172839,0,0,0.06172839506172839,6.172839506172839,0)" xlink:href="#aj"/><use transform="matrix(0.06172839506172839,0,0,0.06172839506172839,18.51851851851852,0)" xlink:href="#ak"/><use transform="matrix(0.06172839506172839,0,0,0.06172839506172839,30.864197530864196,0)" xlink:href="#aa"/><use transform="matrix(0.06172839506172839,0,0,0.06172839506172839,49.32098765432099,0)" xlink:href="#al"/><use transform="matrix(0.06172839506172839,0,0,0.06172839506172839,61.666666666666664,0)" xlink:href="#am"/><use transform="matrix(0.06172839506172839,0,0,0.06172839506172839,74.01234567901234,0)" xlink:href="#ad"/><use transform="matrix(0.06172839506172839,0,0,0.06172839506172839,86.35802469135803,0)" xlink:href="#ag"/><use transform="matrix(0.06172839506172839,0,0,0.06172839506172839,91.23456790123457,0)" xlink:href="#an"/></g><path fill="#333" d="M140-251c80 0 125 45 125 126S219 4 139 4C58 4 15-44 15-125s44-126 125-126zm-1 214c52 0 73-35 73-88 0-50-21-86-72-86-52 0-73 35-73 86s22 88 72 88" id="az"/><path fill="#333" d="M135-194c52 0 70 43 70 98 0 56-19 99-73 100-30 1-46-15-58-35L72 0H24l1-261h50v104c11-23 29-37 60-37zM114-30c31 0 40-27 40-66 0-37-7-63-39-63s-41 28-41 65c0 36 8 64 40 64" id="aA"/><path fill="#333" d="M25-224v-37h50v37H25zM75 22c2 45-34 59-81 51V38c22 5 31-5 31-27v-201h50V22" id="aB"/><path fill="#333" d="M185-48c-13 30-37 53-82 52C43 2 14-33 14-96s30-98 90-98c62 0 83 45 84 108H66c0 31 8 55 39 56 18 0 30-7 34-22zm-45-69c5-46-57-63-70-21-2 6-4 13-4 21h74" id="aC"/><path fill="#333" d="M190-63c-7 42-38 67-86 67-59 0-84-38-90-98-12-110 154-137 174-36l-49 2c-2-19-15-32-35-32-30 0-35 28-38 64-6 74 65 87 74 30" id="aD"/><path fill="#333" d="M115-3C79 11 28 4 28-45v-112H4v-33h27l15-45h31v45h36v33H77v99c-1 23 16 31 38 25v30" id="aE"/><g id="l"><use transform="matrix(0.04938271604938272,0,0,0.04938271604938272,0,0)" xlink:href="#az"/><use transform="matrix(0.04938271604938272,0,0,0.04938271604938272,13.827160493827162,0)" xlink:href="#aA"/><use transform="matrix(0.04938271604938272,0,0,0.04938271604938272,24.641975308641975,0)" xlink:href="#aB"/><use transform="matrix(0.04938271604938272,0,0,0.04938271604938272,29.58024691358025,0)" xlink:href="#aC"/><use transform="matrix(0.04938271604938272,0,0,0.04938271604938272,39.45679012345679,0)" xlink:href="#aD"/><use transform="matrix(0.04938271604938272,0,0,0.04938271604938272,49.333333333333336,0)" xlink:href="#aE"/></g><path fill="#333" d="M135-150c-39-12-60 13-60 57V0H25l-1-190h47c2 13-1 29 3 40 6-28 27-53 61-41v41" id="aF"/><path fill="#333" d="M133-34C117-15 103 5 69 4 32 3 11-16 11-54c-1-60 55-63 116-61 1-26-3-47-28-47-18 1-26 9-28 27l-52-2c7-38 36-58 82-57s74 22 75 68l1 82c-1 14 12 18 25 15v27c-30 8-71 5-69-32zm-48 3c29 0 43-24 42-57-32 0-66-3-65 30 0 17 8 27 23 27" id="aG"/><path fill="#333" d="M88-194c31-1 46 15 58 34l-1-101h50l1 261h-48c-2-10 0-23-3-31C134-8 116 4 84 4 32 4 16-41 15-95c0-56 19-97 73-99zm17 164c33 0 40-30 41-66 1-37-9-64-41-64s-38 30-39 65c0 43 13 65 39 65" id="aH"/><g id="m"><use transform="matrix(0.04938271604938272,0,0,0.04938271604938272,0,0)" xlink:href="#aD"/><use transform="matrix(0.04938271604938272,0,0,0.04938271604938272,9.876543209876544,0)" xlink:href="#aF"/><use transform="matrix(0.04938271604938272,0,0,0.04938271604938272,16.790123456790127,0)" xlink:href="#aC"/><use transform="matrix(0.04938271604938272,0,0,0.04938271604938272,26.666666666666668,0)" xlink:href="#aG"/><use transform="matrix(0.04938271604938272,0,0,0.04938271604938272,36.543209876543216,0)" xlink:href="#aE"/><use transform="matrix(0.04938271604938272,0,0,0.04938271604938272,42.41975308641976,0)" xlink:href="#aC"/><use transform="matrix(0.04938271604938272,0,0,0.04938271604938272,52.2962962962963,0)" xlink:href="#aH"/></g><path fill="#333" d="M128 0H69L1-190h53L99-40l48-150h52" id="aI"/><path fill="#333" d="M135-194c87-1 58 113 63 194h-50c-7-57 23-157-34-157-59 0-34 97-39 157H25l-1-190h47c2 12-1 28 3 38 12-26 28-41 61-42" id="aJ"/><g id="n"><use transform="matrix(0.04938271604938272,0,0,0.04938271604938272,0,0)" xlink:href="#aC"/><use transform="matrix(0.04938271604938272,0,0,0.04938271604938272,9.876543209876544,0)" xlink:href="#aI"/><use transform="matrix(0.04938271604938272,0,0,0.04938271604938272,19.75308641975309,0)" xlink:href="#aC"/><use transform="matrix(0.04938271604938272,0,0,0.04938271604938272,29.629629629629633,0)" xlink:href="#aJ"/><use transform="matrix(0.04938271604938272,0,0,0.04938271604938272,40.44444444444445,0)" xlink:href="#aE"/></g><path fill="#333" d="M24-248c93 1 206-16 204 79-1 75-69 88-152 82V0H24v-248zm52 121c47 0 100 7 100-41 0-47-54-39-100-39v80" id="aK"/><path fill="#333" d="M238-95c0 69-44 99-111 99C63 4 22-25 22-93v-155h51v151c-1 38 19 59 55 60 90 1 49-130 58-211h52v153" id="aL"/><path fill="#333" d="M136-208V0H84v-208H4v-40h212v40h-80" id="aM"/><g id="o"><use transform="matrix(0.04938271604938272,0,0,0.04938271604938272,0,0)" xlink:href="#aK"/><use transform="matrix(0.04938271604938272,0,0,0.04938271604938272,11.851851851851853,0)" xlink:href="#aL"/><use transform="matrix(0.04938271604938272,0,0,0.04938271604938272,24.641975308641978,0)" xlink:href="#aM"/></g><path fill="#333" d="M114-157C55-157 80-60 75 0H25v-261h50l-1 109c12-26 28-41 61-42 86-1 58 113 63 194h-50c-7-57 23-157-34-157" id="aN"/><path fill="#333" d="M85 4C-2 5 27-109 22-190h50c7 57-23 150 33 157 60-5 35-97 40-157h50l1 190h-47c-2-12 1-28-3-38-12 25-28 42-61 42" id="aO"/><path fill="#333" d="M220-157c-53 9-28 100-34 157h-49v-107c1-27-5-49-29-50C55-147 81-57 75 0H25l-1-190h47c2 12-1 28 3 38 10-53 101-56 108 0 13-22 24-43 59-42 82 1 51 116 57 194h-49v-107c-1-25-5-48-29-50" id="aP"/><path fill="#333" d="M25-224v-37h50v37H25zM25 0v-190h50V0H25" id="aQ"/><path fill="#333" d="M25 0v-261h50V0H25" id="aR"/><g id="p"><use transform="matrix(0.04938271604938272,0,0,0.04938271604938272,0,0)" xlink:href="#aE"/><use transform="matrix(0.04938271604938272,0,0,0.04938271604938272,5.8765432098765435,0)" xlink:href="#aN"/><use transform="matrix(0.04938271604938272,0,0,0.04938271604938272,16.691358024691358,0)" xlink:href="#aO"/><use transform="matrix(0.04938271604938272,0,0,0.04938271604938272,27.50617283950617,0)" xlink:href="#aP"/><use transform="matrix(0.04938271604938272,0,0,0.04938271604938272,43.30864197530864,0)" xlink:href="#aA"/><use transform="matrix(0.04938271604938272,0,0,0.04938271604938272,54.12345679012345,0)" xlink:href="#aJ"/><use transform="matrix(0.04938271604938272,0,0,0.04938271604938272,64.93827160493827,0)" xlink:href="#aG"/><use transform="matrix(0.04938271604938272,0,0,0.04938271604938272,74.81481481481481,0)" xlink:href="#aQ"/><use transform="matrix(0.04938271604938272,0,0,0.04938271604938272,79.75308641975309,0)" xlink:href="#aR"/></g><path fill="#3a414a" d="M206 0h-36l-40-164L89 0H53L-1-190h32L70-26l43-164h34l41 164 42-164h31" id="aS"/><g id="q"><use transform="matrix(0.06172839506172839,0,0,0.06172839506172839,0,0)" xlink:href="#am"/><use transform="matrix(0.06172839506172839,0,0,0.06172839506172839,12.345679012345679,0)" xlink:href="#ab"/><use transform="matrix(0.06172839506172839,0,0,0.06172839506172839,24.691358024691358,0)" xlink:href="#aS"/></g><g id="r"><use transform="matrix(0.06172839506172839,0,0,0.06172839506172839,0,0)" xlink:href="#aa"/><use transform="matrix(0.06172839506172839,0,0,0.06172839506172839,18.456790123456788,0)" xlink:href="#ab"/><use transform="matrix(0.06172839506172839,0,0,0.06172839506172839,30.80246913580247,0)" xlink:href="#ac"/><use transform="matrix(0.06172839506172839,0,0,0.06172839506172839,41.91358024691358,0)" xlink:href="#ac"/><use transform="matrix(0.06172839506172839,0,0,0.06172839506172839,53.0246913580247,0)" xlink:href="#ad"/><use transform="matrix(0.06172839506172839,0,0,0.06172839506172839,65.37037037037038,0)" xlink:href="#ae"/><use transform="matrix(0.06172839506172839,0,0,0.06172839506172839,77.71604938271606,0)" xlink:href="#ab"/></g><path fill="#333" d="M195-6C206 82 75 100 31 46c-4-6-6-13-8-21l49-6c3 16 16 24 34 25 40 0 42-37 40-79-11 22-30 35-61 35-53 0-70-43-70-97 0-56 18-96 73-97 30 0 46 14 59 34l2-30h47zm-90-29c32 0 41-27 41-63 0-35-9-62-40-62-32 0-39 29-40 63 0 36 9 62 39 62" id="aT"/><g id="s"><use transform="matrix(0.04938271604938272,0,0,0.04938271604938272,0,0)" xlink:href="#aQ"/><use transform="matrix(0.04938271604938272,0,0,0.04938271604938272,4.938271604938272,0)" xlink:href="#aP"/><use transform="matrix(0.04938271604938272,0,0,0.04938271604938272,20.74074074074074,0)" xlink:href="#aG"/><use transform="matrix(0.04938271604938272,0,0,0.04938271604938272,30.617283950617285,0)" xlink:href="#aT"/><use transform="matrix(0.04938271604938272,0,0,0.04938271604938272,41.4320987654321,0)" xlink:href="#aC"/></g><path fill="#333" d="M144 0l-44-69L55 0H2l70-98-66-92h53l41 62 40-62h54l-67 91 71 99h-54" id="aU"/><g id="t"><use transform="matrix(0.04938271604938272,0,0,0.04938271604938272,0,0)" xlink:href="#aE"/><use transform="matrix(0.04938271604938272,0,0,0.04938271604938272,5.8765432098765435,0)" xlink:href="#aC"/><use transform="matrix(0.04938271604938272,0,0,0.04938271604938272,15.753086419753087,0)" xlink:href="#aU"/><use transform="matrix(0.04938271604938272,0,0,0.04938271604938272,25.629629629629633,0)" xlink:href="#aE"/></g><g id="u"><use transform="matrix(0.06172839506172839,0,0,0.06172839506172839,0,0)" xlink:href="#am"/><use transform="matrix(0.06172839506172839,0,0,0.06172839506172839,12.345679012345679,0)" xlink:href="#ab"/><use transform="matrix(0.06172839506172839,0,0,0.06172839506172839,24.691358024691358,0)" xlink:href="#aS"/></g><g id="v"><use transform="matrix(0.06172839506172839,0,0,0.06172839506172839,0,0)" xlink:href="#ak"/><use transform="matrix(0.06172839506172839,0,0,0.06172839506172839,12.345679012345679,0)" xlink:href="#ac"/><use transform="matrix(0.06172839506172839,0,0,0.06172839506172839,23.45679012345679,0)" xlink:href="#ab"/><use transform="matrix(0.06172839506172839,0,0,0.06172839506172839,35.80246913580247,0)" xlink:href="#au"/></g><path fill="#333" d="M137-138c1-29-70-34-71-4 15 46 118 7 119 86 1 83-164 76-172 9l43-7c4 19 20 25 44 25 33 8 57-30 24-41C81-84 22-81 20-136c-2-80 154-74 161-7" id="aV"/><g id="w"><use transform="matrix(0.04938271604938272,0,0,0.04938271604938272,0,0)" xlink:href="#aO"/><use transform="matrix(0.04938271604938272,0,0,0.04938271604938272,10.814814814814815,0)" xlink:href="#aV"/><use transform="matrix(0.04938271604938272,0,0,0.04938271604938272,20.69135802469136,0)" xlink:href="#aC"/><use transform="matrix(0.04938271604938272,0,0,0.04938271604938272,30.567901234567906,0)" xlink:href="#aF"/></g><path fill="#e81313" d="M30-248c118-7 216 8 213 122C240-48 200 0 122 0H30v-248zM63-27c89 8 146-16 146-99s-60-101-146-95v194" id="aW"/><path fill="#e81313" d="M100-194c63 0 86 42 84 106H49c0 40 14 67 53 68 26 1 43-12 49-29l28 8c-11 28-37 45-77 45C44 4 14-33 15-96c1-61 26-98 85-98zm52 81c6-60-76-77-97-28-3 7-6 17-6 28h103" id="aX"/><path fill="#e81313" d="M24 0v-261h32V0H24" id="aY"/><path fill="#e81313" d="M59-47c-2 24 18 29 38 22v24C64 9 27 4 27-40v-127H5v-23h24l9-43h21v43h35v23H59v120" id="aZ"/><g id="x"><use transform="matrix(0.06172839506172839,0,0,0.06172839506172839,0,0)" xlink:href="#aW"/><use transform="matrix(0.06172839506172839,0,0,0.06172839506172839,15.987654320987653,0)" xlink:href="#aX"/><use transform="matrix(0.06172839506172839,0,0,0.06172839506172839,28.333333333333332,0)" xlink:href="#aY"/><use transform="matrix(0.06172839506172839,0,0,0.06172839506172839,33.20987654320987,0)" xlink:href="#aX"/><use transform="matrix(0.06172839506172839,0,0,0.06172839506172839,45.55555555555555,0)" xlink:href="#aZ"/><use transform="matrix(0.06172839506172839,0,0,0.06172839506172839,51.72839506172839,0)" xlink:href="#aX"/></g><path fill="#e81313" d="M24-231v-30h32v30H24zM24 0v-190h32V0H24" id="ba"/><path fill="#e81313" d="M210-169c-67 3-38 105-44 169h-31v-121c0-29-5-50-35-48C34-165 62-65 56 0H25l-1-190h30c1 10-1 24 2 32 10-44 99-50 107 0 11-21 27-35 58-36 85-2 47 119 55 194h-31v-121c0-29-5-49-35-48" id="bb"/><path fill="#e81313" d="M141-36C126-15 110 5 73 4 37 3 15-17 15-53c-1-64 63-63 125-63 3-35-9-54-41-54-24 1-41 7-42 31l-33-3c5-37 33-52 76-52 45 0 72 20 72 64v82c-1 20 7 32 28 27v20c-31 9-61-2-59-35zM48-53c0 20 12 33 32 33 41-3 63-29 60-74-43 2-92-5-92 41" id="bc"/><path fill="#e81313" d="M177-190C167-65 218 103 67 71c-23-6-38-20-44-43l32-5c15 47 100 32 89-28v-30C133-14 115 1 83 1 29 1 15-40 15-95c0-56 16-97 71-98 29-1 48 16 59 35 1-10 0-23 2-32h30zM94-22c36 0 50-32 50-73 0-42-14-75-50-75-39 0-46 34-46 75s6 73 46 73" id="bd"/><path fill="#e81313" d="M135-143c-3-34-86-38-87 0 15 53 115 12 119 90S17 21 10-45l28-5c4 36 97 45 98 0-10-56-113-15-118-90-4-57 82-63 122-42 12 7 21 19 24 35" id="be"/><g id="y"><use transform="matrix(0.06172839506172839,0,0,0.06172839506172839,0,0)" xlink:href="#ba"/><use transform="matrix(0.06172839506172839,0,0,0.06172839506172839,4.876543209876543,0)" xlink:href="#bb"/><use transform="matrix(0.06172839506172839,0,0,0.06172839506172839,23.33333333333333,0)" xlink:href="#bc"/><use transform="matrix(0.06172839506172839,0,0,0.06172839506172839,35.679012345679006,0)" xlink:href="#bd"/><use transform="matrix(0.06172839506172839,0,0,0.06172839506172839,48.02469135802468,0)" xlink:href="#aX"/><use transform="matrix(0.06172839506172839,0,0,0.06172839506172839,60.37037037037036,0)" xlink:href="#be"/></g><path fill="#e81313" d="M230 0l2-204L168 0h-37L68-204 70 0H24v-248h70l56 185 57-185h69V0h-46" id="bf"/><path fill="#e81313" d="M185-48c-13 30-37 53-82 52C43 2 14-33 14-96s30-98 90-98c62 0 83 45 84 108H66c0 31 8 55 39 56 18 0 30-7 34-22zm-45-69c5-46-57-63-70-21-2 6-4 13-4 21h74" id="bg"/><path fill="#e81313" d="M137-138c1-29-70-34-71-4 15 46 118 7 119 86 1 83-164 76-172 9l43-7c4 19 20 25 44 25 33 8 57-30 24-41C81-84 22-81 20-136c-2-80 154-74 161-7" id="bh"/><path fill="#e81313" d="M133-34C117-15 103 5 69 4 32 3 11-16 11-54c-1-60 55-63 116-61 1-26-3-47-28-47-18 1-26 9-28 27l-52-2c7-38 36-58 82-57s74 22 75 68l1 82c-1 14 12 18 25 15v27c-30 8-71 5-69-32zm-48 3c29 0 43-24 42-57-32 0-66-3-65 30 0 17 8 27 23 27" id="bi"/><path fill="#e81313" d="M195-6C206 82 75 100 31 46c-4-6-6-13-8-21l49-6c3 16 16 24 34 25 40 0 42-37 40-79-11 22-30 35-61 35-53 0-70-43-70-97 0-56 18-96 73-97 30 0 46 14 59 34l2-30h47zm-90-29c32 0 41-27 41-63 0-35-9-62-40-62-32 0-39 29-40 63 0 36 9 62 39 62" id="bj"/><g id="z"><use transform="matrix(0.04938271604938272,0,0,0.04938271604938272,0,0)" xlink:href="#bf"/><use transform="matrix(0.04938271604938272,0,0,0.04938271604938272,14.765432098765434,0)" xlink:href="#bg"/><use transform="matrix(0.04938271604938272,0,0,0.04938271604938272,24.641975308641978,0)" xlink:href="#bh"/><use transform="matrix(0.04938271604938272,0,0,0.04938271604938272,34.51851851851852,0)" xlink:href="#bh"/><use transform="matrix(0.04938271604938272,0,0,0.04938271604938272,44.39506172839506,0)" xlink:href="#bi"/><use transform="matrix(0.04938271604938272,0,0,0.04938271604938272,54.27160493827161,0)" xlink:href="#bj"/><use transform="matrix(0.04938271604938272,0,0,0.04938271604938272,65.08641975308642,0)" xlink:href="#bg"/></g><path fill="#e81313" d="M88-194c31-1 46 15 58 34l-1-101h50l1 261h-48c-2-10 0-23-3-31C134-8 116 4 84 4 32 4 16-41 15-95c0-56 19-97 73-99zm17 164c33 0 40-30 41-66 1-37-9-64-41-64s-38 30-39 65c0 43 13 65 39 65" id="bk"/><path fill="#e81313" d="M25 0v-261h50V0H25" id="bl"/><path fill="#e81313" d="M115-3C79 11 28 4 28-45v-112H4v-33h27l15-45h31v45h36v33H77v99c-1 23 16 31 38 25v30" id="bm"/><g id="A"><use transform="matrix(0.04938271604938272,0,0,0.04938271604938272,0,0)" xlink:href="#bk"/><use transform="matrix(0.04938271604938272,0,0,0.04938271604938272,10.814814814814815,0)" xlink:href="#bg"/><use transform="matrix(0.04938271604938272,0,0,0.04938271604938272,20.69135802469136,0)" xlink:href="#bl"/><use transform="matrix(0.04938271604938272,0,0,0.04938271604938272,25.629629629629633,0)" xlink:href="#bg"/><use transform="matrix(0.04938271604938272,0,0,0.04938271604938272,35.50617283950618,0)" xlink:href="#bm"/><use transform="matrix(0.04938271604938272,0,0,0.04938271604938272,41.38271604938272,0)" xlink:href="#bg"/><use transform="matrix(0.04938271604938272,0,0,0.04938271604938272,51.25925925925927,0)" xlink:href="#bk"/></g><path fill="#e81313" d="M128 0H69L1-190h53L99-40l48-150h52" id="bn"/><path fill="#e81313" d="M135-194c87-1 58 113 63 194h-50c-7-57 23-157-34-157-59 0-34 97-39 157H25l-1-190h47c2 12-1 28 3 38 12-26 28-41 61-42" id="bo"/><g id="B"><use transform="matrix(0.04938271604938272,0,0,0.04938271604938272,0,0)" xlink:href="#bg"/><use transform="matrix(0.04938271604938272,0,0,0.04938271604938272,9.876543209876544,0)" xlink:href="#bn"/><use transform="matrix(0.04938271604938272,0,0,0.04938271604938272,19.75308641975309,0)" xlink:href="#bg"/><use transform="matrix(0.04938271604938272,0,0,0.04938271604938272,29.629629629629633,0)" xlink:href="#bo"/><use transform="matrix(0.04938271604938272,0,0,0.04938271604938272,40.44444444444445,0)" xlink:href="#bm"/></g><path fill="#e81313" d="M24-248c120-7 223 5 221 122C244-46 201 0 124 0H24v-248zM76-40c74 7 117-18 117-86 0-67-45-88-117-82v168" id="bp"/><g id="C"><use transform="matrix(0.04938271604938272,0,0,0.04938271604938272,0,0)" xlink:href="#bp"/><use transform="matrix(0.04938271604938272,0,0,0.04938271604938272,12.790123456790125,0)" xlink:href="#bg"/><use transform="matrix(0.04938271604938272,0,0,0.04938271604938272,22.66666666666667,0)" xlink:href="#bl"/><use transform="matrix(0.04938271604938272,0,0,0.04938271604938272,27.604938271604947,0)" xlink:href="#bg"/><use transform="matrix(0.04938271604938272,0,0,0.04938271604938272,37.48148148148149,0)" xlink:href="#bm"/><use transform="matrix(0.04938271604938272,0,0,0.04938271604938272,43.35802469135803,0)" xlink:href="#bg"/></g><path fill="#e81313" d="M144 0l-44-69L55 0H2l70-98-66-92h53l41 62 40-62h54l-67 91 71 99h-54" id="bq"/><g id="D"><use transform="matrix(0.04938271604938272,0,0,0.04938271604938272,0,0)" xlink:href="#bm"/><use transform="matrix(0.04938271604938272,0,0,0.04938271604938272,5.8765432098765435,0)" xlink:href="#bg"/><use transform="matrix(0.04938271604938272,0,0,0.04938271604938272,15.753086419753087,0)" xlink:href="#bq"/><use transform="matrix(0.04938271604938272,0,0,0.04938271604938272,25.629629629629633,0)" xlink:href="#bm"/></g><path fill="#e81313" d="M24 0v-248h195v40H76v63h132v40H76v65h150V0H24" id="br"/><path fill="#e81313" d="M24 0v-248h52v208h133V0H24" id="bs"/><path fill="#e81313" d="M136-208V0H84v-208H4v-40h212v40h-80" id="bt"/><g id="E"><use transform="matrix(0.04938271604938272,0,0,0.04938271604938272,0,0)" xlink:href="#bp"/><use transform="matrix(0.04938271604938272,0,0,0.04938271604938272,12.790123456790125,0)" xlink:href="#br"/><use transform="matrix(0.04938271604938272,0,0,0.04938271604938272,24.641975308641978,0)" xlink:href="#bs"/><use transform="matrix(0.04938271604938272,0,0,0.04938271604938272,35.45679012345679,0)" xlink:href="#br"/><use transform="matrix(0.04938271604938272,0,0,0.04938271604938272,47.308641975308646,0)" xlink:href="#bt"/><use transform="matrix(0.04938271604938272,0,0,0.04938271604938272,58.12345679012346,0)" xlink:href="#br"/></g><path fill="#e81313" d="M114-157C55-157 80-60 75 0H25v-261h50l-1 109c12-26 28-41 61-42 86-1 58 113 63 194h-50c-7-57 23-157-34-157" id="bu"/><path fill="#e81313" d="M85 4C-2 5 27-109 22-190h50c7 57-23 150 33 157 60-5 35-97 40-157h50l1 190h-47c-2-12 1-28-3-38-12 25-28 42-61 42" id="bv"/><path fill="#e81313" d="M220-157c-53 9-28 100-34 157h-49v-107c1-27-5-49-29-50C55-147 81-57 75 0H25l-1-190h47c2 12-1 28 3 38 10-53 101-56 108 0 13-22 24-43 59-42 82 1 51 116 57 194h-49v-107c-1-25-5-48-29-50" id="bw"/><path fill="#e81313" d="M135-194c52 0 70 43 70 98 0 56-19 99-73 100-30 1-46-15-58-35L72 0H24l1-261h50v104c11-23 29-37 60-37zM114-30c31 0 40-27 40-66 0-37-7-63-39-63s-41 28-41 65c0 36 8 64 40 64" id="bx"/><path fill="#e81313" d="M25-224v-37h50v37H25zM25 0v-190h50V0H25" id="by"/><g id="F"><use transform="matrix(0.04938271604938272,0,0,0.04938271604938272,0,0)" xlink:href="#bm"/><use transform="matrix(0.04938271604938272,0,0,0.04938271604938272,5.8765432098765435,0)" xlink:href="#bu"/><use transform="matrix(0.04938271604938272,0,0,0.04938271604938272,16.691358024691358,0)" xlink:href="#bv"/><use transform="matrix(0.04938271604938272,0,0,0.04938271604938272,27.50617283950617,0)" xlink:href="#bw"/><use transform="matrix(0.04938271604938272,0,0,0.04938271604938272,43.30864197530864,0)" xlink:href="#bx"/><use transform="matrix(0.04938271604938272,0,0,0.04938271604938272,54.12345679012345,0)" xlink:href="#bo"/><use transform="matrix(0.04938271604938272,0,0,0.04938271604938272,64.93827160493827,0)" xlink:href="#bi"/><use transform="matrix(0.04938271604938272,0,0,0.04938271604938272,74.81481481481481,0)" xlink:href="#by"/><use transform="matrix(0.04938271604938272,0,0,0.04938271604938272,79.75308641975309,0)" xlink:href="#bl"/></g><g id="G"><use transform="matrix(0.04938271604938272,0,0,0.04938271604938272,0,0)" xlink:href="#by"/><use transform="matrix(0.04938271604938272,0,0,0.04938271604938272,4.938271604938272,0)" xlink:href="#bw"/><use transform="matrix(0.04938271604938272,0,0,0.04938271604938272,20.74074074074074,0)" xlink:href="#bi"/><use transform="matrix(0.04938271604938272,0,0,0.04938271604938272,30.617283950617285,0)" xlink:href="#bj"/><use transform="matrix(0.04938271604938272,0,0,0.04938271604938272,41.4320987654321,0)" xlink:href="#bg"/></g><path fill="#e81313" d="M85-194c31 0 48 13 60 33l-1-100h32l1 261h-30c-2-10 0-23-3-31C134-8 116 4 85 4 32 4 16-35 15-94c0-66 23-100 70-100zm9 24c-40 0-46 34-46 75 0 40 6 74 45 74 42 0 51-32 51-76 0-42-9-74-50-73" id="bz"/><g id="H"><use transform="matrix(0.06172839506172839,0,0,0.06172839506172839,0,0)" xlink:href="#bz"/><use transform="matrix(0.06172839506172839,0,0,0.06172839506172839,12.345679012345679,0)" xlink:href="#aX"/><use transform="matrix(0.06172839506172839,0,0,0.06172839506172839,24.691358024691358,0)" xlink:href="#aY"/><use transform="matrix(0.06172839506172839,0,0,0.06172839506172839,29.5679012345679,0)" xlink:href="#aX"/><use transform="matrix(0.06172839506172839,0,0,0.06172839506172839,41.913580246913575,0)" xlink:href="#aZ"/><use transform="matrix(0.06172839506172839,0,0,0.06172839506172839,48.08641975308642,0)" xlink:href="#aX"/></g><g id="I"><use transform="matrix(0.06172839506172839,0,0,0.06172839506172839,0,0)" xlink:href="#bb"/><use transform="matrix(0.06172839506172839,0,0,0.06172839506172839,18.456790123456788,0)" xlink:href="#aX"/><use transform="matrix(0.06172839506172839,0,0,0.06172839506172839,30.80246913580247,0)" xlink:href="#be"/><use transform="matrix(0.06172839506172839,0,0,0.06172839506172839,41.91358024691358,0)" xlink:href="#be"/><use transform="matrix(0.06172839506172839,0,0,0.06172839506172839,53.0246913580247,0)" xlink:href="#bc"/><use transform="matrix(0.06172839506172839,0,0,0.06172839506172839,65.37037037037038,0)" xlink:href="#bd"/><use transform="matrix(0.06172839506172839,0,0,0.06172839506172839,77.71604938271606,0)" xlink:href="#aX"/></g><path fill="#232f3e" d="M205 0l-28-72H64L36 0H1l101-248h38L239 0h-34zm-38-99l-47-123c-12 45-31 82-46 123h93" id="bA"/><path fill="#232f3e" d="M266 0h-40l-56-210L115 0H75L2-248h35L96-30l15-64 43-154h32l59 218 59-218h35" id="bB"/><path fill="#232f3e" d="M185-189c-5-48-123-54-124 2 14 75 158 14 163 119 3 78-121 87-175 55-17-10-28-26-33-46l33-7c5 56 141 63 141-1 0-78-155-14-162-118-5-82 145-84 179-34 5 7 8 16 11 25" id="bC"/><g id="J"><use transform="matrix(0.08703703703703704,0,0,0.08703703703703704,0,0)" xlink:href="#bA"/><use transform="matrix(0.08703703703703704,0,0,0.08703703703703704,19.757407407407406,0)" xlink:href="#bB"/><use transform="matrix(0.08703703703703704,0,0,0.08703703703703704,49.262962962962966,0)" xlink:href="#bC"/></g><path fill="#232f3e" d="M126-127c33 6 58 20 58 59 0 88-139 92-164 29-3-8-5-16-6-25l32-3c6 27 21 44 54 44 32 0 52-15 52-46 0-38-36-46-79-43v-28c39 1 72-4 72-42 0-27-17-43-46-43-28 0-47 15-49 41l-32-3c6-42 35-63 81-64 48-1 79 21 79 65 0 36-21 52-52 59" id="bD"/><g id="K"><use transform="matrix(0.08703703703703704,0,0,0.08703703703703704,0,0)" xlink:href="#bC"/><use transform="matrix(0.08703703703703704,0,0,0.08703703703703704,20.88888888888889,0)" xlink:href="#bD"/></g><path fill="#232f3e" d="M115-194c53 0 69 39 70 98 0 66-23 100-70 100C84 3 66-7 56-30L54 0H23l1-261h32v101c10-23 28-34 59-34zm-8 174c40 0 45-34 45-75 0-40-5-75-45-74-42 0-51 32-51 76 0 43 10 73 51 73" id="bE"/><path fill="#232f3e" d="M84 4C-5 8 30-112 23-190h32v120c0 31 7 50 39 49 72-2 45-101 50-169h31l1 190h-30c-1-10 1-25-2-33-11 22-28 36-60 37" id="bF"/><path fill="#232f3e" d="M96-169c-40 0-48 33-48 73s9 75 48 75c24 0 41-14 43-38l32 2c-6 37-31 61-74 61-59 0-76-41-82-99-10-93 101-131 147-64 4 7 5 14 7 22l-32 3c-4-21-16-35-41-35" id="bG"/><path fill="#232f3e" d="M143 0L79-87 56-68V0H24v-261h32v163l83-92h37l-77 82L181 0h-38" id="bH"/><path fill="#232f3e" d="M100-194c63 0 86 42 84 106H49c0 40 14 67 53 68 26 1 43-12 49-29l28 8c-11 28-37 45-77 45C44 4 14-33 15-96c1-61 26-98 85-98zm52 81c6-60-76-77-97-28-3 7-6 17-6 28h103" id="bI"/><path fill="#232f3e" d="M59-47c-2 24 18 29 38 22v24C64 9 27 4 27-40v-127H5v-23h24l9-43h21v43h35v23H59v120" id="bJ"/><path fill="#232f3e" d="M33-154v-36h34v36H33zM33 0v-36h34V0H33" id="bK"/><g id="L"><use transform="matrix(0.06234567901234568,0,0,0.06234567901234568,0,0)" xlink:href="#bE"/><use transform="matrix(0.06234567901234568,0,0,0.06234567901234568,12.469135802469136,0)" xlink:href="#bF"/><use transform="matrix(0.06234567901234568,0,0,0.06234567901234568,24.938271604938272,0)" xlink:href="#bG"/><use transform="matrix(0.06234567901234568,0,0,0.06234567901234568,36.160493827160494,0)" xlink:href="#bH"/><use transform="matrix(0.06234567901234568,0,0,0.06234567901234568,47.382716049382715,0)" xlink:href="#bI"/><use transform="matrix(0.06234567901234568,0,0,0.06234567901234568,59.85185185185185,0)" xlink:href="#bJ"/><use transform="matrix(0.06234567901234568,0,0,0.06234567901234568,66.08641975308642,0)" xlink:href="#bK"/></g><path fill="#232f3e" d="M141-36C126-15 110 5 73 4 37 3 15-17 15-53c-1-64 63-63 125-63 3-35-9-54-41-54-24 1-41 7-42 31l-33-3c5-37 33-52 76-52 45 0 72 20 72 64v82c-1 20 7 32 28 27v20c-31 9-61-2-59-35zM48-53c0 20 12 33 32 33 41-3 63-29 60-74-43 2-92-5-92 41" id="bL"/><path fill="#232f3e" d="M114-163C36-179 61-72 57 0H25l-1-190h30c1 12-1 29 2 39 6-27 23-49 58-41v29" id="bM"/><path fill="#232f3e" d="M24 0v-261h32V0H24" id="bN"/><path fill="#232f3e" d="M16-82v-28h88v28H16" id="bO"/><path fill="#232f3e" d="M210-169c-67 3-38 105-44 169h-31v-121c0-29-5-50-35-48C34-165 62-65 56 0H25l-1-190h30c1 10-1 24 2 32 10-44 99-50 107 0 11-21 27-35 58-36 85-2 47 119 55 194h-31v-121c0-29-5-49-35-48" id="bP"/><path fill="#232f3e" d="M0 4l72-265h28L28 4H0" id="bQ"/><g id="M"><use transform="matrix(0.06234567901234568,0,0,0.06234567901234568,0,0)" xlink:href="#bH"/><use transform="matrix(0.06234567901234568,0,0,0.06234567901234568,11.222222222222223,0)" xlink:href="#bL"/><use transform="matrix(0.06234567901234568,0,0,0.06234567901234568,23.69135802469136,0)" xlink:href="#bM"/><use transform="matrix(0.06234567901234568,0,0,0.06234567901234568,31.110493827160496,0)" xlink:href="#bN"/><use transform="matrix(0.06234567901234568,0,0,0.06234567901234568,36.0358024691358,0)" xlink:href="#bL"/><use transform="matrix(0.06234567901234568,0,0,0.06234567901234568,48.50493827160494,0)" xlink:href="#bM"/><use transform="matrix(0.06234567901234568,0,0,0.06234567901234568,55.92407407407408,0)" xlink:href="#bF"/><use transform="matrix(0.06234567901234568,0,0,0.06234567901234568,68.39320987654321,0)" xlink:href="#bO"/><use transform="matrix(0.06234567901234568,0,0,0.06234567901234568,75.81234567901235,0)" xlink:href="#bP"/><use transform="matrix(0.06234567901234568,0,0,0.06234567901234568,94.45370370370371,0)" xlink:href="#bE"/><use transform="matrix(0.06234567901234568,0,0,0.06234567901234568,106.92283950617285,0)" xlink:href="#bQ"/></g><path fill="#232f3e" d="M101-234c-31-9-42 10-38 44h38v23H63V0H32v-167H5v-23h27c-7-52 17-82 69-68v24" id="bR"/><path fill="#232f3e" d="M100-194c62-1 85 37 85 99 1 63-27 99-86 99S16-35 15-95c0-66 28-99 85-99zM99-20c44 1 53-31 53-75 0-43-8-75-51-75s-53 32-53 75 10 74 51 75" id="bS"/><path fill="#232f3e" d="M85-194c31 0 48 13 60 33l-1-100h32l1 261h-30c-2-10 0-23-3-31C134-8 116 4 85 4 32 4 16-35 15-94c0-66 23-100 70-100zm9 24c-40 0-46 34-46 75 0 40 6 74 45 74 42 0 51-32 51-76 0-42-9-74-50-73" id="bT"/><path fill="#232f3e" d="M135-143c-3-34-86-38-87 0 15 53 115 12 119 90S17 21 10-45l28-5c4 36 97 45 98 0-10-56-113-15-118-90-4-57 82-63 122-42 12 7 21 19 24 35" id="bU"/><g id="N"><use transform="matrix(0.06234567901234568,0,0,0.06234567901234568,0,0)" xlink:href="#bR"/><use transform="matrix(0.06234567901234568,0,0,0.06234567901234568,6.234567901234568,0)" xlink:href="#bS"/><use transform="matrix(0.06234567901234568,0,0,0.06234567901234568,18.703703703703702,0)" xlink:href="#bN"/><use transform="matrix(0.06234567901234568,0,0,0.06234567901234568,23.629012345679012,0)" xlink:href="#bT"/><use transform="matrix(0.06234567901234568,0,0,0.06234567901234568,36.09814814814815,0)" xlink:href="#bI"/><use transform="matrix(0.06234567901234568,0,0,0.06234567901234568,48.56728395061728,0)" xlink:href="#bM"/><use transform="matrix(0.06234567901234568,0,0,0.06234567901234568,55.986419753086416,0)" xlink:href="#bU"/><use transform="matrix(0.06234567901234568,0,0,0.06234567901234568,67.20864197530864,0)" xlink:href="#bK"/></g><path fill="#232f3e" d="M30-248c118-7 216 8 213 122C240-48 200 0 122 0H30v-248zM63-27c89 8 146-16 146-99s-60-101-146-95v194" id="bV"/><path fill="#232f3e" d="M179-190L93 31C79 59 56 82 12 73V49c39 6 53-20 64-50L1-190h34L92-34l54-156h33" id="bW"/><path fill="#232f3e" d="M117-194c89-4 53 116 60 194h-32v-121c0-31-8-49-39-48C34-167 62-67 57 0H25l-1-190h30c1 10-1 24 2 32 11-22 29-35 61-36" id="bX"/><path fill="#232f3e" d="M160-131c35 5 61 23 61 61C221 17 115-2 30 0v-248c76 3 177-17 177 60 0 33-19 50-47 57zm-97-11c50-1 110 9 110-42 0-47-63-36-110-37v79zm0 115c55-2 124 14 124-45 0-56-70-42-124-44v89" id="bY"/><g id="O"><use transform="matrix(0.08703703703703704,0,0,0.08703703703703704,0,0)" xlink:href="#bV"/><use transform="matrix(0.08703703703703704,0,0,0.08703703703703704,22.542592592592595,0)" xlink:href="#bW"/><use transform="matrix(0.08703703703703704,0,0,0.08703703703703704,38.20925925925926,0)" xlink:href="#bX"/><use transform="matrix(0.08703703703703704,0,0,0.08703703703703704,55.616666666666674,0)" xlink:href="#bL"/><use transform="matrix(0.08703703703703704,0,0,0.08703703703703704,73.02407407407408,0)" xlink:href="#bP"/><use transform="matrix(0.08703703703703704,0,0,0.08703703703703704,99.04814814814814,0)" xlink:href="#bS"/><use transform="matrix(0.08703703703703704,0,0,0.08703703703703704,116.45555555555556,0)" xlink:href="#bV"/><use transform="matrix(0.08703703703703704,0,0,0.08703703703703704,138.99814814814815,0)" xlink:href="#bY"/></g><g id="P"><use transform="matrix(0.06234567901234568,0,0,0.06234567901234568,0,0)" xlink:href="#bJ"/><use transform="matrix(0.06234567901234568,0,0,0.06234567901234568,6.234567901234568,0)" xlink:href="#bL"/><use transform="matrix(0.06234567901234568,0,0,0.06234567901234568,18.703703703703702,0)" xlink:href="#bE"/><use transform="matrix(0.06234567901234568,0,0,0.06234567901234568,31.17283950617284,0)" xlink:href="#bN"/><use transform="matrix(0.06234567901234568,0,0,0.06234567901234568,36.09814814814815,0)" xlink:href="#bI"/><use transform="matrix(0.06234567901234568,0,0,0.06234567901234568,48.56728395061728,0)" xlink:href="#bU"/></g><path fill="#3a414a" d="M266 0h-40l-56-210L115 0H75L2-248h35L96-30l15-64 43-154h32l59 218 59-218h35" id="bZ"/><path fill="#3a414a" d="M185-189c-5-48-123-54-124 2 14 75 158 14 163 119 3 78-121 87-175 55-17-10-28-26-33-46l33-7c5 56 141 63 141-1 0-78-155-14-162-118-5-82 145-84 179-34 5 7 8 16 11 25" id="ca"/><g id="Q"><use transform="matrix(0.06172839506172839,0,0,0.06172839506172839,0,0)" xlink:href="#ao"/><use transform="matrix(0.06172839506172839,0,0,0.06172839506172839,14.012345679012345,0)" xlink:href="#bZ"/><use transform="matrix(0.06172839506172839,0,0,0.06172839506172839,34.938271604938265,0)" xlink:href="#ca"/></g><g id="R"><use transform="matrix(0.06172839506172839,0,0,0.06172839506172839,0,0)" xlink:href="#bZ"/><use transform="matrix(0.06172839506172839,0,0,0.06172839506172839,20.123456790123456,0)" xlink:href="#ao"/><use transform="matrix(0.06172839506172839,0,0,0.06172839506172839,34.938271604938265,0)" xlink:href="#at"/></g><path fill="#3a414a" d="M115-194c55 1 70 41 70 98S169 2 115 4C84 4 66-9 55-30l1 105H24l-1-265h31l2 30c10-21 28-34 59-34zm-8 174c40 0 45-34 45-75s-6-73-45-74c-42 0-51 32-51 76 0 43 10 73 51 73" id="cb"/><g id="T"><use transform="matrix(0.06172839506172839,0,0,0.06172839506172839,0,0)" xlink:href="#ad"/><use transform="matrix(0.06172839506172839,0,0,0.06172839506172839,12.345679012345679,0)" xlink:href="#ah"/><use transform="matrix(0.06172839506172839,0,0,0.06172839506172839,23.45679012345679,0)" xlink:href="#ah"/><use transform="matrix(0.06172839506172839,0,0,0.06172839506172839,34.5679012345679,0)" xlink:href="#ab"/><use transform="matrix(0.06172839506172839,0,0,0.06172839506172839,46.913580246913575,0)" xlink:href="#cb"/><use transform="matrix(0.06172839506172839,0,0,0.06172839506172839,59.25925925925925,0)" xlink:href="#af"/></g><path fill="#3a414a" d="M33-154v-36h34v36H33zM33 0v-36h34V0H33" id="cc"/><g id="U"><use transform="matrix(0.06172839506172839,0,0,0.06172839506172839,0,0)" xlink:href="#aq"/><use transform="matrix(0.06172839506172839,0,0,0.06172839506172839,12.345679012345679,0)" xlink:href="#au"/><use transform="matrix(0.06172839506172839,0,0,0.06172839506172839,19.691358024691358,0)" xlink:href="#ag"/><use transform="matrix(0.06172839506172839,0,0,0.06172839506172839,24.5679012345679,0)" xlink:href="#ae"/><use transform="matrix(0.06172839506172839,0,0,0.06172839506172839,36.913580246913575,0)" xlink:href="#ag"/><use transform="matrix(0.06172839506172839,0,0,0.06172839506172839,41.79012345679012,0)" xlink:href="#am"/><use transform="matrix(0.06172839506172839,0,0,0.06172839506172839,54.1358024691358,0)" xlink:href="#cc"/></g><path fill="#3a414a" d="M147 0L96-86 75-71V0H25v-261h50v150l67-79h53l-66 74L201 0h-54" id="cd"/><path fill="#3a414a" d="M133-34C117-15 103 5 69 4 32 3 11-16 11-54c-1-60 55-63 116-61 1-26-3-47-28-47-18 1-26 9-28 27l-52-2c7-38 36-58 82-57s74 22 75 68l1 82c-1 14 12 18 25 15v27c-30 8-71 5-69-32zm-48 3c29 0 43-24 42-57-32 0-66-3-65 30 0 17 8 27 23 27" id="ce"/><path fill="#3a414a" d="M135-150c-39-12-60 13-60 57V0H25l-1-190h47c2 13-1 29 3 40 6-28 27-53 61-41v41" id="cf"/><path fill="#3a414a" d="M25 0v-261h50V0H25" id="cg"/><path fill="#3a414a" d="M85 4C-2 5 27-109 22-190h50c7 57-23 150 33 157 60-5 35-97 40-157h50l1 190h-47c-2-12 1-28-3-38-12 25-28 42-61 42" id="ch"/><path fill="#3a414a" d="M24 0v-54h51V0H24" id="ci"/><path fill="#3a414a" d="M190-63c-7 42-38 67-86 67-59 0-84-38-90-98-12-110 154-137 174-36l-49 2c-2-19-15-32-35-32-30 0-35 28-38 64-6 74 65 87 74 30" id="cj"/><path fill="#3a414a" d="M110-194c64 0 96 36 96 99 0 64-35 99-97 99-61 0-95-36-95-99 0-62 34-99 96-99zm-1 164c35 0 45-28 45-65 0-40-10-65-43-65-34 0-45 26-45 65 0 36 10 65 43 65" id="ck"/><path fill="#3a414a" d="M220-157c-53 9-28 100-34 157h-49v-107c1-27-5-49-29-50C55-147 81-57 75 0H25l-1-190h47c2 12-1 28 3 38 10-53 101-56 108 0 13-22 24-43 59-42 82 1 51 116 57 194h-49v-107c-1-25-5-48-29-50" id="cl"/><g id="V"><use transform="matrix(0.06172839506172839,0,0,0.06172839506172839,0,0)" xlink:href="#cd"/><use transform="matrix(0.06172839506172839,0,0,0.06172839506172839,12.345679012345679,0)" xlink:href="#ce"/><use transform="matrix(0.06172839506172839,0,0,0.06172839506172839,24.691358024691358,0)" xlink:href="#cf"/><use transform="matrix(0.06172839506172839,0,0,0.06172839506172839,33.33333333333333,0)" xlink:href="#cg"/><use transform="matrix(0.06172839506172839,0,0,0.06172839506172839,39.50617283950617,0)" xlink:href="#ce"/><use transform="matrix(0.06172839506172839,0,0,0.06172839506172839,51.85185185185185,0)" xlink:href="#cf"/><use transform="matrix(0.06172839506172839,0,0,0.06172839506172839,60.49382716049382,0)" xlink:href="#ch"/><use transform="matrix(0.06172839506172839,0,0,0.06172839506172839,74.01234567901234,0)" xlink:href="#ci"/><use transform="matrix(0.06172839506172839,0,0,0.06172839506172839,80.18518518518518,0)" xlink:href="#cj"/><use transform="matrix(0.06172839506172839,0,0,0.06172839506172839,92.53086419753086,0)" xlink:href="#ck"/><use transform="matrix(0.06172839506172839,0,0,0.06172839506172839,106.04938271604938,0)" xlink:href="#cl"/></g></defs></g></svg>