<svg xmlns="http://www.w3.org/2000/svg" xmlns:xlink="http://www.w3.org/1999/xlink" xmlns:lucid="lucid" width="761.33" height="373.33"><g transform="translate(-502.6666666666665 -320.00000000000006)" lucid:page-tab-id="0_0"><path d="M0 0h1870.87v1322.83H0z" fill="#fff"/><path d="M522.67 346a6 6 0 0 1 6-6H1238a6 6 0 0 1 6 6v321.33a6 6 0 0 1-6 6H528.67a6 6 0 0 1-6-6z" stroke="#232f3e" fill="#fff" fill-opacity="0"/><path d="M522.67 340h56v56h-56v-56z" stroke="#fff" stroke-opacity="0" fill="#232f3e"/><path d="M563.55 381.22h-25c-4.13.05-7.57-3.1-7.9-7.2v-.64c-.15-3.4 1.97-6.38 5.25-7.36v-.66c.12-4.22 2.44-7.75 6.24-9.57 4.12-1.86 8.72-.96 11.8 2.3 1.08 1.1 1.84 2.2 2.44 3.6 1.2-1 2.72-1.32 4.24-.9 2.25.8 3.7 2.74 3.77 5.1 3.67.65 6.3 3.8 6.27 7.56 0 7.07-7.04 7.73-7.12 7.76zm-26.7-13.88c-2.83.6-4.75 3.14-4.6 6.04v.53c.3 3.33 3.1 5.84 6.4 5.76h24.98c3.04-.3 5.4-2.64 5.68-5.7.3-3.43-2.23-6.5-5.67-6.78-.44-.05-.72-.44-.64-.87.07-1.83-1-3.44-2.74-4.13-1.32-.37-2.64.13-3.44 1.24-.2.25-.44.38-.76.33-.28-.05-.48-.24-.6-.5-.6-1.6-1.4-2.85-2.6-4.04-2.68-2.8-6.6-3.6-10.12-2-3.24 1.6-5.2 4.63-5.32 8.24-.04.4-.04.74 0 1.14.04.4-.2.76-.6.84z" stroke="#fff" stroke-opacity="0" fill="#fff"/><use xlink:href="#a" transform="matrix(1,0,0,1,593.6666666666665,360.00000000000006) translate(0 14.4)"/><use xlink:href="#b" transform="matrix(1,0,0,1,593.6666666666665,360.00000000000006) translate(45.3 14.4)"/><path d="M660.66 450.76l57.98 8.6v5.1c0 7.55-25.98 13.65-57.98 13.65-32 0-58-6.1-58-13.64v-5.53z" fill="#8c3123"/><path d="M660.68 487.46c24.2 0 44.94-3.53 53.58-8.5l2.88-4.78 1.16-4.4v5.45l-19.02 81.02c0 5.06-17.28 9.07-38.6 9.07-21.3 0-38.6-4-38.6-9.07l-19-81.02v-5.35l4.37 9.27c8.76 4.87 29.27 8.3 53.23 8.3z" fill="#8c3123"/><path d="M660.67 445.33c32 0 58 6.12 58 13.63 0 7.5-26 13.57-58 13.57s-58-6-58-13.57c0-7.56 26-13.63 58-13.63z" fill="#e05243"/><path d="M660.66 481.95c29.85 0 54.4-5.23 57.62-12.08l-19 81c0 5.06-17.3 9.1-38.62 9.1-21.32 0-38.6-4.04-38.6-9.1l-19.02-81c3.22 6.85 27.77 12.08 57.62 12.08z" fill="#e05243"/><use xlink:href="#c" transform="matrix(1,0,0,1,602.6666666666665,565.3333333333334) translate(17.29012345679012 17.77777777777778)"/><use xlink:href="#d" transform="matrix(1,0,0,1,602.6666666666665,565.3333333333334) translate(44.41975308641975 44.44444444444444)"/><path d="M928.63 484.45v-12.6l-13.3-14.62-21.8 48.1 21.8 48.1 13.3-14.63v-12.7l-4.42 3.08v-6.16l4.43-2.3V508l-4.42.1v-5.68l4.43.2V490.2l-4.42-2.3v-4.34l4.43.87z" fill="#2e73b8"/><path d="M891.58 565.33l23.75-11.88V457.2l-23.75-11.87-26.9 60.96 26.9 59.03z" fill="#5294cf"/><path d="M858.32 565.33h33.27v-120H858.3l-17.2 60.96 17.2 59.03z" fill="#2e73b8"/><path d="M858.3 565.33l-23.95-11.88-7.53-47.16 7.53-49.1 23.9-11.87.05 120z" fill="#205b99"/><path d="M924.2 523.1l-8.9 4.32-23.73 5.1H858.28l-23.2-5.1-.44-.1-.3-.1v-18.07l23.94 1.73H891.57l23.74-1.73 13.37-1.16h-4.46v-5.4h4.36l-13.25-.96-23.73-.77H858.5l-24.17.58v-18.28h.3l23.86-5.67h33.07l23.74 5.67 8.9 4.72v-3l4.47-.38-13.36-9.33-23.73-7.7H858.5l-24.17 7.98V457.2l-11.66 14.62v12.7l3.4.38v3.08l-3.4 1.93v12.7h3.4v5.4l-3.4.1v12.6l3.4 1.9v3.2l-3.4.37v12.6l11.66 14.62V535.1l23.95 7.4H891.57l23.74-7.4 13.37-8.95-4.46-.38v-2.7z" fill="#19486f"/><use xlink:href="#e" transform="matrix(1,0,0,1,822.6666666666665,565.3333333333334) translate(12.29012345679012 17.77777777777778)"/><use xlink:href="#f" transform="matrix(1,0,0,1,822.6666666666665,565.3333333333334) translate(-3.6975308641975317 44.44444444444444)"/><path d="M1138.63 484.45v-12.6l-13.3-14.62-21.8 48.1 21.8 48.1 13.3-14.63v-12.7l-4.42 3.08v-6.16l4.43-2.3V508l-4.42.1v-5.68l4.43.2V490.2l-4.42-2.3v-4.34l4.43.87z" fill="#2e73b8"/><path d="M1101.58 565.33l23.75-11.88V457.2l-23.75-11.87-26.9 60.96 26.9 59.03z" fill="#5294cf"/><path d="M1068.32 565.33h33.27v-120h-33.28l-17.2 60.96 17.2 59.03z" fill="#2e73b8"/><path d="M1068.3 565.33l-23.95-11.88-7.53-47.16 7.53-49.1 23.9-11.87.05 120z" fill="#205b99"/><path d="M1134.2 523.1l-8.9 4.32-23.73 5.1H1068.28l-23.2-5.1-.44-.1-.3-.1v-18.07l23.94 1.73H1101.57l23.74-1.73 13.37-1.16h-4.46v-5.4h4.36l-13.25-.96-23.73-.77h-33.08l-24.17.58v-18.28h.3l23.86-5.67h33.07l23.74 5.67 8.9 4.72v-3l4.47-.38-13.36-9.33-23.73-7.7h-33.08l-24.17 7.98V457.2l-11.66 14.62v12.7l3.4.38v3.08l-3.4 1.93v12.7h3.4v5.4l-3.4.1v12.6l3.4 1.9v3.2l-3.4.37v12.6l11.66 14.62V535.1l23.95 7.4H1101.57l23.74-7.4 13.37-8.95-4.46-.38v-2.7z" fill="#19486f"/><use xlink:href="#e" transform="matrix(1,0,0,1,1032.6666666666665,565.3333333333334) translate(12.29012345679012 17.77777777777778)"/><use xlink:href="#f" transform="matrix(1,0,0,1,1032.6666666666665,565.3333333333334) translate(-3.6975308641975317 44.44444444444444)"/><path d="M805 401.33a6 6 0 0 1 6-6h129.33a6 6 0 0 1 6 6v48a6 6 0 0 1-6 6H811a6 6 0 0 1-6-6z" stroke="#000" stroke-opacity="0" fill="#fff" fill-opacity="0"/><use xlink:href="#g" transform="matrix(1,0,0,1,809.9999999999998,400.33333333333337) translate(15.413580246913568 30.27777777777778)"/><path d="M1015 401.33a6 6 0 0 1 6-6h129.33a6 6 0 0 1 6 6v48a6 6 0 0 1-6 6H1021a6 6 0 0 1-6-6z" stroke="#000" stroke-opacity="0" fill="#fff" fill-opacity="0"/><g><use xlink:href="#h" transform="matrix(1,0,0,1,1019.9999999999998,400.33333333333337) translate(38.870370370370374 30.27777777777778)"/></g><path d="M590 401.33a6 6 0 0 1 6-6h129.33a6 6 0 0 1 6 6v48a6 6 0 0 1-6 6H596a6 6 0 0 1-6-6z" stroke="#000" stroke-opacity="0" fill="#fff" fill-opacity="0"/><g><use xlink:href="#i" transform="matrix(1,0,0,1,594.9999999999998,400.33333333333337) translate(30.259259259259267 30.27777777777778)"/></g><defs><path fill="#232f3e" d="M205 0l-28-72H64L36 0H1l101-248h38L239 0h-34zm-38-99l-47-123c-12 45-31 82-46 123h93" id="j"/><path fill="#232f3e" d="M266 0h-40l-56-210L115 0H75L2-248h35L96-30l15-64 43-154h32l59 218 59-218h35" id="k"/><path fill="#232f3e" d="M185-189c-5-48-123-54-124 2 14 75 158 14 163 119 3 78-121 87-175 55-17-10-28-26-33-46l33-7c5 56 141 63 141-1 0-78-155-14-162-118-5-82 145-84 179-34 5 7 8 16 11 25" id="l"/><g id="a"><use transform="matrix(0.05,0,0,0.05,0,0)" xlink:href="#j"/><use transform="matrix(0.05,0,0,0.05,11.35,0)" xlink:href="#k"/><use transform="matrix(0.05,0,0,0.05,28.299999999999997,0)" xlink:href="#l"/></g><path fill="#232f3e" d="M212-179c-10-28-35-45-73-45-59 0-87 40-87 99 0 60 29 101 89 101 43 0 62-24 78-52l27 14C228-24 195 4 139 4 59 4 22-46 18-125c-6-104 99-153 187-111 19 9 31 26 39 46" id="m"/><path fill="#232f3e" d="M24 0v-261h32V0H24" id="n"/><path fill="#232f3e" d="M100-194c62-1 85 37 85 99 1 63-27 99-86 99S16-35 15-95c0-66 28-99 85-99zM99-20c44 1 53-31 53-75 0-43-8-75-51-75s-53 32-53 75 10 74 51 75" id="o"/><path fill="#232f3e" d="M84 4C-5 8 30-112 23-190h32v120c0 31 7 50 39 49 72-2 45-101 50-169h31l1 190h-30c-1-10 1-25-2-33-11 22-28 36-60 37" id="p"/><path fill="#232f3e" d="M85-194c31 0 48 13 60 33l-1-100h32l1 261h-30c-2-10 0-23-3-31C134-8 116 4 85 4 32 4 16-35 15-94c0-66 23-100 70-100zm9 24c-40 0-46 34-46 75 0 40 6 74 45 74 42 0 51-32 51-76 0-42-9-74-50-73" id="q"/><g id="b"><use transform="matrix(0.05,0,0,0.05,0,0)" xlink:href="#m"/><use transform="matrix(0.05,0,0,0.05,12.950000000000001,0)" xlink:href="#n"/><use transform="matrix(0.05,0,0,0.05,16.900000000000002,0)" xlink:href="#o"/><use transform="matrix(0.05,0,0,0.05,26.900000000000002,0)" xlink:href="#p"/><use transform="matrix(0.05,0,0,0.05,36.900000000000006,0)" xlink:href="#q"/></g><path fill="#3a414a" d="M205 0l-28-72H64L36 0H1l101-248h38L239 0h-34zm-38-99l-47-123c-12 45-31 82-46 123h93" id="r"/><path fill="#3a414a" d="M210-169c-67 3-38 105-44 169h-31v-121c0-29-5-50-35-48C34-165 62-65 56 0H25l-1-190h30c1 10-1 24 2 32 10-44 99-50 107 0 11-21 27-35 58-36 85-2 47 119 55 194h-31v-121c0-29-5-49-35-48" id="s"/><path fill="#3a414a" d="M141-36C126-15 110 5 73 4 37 3 15-17 15-53c-1-64 63-63 125-63 3-35-9-54-41-54-24 1-41 7-42 31l-33-3c5-37 33-52 76-52 45 0 72 20 72 64v82c-1 20 7 32 28 27v20c-31 9-61-2-59-35zM48-53c0 20 12 33 32 33 41-3 63-29 60-74-43 2-92-5-92 41" id="t"/><path fill="#3a414a" d="M9 0v-24l116-142H16v-24h144v24L44-24h123V0H9" id="u"/><path fill="#3a414a" d="M100-194c62-1 85 37 85 99 1 63-27 99-86 99S16-35 15-95c0-66 28-99 85-99zM99-20c44 1 53-31 53-75 0-43-8-75-51-75s-53 32-53 75 10 74 51 75" id="v"/><path fill="#3a414a" d="M117-194c89-4 53 116 60 194h-32v-121c0-31-8-49-39-48C34-167 62-67 57 0H25l-1-190h30c1 10-1 24 2 32 11-22 29-35 61-36" id="w"/><g id="c"><use transform="matrix(0.06172839506172839,0,0,0.06172839506172839,0,0)" xlink:href="#r"/><use transform="matrix(0.06172839506172839,0,0,0.06172839506172839,14.814814814814813,0)" xlink:href="#s"/><use transform="matrix(0.06172839506172839,0,0,0.06172839506172839,33.2716049382716,0)" xlink:href="#t"/><use transform="matrix(0.06172839506172839,0,0,0.06172839506172839,45.61728395061728,0)" xlink:href="#u"/><use transform="matrix(0.06172839506172839,0,0,0.06172839506172839,56.72839506172839,0)" xlink:href="#v"/><use transform="matrix(0.06172839506172839,0,0,0.06172839506172839,69.07407407407408,0)" xlink:href="#w"/></g><path fill="#3a414a" d="M185-189c-5-48-123-54-124 2 14 75 158 14 163 119 3 78-121 87-175 55-17-10-28-26-33-46l33-7c5 56 141 63 141-1 0-78-155-14-162-118-5-82 145-84 179-34 5 7 8 16 11 25" id="x"/><path fill="#3a414a" d="M126-127c33 6 58 20 58 59 0 88-139 92-164 29-3-8-5-16-6-25l32-3c6 27 21 44 54 44 32 0 52-15 52-46 0-38-36-46-79-43v-28c39 1 72-4 72-42 0-27-17-43-46-43-28 0-47 15-49 41l-32-3c6-42 35-63 81-64 48-1 79 21 79 65 0 36-21 52-52 59" id="y"/><g id="d"><use transform="matrix(0.06172839506172839,0,0,0.06172839506172839,0,0)" xlink:href="#x"/><use transform="matrix(0.06172839506172839,0,0,0.06172839506172839,14.814814814814813,0)" xlink:href="#y"/></g><g id="e"><use transform="matrix(0.06172839506172839,0,0,0.06172839506172839,0,0)" xlink:href="#r"/><use transform="matrix(0.06172839506172839,0,0,0.06172839506172839,14.814814814814813,0)" xlink:href="#s"/><use transform="matrix(0.06172839506172839,0,0,0.06172839506172839,33.2716049382716,0)" xlink:href="#t"/><use transform="matrix(0.06172839506172839,0,0,0.06172839506172839,45.61728395061728,0)" xlink:href="#u"/><use transform="matrix(0.06172839506172839,0,0,0.06172839506172839,56.72839506172839,0)" xlink:href="#v"/><use transform="matrix(0.06172839506172839,0,0,0.06172839506172839,69.07407407407408,0)" xlink:href="#w"/></g><path fill="#3a414a" d="M30-248c118-7 216 8 213 122C240-48 200 0 122 0H30v-248zM63-27c89 8 146-16 146-99s-60-101-146-95v194" id="z"/><path fill="#3a414a" d="M179-190L93 31C79 59 56 82 12 73V49c39 6 53-20 64-50L1-190h34L92-34l54-156h33" id="A"/><path fill="#3a414a" d="M160-131c35 5 61 23 61 61C221 17 115-2 30 0v-248c76 3 177-17 177 60 0 33-19 50-47 57zm-97-11c50-1 110 9 110-42 0-47-63-36-110-37v79zm0 115c55-2 124 14 124-45 0-56-70-42-124-44v89" id="B"/><g id="f"><use transform="matrix(0.06172839506172839,0,0,0.06172839506172839,0,0)" xlink:href="#z"/><use transform="matrix(0.06172839506172839,0,0,0.06172839506172839,15.987654320987653,0)" xlink:href="#A"/><use transform="matrix(0.06172839506172839,0,0,0.06172839506172839,27.098765432098766,0)" xlink:href="#w"/><use transform="matrix(0.06172839506172839,0,0,0.06172839506172839,39.44444444444444,0)" xlink:href="#t"/><use transform="matrix(0.06172839506172839,0,0,0.06172839506172839,51.79012345679012,0)" xlink:href="#s"/><use transform="matrix(0.06172839506172839,0,0,0.06172839506172839,70.24691358024691,0)" xlink:href="#v"/><use transform="matrix(0.06172839506172839,0,0,0.06172839506172839,82.5925925925926,0)" xlink:href="#z"/><use transform="matrix(0.06172839506172839,0,0,0.06172839506172839,98.58024691358025,0)" xlink:href="#B"/></g><path fill="#3a414a" d="M100-194c63 0 86 42 84 106H49c0 40 14 67 53 68 26 1 43-12 49-29l28 8c-11 28-37 45-77 45C44 4 14-33 15-96c1-61 26-98 85-98zm52 81c6-60-76-77-97-28-3 7-6 17-6 28h103" id="C"/><path fill="#3a414a" d="M135-143c-3-34-86-38-87 0 15 53 115 12 119 90S17 21 10-45l28-5c4 36 97 45 98 0-10-56-113-15-118-90-4-57 82-63 122-42 12 7 21 19 24 35" id="D"/><path fill="#3a414a" d="M177-190C167-65 218 103 67 71c-23-6-38-20-44-43l32-5c15 47 100 32 89-28v-30C133-14 115 1 83 1 29 1 15-40 15-95c0-56 16-97 71-98 29-1 48 16 59 35 1-10 0-23 2-32h30zM94-22c36 0 50-32 50-73 0-42-14-75-50-75-39 0-46 34-46 75s6 73 46 73" id="E"/><g id="g"><use transform="matrix(0.06172839506172839,0,0,0.06172839506172839,0,0)" xlink:href="#s"/><use transform="matrix(0.06172839506172839,0,0,0.06172839506172839,18.456790123456788,0)" xlink:href="#C"/><use transform="matrix(0.06172839506172839,0,0,0.06172839506172839,30.80246913580247,0)" xlink:href="#D"/><use transform="matrix(0.06172839506172839,0,0,0.06172839506172839,41.91358024691358,0)" xlink:href="#D"/><use transform="matrix(0.06172839506172839,0,0,0.06172839506172839,53.0246913580247,0)" xlink:href="#t"/><use transform="matrix(0.06172839506172839,0,0,0.06172839506172839,65.37037037037038,0)" xlink:href="#E"/><use transform="matrix(0.06172839506172839,0,0,0.06172839506172839,77.71604938271606,0)" xlink:href="#C"/><use transform="matrix(0.06172839506172839,0,0,0.06172839506172839,90.06172839506175,0)" xlink:href="#D"/></g><path fill="#3a414a" d="M84 4C-5 8 30-112 23-190h32v120c0 31 7 50 39 49 72-2 45-101 50-169h31l1 190h-30c-1-10 1-25-2-33-11 22-28 36-60 37" id="F"/><path fill="#3a414a" d="M114-163C36-179 61-72 57 0H25l-1-190h30c1 12-1 29 2 39 6-27 23-49 58-41v29" id="G"/><g id="h"><use transform="matrix(0.06172839506172839,0,0,0.06172839506172839,0,0)" xlink:href="#F"/><use transform="matrix(0.06172839506172839,0,0,0.06172839506172839,12.345679012345679,0)" xlink:href="#D"/><use transform="matrix(0.06172839506172839,0,0,0.06172839506172839,23.45679012345679,0)" xlink:href="#C"/><use transform="matrix(0.06172839506172839,0,0,0.06172839506172839,35.80246913580247,0)" xlink:href="#G"/><use transform="matrix(0.06172839506172839,0,0,0.06172839506172839,43.148148148148145,0)" xlink:href="#D"/></g><path fill="#3a414a" d="M24-231v-30h32v30H24zM24 0v-190h32V0H24" id="H"/><g id="i"><use transform="matrix(0.06172839506172839,0,0,0.06172839506172839,0,0)" xlink:href="#H"/><use transform="matrix(0.06172839506172839,0,0,0.06172839506172839,4.876543209876543,0)" xlink:href="#s"/><use transform="matrix(0.06172839506172839,0,0,0.06172839506172839,23.33333333333333,0)" xlink:href="#t"/><use transform="matrix(0.06172839506172839,0,0,0.06172839506172839,35.679012345679006,0)" xlink:href="#E"/><use transform="matrix(0.06172839506172839,0,0,0.06172839506172839,48.02469135802468,0)" xlink:href="#C"/><use transform="matrix(0.06172839506172839,0,0,0.06172839506172839,60.37037037037036,0)" xlink:href="#D"/></g></defs></g></svg>